<svg xmlns="http://www.w3.org/2000/svg" xmlns:xlink="http://www.w3.org/1999/xlink" width="2000" height="3000"><defs><linearGradient id="b"><stop offset="0" stop-color="#009633"/><stop offset="1" stop-color="#063"/></linearGradient><linearGradient id="c"><stop offset="0" stop-color="#fff"/><stop offset="1" stop-color="#54deff"/></linearGradient><linearGradient id="a"><stop offset="0" stop-color="#fff"/><stop offset=".5" stop-color="#d4c37f" stop-opacity=".498"/><stop offset="1" stop-color="#a80" stop-opacity="0"/></linearGradient><linearGradient xlink:href="#a" id="e" x1="-45.755" y1="296.36" x2="1051.261" y2="296.36" gradientUnits="userSpaceOnUse" gradientTransform="matrix(2.20553 0 0 4.36834 96.827 -850.192)"/><radialGradient xlink:href="#b" id="f" cx="502.638" cy="609.739" fx="502.638" fy="609.739" r="564.019" gradientTransform="matrix(1.89245 0 0 1.44682 23.77 -878.556)" gradientUnits="userSpaceOnUse"/><radialGradient xlink:href="#c" id="d" cx="-298.481" cy="496.389" fx="-298.481" fy="496.389" r="450.22" gradientTransform="matrix(2.68801 0 0 3.48189 2007.982 -1283.964)" gradientUnits="userSpaceOnUse"/></defs><path transform="rotate(-90 1116 1116)" opacity=".99" fill="url(#d)" stroke="url(#e)" stroke-width="3.104" d="M-2.984-1121.655h2417.292v3132.124H-2.984z"/><path d="M2034.703 798.256l-2115.538 8.805c.093 10.454-17.992-1181.033 5.165-1257.829 36.139-34.884 73.208-52.567 109.79-77.552 27.766-13.492 55.406-33.17 83.407-37.341 41.705-19.694 83.675-18.63 125.694-28.424 57.153-1.057 114.169 18.647 171.241 12.998l38.473-3.809c56.014-5.544 112.052-12.607 167.965-25.802 73.877-21.14 147.167-61.05 220.915-88.083 85.854-32.796 171.467-78.613 257.848-85.196 112.898-22.756 226.008-14.243 339.013-14.738 82.719-2.55 165.479 12.485 247.55 53.007 60.833 25.795 121.073 71.216 182.107 91.534l161.64 63.75c13.793 395.92 4.136 937.003 4.73 1388.68z" fill="url(#f)" stroke="#244c26" stroke-width="15.705" stroke-dashoffset="2.08" transform="translate(0 2232)"/><path d="M837.767 1576.822c-.062-.756.84.561 0 0z"/><path d="M849.516 1576.906c-1.68-.028-3.362-.16-5.027-.215-2.187-.018-4.366-.274-6.556-.233-3.322.021-6.64-.137-9.96-.23-2.628.091-5.238-.353-7.857-.516-1.371-.195-2.756-.213-4.134-.388-2.329.084-4.594-.585-6.915-.604-2.312-.41-4.69-.4-6.97-1.014-1.406-.37-2.883-.644-4.066-1.542-1.087-.688-2.02-1.583-2.985-2.415-1.59-.471-.668-2.805.76-2.187.444.338 1.651 2.275 1.704.873-.181-1.533.029-3.078.019-4.608.23-.5.063-2.11-.474-.887-.855 1.457-1.775 2.92-2.98 4.114-.875 1.019-1.926.002-1.412-1.072.06-1.118-.527 1.248-.169 1.76.12 1.448.416 3.054-.339 4.382-1.058.566-.746-1.094-.51-1.619-.022-1.749-.82-3.571.002-5.262.84-1.159 1.808-2.334 1.759-3.876.372-1.524.627-3.095 1.021-4.612.496-1.863 1.108-3.689 1.667-5.537.653-2.092 1.35-4.168 2.157-6.204.389-1.527 1.17-2.927 1.709-4.408 1.197-2.894 1.923-5.977 3.408-8.753 1.207-2.418 2.43-4.84 3.898-7.11.337-1.147 1.027-2.078 1.615-3.1.518-1.237 1.34-2.345 2.023-3.461.43-.903.919-1.803 1.544-2.562.858-1.326 1.617-2.722 2.583-3.98.488-.943 1.327-1.486 1.71-2.475.744-.88 1.324-1.882 2.056-2.79.754-.844 1.329-1.752 2.053-2.641.735-.725 1.042-1.693 1.58-2.562 1.179-2.05 2.603-4.069 4.703-5.257 1.347-.777 1.824-2.373 2.839-3.478.753-.9 1.29-1.967 2.093-2.819.787-.434 1.808.448 2.272-.742 1.35-1.482 2.706-2.952 4.178-4.318.909-.705 1.562-2 2.782-2.142.714.096.86 1.23 1.535.328 1.087-.95 2.257-1.804 3.4-2.69 1.17-.96 2.4-1.84 3.638-2.706.862-.511 1.614-1.363 2.623-1.535 1.225.542.655 1.991-.357 2.455-.434.039-1.903.792-1.013 1.331 1.332.54-.002 1.918-.526 2.165-.665.53-.975 1.104-1.846 1.556-1.192.817-1.54 2.295-2.78 3.09-.509.597-2.154 1.461-.668 1.842 1.392.514 2.63 1.336 3.987 1.926.939.572 1.919 1.076 2.897 1.562 1.194.572 2.435 1.04 3.59 1.693 1.396.54 2.672 1.352 4.104 1.794a102.392 102.392 0 0 1 8.579 4.115c1.325.548 2.486 1.388 3.832 1.908 1.491.965 3.069 1.78 4.69 2.5 1.208.706 2.41 1.416 3.7 1.964 2.339 1.122 4.485 2.597 6.784 3.784 1.362.946 2.907 1.586 4.2 2.636 1.194.755 2.217 1.74 3.467 2.406a35.632 35.632 0 0 1 3.856 2.629c1.349.996 2.676 2.015 4.1 2.903 1.962 1.54 3.734 3.382 5.99 4.503 1.238.615 2.33 1.45 3.471 2.21 1.314 1.137 2.537 2.374 3.906 3.449 1.319 1.144 2.596 2.324 3.93 3.45 1.474 1.365 2.808 2.891 4.089 4.442.493.992 1.145 1.928 1.445 2.984.558.996.834 2.055 1.355 3.05.426 1.18 1.016 2.52.165 3.675-.69 1.318-1.705 2.403-2.834 3.354-1.858 1.676-3.87 3.17-5.922 4.598-1.48 1.184-3.07 2.22-4.572 3.376-2.758 1.874-5.688 3.474-8.589 5.1-2.543 1.3-4.994 2.783-7.618 3.92-4.031 1.828-8.37 2.791-12.64 3.88-2.27.521-4.546 1.013-6.83 1.47-1.17.197-2.267.615-3.457.745-1.38.43-2.85.538-4.237.95-1.486.04-2.931.432-4.414.415-1.96-.076-3.888.421-5.852.33-3.065.242-6.14.449-9.177.948-.593.037-1.19.05-1.782-.015z" fill="#a40"/><path d="M852.94 1575.184c1.723-.35 3.498-.347 5.244-.533 2.321-.191 4.65-.262 6.961-.53 1.832-.044 3.664-.127 5.473-.434 2.56-.438 5.102-1 7.64-1.557 2.815-.532 5.594-1.226 8.407-1.774 1.073-.386 2.203-.46 3.27-.89 1.52-.295 2.978-.811 4.445-1.284 1.341-.339 2.602-.932 3.891-1.427 1.411-.728 2.898-1.3 4.263-2.117a823.085 823.085 0 0 0 7.201-3.842c1.034-.699 2.192-1.23 3.175-1.986 1.222-.639 2.267-1.568 3.409-2.336 2.309-1.672 4.718-3.228 6.896-5.07.974-.854 1.936-1.726 2.574-2.871.85-1.105.47-2.458-.074-3.588-1.028-2.395-1.76-5.036-3.71-6.885a28.914 28.914 0 0 0-2.792-3.052c-2.063-1.738-4.038-3.576-6.088-5.33-1.023-1.075-2.26-1.932-3.526-2.687-1.276-1.044-2.988-1.421-4.106-2.682-1.307-.962-2.53-2.033-3.798-3.045-1.287-.701-2.326-1.752-3.577-2.515-1.212-1.047-2.583-1.87-3.937-2.717-1.211-.796-2.27-1.803-3.546-2.502-1.629-1.104-3.288-2.17-5.04-3.072-1.916-1.188-3.844-2.368-5.882-3.348-1.742-.849-3.428-1.805-5.145-2.696-1.537-.726-3.012-1.576-4.537-2.313-1.418-.842-2.976-1.42-4.408-2.241-1.598-.801-3.155-1.672-4.827-2.313-2.391-1.063-4.821-2.06-7.163-3.225-1.468-.51-2.766-1.391-4.183-2.022-2.154-1.015-4.122-2.78-6.627-2.759-.58.84-1.956 1.447-1.461 2.681-.524.174.41.655.641-.067.648-.77 1.136-2.716 2.411-1.613.367 1.395-1.323 2.2-1.986 3.219-1.715 1.561-3.592 3.004-4.85 4.99-1.062 1.525-2.222 3.01-3.257 4.529 1.092-.158 2.138 1.089 1.113 1.998-.623.364-.562 1.222.108.486a21.174 21.174 0 0 1 4-2.478c1.27-.805 2.673.985 1.04 1.571-1.189.416-1.148 1.886-2.063 2.494-1.467 1.3-2.804 2.725-4.223 4.075-.87 1.092-2.033 1.895-3.018 2.876-1.54 1.467-3.14 2.892-4.432 4.588-1.052 1.425-1.602 3.135-2.43 4.69a94.234 94.234 0 0 0-1.631 3.34c-.662 1.242-1.225 2.525-1.927 3.747-.532 1.126-1.059 2.259-1.672 3.344-.616 1.001-1.014 2.27-1.683 3.329-.677 1.36-1.249 2.77-2.013 4.087-.691 1.46-.866 3.092-1.449 4.592-.29 1.313-.474 2.65-.967 3.91-.216 1.04-.483 2.084-.71 3.147-.333.994-.462 1.999-.768 3.005-.43 2.061-1.085 4.067-1.709 6.075-.545 1.043-.598 2.576-1.773 3.139-1.413-.071-.998 2.006-1.475 2.934-.404.856-.195 2.746-1.664 2.392-.528-.918.196-2.251.037-3.346.06-1.27.164-2.523.27-3.79-.024-1.604-.904.907-1.395 1.341-1.05 1.461-1.946 3.109-3.496 4.11-.419.676-2.632.978-1.121 1.67 1.6 1.24 3.663 1.456 5.58 1.856 3.23.44 6.488.61 9.716 1.066 3.888.207 7.773.493 11.641.94 1.177.048 2.355.07 3.533.081 2.473-.028 4.96.254 7.441.116 3.044.07 6.087.163 9.12.42 2.02.015 4.034.19 6.05.241.202-.019.402-.063.59-.142z" fill="#ff7f2a"/><path d="M835.963 1569.675c-1.721-.024-2.325-2.15-1.916-3.55.413-2.208 1.6-4.329 3.378-5.717.982-.713 2.488-1.046 3.35.045 1.278 1.559 1.29 3.759.82 5.627-.26 1.282-.97 2.756-2.316 3.137-.532-1.038 1.05-2.217 1.013-3.435.197-1.402.23-3.253-1.073-4.14-1.286-.453-2.241.914-2.812 1.868-.58 1.06-1.083 2.28-.959 3.506.034 1.204 2.26.444 1.582 1.868-.225.392-.62.702-1.067.79zM851.014 1567.6c-1.365-.271-2.746-1.023-3.403-2.288-.442-1.251-.152-2.646.547-3.75.251-1.214 1.141-2.316 1.177-3.55-.91-.827-1.58-1.882-2.09-3.006a5.3 5.3 0 0 1-.637-3.747c.288-1.39 1.285-2.603 2.326-3.57.994-.922 2.272-1.55 3.565-1.959 1.322-.419 2.882-1.534 4.133-.46 1.453 1.058 1.524 3.05 1.514 4.689-.093 1.312-.184 2.665-.646 3.897.127 1.439 2.145.396 3.011 1.26 1.205.501 2.015 1.573 2.41 2.792a7.412 7.412 0 0 1-.157 4.727c-.49.963-1.357 1.734-2.263 2.299-2.055 1.362-4.515 1.858-6.85 2.515-.87.139-1.755.194-2.637.152z" fill="#a40"/><path d="M853.84 1565.733c2.468-.684 5.16-1.17 7.145-2.907 1.03-1.139.893-2.93.319-4.255-.485-1.159-1.624-1.836-2.817-2.063-1.012-.366-2.024-.298-2.44.82-.827 1.09-2.179 1.59-3.517 1.523-1.021-.186-2.401-.247-2.377 1.175 1.097.75-1.657 2.473-1.325 3.76.48 1.614 2.348 2.182 3.872 2.056a8.48 8.48 0 0 0 1.14-.109z" fill="#ff7f2a"/><path d="M853.815 1557.345c.703.165 2.125-1.4.657-1.005-.548.257-2.345.467-1.987 1.026.441.049.891.063 1.33-.021zM850.858 1556.549c1.291-1.017 2.819-1.908 4.507-1.891 1.361-.104 1.136-1.878 1.413-2.87.35-1.703.216-3.71-1.004-5.047-1.079-.919-2.376.114-3.443.579-1.451.631-3.06 1.474-3.767 2.89-.6 1.202-.462 2.765-.039 4.032.409 1.01 1.09 1.958 2.004 2.554.149-.026.21-.175.329-.247z" fill="#ff7f2a"/><path d="M823.827 1564.695c-1.298-.328-2.16-1.47-3.071-2.367-1.369-1.681-2.377-3.958-1.642-6.13.231-.676.867-2.288 1.629-1.816.021 1.12-.836 2.12-.523 3.278.336 2.009 1.62 3.77 3.19 5.013 1.384 1.133 2.452-.859 2.397-2.087.172-1.6-.322-3.171-1.117-4.545-.184-.513-2.028-2.18-1.408-.755.483 1.017 1.174 1.992 1.008 3.171.254.705-.411 2.055-.848.791-.37-1.302-1.173-2.392-1.615-3.661-.347-.965-.757-3.186.887-3.001 2.054.49 3.516 2.386 3.94 4.398.63 1.872.685 4.003-.267 5.781-.42 1.013-1.32 2.165-2.56 1.93z" fill="#a40"/><path d="M862.937 1562.945c.027-.275.198.264 0 0z"/><path d="M873.308 1562.948c-.235-1.256-.494-2.496-1.003-3.658-.153-1.687-.053-3.55.92-4.999.917-1.192 2.112-2.223 3.57-2.667 1.073-.573 2.373-.478 3.493-.223 1.595.826 2.636 2.499 2.773 4.279.26 1.503-.291 2.962-1.076 4.22-.774.659-1.355 1.787-2.546 1.66-1.348-.115-2.533.502-3.738.995-.763.277-1.576.483-2.393.393z" fill="#a40"/><path d="M876.078 1561.226c1.254-.507 2.53-1.147 3.888-1.228 1.12-.388 1.229-1.815 1.302-2.82-.078-1.084-.496-2.26-1.172-3.153-.436-.577-1.027-1.292-1.75-1.28-1.73.028-3.828 1.285-4.085 3.201-.268 1.151-.137 2.388.247 3.49.25.713.575 1.601 1.281 1.87.041.015.127-.032.127-.032z" fill="#ff7f2a"/><path d="M894.204 1559.063c-1.38-.418-2.752-.874-3.96-1.743-1.64-.97-3.098-2.796-2.82-4.793.433-1.815 1.836-3.156 3.188-4.343 1.614-1.277 3.664-1.819 5.67-2.096 1.58-.25 3.38-.569 4.797.176 1.353.713 2.066 2.31 2.736 3.685.538 1.105.993 2.327.975 3.556-.014.894-.409 1.755-.787 2.565-.281.601-.61 1.205-1.086 1.67-.799.78-1.806 1.366-2.852 1.76-1.285.203-2.625.274-3.886-.092-.728-.008-1.335-.152-1.975-.345z" fill="#803300"/><path d="M896.102 1558.118c.556.59 2.038.385 2.844.458 1.2-.44 1.824-1.908 2.36-2.897l1.608-1.986c.202-1.32-.377-2.745-1.168-3.528l-1.82-2.55c-.766-1.122-2.505-.627-3.631-.468-1.733.277-3.505.797-4.74 2.122-1.129 1.114-2.195 2.585-2.325 4.171-.03.37.176.735.376 1.047.214.337.54.592.852.843.815.656 1.651 1.364 2.634 1.71.385.15.737.429 1.164.459" fill="#ff7f2a"/><path d="M836.816 1558.297c-1.628-.365-3.446-.909-4.296-2.484-.454-.985-.734-2.23-.176-3.235.93-1.281.954 1.339 1.262 1.958.622.968 1.772 1.445 2.802 1.839 1.344.627 2.425-.417 1.984-1.76.229-.763-.952-2.386-1.092-.888.325.943-.718 2.805-1.515 1.401-.355-1.342.243-3.044 1.426-3.801 1.416-.664 2.487 1.038 2.593 2.26.205 1.59.058 3.637-1.457 4.546a2.01 2.01 0 0 1-1.531.164z" fill="#803300"/><path d="M827.983 1547.172c-.533-1.008-1.376-1.898-1.61-3.012-.21-.993-.073-2.068.232-3.037.231-.734.501-1.6 1.175-1.988.7-1.285 1.584-2.673 3.06-3.132 1.634-.146 2.76 1.394 3.437 2.68.663 1.582.747 3.379.517 5.057-.46 1.866-2.213 3.388-4.185 3.271-.942.223-2.038-1.1-2.238.276-.119.135-.324.004-.388-.115z" fill="#a40"/><path d="M831.975 1545.318c1.447-.473 1.741-2.22 1.48-3.533-.222-1.57-.782-3.387-2.308-4.139-1.326-.3-1.974 1.404-2.426 2.377-.327 1.234-1.08 2.704-.33 3.905.847 1.027 2.226 1.841 3.584 1.39z" fill="#f60"/><path d="M877.336 1545.851c-1.389-.238-2.78-.523-4.08-1.065-1.719-.874-2.76-2.826-2.623-4.736-.658-1.345 1.71-1.902 1.147-.188.202 1.77 1.51 3.4 3.259 3.851 1.868.578 3.892.693 5.8.25 1.797-.743 2.824-2.617 3.299-4.416.381-1.92.132-4.062-1.016-5.683-.548-.03-.828-1.505-1.836-1.534a9.627 9.627 0 0 0-3.77-.317c-1.465.029-2.722.858-3.934 1.583-2.433 1.584-4.16 4.371-4.154 7.313 1.129.726.54 2.512-.793 2.145-1.116-1.05-.814-2.757-.46-4.088.759-3.242 3.302-5.81 6.182-7.314.919-.506 1.96-.761 2.956-1.053 1.72-.218 3.541-.222 5.196.328 1.826.764 2.813 2.658 3.18 4.515.587 3.034-.518 6.247-2.584 8.5-1.273 1.147-2.925 1.87-4.654 1.85-.371.024-.743.04-1.115.06zM900.994 1544.136c.111-1.286-1.443-1.348-2.24-1.878a31.795 31.795 0 0 1-5.492-4.082c-.408-.376-.747-.82-1.096-1.25-.712-.88-1.462-1.744-2.03-2.72-.32-.87-.883-1.595-1.19-2.34.553-.784.615-1.817 1.052-2.667.422-.821.783-1.75 1.503-2.326.657-.525 1.548-.688 2.369-.871 2.232-.498 4.63-1.191 6.836-.59 1.195.327 2.268 1.178 3.028 2.157 1.138 1.463 1.944 3.31 2.007 5.186.114 1.167.295 2.328.391 3.498.635 1.212-.207 2.642-.37 3.876-.78.93-1.73 1.709-2.344 2.781-.532.815-1.49 1.385-2.424 1.226z" fill="#a40"/><path d="M897.992 1539.388c-.108-.233-.145.257 0 0z"/><path d="M897.17 1526.298c-1.171.047-2.025 1.181-3.058 1.734-.692.37-1.652.418-2.102 1.06-.598.853-.633 2.095-.37 3.103.232.89 1.073 1.496 1.624 2.233a249.54 249.54 0 0 0 2.061 2.687c1.355 1.28 4.433 3.964 5.906 4.082.537-.046 1.037.649 1.517.284.59-.794 1.39-1.475 1.272-2.626-.103-1.171-.109-2.352-.238-3.521.06-1.166.023-2.359-.322-3.467-.176-.565-.596-1.024-.87-1.55-.332-.633-.428-1.427-.938-1.93-1.175-1.156-2.835-2.154-4.483-2.089z" fill="#d45500"/><path d="M838.792 1541.757c-1.666-.523-2.45-2.252-3.054-3.742-.67-2.35-.498-5.242 1.307-7.058.87-.836 2.114-.523 3.155-.32 1.158-.044 2.156.634 2.896 1.462 1.433 1.846 1.232 4.481.391 6.538-.749 1.51-2 3.218-3.864 3.214-.28.002-.559-.03-.83-.094z" fill="#a40"/><path d="M840.394 1540.495c2.426-.89 3.178-4.102 2.138-6.293-.473-1.045-1.546-2.056-2.76-1.894-.78.733-.811 2.017-1.79 2.656-.648 1.018-1.11.046-.523-.644.09-.838.726-1.988.658-2.567-1.104.402-1.246 1.778-1.295 2.798-.134 2.115.401 4.597 2.338 5.775.373.202.82.282 1.234.169z" fill="#ff7f2a"/><path d="M862.07 1537.22c-1.816-.45-3.66-.7-5.507-.974-1.377-.27-2.666-1.057-3.607-2.09-1.304-1.592-.891-3.88.16-5.485 1.344-1.982 3.463-3.464 5.84-3.888 2.14-.638 4.588-.204 6.38 1.118 1.66 1.351 2.108 3.596 2.303 5.614.026 1.765-.091 3.953-1.683 5.06-1.197.689-2.53.84-3.887.646z" fill="#803300"/><path d="M864.93 1535.533c1.489-.899 1.282-2.904 1.052-4.382-.264-1.84-1.167-3.905-3.082-4.508-1.63-.72-3.48-.607-5.127-.013-1.343.406-2.602 1.203-3.295 2.455-.845 1.236-1.27 3.217.042 4.299.856.93 2.093 1.113 3.24 1.44 1.108.693 2.35-.53 3.356.316.867.807 2.395.435 3.538.446a1.62 1.62 0 0 0 .276-.053z" fill="#d45500"/><path d="M831.027 1529.173c-1.245-.352-2.063-1.587-2.139-2.842-.498-1.332-.888-2.837-.04-4.131.608-1.276 1.507-2.453 2.825-3.043 1.116-.665 2.447-1.17 3.749-.76 1.128.035 1.616 1.208 1.763 2.161.471 2.01-.75 3.82-1.733 5.457-1.01 1.538-2.46 3.073-4.425 3.158z" fill="#a40"/><path d="M831.967 1527.494c1.496-.54 2.273-2.058 3.06-3.329.56-1.134 1.221-2.666.184-3.743-.768-.745-2.96-.75-2.99.598.14.826 1.68-.212 1.268 1.026-.371 1.251-.846 2.504-.744 3.824-.142 1.083-1.432 1.258-1.953.523-.637.544.708 1.398 1.175 1.1z" fill="#ff7f2a"/><path d="M831.195 1525.006c.266-.791.22-2.856-.685-2.776-.625.894-.686 2.712.658 2.852z" fill="#ff7f2a"/><path d="M843.141 1525.557c-.94-.305-1.826-.951-2.375-1.773-.573-.859-1.171-2.079-.76-3.003.44-1.075.185-2.49 1.01-3.285.59-.57 1.56-.7 2.378-.635 1.9.151 4.182.607 5.22 2.334.934 1.28 1.312 3.218.166 4.5-.972 1.265-2.668 1.56-4.143 1.844-.495.061-1.021.173-1.496.018z" fill="#a40"/><path d="M845.288 1523.974c1.105-.138 2.967-.796 2.657-2.178-.42-1.22-1.325-2.281-2.384-3-1.082-.78-3.168-.778-3.248.932-.072 1.416.339 3.017 1.44 3.977a1.733 1.733 0 0 0 1.535.27z" fill="#d45500"/><path d="M855.785 1519.31c-1.087-.494-1.7-1.622-2.303-2.593-.162-.684-.943-.768-1.303-.186-.541-1.283.094-2.639.354-3.89-.285-.72-1.116-2.105.319-1.869 1.004-.703 1.812-1.84 3.194-1.826 2.106-.265 3.916 1.899 3.637 3.926-.004 2.233-.455 4.88-2.525 6.137-.407.245-.896.404-1.373.3z" fill="#a40"/><path d="M857.289 1517.326c.792-.94-.066-.723-.635-.233-1.264.547.396 1.209.635.233zM855.985 1516.002c1.403-.705 2.2-2.408 1.655-3.917-.27-1.45-1.888-1.686-2.638-.449-1.246 1.05-.556 2.667-.157 3.94.165.48.723.804 1.14.426z" fill="#ff7f2a"/><path d="M794.57 1563.441c-.497-.193-.132.602 0 0zM814.53 1544.107c-.072-.304.1.065-.028.09zM794.64 1567.274c-.011-.332.435.365 0 0zM794.355 1554.09c-.347-.456.148-.267 0 0z"/><g><path d="M1368.382 1366.47c-4.663 27.694-32.649 45.657-47.519 69.573-5.437 11.452-18.005 21.679-25.193 29.727l-4.72 29.928c1.782 10.933-9.645 21.354 7.155 20.98-6.732 9.89-3.977 25.328-10.76 33.47-13.23 7.09-3.578-19.01-16.197-3.2-8.357 2.841-28.816 34.131-27.118 12.27 4.95-12.362 26.566-15.596 20.052-26.93 10.56-4.765-1.014-15.512 12.63-19.045 2.534-13.962 4.323-28.59 5.036-42.496-17.971-.948-36.05-2.321-54.071-3.13-4.683 10.849.456 12.882 9.791 13.697-13.555 8.47-3.46 29.621 2.42 40.86 1.192 16.866-18.787.814-17.277-10.292 1.007-11.91-9.984-21.437-5.055-5.046 13.295 10.554-8.266 32.765-8.197 11.191-4.43-10.337-4.26-28.513-15.91-11.843-7.523 6.255-33.97 26.27-34.483 9.736 13.262-13.794 29.319-25.947 47.348-32.503 13.406 3.626 13.28-24.77-2.397-16.597-7.663-.967-10.895-12.057-18.318-14.19-12.098-3.481-23.181-35.782-8.314-34.847 2.037-18.892-1.522-39.394-3.977-58.736-3.323-19.681 7.382-38.387 26.014-45.28 18.737-7.91-13.633-26.471-16.255-6.237-14.749 9.43-34.936 6.322-49.155-.624-16.826-14.459 5.026-30.006 17.738-36.437 9.2-9.146 35.1 4.11 35.367-9.697-4.43-20.038-13.084-15.852-1.037-33.311 3.597-5.215 6.386-13.316 12.663-14.171 21.103-2.874 40.262 11.079 57.69 22.747 13.199 9.942 37.657 17.013 36.135 36.678-.128 12.526-14.836 31.434-.72 27.075 17.296 4.83 34.47 11.079 49.986 20.126 6.576 3.834 13.674 7.874 17.857 14.234 6.134 9.328 10.645 21.31 8.791 32.32z"/><path d="M1137.067 1295.378c3.257 13.93 40.367 15.548 31.666.264 4.144-6.148 13.257 4.29 21.245-5.26 12.3-5.486-3.617-23.571-14.65-15.67-13.995-7.253-35.31 6.32-38.261 20.666zM1196.995 1265.536l6.187 19.254c9.537-4.307 34.086-.777 16.954 8.363-20.286-7.511-4.609 23.683 7.211 9.669 14.55-3.727 29.692-4.57 44.374-5.574 6.574-11.456 17.282-27.528 3.082-38.041-16.72-12.661-35.478-22.622-53.816-32.627-18.053-6.448-30.11-5.942-27.436 17.717l1.533 7.742" fill="#333"/><path d="M1199.863 1244.87c10.895-15.195 22.135 14.969 3.404 15.588M1229.11 1245.575c8.437-2.931 33.836 1.037 13.472 8.046-13.738 5.632-19.748 3.093-13.471-8.046z"/><path d="M1184.17 1351.269c.375 22.812 6.342 45.234 3.614 68.147-7.992 19.008 21.685 22.787 29.708 23.21-2.162-9.864 6.832-30.352 12.55-13.218-2.81 10.525.588 13.957 5.616 18.47-20.149 9.016 16.579 6.011 23.712 6.49 13.017.342 24.253-2.792 29.894-11.746 14.594 10.45 22.131-16.405 32.023-24.48 9.213-11.81 14.896-22.19 25.072-32.977 10.174-12.042 16.23-27.289 5.68-40.43-3.603-19.796-29.302-24.497-45.132-31.857-18.254-7.692-37.055-8.114-47.753 10.902-8.109 11.986-18.499 29.98-31.037 10.777-9.223-9.263-17.297-24.376-30.032-8.405-11.065 3.729-11.974 15.306-13.915 25.117z" fill="#333"/><path d="M1224.937 1318.515c5.991 2.47 14.465 21.556 21.572 4.472 6.044-7.007 24.771-21.75 3.094-15.142-3.84 2.489-34.39 1.963-24.666 10.67z" fill="#333"/><path d="M1242.743 1312.35c1.388 1.636-1.904.109 0 0zM1189.411 1444.477c5.755 3.456 33.038 8.476 13.5 2.062-1.363.222-16.06-5.969-13.5-2.062z" fill="#333"/><path d="M1200.41 1457.231c5.7-.162-8.272-1.342 0 0z" fill="#666"/></g><g><path d="M506.476 1363.44c-3.166-3.07-4.213-7.76-6.242-11.595-1.585-3.615-3.252-7.332-4.703-10.917-5.065-11.897-9.768-24.159-13.398-36.653-3.589-11.342-5.836-23.135-7.83-34.874-1.075-8.38-2.575-16.762-2.302-25.242-7.728-3.24-14.99-7.502-22.231-11.621-4.263 2.994-4.176 9.32-8.139 12.166-1.738 1.248-4.07 1.44-6.196 1.679-4.074.457-8.668.239-12.287-.506-10.035-.486-20.013.622-29.938 1.957-2.446.402-11.117 1.424-8.259-2.293 7.231-.132 14.422-1.507 21.605-2.35 9.546-.805 19.166.158 28.692-.755 5.741.428 7.51-5.54 10.638-9.095 3.883-4.172-5.823-5.841-7.83-9.34-3.068-3.273-7.74-5.611-8.766-10.295-1.083-4.106.268-9.7.546-13.057-14.007 7.073-29.515 11.634-42.026 21.49-7.943 5.484-14.426 12.785-21.568 19.128-3.157 3.718-4.729-2.677-1.175-2.435 5.14-3.997 9.286-9.283 14.445-13.164 9.783-9.18 21.782-15.625 34.17-20.623 5.902-2.658 11.888-5.151 17.517-8.357 3.081-7.569 7.513-14.53 13.297-20.353 9.07-10.024 19.876-18.137 30.569-26.309 13.25-9.858 27.238-18.979 42.598-25.257-2.935-2.168-9.23-3.776-13.705-4.738-12.732-2.58-25.812.063-38.276 2.9-7.573 1.573-14.957 4.01-22.574 5.337-8.221.927 7.018-10.084 2.804-3.45 5.086-.402 9.912-2.651 14.999-3.368 9.856-2.358 19.834-4.473 29.97-5.071 8.802-.52 17.536 1.277 25.726 4.424 4.366 2.417 8.716 1.603 13.13-.312 16.19-4.85 33.181-5.372 49.903-6.764 5.83-.54 11.691-.759 17.533-1.013-8.457-5.902-17.192-11.487-24.862-18.432-6.734 1.227 2.118-6.252 3.777-1.055 8.224 7.36 17.68 13.056 26.572 19.51 5.781 1.042 11.81 1.28 17.508 2.965 12.765 3.864 25.077 8.973 37.689 13.239 9.1 3.199 17.9 7.178 26.852 10.759 3.183-3.589 5.825-7.89 8.88-11.685 9.57-13.45 22.21-24.41 35.937-33.482 2.711-1.332 8.375-7.1 10.045-3.348-4.158 2.773-8.57 5.339-12.593 8.404-13.008 8.784-24.36 20.025-33.4 32.85-.717 3.09-9.342 8.024-3.913 9.516 9.561 4.17 18.7 9.765 25.726 17.587 6.643 6.61 11.499 14.815 15.015 23.437 3.368 6.834 6.638 13.938 8.646 21.36 2.343 1.89 7.765-2.527 11.233-2.822 12.944-4.47 26.369-7.346 39.88-9.48 8.045-1.327 16.04-3.277 24.18-3.82 2.197 3.788-6.388 2.71-8.96 3.734-18.493 3.312-37.226 5.922-55.06 12.077-3.096 2.054-11.383 1.2-10.17 6.256 1.4 10.745-4.324 21.34-12.72 27.804-9.865 7.76-21.963 12.073-33.846 15.712 1.811 2.027 8.88 2.812 12.587 4.662 18.065 5.984 34.366 16.54 53.061 20.744 10.337 2.553 20.825 5.009 31.55 4.932-.373-1.99-3.588-10.14 0-7.755 1.636 3.715 6.342 12.44-1.656 11.124-10.827-.082-21.4-2.8-31.888-5.214-12.502-3.177-24.075-8.846-35.683-14.236-11.087-5.133-22.712-9.173-34.466-12.37-15.04 4.017-30.357 6.842-45.698 9.421.514 6.706 2.638 13.226 4.638 19.628 4.145 10.61 8.413 21.214 14.075 31.109 1.333 2.98 5.694 8.344 5.913 2.093 4.584 2.895-2.988 9.808-5.601 3.679-6.914-9.886-11.207-21.308-15.83-32.351-2.667-7.122-4.828-14.455-6.066-21.989-2.01-3.61-8.877.312-12.864-.343-13.435 1.168-26.988 1.054-40.433.088a133.696 133.696 0 0 1-20.129 1.203c-.129 3.85.01 7.738 1.813 11.235 1.971 5.744 4.56 11.296 8.268 16.174 8.781 12.638 21.682 21.548 33.716 30.83a34.37 34.37 0 0 0 7.596 5.756c2.784 2.184-.766 6.273-2.864 2.331-4.913-4.718-10.359-8.824-15.844-12.837-2.7-1.197-5.977-5.237-9.204-7.353-10.437-8.763-19.654-19.637-23.948-32.745-2.007-4.257-2.96-8.94-2.668-13.653-15.557-1.816-30.253-7.506-45.441-10.984-13.893-3.785-28.277-6.022-41.656-11.531-.665 4.875.455 10.024.958 14.946.97 7.89 2.316 15.766 3.869 23.573 1.588 6.974 3.278 13.917 5.248 20.725 2.1 6.314 4.077 12.683 6.51 18.907 4.32 11.488 8.914 22.832 14.388 33.84 1.67 5.347 2.033-3.367 3.034-1.562 1.955 1.09.062 7.565-2.398 7.563z" fill="#d4aa00"/><path d="M586.511 1264.104c7.886-1.28 15.885-3.196 23.252-6.018 5.41-1.16 10.332-3.796 15.525-5.633 3.343-2.605 10.551-2.483 10.933-7.276-.326-3.423 1.995.096 2.59.773.553.63.274 1.653.403 2.48.746 4.765.075 11.269 2.153 14.308 14.39-2.218 28.769-4.905 42.815-8.699-3.287-.41-5.369-5.244-.84-4.216 3.697 3.981 8.818 2.708 13.27.762 13.192-4.21 26.973-9.746 35.647-21.07 3.916-5.392 6.132-12.235 5.216-18.994-.772-3.69-6.807 1.506-9.77 1.5-1.983 1.792-7.482-.077-3.136-1.601 3.656-1.514 10.967-1.614 11.872-5.427-3.254-10.407-8.05-20.246-12.7-30.083-7.12-12.463-17.999-23.027-31.198-28.869-3.792-2.514-8.096-4.516-10.53.648-.895 2.871-7.23 3.704-3.718.134 1.725-1.691 7.464-5.565 2.11-6.241-12.285-5.436-24.923-10.011-37.609-14.391-11.41-4.193-22.712-9.271-34.943-10.434.73 2.116 6.728 5.22 9.281 8.02 4.007 3.371 7.89 7.086 11.343 10.707-1.12 5.757-5.712-2.235-8.168-3.488-6.13-5.929-12.846-11.195-19.906-15.967-15.552-.292-30.99 1.84-46.474 2.943-9.394 1.067-18.873 2.573-27.775 5.845 3.863 1.054 9.126 4.688 12.242.201 2.06-3.372 5.798-.803 2.102 1.541-2.88 2.99-6.828 4.751-10.788 2.536-4.622-1.5-9.462-3.593-13.857-.279-14.651 6.508-28.174 15.32-40.898 25.015-12.587 9.56-25.26 19.47-34.76 32.235-1.883 2.853-4.822 7.135-5.143 9.647 6.116-3.503 12.297-6.987 18.281-10.676 4.574-2.884 6.91-7.859 9.99-12.09 4.975-2.763-.235 5.157-1.76 6.616-4.147 7.963-13.165 10.817-20.086 15.655-3.416 2.602-9.61 3.26-9.347 8.67-1.47 5.53-1.436 12.288 3.87 15.772a72.306 72.306 0 0 0 13.179 10.327c1.736-2.574 5.049-4.993 5.98-7.632-.809-3.164-.505-6.482-4.112-7.932-3.816-3.212-8.615-6.093-10.495-10.899-1.343-4.071 5.123-4.135 2.337-.188 2.517 5.128 7.708 8.267 12.121 11.59 2.201-1.245 2.337 4.118 5.189 4.61 4.63 4.05 8.895 8.476 13.773 12.21 2.783-.767 2.91 4.041 6.137 4.602 9.541 6.597 20.477 10.86 31.306 14.78 18.734 6.005 38.11 10.009 57.642 12.54 5.792.483 11.626 1.986 17.454 1.436zM570.34 1265.378c-1.943-.813-8.09-.34-3.232-.01 1.076-.103 2.176.271 3.233.01z" fill="#fd5"/><path d="M611.609 1265.222c8.744-.06 17.551-.695 26.155-2.115-1.422-3.604.281-11.203-2.536-12.741-12.594 6.374-25.959 11.107-39.594 14.632 5.198.513 10.68.28 15.975.224zM562.732 1264.838c-2.99-1.89-9.793-1.457-14.094-2.956-1.895-.21-8.45-1.75-7.921-1.24 6.966 2.05 14.11 3.649 21.322 4.478z" fill="#fd5"/><g fill="#a0892c"><path d="M551.47 1222.214c-17.255-1.52-33-13.114-40.639-27.894-2.724-9.267 8.107-6.885 6.986.957 6.625 9.421 16.78 17.174 28.122 20.582 12.234 1.621 25.749 2.736 37.264-2.071 14.434-7.117 27.12-19.024 30.362-34.902 8.302 1.042-.434 18.108-5.642 22.292-11.338 12.662-27.694 22.977-45.737 21.086-3.571 0-7.145.046-10.715-.05z"/><path d="M555.82 1183.163c-9.312-6.19 3.127-13.114 4.658-2.873-.34 1.91-2.649 3.745-4.659 2.873zM524.514 1167.473c-4.807-10.607 15.396-2.08 0 0zM580.095 1154.133c-3.126-7.594 12.061-5.828 4.357.471-1.17.433-3.628 1.232-4.357-.471z"/></g><path d="M511.938 1253.037c-12.418-4.496-24.962-9.377-35.58-17.4-2.198-.567-2.878 8.189.948 7.99 11.164 4.379 23.013 6.619 34.6 9.508zM472.158 1240.104c.161-3.966 2.164-8.097-2.7-9.998-3.868-3.63-7.775-7.222-11.696-10.787 2.84 4.538-3.885 6.64-5.605 10.205-.422 3.07 6.526 4.3 8.92 6.471 2.65.564 9.972 6.849 11.081 4.109z" fill="#fd5"/></g></svg>