<svg xmlns="http://www.w3.org/2000/svg" xmlns:xlink="http://www.w3.org/1999/xlink" width="2000" height="3000"><defs><linearGradient id="b"><stop offset="0" stop-color="#009633"/><stop offset="1" stop-color="#063"/></linearGradient><linearGradient id="c"><stop offset="0" stop-color="#fff"/><stop offset="1" stop-color="#54deff"/></linearGradient><linearGradient id="a"><stop offset="0" stop-color="#fff"/><stop offset=".5" stop-color="#d4c37f" stop-opacity=".498"/><stop offset="1" stop-color="#a80" stop-opacity="0"/></linearGradient><radialGradient xlink:href="#d" id="i" cx="502.638" cy="609.739" fx="502.638" fy="609.739" r="564.019" gradientTransform="matrix(1.89245 0 0 1.44682 60.53 -877.065)" gradientUnits="userSpaceOnUse"/><linearGradient id="d"><stop offset="0" stop-color="#009633"/><stop offset="1" stop-color="#063"/></linearGradient><linearGradient id="e"><stop offset="0" stop-color="#fff"/><stop offset="1" stop-color="#54deff"/></linearGradient><linearGradient id="f"><stop offset="0" stop-color="#fff"/><stop offset=".5" stop-color="#d4c37f" stop-opacity=".498"/><stop offset="1" stop-color="#a80" stop-opacity="0"/></linearGradient><radialGradient r="450.22" fy="496.389" fx="-298.481" cy="496.389" cx="-298.481" gradientTransform="matrix(2.68801 0 0 3.48189 2006.492 -1247.204)" gradientUnits="userSpaceOnUse" id="g" xlink:href="#e"/><linearGradient y2="296.36" x2="1051.261" y1="296.36" x1="-45.755" gradientTransform="matrix(2.20553 0 0 4.36834 95.336 -813.431)" gradientUnits="userSpaceOnUse" id="h" xlink:href="#f"/></defs><path transform="rotate(-90 1116 1116)" opacity=".99" fill="url(#g)" stroke="url(#h)" stroke-width="3.104" d="M-4.475-1084.894h2417.292V2047.23H-4.475z"/><path d="M2071.463 799.747l-2115.537 8.804c.092 10.455-17.992-1181.032 5.164-1257.828C-2.77-484.162 34.3-501.844 70.881-526.83c27.765-13.492 55.406-33.17 83.406-37.34 41.705-19.694 83.675-18.63 125.695-28.424 57.153-1.058 114.168 18.646 171.24 12.997l38.473-3.808c56.015-5.545 112.053-12.607 167.966-25.803 73.877-21.14 147.166-61.049 220.915-88.082 85.854-32.797 171.467-78.613 257.848-85.196 112.898-22.757 226.008-14.243 339.012-14.738 82.719-2.55 165.479 12.484 247.55 53.006 60.834 25.795 121.073 71.217 182.108 91.535l161.64 63.75c13.792 395.92 4.136 937.003 4.73 1388.68z" fill="url(#i)" stroke="#244c26" stroke-width="15.705" stroke-dashoffset="2.08" transform="translate(0 2232)"/><path d="M1568.39 1145.65c-1.583-.04-3.33 1.255-4.91 4.677-10.616-1.807-26.018-.557-29.342 14.243-4.23 14.414-2.924-2.763-11.023-1.32-1.31 10.828-9.535-.967-11.765 5.905-.717 17.373-14.263 29.407-22.973 43.19-1.88 19.792 13.822-15.988 11.556-2.315-2.472 19.555-1.838 41.523-14.682 57.641-12.554 4.526-6.626 38.716-21.051 24.803-13.719-8.568-28.977-13.551-44.302-17.832-12.51 3.863.535-12.893.648-23.992 1.349-17.427-20.332-23.682-32.028-32.492-15.444-10.34-32.434-22.694-51.134-20.148-5.562.758-8.02 7.932-11.209 12.552-10.675 15.471-3 11.748.927 29.504-.237 12.235-23.204.487-31.357 8.592-11.265 5.699-30.612 19.494-15.701 32.306 12.6 6.155 30.468 8.889 43.537.533 2.323-17.93 31.008-1.474 14.405 5.534-16.51 6.109-25.988 22.694-23.043 40.134 2.176 17.14 5.325 35.296 3.52 52.037-13.174-.828-3.355 27.809 7.365 30.894 21.341 5.968-5.804 2.447-13.71 3.103-22.503-1.49-44.911-5.48-67.09-9.704 2.08-9.645-25.352-7.264-18.666 2.895 19.007 7.227 39.735 8.952 59.75 12.02 18.431 4.059 37.217 3.389 55.95 4.26 13.892-7.242 14.01 17.92 2.13 14.706-15.976 5.81-30.21 16.562-41.963 28.786.454 14.652 23.903-3.072 30.57-8.615 10.324-14.772 10.178 1.33 14.103 10.491-.061 19.117 19.03-.56 7.249-9.912-4.368-14.525 5.384-6.084 4.492 4.47-1.338 9.841 16.364 24.07 15.308 9.124-5.21-9.958-14.165-28.715-2.154-36.22-8.272-.722-12.834-2.522-8.684-12.135 15.968.716 31.99 1.94 47.915 2.78-.632 12.322-2.202 25.282-4.447 37.655-12.09 3.13-1.85 12.66-11.208 16.882 5.772 10.044-13.377 12.898-17.763 23.854-1.504 19.371 16.633-8.367 24.039-10.885 11.182-14.008 2.635 9.13 14.358 2.849 6.01-7.216 3.553-20.902 9.518-29.666-14.887.332-4.001-17.13-5.581-26.818-4.492-20.786 16.755-10.352 28.415-11.255 50.484 3.819 100.921-.533 151.34-4.168.018 9.896-9.788 27.032-13.987 39.23-8.295 26.403-19.304 51.307-21.074 78.994-4.762 27.87.245 56.933-9.078 84.065-13.19 36.528-24.049 73.833-34.205 111.3-11.292 30.114-25.372 59.172-37.054 89.16-17.477-5.3-5.736 11.363 4.1 12.574 9.011-12.27 11.454-32.03 19.823-46.687 8.37-22.696 21.067-43.865 26.864-67.46 3.339-11.319 6.843-27.327 10.444-35.665 3.562-18.542 10.051-36.56 16.998-54.075 4.259-13.363 8.956-29.22 8.847-44.695-.282-35.98 2.605-72.876 16.744-106.506 4.03-15.078 11.099-29.209 16.35-43.932 7.435-16.671 12.654-26.66 15.076-45.32 3.962-28.11.397-56.59 5.859-84.552 4.358-17.936 4.846-37.83 13.594-54.515 5.567 13.586 1.097 29.966-1.598 44.093-5.062 15.775-1.242 31.913 4.377 46.873 1.989 13.735 11.046 38.958 28.97 28.531 13.778-20.256 33.328-35.563 48.981-54.376 14.04-12.697 13.335-33.185 23.575-48.146 8.169-16.727-13.023-3.168-19.522.44-6.27-4.871 9.038-18.101 15.77-21.514 12.999-21.794-37.433-.254-29.688-24.595 2.253-11.535 1.414-28.504-11.117-31.982-16.817 12.842-9.78-7.78-10.652-18.156-6.177-17.725-30.513-8.597-39.67 1.876-9.238 5.222-19.522 35.592-24.433 11.81-4.368-12.665-13.989-35.369-30.847-23.83-8.701 14.342-14.498-.483-21.839-8.244 4.048-4.666 1.127-13.537-2.917-13.64zm44.047 182.28c2.304 8.643-.561 25.389.162 37.007-.946 17.056.554 41.046-12.645 51.805-44.85 3.92-89.721 6.193-134.712 4.678-13.61-2.434-31.036.883-42.612-4.933 6.37-7.131 18.248-10.949 23.066-21.097 13.176-21.193 31.856-38.736 42.102-61.648 25.66 12.53 54.992 14.07 83 16.535 18.073 1.842 43.044 1.97 41.639-22.348z"/><path d="M1282.83 1270.74c2.886 12.343 35.771 13.777 28.06.234 3.673-5.448 11.748 3.8 18.826-4.66 10.9-4.863-3.205-20.889-12.98-13.887-12.403-6.427-31.29 5.6-33.906 18.313z" fill="#1a1a1a"/><path d="M1335.934 1244.296l5.483 17.061c8.45-3.816 30.204-.688 15.024 7.41-17.977-6.655-4.085 20.987 6.39 8.569 12.892-3.303 26.31-4.05 39.32-4.94 5.825-10.151 15.314-24.393 2.731-33.709-14.816-11.219-31.438-20.046-47.687-28.911-15.998-5.714-26.682-5.266-24.313 15.7l1.36 6.86" fill="#333"/><path d="M1338.476 1225.983c9.655-13.465 19.614 13.264 3.016 13.813M1364.393 1226.607c7.476-2.597 29.982.92 11.937 7.13-12.174 4.991-17.499 2.741-11.937-7.13z"/><path d="M1324.57 1320.266c.332 20.214 5.62 40.083 3.203 60.387-7.082 16.844 19.215 20.193 26.324 20.567-1.916-8.74 6.055-26.895 11.121-11.712-2.49 9.326.522 12.367 4.977 16.366-17.855 7.99 14.691 5.327 21.012 5.752 11.535.303 21.49-2.475 26.49-10.41 12.931 9.262 19.611-14.536 28.376-21.692 8.164-10.466 13.2-19.663 22.218-29.222 9.014-10.67 14.382-24.181 5.033-35.826-3.193-17.541-25.966-21.707-39.994-28.23-16.174-6.816-32.835-7.19-42.314 9.662-7.186 10.62-16.393 26.565-27.503 9.55-8.173-8.209-15.328-21.6-26.613-7.449-9.805 3.304-10.61 13.563-12.33 22.257z" fill="#333"/><path d="M1360.695 1291.242c5.308 2.19 12.817 19.102 19.115 3.962 5.356-6.208 21.95-19.272 2.742-13.417-3.403 2.205-30.474 1.739-21.857 9.455z" fill="#333"/><path d="M1376.473 1285.778c1.23 1.45-1.687.098 0 0z"/><path d="M1329.214 1402.861c5.1 3.062 29.276 7.51 11.962 1.826-1.207.198-14.23-5.288-11.962-1.826zM1338.96 1414.163c5.051-.144-7.33-1.19 0 0z" fill="#333"/><path d="M1481.358 1292.95c-3.827 13.53 6.048 27.965 13.433 37.463 21.685 9.585 46.058 11.863 69.539 13.6 13.8-.274 39.847 6.453 38.544-14.819 9.054-13.892 10.83-30.148 13.4-45.829 3.312-12.94 9.925-26.5 15.85-37.4 13.118 1.563 18.009 17.04 16.625 29.348.524 16.716-7.38 32.654-5.344 49.352 2.975 12.129 7 27.273 11.362 40.216 9.878 19.324 20.104-13.792 30.444-18.746 15.893-16.387 35.27-31.623 41.461-54.612 4.178-8.238 7.999-18.921-4.288-10.562-2.755 7.34-25.87 9.902-13.33.303 6.073-12.331 3.342-42.845-16.53-31.488-21.574 8.76-33.134-17.42-13.298-28.002 7.274-12.083-4.383-8.363-11.193-8.767 16.269-6.506 10.84-23.297 12.794-37.316-15.142-3.893-27.488 10.385-36.372 20.674-9.466 8.634-19.569 37.525-34.648 20.395-10.982-9.174-19.206-28.398-31.085-32.445-4.936 3.208 3.94-9.066-4.179-11.44-11.404-19.13-12.654 18.651-14.801 27.01.838 18.331-13.178 2.421-12.179-7.377-8.934-.933-13.865 20.46-23.613 24.466-13.833-10.65 8.088-32.254.911-47.067-11.18 7.702-11.815 31.648-17.51 45.742-1.647 17.728-2.575 36.688-11.402 52.532-7.32 6.187-13.437 15.08-14.591 24.768z" fill="#668000"/><path d="M1529.155 1202.538c8.759-1.227 20.76-24.59 6.09-19.617-2.202 10.16-1.023 10.886-5.88 17.984z" fill="#668000"/><path d="M1541.346 1176.135c9.078 13.844 21.476-16.668 15.3-19.977-7.643-3.035-20.645 16.56-15.3 19.977z" fill="#450"/><path d="M1552.634 1185.986c.505-5.382-2.64 3.106 0 0z"/><path d="M1588.69 1181.892c9.427 11.588 18.54 23.649 29.42 33.897 18.996-11.456-4.444-29.932-9.112-44.307-5.618-8.336-23.92 3.07-20.309 10.41zM1676.134 1240.307c10.453 10.136 12.445-5.237 6.107-9.486-2.551 2.723-5.86 5.41-6.107 9.486zM1687.731 1210.939c-1.248 16.57 25.873-14.548 7.687-7.214-2.993 1.857-9.025 2.13-7.687 7.214z" fill="#450"/><path d="M1690.342 1228.554c.414 20.32 18.554-18.846 1.202-4.866l-1.308 1.543z" fill="#668000"/><path d="M1703.693 1239.416c5.67-1.138-3.577-4.934 0 0z"/><path d="M1713.71 1251.96c-2.735 19.721 13.79-4.958 13.304-3.581-3.718 1.093-17.464-5.029-13.304 3.58z" fill="#450"/><path d="M1379.442 1455.486c2.307-.055-2.329 1.457 0 0z"/><g><path d="M1265.093 1414.64c-.072-.872.97.648 0 0z"/><path d="M1278.651 1414.737c-1.937-.032-3.88-.184-5.801-.248-2.524-.02-5.039-.316-7.566-.27-3.834.026-7.664-.157-11.494-.264-3.033.105-6.046-.407-9.068-.596-1.583-.224-3.181-.246-4.771-.448-2.688.097-5.303-.674-7.981-.697-2.669-.472-5.413-.462-8.045-1.17-1.621-.426-3.326-.744-4.691-1.78-1.255-.793-2.332-1.827-3.446-2.787-1.834-.544-.77-3.237.878-2.524.512.391 1.905 2.626 1.967 1.007-.21-1.768.032-3.552.02-5.317.265-.577.074-2.435-.546-1.023-.987 1.681-2.048 3.37-3.44 4.747-1.009 1.176-2.221.002-1.629-1.237.07-1.29-.608 1.44-.194 2.03.139 1.672.48 3.526-.392 5.058-1.221.653-.861-1.262-.59-1.868-.024-2.018-.946-4.121.004-6.073.969-1.337 2.087-2.693 2.03-4.473.429-1.758.724-3.572 1.178-5.322.572-2.15 1.279-4.258 1.924-6.39.753-2.415 1.557-4.811 2.49-7.161.448-1.763 1.349-3.377 1.971-5.087 1.382-3.34 2.22-6.898 3.934-10.102 1.393-2.79 2.804-5.585 4.498-8.206.389-1.323 1.185-2.397 1.864-3.577.598-1.427 1.547-2.706 2.335-3.995.497-1.042 1.06-2.08 1.781-2.957.992-1.53 1.867-3.14 2.982-4.592.563-1.089 1.531-1.715 1.973-2.857.859-1.016 1.529-2.172 2.373-3.22.871-.974 1.534-2.021 2.37-3.048.847-.836 1.202-1.954 1.823-2.957 1.36-2.365 3.005-4.695 5.428-6.067 1.554-.896 2.105-2.738 3.276-4.013.869-1.04 1.488-2.27 2.415-3.254.909-.5 2.088.517 2.623-.856 1.559-1.71 3.123-3.407 4.821-4.983 1.05-.814 1.803-2.309 3.21-2.473.826.111.993 1.42 1.772.379 1.255-1.097 2.606-2.082 3.925-3.104 1.35-1.11 2.77-2.123 4.198-3.123.995-.59 1.863-1.573 3.027-1.772 1.414.625.756 2.298-.412 2.834-.5.044-2.196.913-1.168 1.536 1.536.622-.003 2.213-.608 2.498-.767.613-1.125 1.274-2.13 1.796-1.376.943-1.778 2.648-3.208 3.566-.588.69-2.487 1.687-.771 2.126 1.605.593 3.034 1.541 4.6 2.223 1.084.66 2.215 1.241 3.344 1.802 1.378.66 2.81 1.2 4.144 1.955 1.61.623 3.083 1.56 4.736 2.07a118.17 118.17 0 0 1 9.9 4.749c1.53.632 2.87 1.601 4.423 2.202 1.721 1.113 3.542 2.053 5.413 2.886 1.394.813 2.781 1.633 4.27 2.266 2.7 1.295 5.176 2.997 7.83 4.367 1.571 1.09 3.354 1.83 4.847 3.042 1.378.87 2.558 2.007 4 2.776 1.554.91 3.03 1.93 4.451 3.034 1.556 1.15 3.088 2.327 4.732 3.35 2.264 1.778 4.31 3.904 6.913 5.198 1.428.71 2.688 1.674 4.006 2.55 1.516 1.312 2.927 2.74 4.507 3.98 1.522 1.321 2.996 2.683 4.535 3.981 1.702 1.577 3.242 3.338 4.72 5.127.57 1.146 1.32 2.226 1.668 3.445.644 1.149.962 2.37 1.563 3.52.492 1.36 1.173 2.907.191 4.241-.796 1.521-1.968 2.772-3.271 3.87-2.144 1.935-4.466 3.66-6.834 5.307-1.709 1.367-3.544 2.563-5.277 3.896-3.183 2.163-6.564 4.01-9.912 5.887-2.935 1.499-5.764 3.211-8.792 4.524-4.653 2.11-9.66 3.22-14.587 4.477-2.62.601-5.247 1.168-7.883 1.695-1.351.229-2.616.71-3.99.861-1.592.497-3.29.621-4.89 1.096-1.715.047-3.383.5-5.094.48-2.261-.088-4.488.486-6.754.38-3.536.28-7.087.518-10.59 1.095-.685.042-1.375.056-2.058-.018z" fill="#a40"/><path d="M1282.604 1412.75c1.987-.405 4.037-.4 6.051-.616 2.679-.22 5.366-.301 8.034-.61 2.115-.052 4.229-.147 6.316-.501 2.955-.507 5.888-1.155 8.817-1.797 3.249-.615 6.457-1.416 9.703-2.048 1.238-.445 2.542-.531 3.774-1.026 1.753-.342 3.436-.937 5.13-1.483 1.547-.391 3.002-1.075 4.49-1.648 1.629-.84 3.345-1.498 4.92-2.442a949.912 949.912 0 0 0 8.31-4.434c1.194-.807 2.53-1.419 3.665-2.292 1.41-.737 2.616-1.81 3.934-2.696 2.665-1.93 5.446-3.726 7.958-5.852 1.125-.985 2.235-1.991 2.971-3.313.982-1.275.542-2.837-.085-4.14-1.186-2.764-2.032-5.813-4.281-7.946a33.37 33.37 0 0 0-3.223-3.523c-2.381-2.005-4.66-4.126-7.026-6.15-1.18-1.241-2.608-2.23-4.07-3.102-1.472-1.205-3.448-1.64-4.738-3.095-1.508-1.11-2.92-2.347-4.383-3.514-1.486-.81-2.685-2.023-4.128-2.903-1.4-1.208-2.981-2.159-4.544-3.135-1.398-.92-2.62-2.082-4.092-2.888-1.88-1.274-3.796-2.505-5.816-3.546-2.212-1.37-4.438-2.733-6.79-3.864-2.01-.98-3.956-2.083-5.937-3.111-1.774-.838-3.476-1.819-5.237-2.67-1.636-.971-3.433-1.637-5.087-2.586-1.843-.924-3.64-1.93-5.57-2.67-2.76-1.226-5.564-2.375-8.267-3.72-1.695-.59-3.193-1.606-4.828-2.334-2.486-1.172-4.756-3.208-7.648-3.184-.67.969-2.257 1.67-1.686 3.094-.604.2.473.755.74-.077.748-.89 1.31-3.136 2.783-1.862.424 1.61-1.528 2.538-2.292 3.714-1.98 1.803-4.145 3.467-5.599 5.759-1.225 1.761-2.564 3.474-3.758 5.227 1.261-.182 2.468 1.257 1.285 2.306-.719.42-.65 1.41.125.562a24.436 24.436 0 0 1 4.615-2.861c1.466-.928 3.085 1.137 1.201 1.814-1.372.48-1.324 2.176-2.38 2.877-1.693 1.502-3.237 3.146-4.875 4.704-1.004 1.26-2.346 2.187-3.483 3.319-1.777 1.693-3.623 3.337-5.115 5.295-1.214 1.644-1.848 3.618-2.804 5.412a108.754 108.754 0 0 0-1.883 3.855c-.763 1.433-1.413 2.914-2.223 4.325-.614 1.299-1.222 2.606-1.93 3.86-.711 1.154-1.17 2.618-1.942 3.84-.782 1.571-1.442 3.197-2.323 4.718-.798 1.685-1 3.568-1.672 5.299-.335 1.515-.548 3.059-1.117 4.512-.249 1.2-.557 2.405-.818 3.632-.385 1.147-.534 2.307-.887 3.468-.498 2.379-1.253 4.694-1.973 7.011-.629 1.205-.69 2.973-2.046 3.623-1.63-.082-1.152 2.315-1.702 3.386-.466.988-.225 3.17-1.92 2.76-.61-1.058.225-2.598.042-3.86.069-1.467.19-2.912.311-4.375-.027-1.85-1.042 1.047-1.609 1.548-1.212 1.686-2.246 3.588-4.035 4.744-.483.779-3.037 1.128-1.294 1.926 1.848 1.432 4.227 1.68 6.44 2.142 3.728.508 7.487.705 11.214 1.231 4.486.24 8.97.568 13.434 1.083 1.358.057 2.718.083 4.077.095 2.855-.032 5.725.293 8.588.134 3.513.08 7.025.188 10.525.485 2.331.017 4.656.219 6.982.278.233-.022.465-.073.681-.164z" fill="#ff7f2a"/><path d="M1263.01 1406.392c-1.986-.028-2.683-2.481-2.21-4.097.476-2.548 1.845-4.996 3.898-6.598 1.132-.822 2.871-1.207 3.866.052 1.474 1.8 1.49 4.338.947 6.494-.302 1.479-1.12 3.181-2.674 3.62-.614-1.198 1.213-2.559 1.17-3.964.226-1.618.264-3.754-1.24-4.778-1.483-.522-2.586 1.055-3.244 2.156-.669 1.223-1.25 2.632-1.107 4.046.039 1.39 2.609.512 1.826 2.156-.26.453-.716.81-1.232.913zM1280.381 1403.998c-1.575-.314-3.17-1.182-3.928-2.641-.51-1.444-.175-3.054.63-4.327.291-1.402 1.319-2.674 1.36-4.097-1.05-.956-1.824-2.173-2.412-3.47a6.117 6.117 0 0 1-.736-4.324c.333-1.605 1.483-3.005 2.685-4.12 1.147-1.064 2.623-1.789 4.115-2.262 1.525-.483 3.325-1.77 4.769-.531 1.676 1.222 1.76 3.521 1.747 5.412-.107 1.514-.211 3.075-.745 4.498.146 1.66 2.475.456 3.475 1.453 1.39.579 2.325 1.816 2.78 3.223a8.555 8.555 0 0 1-.18 5.455c-.566 1.111-1.566 2.001-2.612 2.653-2.37 1.573-5.21 2.145-7.904 2.903-1.005.16-2.027.224-3.044.175z" fill="#a40"/><path d="M1283.64 1401.843c2.85-.79 5.957-1.351 8.247-3.356 1.189-1.314 1.031-3.381.369-4.91-.56-1.337-1.875-2.119-3.251-2.38-1.168-.423-2.336-.345-2.815.946-.955 1.257-2.515 1.835-4.06 1.757-1.179-.215-2.771-.285-2.744 1.356 1.267.865-1.911 2.854-1.529 4.34.554 1.863 2.71 2.518 4.469 2.372.44-.013.88-.053 1.315-.125z" fill="#ff7f2a"/><path d="M1283.613 1392.162c.81.19 2.453-1.616.759-1.16-.633.297-2.707.54-2.294 1.185.51.056 1.029.072 1.535-.025zM1280.2 1391.243c1.49-1.174 3.254-2.201 5.202-2.182 1.57-.12 1.311-2.167 1.63-3.311.404-1.967.25-4.283-1.158-5.826-1.245-1.06-2.742.132-3.974.668-1.675.729-3.531 1.701-4.347 3.335-.693 1.388-.533 3.192-.045 4.653.472 1.168 1.257 2.26 2.313 2.948.171-.029.242-.201.379-.285z" fill="#ff7f2a"/><path d="M1249.005 1400.644c-1.499-.378-2.493-1.696-3.545-2.73-1.58-1.941-2.743-4.57-1.895-7.075.267-.781 1-2.64 1.88-2.096.025 1.293-.965 2.447-.604 3.783.389 2.318 1.87 4.35 3.682 5.786 1.598 1.307 2.83-.992 2.766-2.41.199-1.846-.371-3.66-1.289-5.245-.212-.592-2.34-2.515-1.625-.872.558 1.175 1.356 2.3 1.163 3.661.294.814-.474 2.37-.978.913-.427-1.503-1.353-2.76-1.864-4.226-.4-1.114-.874-3.677 1.023-3.463 2.371.566 4.058 2.753 4.549 5.075.726 2.16.79 4.62-.309 6.673-.485 1.169-1.524 2.498-2.954 2.226z" fill="#a40"/><path d="M1294.14 1398.625c.032-.317.23.304 0 0z"/><path d="M1306.11 1398.629c-.271-1.45-.57-2.881-1.158-4.222-.177-1.947-.061-4.098 1.062-5.77 1.058-1.375 2.437-2.565 4.12-3.077 1.238-.662 2.739-.552 4.032-.257 1.84.953 3.04 2.883 3.2 4.937.3 1.735-.336 3.42-1.243 4.87-.892.761-1.564 2.063-2.938 1.917-1.555-.133-2.923.579-4.314 1.148-.88.32-1.819.557-2.762.454z" fill="#a40"/><path d="M1309.306 1396.641c1.448-.585 2.92-1.324 4.488-1.417 1.292-.448 1.418-2.094 1.502-3.255-.09-1.25-.572-2.607-1.353-3.639-.503-.665-1.185-1.49-2.018-1.477-1.997.033-4.419 1.483-4.716 3.695-.309 1.328-.158 2.756.286 4.026.287.824.663 1.849 1.479 2.159.046.017.145-.037.145-.037z" fill="#ff7f2a"/><path d="M1330.226 1394.145c-1.593-.483-3.177-1.009-4.571-2.012-1.893-1.12-3.575-3.227-3.255-5.53.5-2.096 2.12-3.644 3.68-5.013 1.863-1.475 4.229-2.1 6.544-2.42 1.823-.288 3.901-.656 5.535.204 1.563.822 2.385 2.665 3.158 4.253.621 1.275 1.147 2.685 1.125 4.103-.015 1.032-.47 2.026-.908 2.96-.324.695-.705 1.392-1.253 1.927-.922.9-2.085 1.578-3.291 2.032-1.483.235-3.03.316-4.485-.105-.84-.01-1.54-.176-2.279-.4z" fill="#803300"/><path d="M1332.416 1393.054c.642.681 2.352.444 3.282.529 1.385-.508 2.106-2.202 2.723-3.344l1.856-2.292c.234-1.523-.434-3.167-1.347-4.071l-2.1-2.943c-.885-1.295-2.892-.724-4.191-.54-2 .32-4.046.92-5.471 2.449-1.302 1.285-2.533 2.983-2.683 4.813-.035.427.203.848.433 1.209.248.389.625.683.984.972.941.758 1.906 1.574 3.04 1.974.445.172.851.495 1.343.53" fill="#ff7f2a"/><path d="M1263.994 1393.26c-1.878-.42-3.976-1.048-4.958-2.866-.523-1.137-.847-2.574-.203-3.734 1.074-1.478 1.102 1.546 1.457 2.26.718 1.117 2.045 1.668 3.234 2.122 1.551.724 2.799-.481 2.29-2.031.264-.88-1.099-2.753-1.26-1.025.374 1.089-.83 3.238-1.75 1.617-.41-1.548.282-3.512 1.647-4.387 1.633-.765 2.87 1.198 2.992 2.61.237 1.835.068 4.196-1.682 5.246a2.32 2.32 0 0 1-1.767.188z" fill="#803300"/><path d="M1253.8 1380.422c-.615-1.163-1.588-2.19-1.858-3.476-.242-1.147-.084-2.388.268-3.505.267-.848.58-1.846 1.357-2.295.807-1.483 1.827-3.084 3.53-3.614 1.886-.169 3.187 1.609 3.968 3.093.764 1.825.861 3.899.596 5.836-.53 2.153-2.554 3.91-4.83 3.775-1.087.257-2.352-1.27-2.582.318-.138.156-.375.005-.448-.132z" fill="#a40"/><path d="M1258.407 1378.282c1.67-.546 2.01-2.561 1.708-4.077-.255-1.812-.902-3.91-2.663-4.777-1.53-.346-2.278 1.62-2.8 2.743-.377 1.425-1.246 3.12-.38 4.507.978 1.184 2.57 2.124 4.135 1.604z" fill="#f60"/><path d="M1310.759 1378.897c-1.603-.275-3.21-.604-4.708-1.23-1.985-1.008-3.188-3.26-3.029-5.465-.758-1.552 1.974-2.195 1.325-.217.232 2.043 1.743 3.924 3.76 4.445 2.156.667 4.492.799 6.693.288 2.075-.857 3.26-3.02 3.808-5.096.44-2.216.153-4.688-1.172-6.56-.632-.033-.955-1.736-2.12-1.77a11.11 11.11 0 0 0-4.35-.365c-1.691.033-3.142.99-4.54 1.827-2.808 1.827-4.801 5.045-4.794 8.44 1.303.837.624 2.9-.915 2.476-1.289-1.212-.94-3.182-.532-4.72.876-3.74 3.811-6.703 7.135-8.44 1.06-.584 2.262-.878 3.411-1.215 1.987-.252 4.088-.256 5.997.379 2.108.881 3.247 3.068 3.67 5.21.678 3.501-.598 7.21-2.982 9.809-1.47 1.324-3.376 2.158-5.37 2.136-.43.027-.858.045-1.287.068zM1338.062 1376.917c.128-1.483-1.665-1.555-2.586-2.167a36.694 36.694 0 0 1-6.338-4.71c-.47-.434-.862-.946-1.265-1.444-.821-1.015-1.687-2.012-2.343-3.139-.368-1.003-1.019-1.84-1.372-2.7.638-.905.71-2.097 1.214-3.078.487-.948.903-2.018 1.734-2.684.759-.606 1.786-.795 2.734-1.006 2.576-.574 5.342-1.374 7.889-.68 1.38.377 2.618 1.36 3.495 2.489 1.313 1.689 2.243 3.821 2.316 5.985.132 1.348.341 2.687.452 4.037.733 1.399-.24 3.05-.427 4.474-.9 1.072-1.997 1.971-2.706 3.209-.613.94-1.72 1.599-2.797 1.414z" fill="#a40"/><path d="M1334.597 1371.438c-.125-.269-.168.297 0 0z"/><path d="M1333.648 1356.331c-1.351.054-2.337 1.363-3.529 2.002-.798.427-1.906.481-2.426 1.223-.69.985-.73 2.418-.427 3.581.268 1.028 1.239 1.726 1.875 2.577.78 1.043 2.378 3.1 2.378 3.1 1.564 1.48 5.117 4.575 6.817 4.712.62-.053 1.196.749 1.75.327.68-.916 1.605-1.701 1.469-3.03-.12-1.352-.126-2.715-.276-4.063.07-1.346.027-2.723-.372-4.001-.203-.653-.687-1.183-1.004-1.789-.382-.731-.493-1.648-1.081-2.227-1.356-1.335-3.273-2.487-5.174-2.412z" fill="#d45500"/><path d="M1266.275 1374.172c-1.922-.603-2.828-2.599-3.524-4.318-.773-2.712-.575-6.05 1.508-8.146 1.003-.965 2.44-.604 3.64-.37 1.337-.05 2.49.732 3.343 1.688 1.654 2.13 1.422 5.172.452 7.545-.865 1.744-2.308 3.714-4.46 3.71a4.067 4.067 0 0 1-.959-.11z" fill="#a40"/><path d="M1268.124 1372.716c2.8-1.027 3.668-4.734 2.467-7.263-.546-1.206-1.784-2.373-3.185-2.185-.9.846-.936 2.328-2.067 3.064-.746 1.176-1.28.054-.603-.742.106-.968.838-2.295.76-2.963-1.274.464-1.437 2.051-1.495 3.23-.153 2.44.464 5.304 2.699 6.663.43.234.946.326 1.424.196z" fill="#ff7f2a"/><path d="M1293.139 1368.937c-2.095-.52-4.223-.809-6.355-1.125-1.59-.312-3.076-1.22-4.162-2.411-1.505-1.839-1.029-4.479.184-6.33 1.551-2.289 3.997-3.999 6.74-4.488 2.47-.737 5.295-.235 7.364 1.29 1.914 1.56 2.433 4.15 2.657 6.479.03 2.037-.105 4.562-1.942 5.84-1.382.795-2.92.968-4.486.745z" fill="#803300"/><path d="M1296.44 1366.99c1.719-1.038 1.48-3.352 1.215-5.058-.305-2.124-1.347-4.506-3.557-5.203-1.88-.83-4.015-.7-5.917-.015-1.55.469-3.003 1.389-3.803 2.834-.975 1.426-1.466 3.712.05 4.96.986 1.073 2.414 1.285 3.738 1.663 1.278.8 2.712-.613 3.873.365 1 .931 2.764.501 4.084.515.108-.01.213-.034.317-.062z" fill="#d45500"/><path d="M1257.314 1359.65c-1.438-.407-2.381-1.832-2.469-3.281-.575-1.537-1.024-3.274-.045-4.768.7-1.472 1.738-2.83 3.259-3.511 1.289-.767 2.824-1.351 4.327-.877 1.301.04 1.865 1.394 2.034 2.494.544 2.32-.865 4.408-2 6.298-1.166 1.774-2.84 3.546-5.106 3.644z" fill="#a40"/><path d="M1258.399 1357.711c1.725-.622 2.623-2.375 3.53-3.841.647-1.31 1.41-3.078.214-4.32-.887-.86-3.416-.866-3.45.69.16.954 1.938-.245 1.462 1.184-.428 1.444-.977 2.89-.858 4.413-.165 1.25-1.653 1.452-2.254.604-.736.628.817 1.614 1.356 1.27z" fill="#ff7f2a"/><path d="M1257.507 1354.84c.307-.913.255-3.295-.79-3.204-.722 1.032-.792 3.13.76 3.292z" fill="#ff7f2a"/><path d="M1271.295 1355.476c-1.085-.352-2.108-1.098-2.742-2.046-.661-.991-1.351-2.4-.877-3.466.51-1.24.213-2.874 1.166-3.791.682-.657 1.8-.809 2.745-.733 2.192.175 4.826.701 6.024 2.693 1.077 1.478 1.513 3.714.19 5.193-1.12 1.461-3.078 1.802-4.78 2.13-.572.07-1.179.198-1.726.02z" fill="#a40"/><path d="M1273.772 1353.65c1.275-.16 3.424-.92 3.066-2.515-.485-1.407-1.529-2.632-2.75-3.462-1.25-.9-3.657-.898-3.75 1.076-.082 1.634.392 3.482 1.662 4.59a2 2 0 0 0 1.772.31z" fill="#d45500"/><path d="M1285.887 1348.266c-1.255-.57-1.962-1.871-2.658-2.992-.187-.79-1.089-.886-1.504-.215-.625-1.48.108-3.045.408-4.49-.329-.83-1.287-2.429.368-2.156 1.159-.812 2.092-2.125 3.687-2.107 2.43-.306 4.519 2.191 4.198 4.53-.005 2.578-.526 5.632-2.915 7.084-.47.282-1.034.466-1.584.346z" fill="#a40"/><path d="M1287.622 1345.977c.914-1.086-.075-.835-.733-.27-1.458.632.458 1.396.733.27zM1286.118 1344.448c1.619-.813 2.538-2.779 1.91-4.52-.312-1.674-2.18-1.945-3.045-.518-1.438 1.213-.642 3.078-.18 4.547.19.554.833.928 1.315.491z" fill="#ff7f2a"/><path d="M1215.238 1399.198c-.572-.224-.152.694 0 0zM1238.275 1376.884c-.083-.35.114.076-.033.104zM1215.32 1403.621c-.013-.383.502.422 0 0zM1214.991 1388.405c-.4-.526.17-.308 0 0z"/></g><g><path d="M601.186 1349.186c-2.217-2.149-2.95-5.433-4.37-8.118-1.11-2.53-2.277-5.133-3.293-7.642-3.546-8.33-6.839-16.914-9.38-25.661-2.512-7.941-4.086-16.197-5.48-24.416-.754-5.866-1.804-11.734-1.613-17.672-5.41-2.268-10.494-5.251-15.564-8.135-2.984 2.096-2.924 6.524-5.698 8.517-1.217.874-2.85 1.008-4.338 1.175-2.852.32-6.068.168-8.602-.353-7.025-.341-14.011.435-20.96 1.37-1.712.28-7.783.996-5.782-1.606 5.063-.092 10.097-1.055 15.126-1.645 6.683-.564 13.418.11 20.087-.528 4.02.3 5.258-3.879 7.448-6.368 2.718-2.92-4.077-4.09-5.482-6.539-2.148-2.291-5.419-3.928-6.137-7.208-.758-2.874.188-6.79.382-9.14-9.806 4.952-20.664 8.145-29.422 15.045-5.56 3.839-10.1 8.95-15.1 13.39-2.21 2.604-3.31-1.873-.822-1.704 3.598-2.798 6.5-6.498 10.112-9.216 6.85-6.427 15.25-10.94 23.923-14.438 4.132-1.86 8.322-3.606 12.264-5.851 2.157-5.299 5.26-10.173 9.309-14.25 6.35-7.017 13.915-12.697 21.4-18.418 9.277-6.901 19.07-13.287 29.824-17.682-2.055-1.518-6.462-2.644-9.595-3.317-8.913-1.806-18.07.044-26.797 2.03-5.302 1.101-10.471 2.807-15.804 3.736-5.756.65 4.913-7.059 1.963-2.415 3.56-.281 6.94-1.856 10.5-2.358 6.901-1.65 13.887-3.132 20.983-3.55 6.162-.364 12.277.894 18.01 3.098 3.057 1.692 6.102 1.121 9.192-.219 11.336-3.395 23.23-3.76 34.938-4.735 4.08-.379 8.185-.532 12.274-.71-5.92-4.132-12.035-8.042-17.405-12.904-4.715.859 1.483-4.377 2.644-.739 5.758 5.153 12.378 9.141 18.603 13.66 4.048.729 8.268.895 12.257 2.075 8.937 2.705 17.557 6.282 26.386 9.268 6.37 2.24 12.533 5.026 18.8 7.533 2.228-2.512 4.077-5.524 6.216-8.18 6.7-9.417 15.549-17.09 25.16-23.441 1.898-.933 5.863-4.97 7.032-2.344-2.91 1.941-6 3.737-8.816 5.884-9.107 6.149-17.055 14.019-23.383 22.997-.503 2.164-6.54 5.619-2.74 6.663 6.694 2.919 13.092 6.836 18.01 12.313 4.652 4.627 8.051 10.371 10.513 16.408 2.358 4.784 4.647 9.757 6.053 14.954 1.64 1.322 5.436-1.77 7.864-1.976 9.062-3.129 18.46-5.143 27.92-6.637 5.632-.93 11.23-2.294 16.928-2.675 1.539 2.653-4.472 1.898-6.273 2.615-12.946 2.318-26.061 4.146-38.547 8.455-2.167 1.438-7.97.84-7.12 4.38.98 7.523-3.027 14.94-8.906 19.466-6.906 5.432-15.376 8.451-23.695 11 1.268 1.419 6.217 1.968 8.813 3.263 12.647 4.19 24.059 11.58 37.147 14.523 7.238 1.787 14.58 3.507 22.089 3.453-.262-1.393-2.512-7.1 0-5.43 1.145 2.602 4.44 8.71-1.16 7.788-7.58-.057-14.982-1.96-22.325-3.65-8.752-2.224-16.855-6.193-24.981-9.967-7.762-3.593-15.9-6.421-24.13-8.66-10.53 2.813-21.252 4.79-31.993 6.596.36 4.695 1.847 9.26 3.247 13.741 2.902 7.428 5.89 14.853 9.854 21.78.933 2.086 3.987 5.842 4.14 1.465 3.209 2.027-2.092 6.867-3.922 2.576-4.84-6.922-7.846-14.918-11.082-22.65-1.868-4.985-3.38-10.119-4.247-15.393-1.407-2.528-6.214.218-9.006-.24-9.406.817-18.894.738-28.307.061a93.6 93.6 0 0 1-14.092.842c-.09 2.696.007 5.417 1.269 7.866 1.38 4.021 3.193 7.908 5.788 11.323 6.148 8.848 15.18 15.086 23.605 21.584a24.063 24.063 0 0 0 5.318 4.03c1.949 1.529-.536 4.392-2.005 1.632-3.44-3.303-7.252-6.178-11.093-8.987-1.89-.838-4.184-3.667-6.443-5.148-7.307-6.135-13.76-13.748-16.767-22.925-1.405-2.98-2.071-6.259-1.867-9.558-10.892-1.272-21.18-5.255-31.813-7.69-9.727-2.65-19.797-4.216-29.164-8.073-.465 3.413.32 7.018.671 10.464.68 5.523 1.622 11.038 2.708 16.503 1.113 4.883 2.296 9.744 3.675 14.51 1.47 4.42 2.854 8.879 4.557 13.236 3.025 8.043 6.241 15.985 10.074 23.692 1.17 3.743 1.423-2.358 2.123-1.094 1.37.763.044 5.297-1.678 5.295z" fill="#d4aa00"/><path d="M657.218 1279.641c5.521-.896 11.121-2.237 16.279-4.213 3.787-.812 7.233-2.657 10.869-3.944 2.34-1.824 7.387-1.738 7.654-5.094-.228-2.396 1.397.068 1.813.541.387.441.192 1.158.283 1.737.522 3.336.052 7.89 1.507 10.017 10.074-1.553 20.14-3.434 29.974-6.09-2.3-.288-3.758-3.672-.588-2.952 2.589 2.787 6.174 1.896 9.291.533 9.235-2.947 18.883-6.823 24.956-14.75 2.741-3.775 4.293-8.566 3.652-13.298-.54-2.584-4.765 1.054-6.84 1.05-1.388 1.254-5.239-.054-2.196-1.121 2.56-1.06 7.679-1.13 8.312-3.8-2.278-7.285-5.636-14.174-8.89-21.06-4.986-8.726-12.602-16.121-21.843-20.211-2.655-1.76-5.668-3.163-7.372.453-.626 2.01-5.062 2.593-2.603.094 1.208-1.184 5.225-3.896 1.478-4.37-8.602-3.805-17.45-7.008-26.33-10.075-7.989-2.935-15.902-6.49-24.464-7.304.51 1.481 4.71 3.654 6.497 5.615 2.806 2.36 5.524 4.96 7.942 7.495-.784 4.03-4-1.564-5.719-2.442-4.292-4.15-8.993-7.837-13.936-11.178-10.888-.205-21.696 1.288-32.536 2.06-6.577.747-13.214 1.802-19.446 4.093 2.705.737 6.39 3.281 8.57.14 1.442-2.36 4.06-.562 1.473 1.08-2.016 2.092-4.78 3.325-7.553 1.774-3.236-1.05-6.625-2.515-9.702-.195-10.257 4.557-19.724 10.726-28.632 17.513-8.812 6.693-17.684 13.631-24.335 22.568-1.319 1.997-3.377 4.995-3.601 6.754 4.282-2.453 8.61-4.892 12.799-7.474 3.201-2.02 4.838-5.503 6.993-8.465 3.484-1.934-.164 3.61-1.231 4.632-2.904 5.575-9.218 7.573-14.063 10.96-2.391 1.822-6.728 2.282-6.544 6.07-1.029 3.872-1.005 8.603 2.71 11.042a50.621 50.621 0 0 0 9.226 7.23c1.216-1.802 3.535-3.496 4.187-5.343-.566-2.215-.353-4.538-2.88-5.554-2.67-2.248-6.03-4.265-7.347-7.63-.94-2.85 3.587-2.895 1.636-.132 1.763 3.59 5.397 5.788 8.487 8.115 1.54-.872 1.636 2.882 3.632 3.227 3.242 2.836 6.228 5.934 9.643 8.548 1.948-.536 2.037 2.83 4.296 3.222 6.68 4.619 14.336 7.603 21.917 10.347 13.116 4.205 26.681 7.008 40.356 8.78 4.055.338 8.139 1.39 12.22 1.005zM645.897 1280.533c-1.36-.57-5.664-.238-2.263-.007.754-.072 1.524.19 2.263.007z" fill="#fd5"/><path d="M674.79 1280.424c6.12-.042 12.287-.487 18.31-1.48-.995-2.524.197-7.844-1.775-8.92-8.817 4.461-18.174 7.775-27.72 10.243 3.64.359 7.478.197 11.184.157zM640.57 1280.155c-2.093-1.324-6.855-1.02-9.867-2.07-1.326-.146-5.916-1.224-5.545-.868 4.876 1.435 9.879 2.555 14.927 3.136z" fill="#fd5"/><g fill="#a0892c"><path d="M632.687 1250.314c-12.081-1.064-23.105-9.181-28.452-19.529-1.907-6.488 5.675-4.82 4.89.67 4.639 6.596 11.749 12.024 19.689 14.41 8.565 1.135 18.026 1.915 26.089-1.45 10.105-4.983 18.985-13.319 21.256-24.435 5.812.73-.304 12.678-3.95 15.607-7.938 8.864-19.389 16.086-32.02 14.762-2.5 0-5.003.032-7.502-.035z"/><path d="M635.73 1222.975c-6.518-4.334 2.19-9.181 3.263-2.012-.239 1.338-1.855 2.622-3.262 2.012zM613.814 1211.99c-3.365-7.426 10.78-1.457 0 0zM652.726 1202.65c-2.188-5.316 8.444-4.08 3.05.33-.818.303-2.54.863-3.05-.33z"/></g><path d="M605.01 1271.893c-8.694-3.147-17.476-6.565-24.91-12.182-1.539-.397-2.015 5.733.664 5.594 7.816 3.066 16.111 4.634 24.223 6.657zM577.16 1262.838c.113-2.776 1.515-5.668-1.89-6.999a707.928 707.928 0 0 0-8.19-7.552c1.99 3.177-2.719 4.648-3.923 7.145-.295 2.148 4.569 3.01 6.245 4.53 1.855.395 6.981 4.795 7.758 2.876z" fill="#fd5"/></g></svg>