<svg xmlns="http://www.w3.org/2000/svg" xmlns:xlink="http://www.w3.org/1999/xlink" width="2000" height="3000"><defs><linearGradient id="b"><stop offset="0" stop-color="#009633"/><stop offset="1" stop-color="#063"/></linearGradient><linearGradient id="c"><stop offset="0" stop-color="#fff"/><stop offset="1" stop-color="#54deff"/></linearGradient><linearGradient id="a"><stop offset="0" stop-color="#fff"/><stop offset=".5" stop-color="#d4c37f" stop-opacity=".498"/><stop offset="1" stop-color="#a80" stop-opacity="0"/></linearGradient><linearGradient xlink:href="#a" id="e" x1="-45.755" y1="296.36" x2="1051.261" y2="296.36" gradientUnits="userSpaceOnUse" gradientTransform="matrix(2.06913 0 0 4.01842 256.379 -552.829)"/><radialGradient xlink:href="#b" id="f" cx="502.638" cy="609.739" fx="502.638" fy="609.739" r="564.019" gradientTransform="matrix(1.80442 0 0 1.56917 94.67 -1034.912)" gradientUnits="userSpaceOnUse"/><radialGradient xlink:href="#c" id="d" cx="-298.481" cy="496.389" fx="-298.481" fy="496.389" r="450.22" gradientTransform="matrix(2.52177 0 0 3.20298 2049.338 -951.855)" gradientUnits="userSpaceOnUse"/></defs><path transform="rotate(-90 1116 1116)" opacity=".99" fill="url(#d)" stroke="url(#e)" stroke-width="2.884" d="M162.741-802.547h2267.794v2881.236H162.741z"/><path d="M2012.062 783.702L-5.07 793.251C-4.981 804.59-22.224-487.657-.145-570.948c34.458-37.834 69.803-57.012 104.684-84.11 26.473-14.633 52.828-35.975 79.526-40.5 39.765-21.358 79.783-20.204 119.848-30.827 54.494-1.146 108.858 20.224 163.275 14.097l36.683-4.13c53.409-6.013 106.84-13.674 160.153-27.985 70.44-22.927 140.32-66.212 210.639-95.531 81.86-35.57 163.49-85.261 245.853-92.401 107.647-24.68 215.495-15.447 323.243-15.984 78.872-2.766 157.782 13.54 236.036 57.489 58.003 27.976 115.44 77.239 173.636 99.275l154.12 69.14c13.152 429.403 3.945 1016.244 4.51 1506.117z" fill="url(#f)" stroke="#244c26" stroke-width="15.971" stroke-dashoffset="2.08" transform="translate(0 2232)"/><path d="M1495.502 1117.787c-1.637-.041-3.445 1.3-5.08 4.842-10.988-1.87-26.93-.577-30.369 14.74-4.378 14.92-3.026-2.859-11.409-1.366-1.356 11.207-9.868-1-12.176 6.112-.742 17.981-14.762 30.436-23.776 44.702-1.946 20.483 14.305-16.548 11.96-2.397-2.559 20.24-1.902 42.976-15.196 59.657-12.993 4.684-6.857 40.07-21.787 25.67-14.199-8.867-29.99-14.025-45.852-18.455-12.947 3.997.554-13.344.671-24.832 1.396-18.035-21.043-24.51-33.148-33.627-15.984-10.702-33.569-23.488-52.923-20.853-5.756.784-8.3 8.209-11.6 12.991-11.048 16.012-3.105 12.158.958 30.536-.245 12.663-24.015.504-32.453 8.892-11.659 5.898-31.682 20.176-16.25 33.436 13.04 6.37 31.534 9.2 45.06.551 2.404-18.557 32.092-1.525 14.909 5.729-17.088 6.321-26.897 23.487-23.849 41.537 2.252 17.74 5.511 36.53 3.643 53.857-13.635-.858-3.473 28.781 7.622 31.974 22.088 6.177-6.006 2.533-14.19 3.212-23.29-1.542-46.481-5.672-69.436-10.043 2.153-9.983-26.238-7.518-19.318 2.996 19.671 7.48 41.124 9.265 61.838 12.44 19.077 4.2 38.52 3.507 57.908 4.41 14.378-7.497 14.5 18.545 2.205 15.22-16.535 6.012-31.268 17.14-43.43 29.792.47 15.165 24.738-3.18 31.638-8.916 10.685-15.289 10.534 1.377 14.596 10.858-.063 19.786 19.696-.58 7.503-10.259-4.521-15.032 5.573-6.297 4.65 4.626-1.386 10.186 16.935 24.912 15.843 9.444-5.393-10.307-14.661-29.72-2.23-37.487-8.562-.748-13.283-2.61-8.988-12.56 16.527.742 33.11 2.008 49.591 2.877-.654 12.754-2.279 26.167-4.602 38.973-12.514 3.24-1.915 13.103-11.6 17.473 5.974 10.395-13.845 13.349-18.384 24.687-1.558 20.049 17.214-8.659 24.879-11.265 11.573-14.499 2.727 9.45 14.86 2.948 6.221-7.468 3.677-21.633 9.851-30.704-15.407.344-4.14-17.728-5.776-27.755-4.65-21.513 17.341-10.714 29.41-11.649 52.248 3.953 104.45-.551 156.633-4.314.017 10.243-10.13 27.978-14.477 40.603-8.585 27.326-19.98 53.101-21.811 81.756-4.929 28.845.253 58.924-9.396 87.005-13.652 37.805-24.89 76.416-35.401 115.192-11.688 31.169-26.26 61.243-38.35 92.279-18.088-5.485-5.937 11.76 4.243 13.015 9.327-12.7 11.855-33.15 20.516-48.32 8.663-23.49 21.805-45.4 27.804-69.82 3.456-11.715 7.083-28.282 10.81-36.912 3.686-19.191 10.402-37.839 17.592-55.966 4.408-13.83 9.269-30.244 9.156-46.26-.291-37.238 2.697-75.423 17.33-110.23 4.172-15.605 11.487-30.23 16.921-45.468 7.696-17.255 13.097-27.593 15.604-46.906 4.1-29.093.411-58.569 6.064-87.51 4.51-18.562 5.015-39.153 14.07-56.42 5.761 14.06 1.135 31.014-1.655 45.635-5.239 16.327-1.285 33.029 4.53 48.512 2.059 14.215 11.433 40.321 29.985 29.53 14.259-20.965 34.493-36.807 50.693-56.279 14.531-13.14 13.802-34.345 24.4-49.83 8.454-17.311-13.48-3.279-20.206.456-6.488-5.042 9.355-18.734 16.323-22.267 13.453-22.556-38.743-.263-30.728-25.455 2.333-11.938 1.464-29.501-11.504-33.1-17.406 13.29-10.124-8.052-11.026-18.791-6.393-18.345-31.58-8.898-41.058 1.941-9.56 5.405-20.203 36.837-25.286 12.224-4.52-13.108-14.478-36.606-31.926-24.663-9.006 14.843-15.005-.5-22.603-8.533 4.19-4.83 1.166-14.012-3.02-14.118zm45.588 188.656c2.385 8.946-.58 26.277.168 38.301-.979 17.654.573 42.483-13.087 53.618-46.419 4.057-92.86 6.409-139.424 4.841-14.086-2.519-32.121.914-44.102-5.105 6.593-7.38 18.886-11.332 23.873-21.835 13.637-21.934 32.97-40.09 43.574-63.804 26.558 12.968 56.915 14.561 85.903 17.113 18.705 1.906 44.55 2.039 43.095-23.13z"/><path d="M1199.956 1247.253c2.987 12.775 37.022 14.26 29.041.242 3.801-5.638 12.159 3.934 19.485-4.823 11.28-5.032-3.318-21.619-13.436-14.372-12.836-6.652-32.383 5.795-35.09 18.953z" fill="#1a1a1a"/><path d="M1254.917 1219.884l5.675 17.658c8.746-3.95 31.26-.712 15.549 7.67-18.605-6.888-4.228 21.72 6.613 8.868 13.344-3.418 27.23-4.191 40.696-5.112 6.029-10.507 15.85-25.247 2.826-34.888-15.334-11.612-32.537-20.748-49.355-29.923-16.557-5.914-27.615-5.45-25.163 16.249l1.407 7.1" fill="#333"/><path d="M1257.548 1200.931c9.992-13.936 20.3 13.728 3.121 14.296M1284.371 1201.577c7.738-2.688 31.031.951 12.355 7.38-12.6 5.165-18.11 2.836-12.355-7.38z"/><path d="M1243.155 1298.512c.344 20.92 5.816 41.485 3.315 62.499-7.33 17.432 19.887 20.899 27.245 21.286-1.982-9.046 6.266-27.836 11.51-12.122-2.576 9.652.54 12.8 5.151 16.94-18.479 8.268 15.205 5.512 21.747 5.952 11.938.313 22.242-2.562 27.416-10.773 13.384 9.584 20.297-15.045 29.369-22.452 8.45-10.831 13.661-20.35 22.995-30.243 9.33-11.044 14.885-25.028 5.21-37.08-3.306-18.155-26.875-22.467-41.393-29.216-16.74-7.055-33.984-7.442-43.795 9.998-7.437 10.993-16.966 27.495-28.465 9.884-8.459-8.496-15.863-22.355-27.543-7.709-10.148 3.42-10.982 14.038-12.762 23.036z" fill="#333"/><path d="M1280.544 1268.472c5.494 2.266 13.265 19.77 19.783 4.101 5.544-6.425 22.719-19.946 2.838-13.886-3.522 2.282-31.54 1.8-22.621 9.785z" fill="#333"/><path d="M1296.874 1262.818c1.273 1.5-1.747.1 0 0z"/><path d="M1247.962 1383.995c5.278 3.17 30.3 7.773 12.38 1.89-1.249.205-14.728-5.473-12.38-1.89zM1258.049 1395.692c5.227-.149-7.586-1.23 0 0z" fill="#333"/><path d="M1405.427 1270.24c-3.96 14.004 6.26 28.943 13.903 38.774 22.444 9.92 47.669 12.277 71.97 14.076 14.284-.284 41.242 6.678 39.893-15.338 9.37-14.378 11.208-31.202 13.87-47.432 3.426-13.393 10.27-27.426 16.403-38.708 13.577 1.618 18.639 17.635 17.206 30.374.543 17.301-7.639 33.796-5.53 51.079 3.079 12.553 7.244 28.226 11.759 41.622 10.223 20 20.807-14.274 31.509-19.402 16.448-16.96 36.503-32.728 42.911-56.521 4.324-8.527 8.279-19.584-4.438-10.933-2.852 7.597-26.775 10.25-13.796.314 6.285-12.762 3.458-44.343-17.108-32.589-22.329 9.066-34.293-18.028-13.763-28.981 7.528-12.506-4.537-8.656-11.585-9.074 16.838-6.733 11.218-24.111 13.241-38.621-15.67-4.03-28.449 10.749-37.643 21.397-9.798 8.936-20.254 38.837-35.86 21.108-11.367-9.495-19.878-29.391-32.173-33.58-5.108 3.321 4.079-9.382-4.325-11.84-11.802-19.799-13.096 19.304-15.319 27.955.868 18.972-13.638 2.506-12.605-7.634-9.246-.966-14.35 21.174-24.439 25.321-14.316-11.023 8.371-33.382.943-48.714-11.57 7.972-12.228 32.755-18.122 47.343-1.705 18.348-2.665 37.971-11.801 54.368-7.576 6.404-13.906 15.608-15.101 25.636z" fill="#668000"/><path d="M1454.896 1176.666c9.065-1.27 21.486-25.45 6.303-20.303-2.28 10.516-1.059 11.267-6.085 18.613z" fill="#668000"/><path d="M1467.513 1149.34c9.395 14.327 22.227-17.252 15.836-20.676-7.911-3.141-21.368 17.138-15.836 20.676z" fill="#450"/><path d="M1479.196 1159.535c.523-5.57-2.733 3.215 0 0z"/><path d="M1516.512 1155.298c9.757 11.993 19.189 24.476 30.45 35.083 19.66-11.857-4.6-30.98-9.431-45.857-5.814-8.627-24.757 3.177-21.019 10.774zM1607.016 1215.756c10.818 10.49 12.88-5.42 6.32-9.818-2.64 2.819-6.066 5.6-6.32 9.818zM1619.018 1185.36c-1.292 17.15 26.777-15.056 7.956-7.465-3.098 1.921-9.341 2.203-7.956 7.466z" fill="#450"/><path d="M1621.72 1203.592c.429 21.03 19.203-19.505 1.244-5.036l-1.354 1.596z" fill="#668000"/><path d="M1635.538 1214.833c5.869-1.176-3.702-5.105 0 0z"/><path d="M1645.905 1227.816c-2.83 20.412 14.273-5.131 13.77-3.706-3.848 1.132-18.075-5.204-13.77 3.706z" fill="#450"/><path d="M1299.946 1438.46c2.388-.057-2.41 1.51 0 0z"/><g><path d="M1181.598 1396.187c-.074-.904 1.004.67 0 0z"/><path d="M1195.631 1396.287c-2.005-.033-4.015-.191-6.005-.258-2.611-.02-5.214-.326-7.83-.278-3.968.026-7.931-.163-11.896-.274-3.14.109-6.257-.421-9.385-.617-1.638-.232-3.293-.254-4.938-.463-2.782.1-5.488-.698-8.26-.722-2.762-.488-5.603-.478-8.326-1.211-1.678-.44-3.443-.77-4.856-1.842-1.299-.82-2.413-1.89-3.566-2.884-1.899-.563-.798-3.35.909-2.612.53.404 1.972 2.717 2.035 1.042-.216-1.83.034-3.676.022-5.503.274-.597.076-2.52-.565-1.06-1.022 1.74-2.12 3.488-3.56 4.914-1.045 1.217-2.3.002-1.687-1.28.073-1.336-.63 1.49-.201 2.101.144 1.73.496 3.65-.405 5.235-1.265.675-.892-1.307-.61-1.934-.026-2.089-.98-4.265.002-6.286 1.004-1.383 2.16-2.786 2.101-4.63.445-1.819.75-3.695 1.22-5.507.592-2.225 1.324-4.406 1.991-6.614.78-2.499 1.612-4.979 2.577-7.411.464-1.824 1.397-3.495 2.041-5.265 1.43-3.456 2.298-7.139 4.07-10.455 1.443-2.888 2.903-5.78 4.656-8.493.403-1.37 1.227-2.481 1.93-3.702.618-1.478 1.6-2.8 2.416-4.135.515-1.078 1.097-2.153 1.844-3.06 1.026-1.583 1.932-3.25 3.086-4.753.582-1.127 1.584-1.775 2.042-2.957.889-1.052 1.582-2.248 2.456-3.332.901-1.009 1.587-2.092 2.452-3.155.878-.865 1.244-2.022 1.888-3.06 1.407-2.448 3.11-4.86 5.618-6.28 1.608-.927 2.178-2.834 3.39-4.153.9-1.076 1.54-2.35 2.5-3.367.94-.519 2.16.534 2.714-.887 1.613-1.77 3.232-3.526 4.99-5.157 1.086-.842 1.866-2.39 3.323-2.56.854.116 1.027 1.47 1.833.393 1.3-1.136 2.697-2.155 4.063-3.212 1.396-1.149 2.865-2.198 4.344-3.233 1.03-.611 1.928-1.628 3.133-1.834 1.464.647.782 2.379-.427 2.933-.517.046-2.273.945-1.209 1.59 1.59.643-.003 2.29-.628 2.585-.795.634-1.165 1.32-2.205 1.859-1.424.976-1.84 2.74-3.32 3.691-.609.713-2.574 1.745-.799 2.2 1.662.614 3.141 1.595 4.762 2.3 1.122.684 2.292 1.286 3.46 1.866 1.427.684 2.909 1.242 4.29 2.023 1.666.645 3.19 1.614 4.9 2.142a122.303 122.303 0 0 1 10.248 4.915c1.583.654 2.97 1.658 4.577 2.28 1.781 1.152 3.666 2.125 5.603 2.986 1.442.842 2.878 1.69 4.42 2.346 2.792 1.34 5.356 3.101 8.102 4.52 1.627 1.129 3.472 1.894 5.017 3.148 1.426.901 2.648 2.077 4.14 2.873a42.56 42.56 0 0 1 4.607 3.14c1.61 1.19 3.196 2.408 4.898 3.468 2.343 1.84 4.46 4.04 7.154 5.379 1.478.734 2.782 1.732 4.146 2.64 1.57 1.358 3.03 2.835 4.665 4.12 1.575 1.366 3.1 2.775 4.693 4.12 1.762 1.63 3.356 3.454 4.885 5.306.59 1.185 1.367 2.303 1.727 3.564.666 1.19.996 2.454 1.618 3.644.509 1.408 1.213 3.008.197 4.39-.824 1.573-2.037 2.868-3.386 4.005-2.218 2.002-4.622 3.787-7.073 5.492-1.768 1.414-3.667 2.653-5.461 4.033-3.294 2.238-6.794 4.149-10.259 6.092-3.037 1.551-5.965 3.324-9.1 4.682-4.815 2.184-9.997 3.334-15.096 4.634-2.713.622-5.431 1.21-8.16 1.755-1.397.236-2.707.735-4.129.89-1.647.515-3.404.643-5.06 1.135-1.775.049-3.502.517-5.273.496-2.34-.09-4.644.503-6.99.393-3.66.29-7.335.537-10.961 1.134-.709.044-1.422.058-2.129-.018z" fill="#a40"/><path d="M1199.722 1394.23c2.057-.42 4.178-.415 6.263-.637 2.772-.229 5.553-.313 8.315-.632 2.188-.053 4.376-.153 6.537-.519 3.058-.524 6.093-1.195 9.125-1.86 3.362-.636 6.682-1.465 10.043-2.119 1.28-.461 2.63-.55 3.906-1.062 1.814-.353 3.556-.97 5.308-1.535 1.602-.405 3.108-1.113 4.648-1.705 1.685-.87 3.462-1.551 5.092-2.528 2.876-1.52 5.741-3.04 8.601-4.588 1.235-.836 2.618-1.47 3.792-2.373 1.46-.763 2.708-1.873 4.072-2.79 2.758-1.998 5.636-3.857 8.237-6.056 1.164-1.02 2.312-2.062 3.075-3.43 1.016-1.32.56-2.936-.089-4.285-1.227-2.86-2.102-6.015-4.43-8.224a34.536 34.536 0 0 0-3.335-3.645c-2.465-2.076-4.825-4.271-7.273-6.367-1.221-1.283-2.699-2.308-4.212-3.21-1.524-1.247-3.568-1.697-4.904-3.202-1.56-1.15-3.022-2.43-4.536-3.638-1.538-.838-2.779-2.093-4.273-3.004-1.448-1.25-3.085-2.234-4.702-3.245-1.447-.951-2.712-2.154-4.236-2.989-1.946-1.318-3.928-2.592-6.019-3.67-2.29-1.418-4.593-2.828-7.027-3.998-2.08-1.014-4.094-2.156-6.145-3.221-1.836-.867-3.598-1.882-5.42-2.762-1.693-1.006-3.554-1.696-5.265-2.677-1.908-.957-3.767-1.998-5.766-2.763-2.855-1.27-5.758-2.46-8.555-3.852-1.754-.61-3.304-1.662-4.997-2.415-2.573-1.213-4.923-3.32-7.915-3.295-.693 1.003-2.337 1.728-1.746 3.202-.625.207.49.782.766-.08.775-.92 1.357-3.245 2.88-1.926.44 1.666-1.58 2.626-2.372 3.844-2.049 1.865-4.29 3.588-5.794 5.96-1.268 1.822-2.653 3.595-3.89 5.41 1.306-.189 2.555 1.3 1.33 2.386-.743.435-.672 1.46.13.582a25.29 25.29 0 0 1 4.776-2.961c1.517-.961 3.193 1.177 1.243 1.877-1.42.497-1.37 2.252-2.464 2.978-1.752 1.554-3.35 3.256-5.044 4.868-1.04 1.304-2.429 2.264-3.606 3.435-1.839 1.752-3.75 3.455-5.293 5.48-1.257 1.702-1.913 3.745-2.902 5.602a112.558 112.558 0 0 0-1.949 3.99c-.79 1.483-1.463 3.016-2.3 4.476-.637 1.344-1.266 2.698-1.999 3.994-.735 1.196-1.21 2.711-2.01 3.976-.808 1.626-1.491 3.309-2.404 4.882-.826 1.745-1.035 3.693-1.73 5.485-.347 1.568-.567 3.165-1.156 4.67-.257 1.241-.577 2.489-.847 3.759-.398 1.187-.553 2.387-.918 3.59-.515 2.461-1.296 4.857-2.041 7.255-.652 1.247-.715 3.078-2.119 3.75-1.686-.085-1.191 2.396-1.761 3.504-.482 1.023-.232 3.28-1.988 2.857-.63-1.095.234-2.689.044-3.996.071-1.518.197-3.013.323-4.527-.029-1.916-1.08 1.083-1.666 1.602-1.254 1.745-2.325 3.713-4.177 4.91-.499.806-3.142 1.167-1.338 1.993 1.912 1.482 4.375 1.74 6.665 2.217 3.858.526 7.75.73 11.606 1.274 4.643.248 9.283.588 13.904 1.122 1.405.058 2.813.085 4.22.098 2.954-.034 5.925.303 8.888.138 3.635.082 7.27.195 10.893.502 2.413.018 4.819.226 7.226.287.241-.022.481-.075.705-.17z" fill="#ff7f2a"/><path d="M1179.443 1387.65c-2.056-.03-2.777-2.568-2.288-4.241.493-2.637 1.91-5.17 4.035-6.829 1.172-.85 2.971-1.248 4.001.055 1.526 1.861 1.541 4.489.98 6.72-.312 1.531-1.159 3.293-2.767 3.748-.635-1.24 1.254-2.649 1.21-4.104.235-1.674.274-3.885-1.282-4.945-1.535-.54-2.677 1.092-3.358 2.232-.693 1.265-1.295 2.724-1.146 4.187.04 1.438 2.7.53 1.89 2.232-.27.468-.741.838-1.275.944zM1197.421 1385.172c-1.63-.325-3.28-1.223-4.065-2.734-.528-1.494-.181-3.16.653-4.478.3-1.45 1.364-2.767 1.406-4.24-1.086-.99-1.887-2.25-2.495-3.592a6.33 6.33 0 0 1-.762-4.475c.344-1.661 1.534-3.11 2.778-4.264 1.188-1.101 2.715-1.851 4.259-2.34 1.578-.5 3.442-1.833 4.936-.55 1.735 1.264 1.82 3.644 1.808 5.6-.11 1.568-.219 3.184-.771 4.656.152 1.718 2.562.472 3.596 1.504 1.44.6 2.407 1.88 2.879 3.336.557 1.804.488 3.868-.188 5.645-.586 1.15-1.62 2.072-2.703 2.746-2.454 1.628-5.393 2.22-8.18 3.004a15.34 15.34 0 0 1-3.15.182z" fill="#a40"/><path d="M1200.795 1382.941c2.95-.816 6.165-1.398 8.535-3.472 1.23-1.36 1.067-3.5.382-5.082-.58-1.385-1.94-2.194-3.365-2.464-1.21-.438-2.418-.357-2.914.979-.988 1.301-2.603 1.9-4.201 1.819-1.22-.223-2.868-.296-2.84 1.404 1.31.895-1.979 2.953-1.583 4.49.573 1.929 2.805 2.607 4.625 2.456.456-.013.911-.055 1.361-.13z" fill="#ff7f2a"/><path d="M1200.766 1372.922c.84.197 2.539-1.673.785-1.2-.654.307-2.8.558-2.373 1.225.527.059 1.065.075 1.588-.025zM1197.234 1371.971c1.542-1.215 3.367-2.278 5.384-2.259 1.625-.124 1.357-2.242 1.687-3.427.418-2.035.258-4.432-1.199-6.029-1.288-1.097-2.838.137-4.113.691-1.733.755-3.654 1.761-4.499 3.452-.717 1.437-.552 3.303-.046 4.816.488 1.208 1.3 2.339 2.393 3.051.178-.03.25-.209.393-.295z" fill="#ff7f2a"/><path d="M1164.947 1381.7c-1.55-.39-2.58-1.754-3.668-2.826-1.635-2.008-2.84-4.728-1.961-7.321.276-.809 1.035-2.734 1.945-2.17.026 1.338-.998 2.533-.624 3.915.402 2.4 1.935 4.504 3.81 5.989 1.654 1.352 2.93-1.027 2.863-2.494.205-1.91-.385-3.788-1.334-5.429-.22-.613-2.422-2.603-1.682-.902.577 1.216 1.403 2.38 1.204 3.789.304.842-.49 2.454-1.012.944-.443-1.555-1.401-2.857-1.93-4.373-.415-1.153-.904-3.805 1.06-3.584 2.453.586 4.2 2.85 4.707 5.253.752 2.236.817 4.782-.32 6.905-.502 1.21-1.577 2.586-3.058 2.305z" fill="#a40"/><path d="M1211.662 1379.61c.032-.328.237.316 0 0z"/><path d="M1224.05 1379.615c-.28-1.5-.59-2.982-1.199-4.37-.182-2.014-.062-4.241 1.1-5.97 1.095-1.424 2.522-2.656 4.263-3.186 1.282-.685 2.836-.571 4.174-.266 1.904.986 3.147 2.984 3.311 5.11.31 1.795-.347 3.539-1.285 5.04-.924.788-1.619 2.136-3.041 1.984-1.61-.137-3.026.6-4.465 1.188-.91.33-1.883.577-2.859.47z" fill="#a40"/><path d="M1227.358 1377.558c1.498-.606 3.022-1.37 4.645-1.467 1.337-.463 1.467-2.168 1.555-3.37-.093-1.293-.593-2.697-1.4-3.765-.521-.688-1.227-1.543-2.09-1.529-2.066.034-4.573 1.535-4.88 3.824-.32 1.375-.163 2.853.295 4.168.298.852.687 1.913 1.53 2.233.05.019.152-.037.152-.037z" fill="#ff7f2a"/><path d="M1249.01 1374.974c-1.65-.5-3.288-1.044-4.731-2.082-1.96-1.158-3.7-3.34-3.37-5.724.519-2.169 2.194-3.77 3.81-5.188 1.927-1.526 4.376-2.173 6.772-2.504 1.887-.298 4.038-.68 5.73.21 1.617.852 2.468 2.76 3.268 4.402.642 1.32 1.186 2.78 1.164 4.247-.016 1.068-.487 2.096-.94 3.064-.335.718-.73 1.44-1.296 1.994-.955.932-2.158 1.633-3.407 2.102-1.535.244-3.135.328-4.642-.108-.87-.01-1.595-.182-2.358-.413z" fill="#803300"/><path d="M1251.276 1373.845c.665.705 2.435.46 3.397.547 1.434-.525 2.18-2.279 2.819-3.46l1.92-2.372c.242-1.577-.45-3.279-1.394-4.214l-2.174-3.046c-.916-1.34-2.992-.75-4.337-.56-2.07.332-4.187.953-5.663 2.536-1.347 1.33-2.62 3.087-2.776 4.982-.037.441.21.877.448 1.25.257.403.647.708 1.019 1.007.974.784 1.972 1.629 3.146 2.042.46.179.88.513 1.39.548" fill="#ff7f2a"/><path d="M1180.462 1374.059c-1.945-.435-4.116-1.085-5.132-2.967-.542-1.177-.877-2.664-.21-3.864 1.111-1.53 1.14 1.6 1.507 2.339.744 1.156 2.118 1.726 3.348 2.196 1.605.749 2.896-.498 2.37-2.103.273-.91-1.137-2.848-1.305-1.06.388 1.127-.858 3.351-1.81 1.674-.424-1.603.291-3.636 1.704-4.54 1.69-.793 2.97 1.24 3.096 2.7.246 1.9.07 4.343-1.74 5.43a2.4 2.4 0 0 1-1.828.195z" fill="#803300"/><path d="M1169.911 1360.77c-.637-1.203-1.644-2.266-1.924-3.597-.25-1.186-.087-2.47.278-3.627.276-.877.6-1.91 1.404-2.375.836-1.535 1.892-3.192 3.654-3.74 1.952-.175 3.298 1.665 4.106 3.201.792 1.889.892 4.035.617 6.04-.549 2.228-2.643 4.047-4.998 3.907-1.125.266-2.435-1.315-2.673.329-.142.162-.388.005-.464-.137z" fill="#a40"/><path d="M1174.679 1358.557c1.729-.566 2.08-2.651 1.767-4.22-.264-1.875-.933-4.046-2.756-4.944-1.583-.358-2.358 1.677-2.897 2.839-.391 1.474-1.29 3.23-.395 4.664 1.013 1.226 2.66 2.2 4.281 1.66z" fill="#f60"/><path d="M1228.861 1359.193c-1.659-.285-3.321-.625-4.872-1.273-2.054-1.043-3.299-3.375-3.134-5.656-.786-1.607 2.042-2.272 1.37-.224.24 2.114 1.804 4.06 3.892 4.6 2.232.69 4.65.827 6.927.298 2.148-.888 3.374-3.125 3.942-5.275.455-2.293.157-4.851-1.213-6.788-.655-.035-.99-1.797-2.194-1.832a11.5 11.5 0 0 0-4.503-.378c-1.75.034-3.251 1.024-4.699 1.89-2.906 1.891-4.97 5.222-4.962 8.735 1.349.867.646 3.001-.947 2.563-1.333-1.254-.972-3.294-.55-4.884.907-3.872 3.944-6.939 7.385-8.736 1.097-.605 2.341-.91 3.53-1.258 2.056-.26 4.23-.265 6.206.392 2.182.913 3.361 3.175 3.799 5.393.701 3.624-.619 7.462-3.087 10.152-1.52 1.37-3.493 2.233-5.558 2.21-.443.029-.888.048-1.332.071zM1257.12 1357.144c.132-1.536-1.724-1.61-2.676-2.243a37.978 37.978 0 0 1-6.56-4.875c-.487-.449-.893-.98-1.31-1.494-.85-1.05-1.746-2.083-2.425-3.249-.38-1.039-1.054-1.905-1.42-2.794.66-.937.735-2.171 1.256-3.186.504-.981.935-2.09 1.796-2.778.785-.628 1.848-.822 2.829-1.04 2.666-.595 5.53-1.423 8.165-.704 1.428.39 2.71 1.406 3.618 2.575 1.358 1.748 2.321 3.955 2.396 6.194.136 1.395.353 2.781.468 4.178.758 1.448-.248 3.156-.442 4.63-.931 1.11-2.067 2.041-2.8 3.322-.635.974-1.78 1.655-2.895 1.464z" fill="#a40"/><path d="M1253.533 1351.474c-.128-.279-.173.307 0 0z"/><path d="M1252.551 1335.838c-1.398.056-2.418 1.41-3.652 2.071-.827.443-1.973.499-2.51 1.267-.715 1.018-.757 2.502-.443 3.706.278 1.063 1.282 1.786 1.94 2.667.807 1.08 2.462 3.209 2.462 3.209 1.618 1.53 5.295 4.735 7.055 4.877.641-.056 1.238.774 1.81.338.706-.948 1.662-1.761 1.521-3.137-.123-1.399-.13-2.809-.285-4.205.073-1.392.028-2.817-.384-4.14-.21-.676-.712-1.225-1.04-1.852-.396-.757-.51-1.706-1.12-2.305-1.403-1.381-3.386-2.574-5.354-2.496z" fill="#d45500"/><path d="M1182.822 1354.303c-1.99-.625-2.927-2.69-3.648-4.47-.8-2.806-.594-6.261 1.561-8.43 1.039-.999 2.525-.625 3.769-.383 1.383-.052 2.576.758 3.459 1.747 1.712 2.205 1.472 5.353.467 7.81-.895 1.804-2.388 3.842-4.615 3.838a4.21 4.21 0 0 1-.993-.112z" fill="#a40"/><path d="M1184.735 1352.796c2.899-1.063 3.797-4.9 2.554-7.517-.565-1.249-1.847-2.456-3.297-2.262-.931.876-.968 2.41-2.138 3.172-.773 1.216-1.325.055-.625-.769.11-1.001.868-2.375.787-3.066-1.32.48-1.488 2.123-1.547 3.342-.16 2.527.48 5.49 2.792 6.897.446.242.98.337 1.474.203z" fill="#ff7f2a"/><path d="M1210.625 1348.885c-2.168-.538-4.37-.837-6.577-1.165-1.645-.322-3.184-1.262-4.307-2.495-1.558-1.903-1.065-4.636.19-6.552 1.606-2.368 4.136-4.138 6.976-4.644 2.557-.763 5.48-.244 7.621 1.334 1.982 1.614 2.518 4.296 2.75 6.706.032 2.109-.108 4.722-2.01 6.044-1.43.823-3.021 1.003-4.643.772z" fill="#803300"/><path d="M1214.042 1346.869c1.779-1.074 1.532-3.469 1.258-5.234-.317-2.199-1.395-4.664-3.682-5.385-1.946-.86-4.156-.725-6.123-.016-1.605.485-3.109 1.437-3.937 2.933-1.01 1.476-1.517 3.842.05 5.134 1.023 1.11 2.5 1.33 3.871 1.721 1.322.827 2.806-.634 4.008.378 1.036.963 2.86.518 4.227.532.112-.01.22-.035.328-.063z" fill="#d45500"/><path d="M1173.547 1339.272c-1.487-.42-2.464-1.896-2.555-3.395-.595-1.59-1.06-3.388-.046-4.934.725-1.524 1.798-2.93 3.373-3.635 1.333-.794 2.922-1.398 4.478-.907 1.347.042 1.93 1.442 2.106 2.58.563 2.403-.897 4.563-2.07 6.519-1.207 1.837-2.94 3.67-5.286 3.772z" fill="#a40"/><path d="M1174.67 1337.266c1.786-.644 2.715-2.458 3.655-3.976.669-1.354 1.459-3.185.22-4.47-.918-.89-3.535-.897-3.57.714.165.987 2.006-.254 1.513 1.226-.443 1.494-1.011 2.99-.888 4.566-.17 1.295-1.71 1.503-2.333.625-.762.65.845 1.67 1.403 1.315z" fill="#ff7f2a"/><path d="M1173.748 1334.295c.318-.945.263-3.411-.819-3.316-.746 1.067-.82 3.239.786 3.407z" fill="#ff7f2a"/><path d="M1188.017 1334.953c-1.122-.365-2.182-1.136-2.837-2.118-.685-1.025-1.399-2.483-.908-3.587.527-1.284.22-2.974 1.206-3.924.706-.68 1.864-.837 2.842-.759 2.269.182 4.994.726 6.234 2.788 1.115 1.53 1.567 3.844.198 5.375-1.161 1.512-3.186 1.865-4.948 2.203-.592.073-1.22.206-1.787.022z" fill="#a40"/><path d="M1190.581 1333.062c1.32-.164 3.544-.95 3.174-2.602-.503-1.457-1.583-2.724-2.848-3.583-1.293-.93-3.784-.93-3.88 1.113-.085 1.692.406 3.604 1.72 4.75a2.07 2.07 0 0 0 1.834.322z" fill="#d45500"/><path d="M1203.12 1327.49c-1.299-.588-2.03-1.936-2.751-3.096-.194-.817-1.127-.917-1.557-.223-.646-1.532.112-3.151.423-4.646-.34-.86-1.333-2.514.38-2.232 1.2-.84 2.166-2.199 3.816-2.18 2.516-.317 4.677 2.267 4.345 4.688-.005 2.667-.544 5.828-3.017 7.331-.486.292-1.07.483-1.64.359z" fill="#a40"/><path d="M1204.915 1325.121c.947-1.123-.078-.864-.758-.278-1.51.653.474 1.444.758.278zM1203.358 1323.54c1.676-.842 2.628-2.877 1.977-4.68-.322-1.731-2.255-2.012-3.15-.535-1.49 1.255-.666 3.185-.188 4.706.197.573.863.96 1.361.508z" fill="#ff7f2a"/><path d="M1130 1380.204c-.592-.231-.157.719 0 0zM1153.843 1357.11c-.086-.363.118.078-.035.107zM1130.086 1384.782c-.015-.396.519.436 0 0zM1129.745 1369.033c-.415-.544.176-.318 0 0z"/></g><g><path d="M706.294 1289.93c-2.216-2.15-2.95-5.434-4.37-8.118-1.11-2.53-2.276-5.134-3.292-7.643-3.546-8.329-6.84-16.914-9.38-25.661-2.513-7.94-4.086-16.197-5.481-24.415-.754-5.866-1.804-11.735-1.613-17.672-5.41-2.268-10.493-5.252-15.563-8.136-2.985 2.097-2.924 6.525-5.699 8.517-1.216.874-2.849 1.009-4.338 1.176-2.851.32-6.068.167-8.602-.354-7.025-.34-14.01.435-20.96 1.37-1.712.281-7.782.997-5.781-1.605 5.062-.093 10.097-1.055 15.125-1.645 6.684-.565 13.419.11 20.088-.529 4.019.3 5.257-3.879 7.448-6.368 2.717-2.92-4.077-4.089-5.482-6.538-2.148-2.292-5.42-3.929-6.138-7.208-.757-2.874.188-6.792.383-9.141-9.806 4.952-20.664 8.145-29.423 15.046-5.56 3.838-10.1 8.95-15.1 13.39-2.21 2.604-3.31-1.874-.822-1.705 3.599-2.797 6.5-6.498 10.113-9.215 6.85-6.428 15.25-10.94 23.923-14.439 4.131-1.86 8.322-3.606 12.263-5.85 2.157-5.3 5.26-10.173 9.31-14.25 6.349-7.017 13.914-12.697 21.4-18.418 9.276-6.902 19.07-13.287 29.824-17.683-2.055-1.518-6.463-2.643-9.596-3.317-8.913-1.806-18.07.044-26.796 2.03-5.303 1.102-10.472 2.807-15.804 3.737-5.756.649 4.913-7.06 1.962-2.415 3.561-.282 6.94-1.857 10.5-2.359 6.902-1.65 13.887-3.131 20.983-3.55 6.163-.364 12.277.894 18.01 3.098 3.057 1.692 6.103 1.122 9.193-.219 11.335-3.395 23.23-3.76 34.938-4.735 4.08-.379 8.184-.532 12.274-.71-5.92-4.131-12.036-8.042-17.406-12.904-4.714.86 1.483-4.377 2.645-.739 5.757 5.154 12.378 9.141 18.602 13.66 4.048.73 8.268.896 12.258 2.075 8.936 2.706 17.556 6.283 26.386 9.269 6.37 2.24 12.532 5.025 18.799 7.532 2.229-2.512 4.078-5.523 6.216-8.18 6.701-9.417 15.55-17.09 25.16-23.44 1.899-.933 5.864-4.971 7.033-2.345-2.911 1.942-6 3.738-8.817 5.884-9.106 6.15-17.054 14.02-23.382 22.998-.503 2.164-6.541 5.618-2.74 6.662 6.693 2.92 13.092 6.837 18.01 12.313 4.651 4.628 8.05 10.371 10.513 16.408 2.358 4.785 4.647 9.758 6.053 14.955 1.64 1.322 5.435-1.77 7.864-1.977 9.061-3.128 18.46-5.142 27.92-6.636 5.632-.93 11.229-2.295 16.928-2.675 1.538 2.652-4.472 1.898-6.273 2.614-12.947 2.319-26.062 4.146-38.547 8.455-2.168 1.438-7.97.841-7.12 4.38.98 7.523-3.027 14.94-8.906 19.466-6.906 5.433-15.376 8.452-23.695 11 1.268 1.419 6.217 1.968 8.812 3.263 12.647 4.19 24.06 11.58 37.148 14.524 7.237 1.786 14.58 3.506 22.088 3.452-.261-1.393-2.512-7.099 0-5.429 1.145 2.601 4.44 8.71-1.16 7.788-7.58-.058-14.981-1.96-22.324-3.65-8.753-2.224-16.855-6.193-24.981-9.967-7.763-3.594-15.901-6.422-24.13-8.66-10.53 2.812-21.253 4.79-31.994 6.596.36 4.694 1.847 9.259 3.247 13.74 2.903 7.429 5.89 14.853 9.855 21.78.933 2.086 3.986 5.842 4.14 1.465 3.208 2.027-2.093 6.867-3.922 2.576-4.84-6.921-7.846-14.917-11.083-22.649-1.867-4.986-3.38-10.12-4.246-15.394-1.407-2.528-6.215.218-9.007-.24-9.405.818-18.894.738-28.306.062a93.6 93.6 0 0 1-14.093.841c-.09 2.696.008 5.418 1.27 7.866 1.38 4.022 3.192 7.909 5.788 11.324 6.148 8.847 15.18 15.085 23.605 21.584a24.063 24.063 0 0 0 5.318 4.03c1.948 1.528-.537 4.391-2.006 1.632-3.44-3.304-7.252-6.178-11.092-8.987-1.89-.839-4.184-3.667-6.444-5.148-7.307-6.136-13.76-13.748-16.766-22.925-1.405-2.98-2.072-6.26-1.868-9.558-10.891-1.272-21.18-5.255-31.813-7.69-9.727-2.65-19.796-4.216-29.163-8.074-.466 3.413.319 7.018.67 10.464.68 5.524 1.622 11.038 2.709 16.504 1.112 4.882 2.295 9.743 3.674 14.509 1.47 4.42 2.855 8.88 4.558 13.237 3.024 8.043 6.24 15.985 10.073 23.691 1.17 3.744 1.423-2.357 2.124-1.093 1.37.763.044 5.296-1.679 5.295z" fill="#d4aa00"/><path d="M762.327 1220.384c5.52-.895 11.12-2.237 16.278-4.213 3.788-.812 7.234-2.657 10.87-3.944 2.34-1.823 7.386-1.738 7.654-5.094-.229-2.396 1.396.068 1.813.542.387.44.191 1.157.282 1.737.522 3.335.052 7.888 1.507 10.016 10.075-1.553 20.141-3.433 29.975-6.09-2.301-.287-3.759-3.671-.589-2.952 2.589 2.788 6.174 1.896 9.291.534 9.236-2.948 18.884-6.823 24.957-14.751 2.741-3.775 4.293-8.566 3.652-13.298-.541-2.583-4.766 1.055-6.841 1.05-1.388 1.255-5.238-.053-2.195-1.12 2.56-1.06 7.678-1.13 8.311-3.8-2.277-7.286-5.636-14.174-8.89-21.061-4.985-8.725-12.602-16.121-21.842-20.211-2.655-1.76-5.669-3.162-7.372.454-.627 2.01-5.062 2.592-2.603.094 1.207-1.185 5.225-3.897 1.477-4.37-8.601-3.806-17.449-7.009-26.33-10.075-7.988-2.936-15.901-6.49-24.464-7.305.511 1.482 4.71 3.654 6.498 5.615 2.805 2.36 5.523 4.96 7.941 7.496-.784 4.03-4-1.565-5.718-2.442-4.292-4.15-8.994-7.838-13.936-11.179-10.889-.204-21.697 1.288-32.537 2.06-6.576.748-13.213 1.802-19.445 4.093 2.704.738 6.39 3.282 8.57.14 1.442-2.36 4.06-.562 1.472 1.08-2.016 2.092-4.78 3.326-7.552 1.774-3.237-1.049-6.625-2.515-9.702-.194-10.257 4.556-19.724 10.725-28.632 17.512-8.813 6.693-17.685 13.631-24.335 22.568-1.319 1.998-3.377 4.995-3.602 6.754 4.282-2.452 8.61-4.892 12.799-7.474 3.202-2.02 4.838-5.502 6.994-8.465 3.483-1.934-.165 3.611-1.232 4.633-2.903 5.574-9.217 7.573-14.062 10.96-2.392 1.821-6.728 2.282-6.544 6.07-1.03 3.871-1.006 8.602 2.71 11.041a50.621 50.621 0 0 0 9.225 7.23c1.216-1.802 3.535-3.495 4.188-5.343-.567-2.215-.354-4.538-2.88-5.553-2.671-2.249-6.031-4.266-7.347-7.63-.94-2.85 3.587-2.895 1.636-.132 1.762 3.59 5.397 5.788 8.486 8.114 1.54-.871 1.636 2.883 3.633 3.228 3.242 2.835 6.227 5.934 9.642 8.547 1.949-.536 2.038 2.83 4.297 3.223 6.68 4.618 14.336 7.603 21.917 10.347 13.116 4.204 26.68 7.007 40.355 8.779 4.055.338 8.14 1.39 12.22 1.005zM751.006 1221.277c-1.361-.57-5.664-.239-2.263-.007.753-.073 1.523.19 2.263.007z" fill="#fd5"/><path d="M779.898 1221.167c6.121-.041 12.287-.486 18.311-1.48-.996-2.523.197-7.843-1.776-8.92-8.816 4.462-18.173 7.775-27.72 10.244 3.64.358 7.478.196 11.185.156zM745.679 1220.898c-2.093-1.323-6.856-1.02-9.867-2.07-1.327-.146-5.916-1.224-5.546-.868 4.877 1.436 9.88 2.555 14.928 3.136z" fill="#fd5"/><g fill="#a0892c"><path d="M737.795 1191.057c-12.08-1.064-23.104-9.18-28.452-19.528-1.907-6.488 5.676-4.82 4.891.67 4.638 6.596 11.748 12.023 19.688 14.41 8.565 1.134 18.027 1.914 26.089-1.451 10.105-4.982 18.986-13.319 21.256-24.434 5.812.73-.304 12.677-3.95 15.606-7.938 8.865-19.388 16.086-32.02 14.763-2.5-.001-5.002.032-7.502-.036z"/><path d="M740.84 1163.718c-6.52-4.334 2.19-9.18 3.261-2.012-.238 1.338-1.855 2.622-3.262 2.012zM718.923 1152.733c-3.366-7.426 10.779-1.457 0 0zM757.835 1143.394c-2.189-5.317 8.444-4.08 3.05.33-.818.303-2.54.863-3.05-.33z"/></g><path d="M710.119 1212.637c-8.695-3.148-17.477-6.565-24.91-12.182-1.54-.397-2.016 5.733.664 5.594 7.815 3.065 16.11 4.633 24.222 6.656zM682.268 1203.582c.113-2.776 1.516-5.668-1.89-7a707.928 707.928 0 0 0-8.189-7.551c1.989 3.177-2.72 4.648-3.923 7.144-.296 2.149 4.568 3.01 6.245 4.53 1.855.395 6.98 4.795 7.757 2.877z" fill="#fd5"/></g><g><path d="M860.063 1698.015l2.834-.092c2.547.132 4.991.318 7.527.035 1.664-.506 2.605 1.438 2.526 2.187-.225 2.143-4.686 2.383-4.605 4.536.045 1.187 1.532 2.257 2.718 2.302 1.266.047 2.054-1.483 3.075-2.233 1.991-1.462 2.663-1.96 4.67-4.716 1.103-.789.18-3.238 2.637-2.68 3.494-.688 3.19 3.797 3.588 6.107.42 2.384 5.337 3.371 5.622.364 1.81-1.857-1.078-4.595-.394-6.87 1.746-.338 4.054-1.15 6.171-1.466 2.953-1.6 4.683 1.485 6.577 3.183 2.457 1.392 3.641 3.896 4.932 6.299.468 1.337 2.403 2.196 3.228 1.986l.16-.592c2.327-1.747.077-4.574-1.067-6.666-.37-2.389-2.658-3.725-4.188-5.386-1.484-.98-1.826-2.153.243-2.757 1.298-.79 2.607-1.561 3.91-2.342 1.652 1.184 3.684 1.62 5.566 1.888 3.005.187 5.935-.672 8.748-1.595 2.585-.387 5.547-1.022 7.172-3.254-1.418-2.194-4.417-1.189-6.649-.95-2.29-.255-4.565 1.122-6.969 1.189-1.234-.188-4.983.056-2.392-1.619 2.102-1.28 3.369-3.56 4.6-5.477 1.193-2.5 2.328-5.018 2.287-7.825.07-2.46.162-5.3 3.342-5.048 1.788-1.08 4.428-.814 6.693-1.702 2.44-.938 5.004-1.417 7.456-2.356 3.973-.69 7.47-2.952 11.017-4.765 3.447-1.959 7.36-2.797 10.777-4.818 2.58-1.33 5.145-2.79 7.998-3.387 2.25-1.182 4.805-1.779 7.02-3.11 2.034-1.197 3.584-2.178 5.667-3.386 3.5-1.214 6.642-3.373 9.818-5.291 4.657-3.208 9.754-5.752 14.4-8.995 2.736-1.893 5.153-4.213 8.045-5.898 2.886-1.905 4.89-4.826 7.736-6.776 2.011-2.103 3.924-4.313 5.888-6.414 1.836-1.864 2.548-4.451 4.525-6.2 1.534-1.87 1.468-4 2.775-5.805l2.709-6.086 2.314-4.376 1.104-7.149.89-2.246 1.531-6.408.674-5.532-.29-6.754c.243-1.761.32-3.148-.007-4.703-.462-2.278-.906-4.566-1.15-6.878-.109-1.027-.094-2.063-.14-3.095-.017-.409-.024-.819-.052-1.227-.091-1.354-.157-2.714-.375-4.054-.546-3.347-1.502-6.624-2.33-9.904-.639-3.713-1.943-7.447-3.049-11.112-1.262-4.138-2.884-8.155-4.741-12.053-.852-1.634-1.481-3.573-2.629-5.58-4.731-8.996-10.683-17.272-15.625-26.15-1.432-2.64-3.758-4.573-5.505-6.994-1.657-2.24 3.343-4.305.899-6.865-1.19-1.953-3.319-2.939-4.814-4.699-1.913-2.245-5.127-2.026-7.746-2.42-2.717-.75-5.259.115-8.008-.554-1.96-1.687-.291-5.353-.563-7.86.78-2.694-.89-5.01-2.095-7.277-1.08-1.436-3.677-3.342-5.873-4.36-2.052-.685-4.12-1.408-6.277-1.668-.58-6.484-1.404-12.941-2.554-19.352-.607-3.756-.66-7.586-1.332-11.327-1.23-2.417-4.819-1.385-6.08.355-.479 1.81-.798 4.823-1.942 6.827-.52 2.593-1.791 5.163-2.57 7.77-2.143 4.41-3.102 9.33-5.427 13.675-.808 2.41-1.529 4.938-1.629 7.416.247 2.695.165 5.525-.008 8.14-1.025 1.91-5.461 1.743-7.511 3.44-2.188.561-4.774 3.87-6.78 2.027-2.219-3.242-5.356-5.666-8.293-8.205-1.623-1.172-3.171-3.11-4.779-4.565-1.784-1.779-3.863-3.34-5.24-5.324a119.339 119.339 0 0 1-5.653-5.782c-1.823-2.716-4.793-1.105-6.64.688-.19 2.725 1.533 5.144 2.117 7.794 1.003 3.863 2.96 7.355 4.33 11.077 1.144 3.379 2.495 6.774 3.044 10.345.761 3.358.99 6.892.552 10.304-.848 2.528-1.66 5.178-3.766 7.167-1.75 2.318-3.334 4.664-4.779 7.18-1.431 2.433-3.099 4.604-4.63 6.957-1.31 2.216-2.793 4.511-3.756 6.994-1.384 2.48-2.871 4.832-4.182 7.364-1.193 2.866-2.635 5.652-3.824 8.496-1.289 2.567-2.47 5.232-3.73 7.821-.388 2.535-1.985 4.698-2.531 7.233-.443 2.524-1.666 4.787-1.983 7.227-.745 2.962-.557 6.043-.45 9.106.209 4.741 1.49 9.35 2.548 13.944.448 2.15 1.811 4.764 1.686 6.565.76 1.542 1.42 4.411 2.163 6.455 1.278 4.607 2.69 9.173 4.09 13.744 1.13 2.44 1.233 5.182 2.459 7.633 1.763 4.22 4.15 8.241 7.608 11.292 2.246 1.652 3.296 4.481 4.601 6.884 1.396 2.603 1.32 4.224 2.58 6.606l.978 3.805-.004 4.12c.692 2.41.74 5.024.518 7.321-.162 2.835.096 5.712.16 8.44-.01 2.69 1.417 5.348.015 7.952-.083 3.603-3.846 2.534-6.15 3.037-1.912.5-2.869.029-5.007.829-2.606.688-5.11.964-7.751 1.627-3.009.629-5.916 1.749-8.951 2.135-2.858.854-5.6 1.942-8.481 2.733-2.71.748-5.535.915-8.26 1.515-3.074 1.159-6.168 2.279-9.354 3.073-2.137.263-4.555 1.424-6.51 2.734a9.054 9.054 0 0 0-2.382 2.372c-1.093 1.584 1.483 5.593-2.353 5.273-2.476.833-17.472 3.356-19.882 4.414-2.288.54-4.42 1.125-6.492 1.954-3.184 1.656-6.474 3.15-9.51 5.066-2.172 2.227-.197 5.374 2.07 6.592 2.358 1.52 5.112 1.434 7.76 1.765 2.47-.04 5.007-.167 7.476.144 1.694.059 4.68-.438 6.969-.94 1.838-.404 3.597-1.111 5.397-1.66 1.636-.497 3.258-1.046 4.912-1.48 2.243-.59 6.022-4.02 6.789-1.521.475 1.547-.743 6.95.754 7.907z"/><path d="M900.043 1688.483c-2.53-.818-3.968.857-5.35 2.617-2.729.884-5.352 1.186-7.622-.753-1.8-.098-4.09.048-4.99 2.146-2.959 1.683-5.643-1.644-8.437-.389-2.744 1.612-6.1 1.441-9.113.96-1.065.311-4.785-.164-2.844-1.555l-1.129-6.231c-.253-2.588-1.34-5.372-1.153-7.806 2.375.474 2.074-4.829-.913-4.226-3.095-.433-3.153-4.585.085-4.964 2.282-1.371 4.906-1.77 7.278-2.923 2.212-1.203 4.567 2.04 6.923-.133 1.538-2.858 5.014-2.76 7.77-3.492 2.712-.718 5.23-2.067 7.918-2.794a255.27 255.27 0 0 1 7.12-1.928c2.546-.06 4.659 1.941 7.143 2.321 2.622 1.307 4.626 3.71 7.13 5.01 1.7 2.085 5.378 1.532 6.786 3.649-.11 2.97-.416 5.803-1.764 8.553-1.284 2.057-2.43 5.81-5.248 5.394-2.468-.683-6.04 1.128-3.975 3.907-1.176 1.36-3.772 2.86-5.615 2.637zM1037.791 1548.078c.218 2.72.558 5.306.77 7.99-.056 2.6.363 4.931.087 7.466-.104 2.532-.108 5.123-.521 7.653-.537 3.783-1.263 7.54-2.44 11.182l-2.029 5.102-2.967 4.632-2.688 7.04c-1.72 3.605-4.631 6.43-7.191 9.443-1.848 1.74-3.529 3.825-5.506 5.465-2.272 2.585-5.222 4.561-7.852 6.823-3.078 2.332-6.246 4.53-9.546 6.546-3.734 2.904-8.007 5.022-11.993 7.557-2.044 1.048-3.874 2.678-6.046 3.339-2.142 1.354-4.37 2.895-6.815 3.567-1.93 1.559-4.558 2.297-6.83 3.458-3.208 1.542-6.483 2.954-9.667 4.508-3.19 1.234-6.199 2.982-9.509 3.911-3.34 1.34-6.315 3.612-9.943 4.163-2.339 1.53-5.149 1.81-7.737 2.572-2.659 1.166-5.65 1.321-8.487 1.583-1.756-.798-5.533 1.402-4.155-2.023l1.712-5.833 1.383-3.858 1.089-4.528c.4-2.35-.077-4.649-.2-6.917-.03-2.704-.068-5.367-.023-8.045-.267-2.026-.462-5.284-.849-7.78.21-2.82-.829-5.606-1.55-8.31-2-6.862-5.662-13.22-10.562-18.416-2.08-2.348-3.404-5.158-4.403-8.112-1.577-4.526-2.765-9.201-4.545-13.648-1.57-5.848-3.515-11.593-5.152-17.421-1.804-4.593-2.495-9.496-3.134-14.355-.28-4.575-.279-9.235 1.154-13.634.518-2.843 1.68-5.397 2.545-8.083 1.405-2.743 2.174-5.762 3.684-8.443 1-1.876 1.856-4.436 3.03-5.838.307-2.517 2.28-4.557 3.142-6.956 1.398-2.563 2.839-5.065 4.007-7.723 1.508-2.1 2.527-4.082 3.856-6.173 1.786-2.271 2.843-5.027 4.803-7.152 1.41-1.906 2.323-3.843 4.163-5.31 2.093-.68 4.313-1.189 4.322-3.972.819-3.07 3.606-5.035 5.96-6.948 1.94-.993 4.109-4.207 6.271-2.567 2.99.714 5.329-1.83 7.256-3.723.715-1.706-3.636-.589-1.173-1.956 2.546-1.65 5.287-2.96 8.266-3.58 2.866-.772 5.808-.783 8.727-.905 2.155.243 4.196-.414 5.692.725-.263 3.02 3.4 4.003 5.536 2.422 2.537-1.85 4.842 1.45 7.308 1.917 2.881.99 3.295 3.207 4.003 5.821 1.197 2.101 3.618 3.6 4.784 5.945 1.842.954 3.803 1.545 5.811 2.133 2.549.6 5.15.708 7.616.317 2.393-.074 3.437 2.852 5.022 4.329 2.116 2.8 4.036 5.755 5.823 8.792 3.148 4.937 6.37 9.838 9.318 14.897 2.408 4.603 5.041 9.142 6.742 14.06 1.336 2.355 2.062 4.966 2.716 7.541 1.081 2.035 1.101 3.78 1.862 6.273 1.182 5.3 2.987 10.456 3.79 15.844" fill="#f60"/><path d="M988.505 1555.189c2.083-2.24 4.445-4.249 6.325-6.658 1.213-2.249 2.385-4.387 3.709-6.615.906-2.472 1.53-5.169 3.488-7.015.513-2.714-3.14-1.005-4.37-2.41-3.413-.756-4.105 2.82-5.113 5.148-.668 2.697-2.497 4.936-3.43 7.515-1.614 2.015-3.464 4.127-5.627 5.657-2.54.911-5.344 4.02-8.055 2.895-1.1-2.923-2.72-5.648-3.459-8.714-1.45-3.797-2.683-7.665-3.842-11.56-.825-2.38-.875-4.96-1.252-7.451-1.265-2.85.068-4.893 1.598-7.214-.015-2.438-3.633-2.835-5.534-2.484-2.624-.045-1.327 3.206-3.388 3.748-.76 2.619.416 5.278.598 7.9.302 2.694 1.165 5.354 2.059 7.97 1.077 4.193 2.701 8.207 4.128 12.291.925 2.402 2.724 5.53 2.59 7.738-2.493.363-4.973.757-7.516.631-2.41.256-4.805-.222-7.223.198-2.808-.24-5.76-.188-8.423-.613-3.029-.528-6.075-.804-9.093-1.467-2.57-.352-4.91-2.265-7.495-.896-2.725 1.932 1.133 4.896 3.311 4.98 2.153.152 3.858.717 5.976 1.338 2.83.125 5.685.654 8.452 1.366 2.542-.034 5.148.466 7.71.351 2.418.366 4.99-.192 7.492.072 1.392-.287 6.01-.421 5.6.012l1.757-.772c2.329.28 4.717-.41 7.052-.835 2.555-.234 4.867-1.02 7.073-2.392 1.659-.855 3.375-1.632 4.902-2.714zM972.04 1496.98c2.438-2.773-1.165-4.671-3.744-4.894-2.07-.44-2.023 2.297-4.114 2.335-2.804 1.825-.129 4.675 2.476 3.754 1.659-.249 4.228.088 5.383-1.195zM946.112 1499.606c3.02-1.498.564-4.008-1.926-3.863-2.408-.916-6.138 1.555-3.248 3.824 1.613.476 3.796 1.86 5.174.04zM909.554 1657.461c-.889-.563-3.425-1.633-3.189-2.058 1.994-.34 6.47-2.209 4.502 1.517-.222 1.087-.431 1.43-1.313.541z"/><path d="M845.554 1683.946c-1.86 1.133-3.99 1.774-6.034 2.491-2.846 1.15-5.821 1.702-8.819 2.052-2.345.273-4.769.49-7.084.025-1.878-.376-5.313-.32-5.292-2.234.052-4.518 10.117-4.237 12.607-4.986 3.408-1.684 7.28-1.82 10.876-2.854l7.341-.625 3.187.007c.57 1.209 2.526 3.448.043 3.653l-.448.141-.423.136-2.475.794z" fill="#f60"/><path d="M991.003 1460.238c.083-2.479 4.621-2.677 7.074-2.306 1.966.297 4.918 1.454 4.871 3.442-.033 1.394-2.138 2.121-3.526 2.25-3.012.28-8.521-.363-8.42-3.386zM981.783 1449.552c-2.047-1.058-4.484-1.579-6.165-3.312-2.258-1.936-.877-5.01-.65-7.387.592-3.178 4.372-.597 5.792.864 2.53 1.39 2.466 4.99 2.402 7.551-.048.683-.212 3.035-1.38 2.284z" fill="#c83737"/><path d="M965.782 1445.053c-1.892-.472-6.094.98-5.816-2.161-.466-2.63-.424-5.41-.062-8.074.398-2.624 1.457-5.469 2.356-7.627 1.023-2.162 1.545-4.321 2.642-6.325.438-1.483 1.98-5.615 2.137-1.952.688 5.262 1.478 10.527 1.696 15.833.687 2.867-2.413 4.607-2.081 7.482.054.904 1.18 3.602-.872 2.824zM925.35 1461.224c-.381-2.36-.782-4.65-1.336-7.015-1.187-3.802-2.23-7.659-3.822-11.322-.667-1.516-.635-3.08.756-1.116 2.133 1.946 4.378 3.796 6.307 5.95 2.594 1.409 4.334 4.036 5.988 6.42 1.451 2.449-2.94 3.56-4.317 4.916-1.327.435-2.427 1.909-3.576 2.167z" fill="#a40"/><path d="M884.915 1548.39c-1.347-.484-.413 1.378 0 0z"/></g></svg>