<svg xmlns="http://www.w3.org/2000/svg" xmlns:xlink="http://www.w3.org/1999/xlink" width="1024" height="768"><defs><linearGradient id="b"><stop offset="0" stop-color="#009633"/><stop offset="1" stop-color="#063"/></linearGradient><linearGradient id="c"><stop offset="0" stop-color="#fff"/><stop offset="1" stop-color="#54deff"/></linearGradient><linearGradient id="a"><stop offset="0" stop-color="#fff"/><stop offset=".5" stop-color="#d4c37f" stop-opacity=".498"/><stop offset="1" stop-color="#a80" stop-opacity="0"/></linearGradient><linearGradient xlink:href="#a" id="e" x1="-45.755" y1="296.36" x2="1051.261" y2="296.36" gradientUnits="userSpaceOnUse" gradientTransform="matrix(1.33249 0 0 3.79058 -489.276 -1375.305)"/><radialGradient xlink:href="#b" id="f" cx="502.638" cy="609.739" fx="502.638" fy="609.739" r="564.019" gradientTransform="matrix(1.3636 0 0 .9723 -345.763 315.026)" gradientUnits="userSpaceOnUse"/><radialGradient xlink:href="#c" id="d" cx="-298.481" cy="496.389" fx="-298.481" fy="496.389" r="450.22" gradientTransform="matrix(1.62399 0 0 3.02138 665.367 -1751.707)" gradientUnits="userSpaceOnUse"/></defs><path transform="rotate(-90)" opacity=".99" fill="url(#d)" stroke="url(#e)" stroke-width="2.247" d="M-549.577-1610.865h1460.43v2717.872h-1460.43z"/><path d="M1103.22 1441.884l-1524.356 5.916c.067 7.026-12.964-793.681 3.721-845.29 26.04-23.443 52.75-35.327 79.11-52.117 20.007-9.067 39.923-22.29 60.099-25.094 30.05-13.235 60.292-12.52 90.57-19.102 41.181-.71 82.264 12.532 123.388 8.735l27.721-2.56c40.361-3.725 80.74-8.472 121.028-17.34 53.232-14.205 106.041-41.026 159.181-59.193 61.862-22.04 123.551-52.83 185.793-57.253 81.349-15.293 162.85-9.572 244.276-9.905 59.604-1.713 119.237 8.39 178.373 35.622 43.834 17.335 87.24 47.86 131.218 61.513l116.47 42.841c9.938 266.069 2.98 629.69 3.408 933.227z" fill="url(#f)" stroke="#244c26" stroke-width="10.929" stroke-dashoffset="2.08"/><path d="M881.625 90.275c-1.046-.027-2.2.83-3.244 3.091-7.017-1.194-17.196-.368-19.392 9.413-2.796 9.526-1.933-1.826-7.286-.872-.866 7.156-6.301-.639-7.775 3.902-.474 11.482-9.426 19.435-15.183 28.545-1.242 13.08 9.135-10.567 7.638-1.53-1.634 12.924-1.215 27.442-9.704 38.095-8.297 2.99-4.379 25.587-13.913 16.392-9.066-5.663-19.15-8.956-29.279-11.785-8.267 2.552.354-8.521.429-15.857.891-11.517-13.438-15.65-21.168-21.473-10.206-6.834-21.435-14.999-33.794-13.316-3.676.5-5.3 5.242-7.408 8.296-7.055 10.224-1.982 7.763.612 19.499-.156 8.086-15.335.321-20.723 5.678-7.445 3.766-20.231 12.884-10.377 21.35 8.327 4.069 20.136 5.875 28.774.353 1.535-11.85 20.493-.974 9.52 3.658-10.912 4.037-17.175 14.998-15.229 26.524 1.438 11.328 3.52 23.327 2.327 34.391-8.707-.547-2.218 18.379 4.867 20.418 14.104 3.945-3.836 1.617-9.061 2.05-14.873-.984-29.682-3.621-44.34-6.412 1.375-6.375-16.755-4.801-12.336 1.913 12.562 4.776 26.26 5.916 39.488 7.943 12.182 2.683 24.597 2.24 36.978 2.817 9.181-4.787 9.259 11.842 1.408 9.718-10.56 3.84-19.967 10.946-27.734 19.025.3 9.683 15.798-2.03 20.204-5.694 6.823-9.762 6.726.88 9.32 6.934-.04 12.634 12.577-.37 4.791-6.55-2.887-9.6 3.559-4.022 2.97 2.953-.885 6.504 10.814 15.908 10.116 6.03-3.443-6.581-9.362-18.977-1.423-23.937-5.468-.478-8.482-1.667-5.74-8.02 10.554.473 21.143 1.281 31.667 1.836-.417 8.144-1.455 16.71-2.938 24.887-7.991 2.069-1.224 8.367-7.408 11.158 3.815 6.637-8.84 8.524-11.74 15.764-.994 12.803 10.993-5.53 15.887-7.193 7.39-9.259 1.742 6.034 9.49 1.882 3.972-4.769 2.348-13.814 6.29-19.606-9.838.22-2.644-11.32-3.688-17.724-2.969-13.737 11.073-6.841 18.78-7.438 33.364 2.524 66.698-.352 100.02-2.755.011 6.54-6.469 17.865-9.244 25.927-5.482 17.45-12.758 33.91-13.928 52.207-3.147 18.42.162 37.627-6 55.558-8.717 24.142-15.893 48.797-22.606 73.558-7.463 19.903-16.768 39.107-24.489 58.926-11.55-3.502-3.79 7.51 2.71 8.31 5.956-8.108 7.57-21.168 13.1-30.855 5.533-15 13.924-28.99 17.755-44.585 2.207-7.48 4.523-18.06 6.903-23.57 2.354-12.255 6.643-24.162 11.234-35.738 2.814-8.832 5.919-19.312 5.847-29.54-.186-23.778 1.721-48.162 11.065-70.389 2.665-9.965 7.336-19.304 10.806-29.034 4.914-11.018 8.363-17.62 9.964-29.953 2.618-18.577.263-37.4 3.872-55.88 2.88-11.853 3.203-25.002 8.984-36.029 3.68 8.98.726 19.805-1.056 29.142-3.345 10.425-.82 21.09 2.893 30.978 1.315 9.077 7.3 25.747 19.147 18.856 9.105-13.387 22.026-23.503 32.371-35.937 9.279-8.391 8.813-21.932 15.58-31.82 5.4-11.054-8.606-2.094-12.902.291-4.143-3.22 5.974-11.963 10.423-14.219 8.59-14.403-24.74-.167-19.621-16.254 1.49-7.624.935-18.839-7.347-21.137-11.114 8.487-6.464-5.141-7.04-12-4.082-11.714-20.166-5.68-26.218 1.24-6.105 3.452-12.902 23.523-16.148 7.806-2.886-8.37-9.245-23.375-20.386-15.749-5.75 9.478-9.582-.32-14.433-5.449 2.675-3.084.744-8.947-1.929-9.014zm29.111 120.468c1.523 5.713-.37 16.78.107 24.458-.625 11.273.366 27.128-8.356 34.238-29.642 2.591-59.297 4.093-89.032 3.092-8.995-1.609-20.511.584-28.162-3.26 4.21-4.713 12.06-7.236 15.244-13.943 8.709-14.007 21.054-25.6 27.826-40.743 16.958 8.28 36.343 9.298 54.854 10.928 11.944 1.217 28.448 1.301 27.52-14.77z"/><path d="M692.9 172.947c1.907 8.157 23.64 9.105 18.545.154 2.427-3.6 7.764 2.512 12.441-3.08 7.204-3.213-2.118-13.804-8.579-9.177-8.196-4.248-20.679 3.7-22.407 12.103z" fill="#1a1a1a"/><path d="M727.996 155.47l3.623 11.276c5.586-2.522 19.962-.455 9.93 4.897-11.88-4.398-2.7 13.87 4.223 5.663 8.52-2.183 17.388-2.676 25.987-3.264 3.85-6.71 10.12-16.122 1.805-22.279-9.793-7.414-20.778-13.248-31.517-19.107-10.573-3.777-17.634-3.48-16.068 10.376l.898 4.533" fill="#333"/><path d="M729.676 143.367c6.38-8.899 12.963 8.766 1.993 9.13M746.804 143.78c4.941-1.717 19.816.607 7.89 4.712-8.046 3.298-11.565 1.811-7.89-4.712z"/><path d="M720.485 205.679c.22 13.36 3.714 26.49 2.117 39.91-4.68 11.131 12.7 13.345 17.398 13.592-1.266-5.777 4.001-17.775 7.35-7.74-1.646 6.163.344 8.173 3.289 10.816-11.8 5.28 9.71 3.52 13.887 3.801 7.623.2 14.203-1.636 17.507-6.88 8.546 6.121 12.96-9.606 18.753-14.336 5.396-6.917 8.724-12.995 14.684-19.312 5.958-7.053 9.505-15.982 3.327-23.678-2.11-11.593-17.161-14.347-26.432-18.657-10.69-4.505-21.7-4.752-27.966 6.385-4.749 7.02-10.834 17.557-18.177 6.312-5.4-5.425-10.13-14.276-17.588-4.923-6.48 2.184-7.012 8.964-8.15 14.71z" fill="#333"/><path d="M744.36 186.496c3.509 1.448 8.471 12.625 12.633 2.62 3.54-4.104 14.508-12.738 1.812-8.868-2.249 1.457-20.14 1.15-14.445 6.248z" fill="#333"/><path d="M754.788 182.886c.813.958-1.115.064 0 0z"/><path d="M723.555 260.265c3.37 2.024 19.348 4.964 7.905 1.208-.797.13-9.405-3.496-7.905-1.208zM729.996 267.735c3.338-.095-4.844-.786 0 0z" fill="#333"/><path d="M824.106 187.625c-2.529 8.943 3.997 18.482 8.878 24.76 14.332 6.334 30.44 7.84 45.958 8.988 9.12-.18 26.335 4.265 25.474-9.794 5.984-9.181 7.157-19.924 8.856-30.288 2.189-8.553 6.56-17.514 10.476-24.718 8.67 1.033 11.901 11.261 10.987 19.396.346 11.048-4.878 21.58-3.532 32.617 1.966 8.016 4.626 18.024 7.509 26.578 6.528 12.771 13.287-9.114 20.12-12.389 10.504-10.83 23.31-20.9 27.402-36.092 2.761-5.445 5.286-12.506-2.834-6.981-1.821 4.85-17.097 6.544-8.81.2 4.014-8.15 2.209-28.316-10.924-20.81-14.258 5.789-21.898-11.512-8.789-18.507 4.807-7.985-2.897-5.527-7.397-5.794 10.752-4.3 7.163-15.396 8.455-24.662-10.007-2.573-18.167 6.864-24.038 13.663-6.256 5.707-12.933 24.8-22.899 13.48-7.258-6.064-12.693-18.769-20.544-21.443-3.262 2.12 2.604-5.992-2.762-7.561-7.537-12.643-8.363 12.327-9.782 17.85.554 12.116-8.709 1.601-8.049-4.874-5.904-.617-9.164 13.52-15.606 16.17-9.142-7.04 5.346-21.317.602-31.108-7.388 5.09-7.808 20.916-11.572 30.231-1.089 11.717-1.702 24.248-7.536 34.718-4.838 4.09-8.88 9.967-9.643 16.37z" fill="#668000"/><path d="M855.695 127.872c5.789-.81 13.72-16.251 4.025-12.964-1.455 6.715-.676 7.194-3.885 11.885z" fill="#668000"/><path d="M863.752 110.423c6 9.149 14.193-11.017 10.112-13.203-5.051-2.006-13.645 10.944-10.112 13.203z" fill="#450"/><path d="M871.213 116.933c.334-3.557-1.746 2.053 0 0z"/><path d="M895.041 114.227c6.23 7.659 12.254 15.63 19.444 22.403 12.555-7.572-2.937-19.782-6.022-29.282-3.713-5.51-15.808 2.028-13.422 6.88zM952.834 152.834c6.908 6.699 8.225-3.462 4.035-6.27-1.686 1.8-3.873 3.576-4.035 6.27zM960.498 133.424c-.825 10.951 17.1-9.614 5.08-4.767-1.978 1.227-5.965 1.407-5.08 4.767z" fill="#450"/><path d="M962.223 145.066c.274 13.43 12.262-12.455.795-3.216l-.865 1.02z" fill="#668000"/><path d="M971.047 152.245c3.748-.752-2.364-3.26 0 0z"/><path d="M977.667 160.535c-1.807 13.034 9.114-3.277 8.793-2.367-2.457.723-11.542-3.323-8.793 2.367z" fill="#450"/><path d="M756.75 295.045c1.525-.036-1.539.963 0 0z"/><g><path d="M624.177 468.55c-.048-.576.64.428 0 0z"/><path d="M633.138 468.614c-1.28-.02-2.564-.122-3.835-.164-1.667-.013-3.33-.208-5-.178-2.534.017-5.064-.104-7.596-.175-2.005.07-3.996-.269-5.993-.394-1.046-.148-2.103-.162-3.153-.295-1.777.064-3.505-.446-5.275-.461-1.763-.312-3.578-.306-5.317-.774-1.071-.281-2.198-.49-3.1-1.176-.83-.524-1.541-1.207-2.277-1.842-1.213-.36-.51-2.14.58-1.668.338.259 1.259 1.735 1.3.666-.139-1.17.021-2.348.013-3.514.175-.381.049-1.61-.36-.677-.653 1.112-1.354 2.228-2.274 3.138-.667.777-1.468.001-1.077-.817.047-.854-.402.951-.128 1.341.092 1.105.317 2.33-.26 3.343-.806.431-.568-.834-.389-1.235-.016-1.334-.625-2.724.002-4.014.64-.883 1.38-1.78 1.342-2.956.284-1.162.478-2.36.779-3.517.378-1.421.845-2.814 1.27-4.224.5-1.595 1.03-3.179 1.647-4.732.296-1.165.891-2.232 1.303-3.362.913-2.207 1.467-4.558 2.6-6.676.92-1.844 1.853-3.691 2.972-5.423.257-.875.784-1.585 1.232-2.364.395-.944 1.022-1.789 1.543-2.64.329-.69.7-1.376 1.178-1.955.655-1.01 1.234-2.076 1.97-3.035.372-.72 1.012-1.134 1.304-1.888.568-.672 1.01-1.436 1.568-2.128.576-.644 1.014-1.336 1.566-2.015.56-.552.795-1.291 1.206-1.954.899-1.563 1.985-3.103 3.587-4.01 1.027-.592 1.391-1.81 2.165-2.652.574-.687.983-1.5 1.596-2.15.6-.331 1.38.341 1.734-.566 1.03-1.13 2.063-2.252 3.186-3.293.693-.538 1.191-1.526 2.122-1.635.545.074.656.94 1.17.25.83-.724 1.723-1.375 2.595-2.05.891-.734 1.83-1.404 2.774-2.065.658-.39 1.23-1.04 2-1.17.935.413.5 1.518-.272 1.872-.33.03-1.451.604-.772 1.015 1.016.411-.002 1.463-.401 1.651-.508.405-.744.843-1.408 1.187-.91.624-1.176 1.75-2.12 2.357-.389.455-1.644 1.115-.51 1.405 1.061.392 2.005 1.019 3.04 1.47.717.435 1.464.82 2.21 1.19.91.437 1.857.794 2.739 1.292 1.064.412 2.038 1.03 3.13 1.368a78.098 78.098 0 0 1 6.543 3.139c1.01.417 1.897 1.058 2.923 1.455 1.137.736 2.34 1.357 3.578 1.907.92.538 1.837 1.08 2.822 1.498 1.783.856 3.42 1.98 5.174 2.886 1.039.721 2.217 1.21 3.203 2.01.911.576 1.691 1.327 2.644 1.836a27.178 27.178 0 0 1 2.942 2.005c1.028.76 2.041 1.537 3.128 2.214 1.496 1.175 2.847 2.58 4.568 3.435.944.469 1.777 1.106 2.648 1.685 1.002.868 1.934 1.811 2.978 2.631 1.006.873 1.98 1.773 2.997 2.63 1.125 1.043 2.143 2.207 3.12 3.39.376.756.873 1.47 1.102 2.276.426.759.636 1.567 1.033 2.326.326.9.775 1.921.127 2.803-.527 1.005-1.301 1.832-2.162 2.558-1.417 1.278-2.952 2.419-4.517 3.507-1.129.903-2.342 1.694-3.488 2.575-2.103 1.43-4.338 2.65-6.55 3.89-1.94.991-3.81 2.123-5.811 2.99-3.075 1.395-6.384 2.129-9.64 2.96-1.732.397-3.468.772-5.21 1.12-.893.15-1.73.47-2.637.57-1.052.327-2.174.41-3.232.723-1.133.031-2.236.33-3.367.317-1.494-.058-2.966.321-4.463.251-2.338.185-4.684.343-7 .724a8.011 8.011 0 0 1-1.36-.012z" fill="#a40"/><path d="M635.75 467.3c1.314-.267 2.668-.264 4-.406 1.77-.146 3.546-.2 5.309-.404 1.397-.033 2.795-.097 4.174-.33 1.953-.335 3.891-.764 5.827-1.188 2.147-.407 4.268-.936 6.413-1.353.818-.295 1.68-.352 2.494-.679 1.159-.225 2.271-.62 3.39-.98 1.023-.258 1.985-.71 2.968-1.089 1.076-.555 2.21-.99 3.252-1.614 1.836-.97 3.666-1.941 5.492-2.93.789-.533 1.672-.938 2.422-1.515.932-.487 1.729-1.196 2.6-1.782 1.761-1.275 3.599-2.462 5.26-3.867.743-.651 1.476-1.316 1.963-2.19.649-.842.358-1.875-.056-2.737-.784-1.826-1.343-3.84-2.83-5.25a22.054 22.054 0 0 0-2.13-2.329c-1.573-1.325-3.08-2.727-4.643-4.065-.78-.82-1.724-1.474-2.69-2.05-.973-.796-2.279-1.083-3.132-2.045-.996-.734-1.93-1.55-2.896-2.323-.982-.535-1.775-1.336-2.728-1.918-.925-.798-1.97-1.427-3.003-2.072-.924-.607-1.732-1.376-2.705-1.909-1.243-.841-2.508-1.655-3.844-2.343-1.462-.906-2.933-1.806-4.487-2.553-1.328-.648-2.614-1.377-3.924-2.057-1.172-.554-2.297-1.202-3.46-1.764-1.082-.642-2.27-1.083-3.363-1.71-1.218-.61-2.406-1.275-3.682-1.764-1.823-.81-3.677-1.57-5.463-2.46-1.12-.389-2.11-1.06-3.19-1.542-1.643-.774-3.144-2.12-5.055-2.104-.443.64-1.492 1.104-1.115 2.045-.399.133.313.5.49-.05.494-.588.866-2.073 1.839-1.231.28 1.064-1.01 1.677-1.515 2.455-1.309 1.19-2.74 2.291-3.7 3.805-.81 1.164-1.695 2.297-2.484 3.455.833-.12 1.631.83.85 1.524-.476.278-.43.932.082.371a16.15 16.15 0 0 1 3.05-1.89c.969-.614 2.04.751.794 1.198-.907.318-.876 1.439-1.574 1.902-1.118.993-2.139 2.08-3.221 3.109-.663.832-1.55 1.445-2.302 2.193-1.175 1.119-2.395 2.206-3.38 3.5-.803 1.086-1.222 2.391-1.853 3.577a71.875 71.875 0 0 0-1.245 2.547c-.504.948-.934 1.926-1.47 2.859-.405.858-.807 1.722-1.275 2.55-.47.764-.773 1.731-1.283 2.539-.517 1.038-.953 2.113-1.536 3.118-.527 1.114-.66 2.358-1.105 3.502-.221 1.001-.362 2.021-.738 2.982-.164.793-.368 1.59-.54 2.4-.255.758-.354 1.525-.587 2.292-.328 1.572-.828 3.103-1.303 4.634-.416.796-.456 1.965-1.353 2.394-1.077-.054-.76 1.53-1.125 2.238-.308.653-.148 2.095-1.27 1.824-.402-.7.15-1.717.029-2.551.046-.97.126-1.925.206-2.891-.018-1.224-.689.692-1.063 1.023-.801 1.114-1.485 2.37-2.668 3.135-.319.515-2.006.745-.855 1.273 1.221.946 2.794 1.11 4.256 1.416 2.464.336 4.949.466 7.412.813 2.965.158 5.928.376 8.878.716.898.037 1.797.055 2.695.063 1.887-.021 3.783.193 5.676.088 2.321.053 4.643.124 6.956.32 1.54.012 3.077.145 4.614.184.154-.014.307-.048.45-.108z" fill="#ff7f2a"/><path d="M622.8 463.099c-1.312-.018-1.773-1.64-1.46-2.708.314-1.684 1.22-3.301 2.576-4.36.749-.544 1.898-.798 2.555.034.975 1.19.984 2.867.626 4.292-.2.977-.74 2.102-1.767 2.393-.406-.792.801-1.692.772-2.62.15-1.07.176-2.482-.818-3.158-.98-.345-1.71.697-2.144 1.425-.443.808-.827 1.74-.732 2.674.025.918 1.724.338 1.207 1.425a1.249 1.249 0 0 1-.814.603zM634.28 461.517c-1.04-.208-2.094-.781-2.595-1.746-.337-.954-.116-2.018.417-2.86.192-.926.87-1.766.898-2.707-.694-.632-1.205-1.436-1.594-2.293a4.043 4.043 0 0 1-.486-2.858c.22-1.06.98-1.986 1.774-2.723.758-.703 1.733-1.182 2.72-1.495 1.007-.319 2.197-1.17 3.151-.35 1.109.807 1.163 2.326 1.155 3.576-.07 1-.14 2.033-.493 2.972.098 1.098 1.637.302 2.297.96.92.384 1.537 1.201 1.838 2.131a5.654 5.654 0 0 1-.12 3.605c-.374.735-1.034 1.323-1.726 1.754-1.566 1.039-3.443 1.417-5.223 1.918a9.796 9.796 0 0 1-2.012.116z" fill="#a40"/><path d="M636.435 460.093c1.884-.522 3.937-.893 5.45-2.218.786-.868.682-2.235.244-3.245-.37-.884-1.239-1.4-2.149-1.574-.772-.279-1.543-.227-1.86.626-.631.83-1.662 1.213-2.683 1.161-.78-.142-1.831-.188-1.813.897.837.571-1.264 1.886-1.011 2.867.366 1.232 1.791 1.665 2.953 1.568.291-.008.582-.035.87-.082z" fill="#ff7f2a"/><path d="M636.417 453.695c.536.126 1.621-1.069.501-.767-.418.196-1.788.356-1.515.783.336.037.68.047 1.014-.016zM634.161 453.087c.985-.776 2.15-1.455 3.438-1.442 1.038-.08.867-1.432 1.078-2.188.266-1.3.165-2.83-.766-3.85-.823-.701-1.812.087-2.626.441-1.107.482-2.334 1.124-2.873 2.204-.458.917-.353 2.11-.03 3.075.312.772.83 1.494 1.529 1.949.113-.02.16-.134.25-.189z" fill="#ff7f2a"/><path d="M613.544 459.3c-.99-.25-1.647-1.12-2.343-1.804-1.043-1.283-1.812-3.02-1.252-4.676.177-.516.662-1.745 1.243-1.385.016.854-.638 1.617-.4 2.5.258 1.532 1.237 2.876 2.434 3.824 1.056.863 1.87-.656 1.828-1.593.131-1.22-.245-2.418-.852-3.466-.14-.392-1.546-1.663-1.074-.576.37.776.896 1.52.769 2.419.194.538-.313 1.567-.646.603-.283-.993-.895-1.824-1.232-2.793-.265-.736-.578-2.43.676-2.288 1.567.374 2.682 1.82 3.006 3.354.48 1.428.522 3.054-.204 4.41-.32.773-1.007 1.651-1.953 1.471z" fill="#a40"/><path d="M643.374 457.966c.021-.21.152.2 0 0z"/><path d="M651.285 457.968c-.18-.958-.377-1.904-.765-2.79-.117-1.286-.04-2.708.702-3.813.7-.909 1.61-1.695 2.722-2.034.819-.437 1.81-.365 2.665-.17 1.216.63 2.01 1.906 2.115 3.263.198 1.147-.222 2.26-.821 3.219-.59.503-1.034 1.364-1.942 1.267-1.028-.088-1.932.382-2.85.759-.582.21-1.203.368-1.826.3z" fill="#a40"/><path d="M653.398 456.655c.956-.387 1.93-.875 2.965-.937.855-.296.938-1.384.994-2.151a4.68 4.68 0 0 0-.895-2.405c-.332-.44-.783-.985-1.334-.976-1.32.021-2.92.98-3.116 2.441-.205.879-.105 1.822.188 2.662.19.544.439 1.222.978 1.426.03.012.096-.024.096-.024z" fill="#ff7f2a"/><path d="M667.223 455.005c-1.053-.319-2.1-.667-3.02-1.33-1.252-.74-2.363-2.132-2.152-3.655.33-1.385 1.4-2.407 2.432-3.313 1.231-.974 2.795-1.387 4.325-1.599 1.205-.19 2.579-.433 3.659.135 1.032.543 1.576 1.761 2.087 2.81.41.843.757 1.775.743 2.713-.01.682-.311 1.338-.6 1.956-.214.459-.466.92-.828 1.273-.61.596-1.378 1.043-2.175 1.343-.98.155-2.002.21-2.965-.07-.555-.006-1.018-.116-1.506-.263z" fill="#803300"/><path d="M668.671 454.284c.424.45 1.554.294 2.17.35.914-.336 1.39-1.456 1.799-2.21l1.226-1.515c.154-1.007-.287-2.094-.89-2.69l-1.389-1.946c-.584-.856-1.91-.478-2.77-.357-1.32.211-2.673.608-3.615 1.619-.86.85-1.674 1.971-1.773 3.181-.023.282.135.56.287.799.164.257.412.451.65.642.622.501 1.26 1.04 2.009 1.305.294.114.562.327.888.35" fill="#ff7f2a"/><path d="M623.451 454.42c-1.242-.278-2.628-.693-3.277-1.894-.346-.751-.56-1.701-.134-2.468.71-.977.728 1.022.963 1.494.474.738 1.352 1.102 2.137 1.402 1.025.479 1.85-.318 1.513-1.342.175-.582-.725-1.82-.832-.677.247.72-.548 2.14-1.156 1.069-.271-1.024.186-2.322 1.088-2.9 1.08-.506 1.897.792 1.977 1.725.157 1.212.045 2.773-1.111 3.467a1.533 1.533 0 0 1-1.168.124z" fill="#803300"/><path d="M616.714 445.935c-.407-.768-1.05-1.447-1.229-2.297-.159-.758-.055-1.578.178-2.316.176-.56.382-1.22.897-1.517.533-.98 1.207-2.039 2.333-2.389 1.246-.111 2.106 1.064 2.622 2.045.505 1.206.57 2.576.394 3.857-.35 1.423-1.688 2.584-3.192 2.495-.718.17-1.555-.84-1.707.21-.09.103-.247.003-.296-.088z" fill="#a40"/><path d="M619.759 444.521c1.104-.36 1.328-1.692 1.128-2.694-.169-1.198-.596-2.584-1.76-3.157-1.01-.229-1.506 1.07-1.85 1.813-.25.94-.824 2.062-.252 2.978.647.783 1.698 1.404 2.734 1.06z" fill="#f60"/><path d="M654.357 444.928c-1.059-.182-2.12-.4-3.111-.813-1.311-.666-2.106-2.155-2.001-3.612-.502-1.026 1.304-1.45.875-.143.154 1.35 1.152 2.593 2.485 2.937 1.425.441 2.969.528 4.424.19 1.37-.566 2.154-1.995 2.516-3.368.291-1.464.101-3.098-.774-4.334-.418-.023-.632-1.148-1.401-1.17a7.343 7.343 0 0 0-2.875-.242c-1.118.022-2.077.654-3 1.208-1.857 1.207-3.174 3.334-3.17 5.577.862.554.413 1.917-.604 1.637-.852-.801-.621-2.103-.351-3.119.578-2.472 2.518-4.43 4.715-5.579.7-.385 1.495-.58 2.254-.803 1.313-.166 2.702-.169 3.964.25 1.393.584 2.146 2.028 2.425 3.444.448 2.314-.395 4.765-1.97 6.483-.972.875-2.232 1.426-3.55 1.412-.283.018-.567.03-.85.045zM672.402 443.62c.085-.981-1.1-1.029-1.709-1.433a24.251 24.251 0 0 1-4.188-3.113c-.311-.287-.57-.625-.837-.954-.543-.67-1.115-1.33-1.548-2.075-.244-.663-.673-1.216-.907-1.784.422-.598.47-1.386.802-2.035.322-.626.597-1.333 1.147-1.773.5-.401 1.18-.525 1.806-.665 1.703-.38 3.531-.908 5.214-.45.912.25 1.73.899 2.31 1.645.868 1.116 1.483 2.526 1.53 3.956.088.89.226 1.776.3 2.668.484.924-.159 2.015-.283 2.957-.594.708-1.32 1.303-1.788 2.12-.406.622-1.137 1.057-1.849.935z" fill="#a40"/><path d="M670.112 439.998c-.082-.178-.11.196 0 0z"/><path d="M669.485 430.014c-.893.036-1.544.9-2.332 1.323-.528.282-1.26.318-1.604.808-.455.65-.482 1.598-.282 2.367.177.68.819 1.14 1.24 1.703.514.69 1.571 2.05 1.571 2.05 1.033.976 3.382 3.023 4.505 3.113.41-.035.79.495 1.157.216.45-.605 1.06-1.124.97-2.003-.078-.893-.083-1.794-.182-2.685.047-.89.018-1.799-.245-2.644-.135-.432-.455-.782-.664-1.182-.253-.483-.326-1.09-.715-1.472-.896-.882-2.163-1.644-3.42-1.594z" fill="#d45500"/><path d="M624.959 441.805c-1.271-.399-1.87-1.718-2.33-2.854-.51-1.792-.38-3.999.997-5.384.663-.637 1.612-.399 2.406-.244.883-.033 1.645.484 2.21 1.116 1.092 1.408.939 3.418.298 4.986-.572 1.153-1.526 2.454-2.948 2.451a2.688 2.688 0 0 1-.633-.071z" fill="#a40"/><path d="M626.18 440.842c1.851-.678 2.424-3.128 1.631-4.8-.36-.797-1.18-1.567-2.105-1.444-.595.56-.619 1.539-1.366 2.026-.493.776-.846.035-.399-.491.07-.64.554-1.517.503-1.958-.843.307-.95 1.356-.988 2.134-.102 1.613.306 3.506 1.783 4.404.284.155.625.216.941.13z" fill="#ff7f2a"/><path d="M642.713 438.345c-1.385-.343-2.791-.534-4.2-.744-1.05-.206-2.034-.806-2.75-1.593-.996-1.215-.68-2.96.12-4.184 1.026-1.512 2.642-2.642 4.455-2.965 1.633-.487 3.5-.156 4.867.852 1.265 1.03 1.608 2.743 1.756 4.282.02 1.346-.07 3.015-1.284 3.86-.913.525-1.929.64-2.964.492z" fill="#803300"/><path d="M644.895 437.058c1.135-.686.978-2.215.802-3.343-.202-1.403-.89-2.978-2.35-3.438-1.243-.549-2.654-.463-3.91-.01-1.026.31-1.986.918-2.514 1.873-.645.942-.97 2.453.032 3.278.653.71 1.596.85 2.471 1.1.845.527 1.792-.406 2.56.24.661.616 1.826.332 2.699.34.071-.006.14-.022.21-.04z" fill="#d45500"/><path d="M619.036 432.207c-.95-.268-1.574-1.21-1.632-2.168-.38-1.016-.677-2.164-.03-3.151.463-.973 1.149-1.87 2.154-2.32.852-.508 1.867-.894 2.86-.58.86.027 1.233.92 1.345 1.648.36 1.534-.573 2.913-1.322 4.162-.77 1.173-1.877 2.344-3.375 2.409z" fill="#a40"/><path d="M619.753 430.926c1.14-.411 1.733-1.57 2.334-2.539.427-.865.931-2.034.14-2.855-.586-.568-2.257-.572-2.28.456.106.63 1.281-.162.966.783-.282.954-.645 1.91-.567 2.916-.108.827-1.092.96-1.49.4-.486.415.54 1.066.897.84z" fill="#ff7f2a"/><path d="M619.164 429.029c.203-.604.168-2.179-.523-2.118-.477.682-.523 2.068.502 2.176z" fill="#ff7f2a"/><path d="M628.276 429.449c-.717-.233-1.393-.726-1.812-1.352-.437-.655-.893-1.586-.58-2.291.337-.82.141-1.9.77-2.506.451-.434 1.19-.534 1.815-.484 1.449.116 3.19.463 3.981 1.78.712.977 1 2.454.126 3.432-.741.966-2.034 1.19-3.16 1.407-.377.047-.778.132-1.14.014z" fill="#a40"/><path d="M629.913 428.242c.843-.106 2.263-.608 2.027-1.662-.321-.93-1.011-1.74-1.819-2.288-.825-.595-2.416-.593-2.477.71-.055 1.081.259 2.302 1.098 3.034.327.248.78.329 1.171.206z" fill="#d45500"/><path d="M637.92 424.684c-.83-.376-1.297-1.237-1.757-1.978-.123-.521-.72-.586-.994-.142-.413-.978.072-2.013.27-2.967-.217-.549-.85-1.605.243-1.425.766-.537 1.383-1.404 2.437-1.393 1.606-.202 2.986 1.448 2.774 2.994-.003 1.704-.348 3.722-1.926 4.682-.31.186-.684.308-1.047.229z" fill="#a40"/><path d="M639.066 423.17c.605-.717-.05-.551-.484-.177-.964.417.303.922.484.178zM638.072 422.16c1.07-.537 1.678-1.836 1.262-2.987-.205-1.106-1.44-1.286-2.011-.342-.951.801-.425 2.034-.12 3.005.126.366.55.613.87.325z" fill="#ff7f2a"/><path d="M591.228 458.344c-.378-.147-.1.46 0 0zM606.453 443.597c-.055-.231.076.05-.022.069zM591.283 461.268c-.01-.253.331.278 0 0zM591.065 451.211c-.265-.347.112-.203 0 0z"/></g><g><path d="M154.294 225.93c-2.216-2.15-2.95-5.434-4.37-8.118-1.11-2.53-2.276-5.134-3.292-7.643-3.546-8.329-6.84-16.914-9.38-25.661-2.513-7.94-4.086-16.197-5.481-24.415-.754-5.866-1.804-11.735-1.613-17.672-5.41-2.268-10.493-5.252-15.563-8.136-2.985 2.097-2.924 6.525-5.699 8.517-1.216.874-2.849 1.009-4.338 1.176-2.851.32-6.068.167-8.602-.354-7.025-.34-14.01.435-20.96 1.37-1.712.281-7.782.997-5.781-1.605 5.062-.093 10.097-1.055 15.125-1.645 6.684-.565 13.419.11 20.088-.529 4.019.3 5.257-3.879 7.448-6.368 2.717-2.92-4.077-4.089-5.482-6.538-2.148-2.292-5.42-3.929-6.138-7.208-.757-2.874.188-6.792.383-9.141-9.806 4.952-20.664 8.145-29.423 15.046-5.56 3.838-10.1 8.95-15.1 13.39-2.21 2.604-3.31-1.874-.822-1.705 3.599-2.797 6.5-6.498 10.113-9.215 6.85-6.428 15.25-10.94 23.923-14.439 4.131-1.86 8.322-3.606 12.263-5.85 2.157-5.3 5.26-10.173 9.31-14.25 6.349-7.017 13.914-12.697 21.4-18.418 9.276-6.902 19.07-13.287 29.824-17.683-2.055-1.518-6.463-2.643-9.596-3.317-8.913-1.806-18.07.044-26.796 2.03-5.303 1.102-10.472 2.807-15.804 3.737-5.756.649 4.913-7.06 1.962-2.415 3.561-.282 6.94-1.857 10.5-2.359 6.902-1.65 13.887-3.131 20.983-3.55 6.163-.364 12.277.894 18.01 3.098 3.057 1.692 6.103 1.122 9.193-.219 11.335-3.395 23.23-3.76 34.938-4.735 4.08-.379 8.184-.532 12.274-.71-5.92-4.131-12.036-8.042-17.406-12.904-4.714.86 1.483-4.377 2.645-.739 5.757 5.154 12.378 9.141 18.602 13.66 4.048.73 8.268.896 12.258 2.075 8.936 2.706 17.556 6.283 26.386 9.269 6.37 2.24 12.532 5.025 18.799 7.532 2.229-2.512 4.078-5.523 6.216-8.18 6.701-9.417 15.55-17.09 25.16-23.44 1.899-.933 5.864-4.971 7.033-2.345-2.911 1.942-6 3.738-8.817 5.884-9.106 6.15-17.054 14.02-23.382 22.998-.503 2.164-6.541 5.618-2.74 6.662 6.693 2.92 13.092 6.837 18.01 12.313 4.651 4.628 8.05 10.371 10.513 16.408 2.358 4.785 4.647 9.758 6.053 14.955 1.64 1.322 5.435-1.77 7.864-1.977 9.061-3.128 18.46-5.142 27.92-6.636 5.632-.93 11.229-2.295 16.928-2.675 1.538 2.652-4.472 1.898-6.273 2.614-12.947 2.319-26.062 4.146-38.547 8.455-2.168 1.438-7.97.841-7.12 4.38.98 7.523-3.027 14.94-8.906 19.466-6.906 5.433-15.376 8.452-23.695 11 1.268 1.419 6.217 1.968 8.812 3.263 12.647 4.19 24.06 11.58 37.148 14.524 7.237 1.786 14.58 3.506 22.088 3.452-.261-1.393-2.512-7.099 0-5.429 1.145 2.601 4.44 8.71-1.16 7.788-7.58-.058-14.981-1.96-22.324-3.65-8.753-2.224-16.855-6.193-24.981-9.967-7.763-3.594-15.901-6.422-24.13-8.66-10.53 2.812-21.253 4.79-31.994 6.596.36 4.694 1.847 9.259 3.247 13.74 2.903 7.429 5.89 14.853 9.855 21.78.933 2.086 3.986 5.842 4.14 1.465 3.208 2.027-2.093 6.867-3.922 2.576-4.84-6.921-7.846-14.917-11.083-22.649-1.867-4.986-3.38-10.12-4.246-15.394-1.407-2.528-6.215.218-9.007-.24-9.405.818-18.894.738-28.306.062a93.6 93.6 0 0 1-14.093.841c-.09 2.696.008 5.418 1.27 7.866 1.38 4.022 3.192 7.909 5.788 11.324 6.148 8.847 15.18 15.085 23.605 21.584a24.063 24.063 0 0 0 5.318 4.03c1.948 1.528-.537 4.391-2.006 1.632-3.44-3.304-7.252-6.178-11.092-8.987-1.89-.839-4.184-3.667-6.444-5.148-7.307-6.136-13.76-13.748-16.766-22.925-1.405-2.98-2.072-6.26-1.868-9.558-10.891-1.272-21.18-5.255-31.813-7.69-9.727-2.65-19.796-4.216-29.163-8.074-.466 3.413.319 7.018.67 10.464.68 5.524 1.622 11.038 2.709 16.504 1.112 4.882 2.295 9.743 3.674 14.509 1.47 4.42 2.855 8.88 4.558 13.237 3.024 8.043 6.24 15.985 10.073 23.691 1.17 3.744 1.423-2.357 2.124-1.093 1.37.763.044 5.296-1.679 5.295z" fill="#d4aa00"/><path d="M210.327 156.384c5.52-.895 11.12-2.237 16.278-4.213 3.788-.812 7.234-2.657 10.87-3.944 2.34-1.823 7.386-1.738 7.654-5.094-.229-2.396 1.396.068 1.813.542.387.44.191 1.157.282 1.737.522 3.335.052 7.888 1.507 10.016 10.075-1.553 20.141-3.433 29.975-6.09-2.301-.287-3.759-3.671-.589-2.952 2.589 2.788 6.174 1.896 9.291.534 9.236-2.948 18.884-6.823 24.957-14.751 2.741-3.775 4.293-8.566 3.652-13.298-.541-2.583-4.766 1.055-6.841 1.05-1.388 1.255-5.238-.053-2.195-1.12 2.56-1.06 7.678-1.13 8.311-3.8-2.277-7.286-5.636-14.174-8.89-21.061-4.985-8.725-12.602-16.121-21.842-20.211-2.655-1.76-5.669-3.162-7.372.454-.627 2.01-5.062 2.592-2.603.094 1.207-1.185 5.225-3.897 1.477-4.37-8.601-3.806-17.449-7.009-26.33-10.075-7.988-2.936-15.901-6.49-24.464-7.305.511 1.482 4.71 3.654 6.498 5.615 2.805 2.36 5.523 4.96 7.941 7.496-.784 4.03-4-1.565-5.718-2.442-4.292-4.15-8.994-7.838-13.936-11.179-10.889-.204-21.697 1.288-32.537 2.06-6.576.748-13.213 1.802-19.445 4.093 2.704.738 6.39 3.282 8.57.14 1.442-2.36 4.06-.562 1.472 1.08-2.016 2.092-4.78 3.326-7.552 1.774-3.237-1.049-6.625-2.515-9.702-.194-10.257 4.556-19.724 10.725-28.632 17.512-8.813 6.693-17.685 13.631-24.335 22.568-1.319 1.998-3.377 4.995-3.602 6.754 4.282-2.452 8.61-4.892 12.799-7.474 3.202-2.02 4.838-5.502 6.994-8.465 3.483-1.934-.165 3.611-1.232 4.633-2.903 5.574-9.217 7.573-14.062 10.96-2.392 1.821-6.728 2.282-6.544 6.07-1.03 3.871-1.006 8.602 2.71 11.041a50.621 50.621 0 0 0 9.225 7.23c1.216-1.802 3.535-3.495 4.188-5.343-.567-2.215-.354-4.538-2.88-5.553-2.671-2.249-6.031-4.266-7.347-7.63-.94-2.85 3.587-2.895 1.636-.132 1.762 3.59 5.397 5.788 8.486 8.114 1.54-.871 1.636 2.883 3.633 3.228 3.242 2.835 6.227 5.934 9.642 8.547 1.949-.536 2.038 2.83 4.297 3.223 6.68 4.618 14.336 7.603 21.917 10.347 13.116 4.204 26.68 7.007 40.355 8.779 4.055.338 8.14 1.39 12.22 1.005zM199.006 157.277c-1.361-.57-5.664-.239-2.263-.007.753-.073 1.523.19 2.263.007z" fill="#fd5"/><path d="M227.898 157.167c6.121-.041 12.287-.486 18.311-1.48-.996-2.523.197-7.843-1.776-8.92-8.816 4.462-18.173 7.775-27.72 10.244 3.64.358 7.478.196 11.185.156zM193.679 156.898c-2.093-1.323-6.856-1.02-9.867-2.07-1.327-.146-5.916-1.224-5.546-.868 4.877 1.436 9.88 2.555 14.928 3.136z" fill="#fd5"/><g fill="#a0892c"><path d="M185.795 127.057c-12.08-1.064-23.104-9.18-28.452-19.528-1.907-6.488 5.676-4.82 4.891.67 4.638 6.596 11.748 12.023 19.688 14.41 8.565 1.134 18.027 1.914 26.089-1.451 10.105-4.982 18.986-13.319 21.256-24.434 5.812.73-.304 12.677-3.95 15.606-7.938 8.865-19.388 16.086-32.02 14.763-2.5-.001-5.002.032-7.502-.036z"/><path d="M188.84 99.718c-6.52-4.334 2.19-9.18 3.261-2.012-.238 1.338-1.855 2.622-3.262 2.012zM166.923 88.733c-3.366-7.426 10.779-1.457 0 0zM205.835 79.394c-2.189-5.317 8.444-4.08 3.05.33-.818.303-2.54.863-3.05-.33z"/></g><path d="M158.119 148.637c-8.695-3.148-17.477-6.565-24.91-12.182-1.54-.397-2.016 5.733.664 5.594 7.815 3.065 16.11 4.633 24.222 6.656zM130.268 139.582c.113-2.776 1.516-5.668-1.89-7a707.928 707.928 0 0 0-8.189-7.551c1.989 3.177-2.72 4.648-3.923 7.144-.296 2.149 4.568 3.01 6.245 4.53 1.855.395 6.98 4.795 7.757 2.877z" fill="#fd5"/></g><g><path d="M475.856 460.788l1.81-.06c1.626.085 3.187.204 4.806.023 1.063-.323 1.664.918 1.613 1.397-.144 1.368-2.992 1.521-2.94 2.896.028.758.978 1.442 1.735 1.47.809.03 1.312-.947 1.964-1.426 1.271-.933 1.7-1.252 2.982-3.011.704-.504.114-2.068 1.683-1.711 2.232-.44 2.038 2.424 2.292 3.899.268 1.522 3.408 2.153 3.59.233 1.156-1.187-.688-2.935-.252-4.388 1.115-.215 2.59-.734 3.941-.935 1.886-1.022 2.99.948 4.2 2.032 1.569.889 2.325 2.488 3.15 4.022.298.854 1.533 1.403 2.06 1.268l.102-.377c1.486-1.116.05-2.921-.68-4.257-.238-1.525-1.698-2.379-2.675-3.44-.948-.626-1.166-1.374.155-1.76.83-.504 1.665-.997 2.497-1.496 1.055.757 2.352 1.034 3.554 1.206 1.919.12 3.79-.429 5.587-1.019 1.65-.246 3.541-.652 4.58-2.077-.907-1.401-2.822-.76-4.247-.607-1.462-.163-2.915.716-4.45.76-.788-.121-3.182.035-1.528-1.034 1.343-.818 2.152-2.274 2.938-3.498.762-1.596 1.487-3.204 1.46-4.996.045-1.572.104-3.385 2.135-3.224 1.141-.69 2.827-.52 4.273-1.087 1.558-.6 3.196-.905 4.761-1.504 2.537-.442 4.77-1.886 7.035-3.043 2.202-1.251 4.7-1.786 6.882-3.077 1.648-.85 3.286-1.781 5.108-2.163 1.436-.755 3.068-1.135 4.483-1.986 1.298-.764 2.288-1.39 3.618-2.162 2.236-.775 4.241-2.154 6.27-3.378 2.973-2.049 6.228-3.673 9.194-5.745 1.748-1.208 3.292-2.69 5.138-3.766 1.843-1.216 3.122-3.082 4.94-4.327 1.284-1.343 2.506-2.754 3.76-4.095 1.173-1.19 1.627-2.843 2.89-3.96.979-1.193.937-2.554 1.772-3.706l1.73-3.886 1.477-2.795.705-4.565.568-1.434.978-4.092.43-3.533-.185-4.312c.155-1.125.205-2.01-.004-3.004-.295-1.455-.579-2.916-.735-4.392-.07-.655-.06-1.317-.089-1.976-.011-.261-.015-.523-.033-.784-.058-.864-.1-1.733-.24-2.588-.348-2.138-.96-4.23-1.488-6.325-.408-2.37-1.24-4.755-1.946-7.096-.807-2.642-1.842-5.207-3.028-7.696-.544-1.043-.946-2.282-1.679-3.563-3.021-5.745-6.821-11.03-9.977-16.698-.915-1.686-2.4-2.921-3.515-4.467-1.059-1.43 2.134-2.749.573-4.383-.76-1.248-2.119-1.877-3.073-3.001-1.222-1.434-3.275-1.294-4.947-1.546-1.735-.478-3.358.074-5.114-.353-1.251-1.078-.186-3.419-.36-5.019.499-1.72-.568-3.2-1.337-4.647-.69-.918-2.348-2.134-3.75-2.785-1.31-.437-2.631-.898-4.008-1.065-.371-4.14-.897-8.263-1.631-12.357-.388-2.398-.421-4.844-.851-7.233-.785-1.544-3.077-.885-3.883.227-.305 1.156-.51 3.08-1.24 4.36-.332 1.655-1.143 3.296-1.641 4.961-1.368 2.816-1.98 5.958-3.465 8.732-.516 1.539-.976 3.153-1.04 4.736.158 1.72.105 3.528-.005 5.198-.655 1.219-3.488 1.112-4.797 2.196-1.397.359-3.048 2.472-4.329 1.295-1.417-2.07-3.42-3.619-5.296-5.24-1.036-.748-2.025-1.986-3.051-2.915-1.14-1.136-2.467-2.133-3.346-3.4a76.206 76.206 0 0 1-3.61-3.692c-1.165-1.734-3.061-.705-4.24.44-.122 1.74.979 3.284 1.351 4.976.64 2.468 1.89 4.697 2.766 7.074.73 2.158 1.592 4.326 1.943 6.606.486 2.144.632 4.4.352 6.58-.54 1.614-1.059 3.306-2.404 4.576a43.435 43.435 0 0 0-3.052 4.586c-.914 1.553-1.979 2.94-2.957 4.442-.836 1.415-1.783 2.88-2.398 4.466-.884 1.584-1.833 3.085-2.67 4.702-.762 1.83-1.683 3.61-2.442 5.426-.823 1.638-1.578 3.34-2.382 4.994-.248 1.618-1.268 3-1.616 4.618-.283 1.612-1.064 3.057-1.266 4.615-.476 1.892-.356 3.859-.287 5.815.132 3.028.95 5.971 1.626 8.904.286 1.374 1.157 3.043 1.077 4.193.486.984.906 2.816 1.381 4.122.816 2.941 1.718 5.857 2.612 8.776.721 1.558.787 3.309 1.57 4.874 1.126 2.695 2.65 5.263 4.858 7.21 1.434 1.056 2.105 2.862 2.938 4.397.891 1.661.843 2.697 1.648 4.218l.624 2.43-.002 2.63c.442 1.54.473 3.208.33 4.676-.103 1.81.062 3.647.103 5.388-.007 1.719.904 3.416.01 5.079-.054 2.3-2.457 1.618-3.928 1.94-1.221.319-1.832.017-3.197.528-1.664.44-3.264.616-4.95 1.04-1.92.4-3.777 1.116-5.716 1.363-1.825.545-3.575 1.24-5.415 1.745-1.73.477-3.535.584-5.275.967-1.963.74-3.939 1.456-5.973 1.963-1.365.167-2.909.909-4.157 1.745a5.782 5.782 0 0 0-1.521 1.515c-.698 1.012.947 3.572-1.503 3.367-1.58.532-11.156 2.143-12.696 2.819-1.46.344-2.822.718-4.145 1.247-2.034 1.058-4.134 2.012-6.073 3.236-1.387 1.422-.125 3.431 1.322 4.209 1.506.971 3.264.916 4.955 1.127 1.578-.025 3.198-.107 4.774.092 1.082.038 2.988-.28 4.45-.6 1.174-.258 2.297-.71 3.447-1.06 1.044-.318 2.08-.668 3.136-.946 1.433-.375 3.846-2.566 4.335-.97.304.987-.474 4.438.482 5.049z"/><path d="M501.385 454.7c-1.615-.522-2.533.548-3.415 1.672-1.743.564-3.418.757-4.868-.481-1.15-.063-2.612.03-3.186 1.37-1.89 1.075-3.604-1.05-5.388-.248-1.752 1.03-3.895.92-5.82.613-.679.199-3.055-.105-1.815-.993l-.72-3.98c-.162-1.652-.857-3.43-.737-4.984 1.517.303 1.324-3.083-.583-2.698-1.977-.277-2.014-2.928.054-3.17 1.457-.876 3.133-1.13 4.647-1.867 1.413-.768 2.917 1.303 4.421-.084.983-1.826 3.202-1.763 4.962-2.23 1.732-.459 3.34-1.32 5.056-1.784 1.482-.424 3.03-.845 4.547-1.232 1.626-.038 2.975 1.24 4.561 1.483 1.674.834 2.954 2.369 4.552 3.199 1.086 1.33 3.435.978 4.334 2.33-.07 1.896-.266 3.705-1.126 5.461-.82 1.314-1.552 3.71-3.352 3.445-1.575-.436-3.856.72-2.538 2.495-.75.868-2.408 1.826-3.586 1.684zM589.347 365.043c.139 1.737.356 3.388.491 5.102-.035 1.66.232 3.149.056 4.768-.067 1.617-.069 3.271-.333 4.887-.343 2.415-.806 4.814-1.557 7.14l-1.296 3.258-1.895 2.958-1.716 4.495c-1.1 2.302-2.958 4.107-4.593 6.03-1.18 1.111-2.253 2.443-3.516 3.49-1.45 1.65-3.334 2.913-5.013 4.357a73.83 73.83 0 0 1-6.096 4.18c-2.384 1.854-5.113 3.207-7.658 4.826-1.305.669-2.474 1.71-3.861 2.132-1.368.864-2.79 1.849-4.352 2.277-1.232.996-2.91 1.468-4.361 2.209-2.049.985-4.14 1.886-6.174 2.878-2.037.788-3.958 1.905-6.072 2.498-2.133.856-4.032 2.306-6.349 2.658-1.493.978-3.288 1.156-4.94 1.642-1.698.745-3.609.844-5.42 1.011-1.12-.509-3.533.896-2.653-1.291l1.093-3.725.883-2.464.695-2.891c.256-1.5-.049-2.969-.127-4.417-.02-1.727-.044-3.427-.015-5.137-.17-1.294-.295-3.375-.542-4.968.134-1.801-.53-3.58-.99-5.307a29.083 29.083 0 0 0-6.745-11.76c-1.328-1.499-2.173-3.294-2.811-5.18-1.007-2.89-1.766-5.875-2.902-8.715-1.003-3.734-2.245-7.403-3.29-11.124-1.152-2.933-1.593-6.064-2.001-9.167-.179-2.921-.178-5.897.737-8.706.33-1.816 1.073-3.447 1.625-5.162.897-1.75 1.388-3.679 2.352-5.39.64-1.199 1.186-2.834 1.935-3.729.196-1.607 1.456-2.91 2.007-4.442.892-1.636 1.812-3.234 2.558-4.931.963-1.342 1.614-2.607 2.463-3.943 1.14-1.45 1.815-3.21 3.067-4.567.9-1.217 1.483-2.453 2.658-3.39 1.337-.435 2.754-.76 2.76-2.537.523-1.96 2.303-3.215 3.806-4.436 1.238-.634 2.623-2.687 4.004-1.64 1.909.456 3.403-1.168 4.633-2.377.457-1.09-2.321-.376-.749-1.25 1.626-1.052 3.377-1.89 5.279-2.285 1.83-.493 3.709-.5 5.572-.578 1.377.155 2.68-.265 3.635.463-.168 1.929 2.172 2.556 3.535 1.547 1.62-1.181 3.092.925 4.667 1.224 1.84.632 2.104 2.048 2.556 3.717.765 1.342 2.31 2.299 3.055 3.796 1.176.61 2.428.987 3.711 1.362 1.627.384 3.289.453 4.863.203 1.528-.048 2.195 1.82 3.207 2.764 1.351 1.788 2.577 3.675 3.718 5.614 2.01 3.153 4.068 6.283 5.95 9.513 1.538 2.94 3.22 5.838 4.306 8.979.853 1.503 1.316 3.17 1.734 4.815.69 1.299.703 2.413 1.19 4.005.754 3.385 1.906 6.677 2.42 10.118" fill="#f60"/><path d="M557.874 369.584c1.33-1.43 2.839-2.713 4.04-4.252a114.107 114.107 0 0 1 2.368-4.224c.578-1.579.977-3.3 2.227-4.48.328-1.732-2.005-.641-2.79-1.538-2.18-.483-2.622 1.8-3.265 3.287-.427 1.722-1.595 3.152-2.19 4.798-1.032 1.288-2.213 2.636-3.594 3.613-1.622.582-3.412 2.568-5.143 1.849-.702-1.867-1.737-3.607-2.21-5.565-.925-2.424-1.712-4.894-2.453-7.381-.526-1.52-.559-3.168-.8-4.759-.807-1.82.044-3.124 1.021-4.606-.01-1.557-2.32-1.81-3.534-1.586-1.675-.03-.847 2.047-2.163 2.393-.485 1.672.266 3.37.382 5.045.193 1.72.744 3.419 1.314 5.09.689 2.677 1.726 5.24 2.637 7.848.59 1.533 1.74 3.531 1.654 4.94-1.593.233-3.176.484-4.8.404-1.54.163-3.068-.142-4.613.126-1.792-.153-3.678-.12-5.378-.391-1.934-.337-3.88-.514-5.806-.937-1.642-.224-3.135-1.446-4.787-.572-1.74 1.234.724 3.126 2.115 3.18 1.374.097 2.463.458 3.816.854 1.807.08 3.63.418 5.397.873 1.623-.022 3.287.297 4.923.224 1.544.233 3.187-.123 4.784.046.89-.183 3.839-.27 3.577.007l1.121-.493c1.487.18 3.013-.262 4.503-.532a10.117 10.117 0 0 0 4.517-1.528c1.06-.546 2.155-1.042 3.13-1.733zM547.36 332.414c1.557-1.771-.743-2.983-2.39-3.126-1.322-.28-1.292 1.467-2.628 1.491-1.79 1.166-.082 2.986 1.582 2.398 1.059-.16 2.7.056 3.437-.763zM530.804 334.09c1.929-.956.36-2.559-1.23-2.466-1.537-.585-3.92.993-2.074 2.442 1.03.303 2.424 1.187 3.304.025zM507.459 434.891c-.567-.36-2.187-1.043-2.036-1.314 1.273-.217 4.132-1.41 2.874.969-.141.694-.275.913-.838.345z"/><path d="M466.59 451.804c-1.187.723-2.547 1.132-3.852 1.59-1.818.735-3.717 1.087-5.631 1.31-1.498.175-3.046.313-4.525.017-1.198-.24-3.392-.204-3.378-1.427.033-2.885 6.46-2.706 8.05-3.184 2.176-1.075 4.648-1.163 6.945-1.822l4.688-.4 2.034.005c.365.772 1.613 2.202.028 2.332l-.286.09-.27.087-1.58.508z" fill="#f60"/><path d="M559.47 308.952c.053-1.583 2.95-1.71 4.517-1.473 1.255.19 3.14.928 3.11 2.198-.02.89-1.365 1.354-2.252 1.437-1.923.179-5.44-.232-5.376-2.162zM553.582 302.128c-1.307-.676-2.863-1.008-3.937-2.116-1.441-1.235-.56-3.198-.415-4.716.378-2.03 2.792-.382 3.699.551 1.616.888 1.574 3.187 1.533 4.822-.03.436-.135 1.938-.88 1.459z" fill="#c83737"/><path d="M543.364 299.255c-1.208-.301-3.891.626-3.714-1.38-.297-1.68-.27-3.455-.039-5.156.254-1.676.93-3.492 1.504-4.87.654-1.381.987-2.76 1.688-4.039.28-.947 1.263-3.586 1.364-1.247.44 3.36.944 6.722 1.083 10.11.439 1.832-1.54 2.943-1.329 4.778.035.578.754 2.3-.557 1.804zM517.546 309.581c-.243-1.507-.5-2.969-.853-4.48-.758-2.427-1.425-4.89-2.44-7.23-.427-.967-.406-1.966.482-.712 1.362 1.243 2.796 2.424 4.027 3.8 1.657.9 2.768 2.577 3.824 4.1.927 1.563-1.878 2.272-2.757 3.138-.847.278-1.55 1.219-2.283 1.384z" fill="#a40"/><path d="M491.725 365.243c-.86-.31-.263.88 0 0z"/></g><path d="M684.961 316.606c-9.595 16.247-26.529 31.424-32.314 49.053-4.529 10.42-5.102 21.742-7.612 32.52-.1 5.677-9.266.282-4.26-1.694 2.436-7.19 2.12-15.046 4.708-22.133 2.895-15.254 11.77-29.164 22.764-41.873 4.93-6.33 8.785-13.094 14.118-19.257.848-.98 3.226 2.318 2.596 3.384zM650.74 292.225c-5.957 3.21-10.017 6.826-12.826 11.356-5.952 6.609-10.778 13.572-13.078 20.893-7.074 18.277-2.972 36.802-.601 54.92-.43 4.645.554 8.494 1.65 11.348.493 4.221-10.455 4.763-7.38-.399.426-8.197-.787-16.315-2.195-24.384-1.86-3.301-.236-9.54-1.432-14.076-.984-16.329 2.852-33.45 16.71-48.36 3.672-5.357 9.412-10.195 16.881-14.012l2.27 2.714z" fill="#d4aa00" fill-opacity=".784"/></svg>