<svg xmlns="http://www.w3.org/2000/svg" xmlns:xlink="http://www.w3.org/1999/xlink" width="2000" height="3000"><defs><linearGradient id="b"><stop offset="0" stop-color="#009633"/><stop offset="1" stop-color="#063"/></linearGradient><linearGradient id="c"><stop offset="0" stop-color="#fff"/><stop offset="1" stop-color="#54deff"/></linearGradient><linearGradient id="a"><stop offset="0" stop-color="#fff"/><stop offset=".5" stop-color="#d4c37f" stop-opacity=".498"/><stop offset="1" stop-color="#a80" stop-opacity="0"/></linearGradient><linearGradient xlink:href="#a" id="e" x1="-45.755" y1="296.36" x2="1051.261" y2="296.36" gradientUnits="userSpaceOnUse" gradientTransform="matrix(1.98871 0 0 4.58727 -531.192 -2297.41)"/><radialGradient xlink:href="#b" id="f" cx="502.638" cy="609.739" fx="502.638" fy="609.739" r="564.019" gradientTransform="matrix(1.80476 0 0 1.4939 -1521.503 -251.011)" gradientUnits="userSpaceOnUse"/><radialGradient xlink:href="#c" id="d" cx="-298.481" cy="496.389" fx="-298.481" fy="496.389" r="450.22" gradientTransform="matrix(2.42376 0 0 3.6564 1192.085 -2752.923)" gradientUnits="userSpaceOnUse"/></defs><path transform="rotate(-90 1579.34 -32.65)" opacity=".99" fill="url(#d)" stroke="url(#e)" stroke-width="3.02" d="M-621.191-2582.478h2179.657V706.621H-621.191z"/><path d="M396.254 1480.357l-2017.515 9.09c.088 10.796-17.159-1219.457 4.925-1298.752 34.464-36.02 69.816-54.278 104.704-80.076 26.478-13.93 52.838-34.248 79.541-38.556 39.773-20.334 79.798-19.235 119.87-29.348 54.506-1.092 108.88 19.254 163.308 13.42l36.69-3.932c53.418-5.725 106.86-13.017 160.182-26.642 70.455-21.827 140.348-63.035 210.68-90.948 81.875-33.864 163.522-81.171 245.9-87.968 107.667-23.497 215.536-14.707 323.305-15.218 78.886-2.633 157.811 12.891 236.08 54.731 58.014 26.635 115.463 73.534 173.67 94.513l154.15 65.823c13.153 408.803 3.944 967.49 4.51 1433.863z" fill="url(#f)" stroke="#244c26" stroke-width="15.584" stroke-dashoffset="2.08" transform="translate(1611.989 1546.69)"/><path d="M1455.798 1088.964c-1.632-.041-3.433 1.295-5.063 4.825-10.948-1.864-26.831-.575-30.259 14.687-4.361 14.865-3.015-2.85-11.367-1.361-1.352 11.166-9.833-.997-12.132 6.09-.74 17.915-14.71 30.325-23.692 44.54-1.938 20.41 14.255-16.488 11.918-2.388-2.55 20.166-1.896 42.82-15.142 59.442-12.946 4.667-6.832 39.926-21.708 25.578-14.148-8.836-29.882-13.975-45.687-18.39-12.9 3.984.552-13.295.669-24.741 1.39-17.971-20.967-24.422-33.029-33.507-15.926-10.663-33.447-23.403-52.732-20.777-5.736.78-8.271 8.179-11.559 12.944-11.008 15.954-3.093 12.115.956 30.426-.245 12.617-23.93.502-32.337 8.86-11.616 5.877-31.568 20.103-16.192 33.315 12.994 6.348 31.42 9.167 44.899.55 2.395-18.49 31.976-1.52 14.854 5.707-17.026 6.3-26.8 23.403-23.762 41.388 2.243 17.676 5.49 36.4 3.63 53.663-13.586-.854-3.46 28.677 7.594 31.859 22.008 6.155-5.985 2.524-14.138 3.2-23.207-1.536-46.315-5.651-69.186-10.007 2.145-9.946-26.145-7.49-19.25 2.986 19.601 7.452 40.977 9.231 61.616 12.394 19.009 4.187 38.382 3.496 57.7 4.395 14.326-7.47 14.447 18.479 2.197 15.165-16.476 5.99-31.155 17.08-43.275 29.685.468 15.11 24.65-3.168 31.525-8.884 10.647-15.234 10.496 1.372 14.544 10.819-.064 19.714 19.624-.577 7.475-10.222-4.505-14.978 5.553-6.274 4.633 4.61-1.38 10.148 16.875 24.822 15.786 9.409-5.373-10.27-14.608-29.612-2.22-37.352-8.532-.745-13.236-2.6-8.957-12.514 16.468.738 32.99 2 49.412 2.866-.651 12.708-2.27 26.073-4.585 38.832-12.469 3.229-1.909 13.057-11.559 17.41 5.953 10.358-13.795 13.301-18.317 24.599-1.552 19.977 17.152-8.628 24.79-11.225 11.53-14.446 2.717 9.416 14.806 2.938 6.199-7.441 3.664-21.555 9.816-30.593-15.352.342-4.127-17.665-5.756-27.656-4.632-21.435 17.279-10.675 29.303-11.606 52.061 3.938 104.075-.55 156.07-4.299.017 10.206-10.095 27.877-14.425 40.456-8.554 27.228-19.907 52.91-21.733 81.462-4.91 28.741.253 58.712-9.362 86.692-13.602 37.669-24.8 76.14-35.273 114.777-11.645 31.056-26.165 61.022-38.212 91.946-18.023-5.465-5.916 11.718 4.227 12.968 9.294-12.653 11.813-33.031 20.443-48.146 8.632-23.405 21.726-45.236 27.704-69.569 3.443-11.672 7.057-28.18 10.77-36.778 3.673-19.122 10.366-37.702 17.53-55.765 4.391-13.78 9.235-30.134 9.123-46.092-.29-37.104 2.687-75.152 17.267-109.834 4.157-15.548 11.446-30.121 16.86-45.304 7.668-17.193 13.05-27.494 15.548-46.737 4.086-28.988.41-58.358 6.042-87.194 4.494-18.496 4.997-39.012 14.019-56.218 5.74 14.01 1.131 30.903-1.648 45.471-5.22 16.268-1.28 32.91 4.513 48.338 2.051 14.163 11.392 40.175 29.877 29.422 14.207-20.889 34.368-36.674 50.51-56.075 14.48-13.094 13.752-34.222 24.312-49.65 8.424-17.25-13.43-3.268-20.132.453-6.465-5.023 9.321-18.666 16.263-22.186 13.405-22.475-38.603-.262-30.616-25.363 2.324-11.896 1.458-29.395-11.464-32.981-17.342 13.243-10.087-8.023-10.985-18.724-6.37-18.279-31.467-8.865-40.91 1.935-9.526 5.385-20.131 36.704-25.196 12.18-4.504-13.062-14.426-36.475-31.811-24.575-8.973 14.79-14.95-.499-22.52-8.502 4.173-4.813 1.16-13.961-3.01-14.067zm45.424 187.976c2.376 8.914-.579 26.183.167 38.164-.976 17.59.57 42.329-13.04 53.424-46.252 4.043-92.525 6.386-138.922 4.824-14.035-2.51-32.005.91-43.943-5.087 6.569-7.354 18.818-11.29 23.787-21.756 13.588-21.855 32.851-39.947 43.417-63.574 26.463 12.92 56.71 14.508 85.594 17.051 18.638 1.9 44.388 2.031 42.94-23.046z"/><path d="M1161.316 1217.964c2.976 12.728 36.889 14.207 28.937.24 3.787-5.617 12.115 3.92 19.414-4.805 11.24-5.014-3.305-21.54-13.387-14.32-12.79-6.628-32.267 5.774-34.964 18.885z" fill="#1a1a1a"/><path d="M1216.08 1190.693l5.653 17.595c8.715-3.936 31.148-.71 15.493 7.642-18.537-6.864-4.212 21.642 6.59 8.836 13.295-3.406 27.133-4.176 40.55-5.093 6.007-10.47 15.792-25.156 2.816-34.763-15.28-11.57-32.42-20.673-49.178-29.815-16.498-5.893-27.516-5.43-25.072 16.19l1.402 7.074" fill="#333"/><path d="M1218.7 1171.809c9.957-13.886 20.227 13.678 3.11 14.244M1245.428 1172.452c7.709-2.678 30.919.948 12.31 7.353-12.555 5.147-18.046 2.827-12.31-7.353z"/><path d="M1204.36 1269.038c.342 20.845 5.795 41.335 3.303 62.273-7.304 17.37 19.816 20.824 27.147 21.21-1.976-9.014 6.243-27.736 11.468-12.078-2.567 9.617.538 12.754 5.133 16.878-18.413 8.24 15.15 5.493 21.668 5.931 11.895.312 22.162-2.552 27.318-10.734 13.335 9.55 20.224-14.991 29.262-22.371 8.42-10.793 13.613-20.277 22.912-30.135 9.297-11.004 14.832-24.937 5.191-36.946-3.293-18.09-26.777-22.385-41.243-29.11-16.68-7.03-33.861-7.416-43.637 9.962-7.41 10.953-16.905 27.395-28.363 9.848-8.428-8.465-15.806-22.275-27.444-7.68-10.11 3.407-10.942 13.986-12.716 22.952z" fill="#333"/><path d="M1241.614 1239.106c5.474 2.258 13.217 19.699 19.712 4.087 5.524-6.403 22.637-19.875 2.827-13.837-3.509 2.274-31.425 1.793-22.54 9.75z" fill="#333"/><path d="M1257.885 1233.472c1.269 1.496-1.74.1 0 0z"/><path d="M1209.15 1354.213c5.259 3.158 30.19 7.745 12.335 1.884-1.245.203-14.675-5.454-12.336-1.884zM1219.2 1365.868c5.209-.148-7.559-1.227 0 0z" fill="#333"/><path d="M1366.047 1240.867c-3.946 13.954 6.237 28.84 13.853 38.635 22.363 9.883 47.497 12.233 71.712 14.025 14.231-.283 41.092 6.654 39.748-15.283 9.337-14.326 11.168-31.09 13.82-47.26 3.414-13.345 10.234-27.328 16.344-38.57 13.528 1.613 18.572 17.572 17.144 30.266.541 17.238-7.611 33.674-5.51 50.894 3.068 12.508 7.217 28.125 11.717 41.472 10.186 19.928 20.731-14.222 31.395-19.332 16.39-16.898 36.372-32.61 42.757-56.317 4.308-8.496 8.248-19.513-4.423-10.893-2.841 7.57-26.678 10.212-13.745.312 6.261-12.716 3.445-44.183-17.047-32.471-22.248 9.033-34.17-17.964-13.714-28.877 7.501-12.461-4.52-8.625-11.543-9.041 16.777-6.71 11.178-24.025 13.194-38.482-15.615-4.015-28.347 10.71-37.508 21.32-9.763 8.903-20.181 38.697-35.731 21.032-11.326-9.46-19.806-29.285-32.057-33.458-5.09 3.308 4.064-9.35-4.31-11.798-11.76-19.728-13.048 19.234-15.263 27.854.864 18.904-13.589 2.497-12.56-7.607-9.212-.963-14.298 21.098-24.35 25.23-14.265-10.984 8.34-33.262.94-48.538-11.53 7.943-12.185 32.637-18.058 47.172-1.698 18.282-2.655 37.834-11.758 54.172-7.549 6.381-13.857 15.552-15.047 25.543z" fill="#668000"/><path d="M1415.338 1147.63c9.032-1.264 21.409-25.358 6.28-20.229-2.271 10.478-1.055 11.226-6.063 18.545z" fill="#668000"/><path d="M1427.91 1120.403c9.361 14.276 22.146-17.19 15.778-20.602-7.882-3.13-21.29 17.077-15.778 20.602z" fill="#450"/><path d="M1439.55 1130.562c.521-5.551-2.723 3.203 0 0z"/><path d="M1476.732 1126.34c9.722 11.95 19.12 24.388 30.34 34.956 19.59-11.814-4.583-30.868-9.397-45.691-5.793-8.597-24.667 3.165-20.943 10.735zM1566.91 1186.58c10.78 10.453 12.833-5.401 6.297-9.783-2.631 2.809-6.044 5.58-6.297 9.783zM1578.869 1156.294c-1.288 17.088 26.68-15.002 7.927-7.439-3.087 1.915-9.307 2.196-7.927 7.439z" fill="#450"/><path d="M1581.561 1174.46c.427 20.955 19.133-19.435 1.24-5.018l-1.35 1.59z" fill="#668000"/><path d="M1595.33 1185.66c5.847-1.172-3.69-5.087 0 0z"/><path d="M1605.66 1198.597c-2.821 20.338 14.22-5.113 13.72-3.693-3.835 1.128-18.01-5.186-13.72 3.693z" fill="#450"/><path d="M1260.946 1408.482c2.38-.057-2.4 1.503 0 0z"/><g><path d="M702.283 1300.62c-2.217-2.15-2.95-5.434-4.37-8.119-1.11-2.53-2.277-5.133-3.292-7.642-3.546-8.33-6.84-16.914-9.38-25.661-2.513-7.941-4.086-16.197-5.482-24.416-.753-5.866-1.803-11.735-1.612-17.672-5.41-2.268-10.494-5.251-15.564-8.135-2.984 2.096-2.924 6.524-5.698 8.517-1.217.874-2.85 1.008-4.338 1.175-2.852.32-6.068.168-8.602-.353-7.025-.341-14.011.435-20.96 1.37-1.712.28-7.783.996-5.782-1.606 5.063-.093 10.098-1.055 15.126-1.645 6.683-.564 13.418.11 20.087-.528 4.02.3 5.258-3.879 7.448-6.368 2.718-2.921-4.077-4.09-5.482-6.539-2.148-2.291-5.419-3.928-6.137-7.208-.758-2.874.188-6.791.382-9.14-9.806 4.951-20.663 8.144-29.422 15.045-5.56 3.839-10.1 8.95-15.1 13.39-2.21 2.604-3.31-1.873-.822-1.704 3.598-2.798 6.5-6.499 10.113-9.216 6.849-6.427 15.25-10.94 23.922-14.438 4.132-1.86 8.323-3.606 12.264-5.851 2.157-5.299 5.26-10.173 9.309-14.25 6.35-7.017 13.915-12.697 21.401-18.418 9.276-6.902 19.07-13.287 29.823-17.683-2.055-1.517-6.462-2.643-9.595-3.316-8.913-1.806-18.07.044-26.797 2.03-5.302 1.101-10.471 2.807-15.804 3.736-5.756.65 4.913-7.06 1.963-2.415 3.561-.282 6.94-1.856 10.5-2.358 6.901-1.65 13.887-3.132 20.983-3.55 6.162-.365 12.277.894 18.01 3.097 3.057 1.693 6.102 1.122 9.192-.218 11.336-3.395 23.231-3.76 34.938-4.735 4.081-.38 8.185-.532 12.274-.71-5.92-4.132-12.035-8.042-17.405-12.904-4.714.859 1.483-4.377 2.644-.739 5.758 5.153 12.378 9.14 18.603 13.66 4.048.729 8.268.895 12.258 2.075 8.936 2.705 17.556 6.282 26.386 9.268 6.37 2.24 12.532 5.026 18.799 7.533 2.228-2.512 4.078-5.524 6.216-8.18 6.701-9.417 15.55-17.09 25.16-23.441 1.898-.933 5.863-4.97 7.033-2.344-2.911 1.941-6.001 3.737-8.817 5.883-9.107 6.15-17.055 14.02-23.383 22.998-.502 2.164-6.54 5.618-2.74 6.663 6.694 2.919 13.092 6.836 18.011 12.313 4.65 4.627 8.05 10.371 10.512 16.408 2.358 4.784 4.647 9.757 6.053 14.954 1.64 1.322 5.436-1.77 7.864-1.976 9.062-3.129 18.46-5.143 27.92-6.637 5.632-.93 11.23-2.294 16.928-2.675 1.539 2.653-4.471 1.898-6.273 2.615-12.946 2.318-26.061 4.146-38.546 8.455-2.168 1.438-7.97.84-7.12 4.38.979 7.523-3.028 14.94-8.906 19.466-6.907 5.432-15.377 8.451-23.695 11 1.267 1.419 6.216 1.968 8.812 3.263 12.647 4.19 24.06 11.58 37.148 14.523 7.237 1.787 14.58 3.507 22.088 3.453-.262-1.393-2.512-7.1 0-5.43 1.145 2.602 4.44 8.71-1.16 7.788-7.58-.057-14.981-1.96-22.324-3.65-8.753-2.224-16.855-6.193-24.982-9.967-7.762-3.593-15.9-6.421-24.13-8.66-10.53 2.813-21.252 4.79-31.993 6.596.36 4.695 1.847 9.26 3.247 13.741 2.902 7.428 5.89 14.853 9.854 21.78.933 2.086 3.987 5.841 4.14 1.465 3.21 2.027-2.092 6.867-3.922 2.576-4.84-6.922-7.846-14.918-11.082-22.65-1.867-4.985-3.38-10.12-4.246-15.393-1.407-2.528-6.215.218-9.007-.24-9.405.817-18.894.738-28.307.061a93.6 93.6 0 0 1-14.092.842c-.09 2.696.007 5.417 1.269 7.866 1.38 4.021 3.193 7.908 5.789 11.323 6.147 8.848 15.179 15.086 23.604 21.584a24.063 24.063 0 0 0 5.318 4.03c1.949 1.529-.536 4.392-2.005 1.632-3.44-3.303-7.252-6.178-11.092-8.987-1.89-.838-4.185-3.667-6.444-5.148-7.307-6.135-13.76-13.748-16.766-22.925-1.405-2.98-2.072-6.259-1.868-9.558-10.891-1.272-21.18-5.255-31.813-7.69-9.727-2.65-19.797-4.216-29.164-8.073-.465 3.413.32 7.018.671 10.463.68 5.524 1.622 11.039 2.709 16.504 1.112 4.882 2.295 9.744 3.674 14.51 1.47 4.42 2.855 8.879 4.558 13.236 3.024 8.043 6.24 15.985 10.073 23.692 1.17 3.743 1.423-2.358 2.124-1.094 1.369.763.043 5.297-1.68 5.295z" fill="#d4aa00"/><path d="M758.315 1231.074c5.522-.896 11.121-2.238 16.279-4.213 3.787-.812 7.233-2.658 10.87-3.944 2.34-1.824 7.386-1.738 7.653-5.094-.228-2.396 1.397.068 1.813.541.387.441.192 1.158.283 1.737.522 3.336.052 7.889 1.507 10.017 10.074-1.553 20.141-3.434 29.974-6.09-2.3-.288-3.758-3.672-.588-2.952 2.589 2.787 6.174 1.896 9.291.533 9.236-2.947 18.884-6.823 24.956-14.75 2.742-3.776 4.293-8.566 3.652-13.298-.54-2.584-4.765 1.054-6.84 1.05-1.388 1.254-5.238-.054-2.196-1.121 2.56-1.06 7.679-1.13 8.312-3.8-2.278-7.285-5.636-14.174-8.89-21.06-4.986-8.726-12.602-16.121-21.843-20.211-2.654-1.76-5.668-3.163-7.372.453-.626 2.01-5.062 2.593-2.603.094 1.208-1.184 5.225-3.896 1.478-4.37-8.602-3.806-17.449-7.008-26.33-10.075-7.989-2.935-15.901-6.49-24.464-7.304.511 1.481 4.71 3.654 6.497 5.615 2.806 2.36 5.524 4.96 7.942 7.495-.784 4.03-4-1.564-5.719-2.442-4.292-4.15-8.993-7.837-13.936-11.178-10.888-.205-21.696 1.288-32.536 2.06-6.577.747-13.213 1.802-19.445 4.093 2.704.737 6.389 3.281 8.57.14 1.442-2.36 4.059-.562 1.472 1.08-2.016 2.092-4.78 3.325-7.553 1.774-3.236-1.05-6.624-2.515-9.701-.195-10.258 4.556-19.725 10.726-28.633 17.513-8.812 6.692-17.684 13.63-24.335 22.568-1.318 1.997-3.377 4.995-3.601 6.753 4.282-2.452 8.61-4.891 12.799-7.473 3.202-2.02 4.838-5.503 6.993-8.465 3.484-1.934-.164 3.61-1.231 4.632-2.904 5.575-9.217 7.573-14.063 10.96-2.391 1.822-6.727 2.282-6.544 6.07-1.029 3.872-1.005 8.603 2.71 11.042a50.621 50.621 0 0 0 9.226 7.23c1.216-1.802 3.535-3.496 4.187-5.343-.566-2.215-.353-4.538-2.879-5.554-2.671-2.248-6.032-4.265-7.348-7.63-.94-2.85 3.587-2.895 1.636-.132 1.763 3.59 5.397 5.788 8.487 8.115 1.54-.872 1.636 2.882 3.632 3.227 3.242 2.836 6.228 5.934 9.643 8.547 1.948-.536 2.037 2.83 4.296 3.223 6.68 4.618 14.336 7.603 21.917 10.347 13.117 4.205 26.681 7.007 40.356 8.78 4.055.338 8.139 1.39 12.22 1.005zM746.995 1231.966c-1.362-.57-5.665-.238-2.264-.007.754-.072 1.524.19 2.264.007z" fill="#fd5"/><path d="M775.886 1231.857c6.122-.042 12.288-.487 18.312-1.48-.996-2.524.196-7.844-1.776-8.921-8.817 4.462-18.174 7.776-27.72 10.244 3.64.359 7.478.197 11.184.157zM741.668 1231.588c-2.093-1.324-6.856-1.02-9.867-2.07-1.327-.146-5.917-1.224-5.546-.868 4.877 1.435 9.879 2.555 14.927 3.136z" fill="#fd5"/><g fill="#a0892c"><path d="M733.784 1201.747c-12.081-1.064-23.105-9.181-28.452-19.529-1.907-6.488 5.675-4.82 4.89.67 4.64 6.596 11.749 12.024 19.689 14.41 8.565 1.135 18.027 1.915 26.089-1.45 10.105-4.983 18.986-13.319 21.256-24.435 5.812.73-.304 12.677-3.95 15.607-7.938 8.864-19.389 16.086-32.02 14.762-2.5 0-5.002.032-7.502-.035z"/><path d="M736.828 1174.407c-6.519-4.333 2.19-9.18 3.262-2.011-.239 1.338-1.855 2.622-3.262 2.011zM714.911 1163.423c-3.365-7.426 10.78-1.457 0 0zM753.823 1154.083c-2.188-5.316 8.444-4.08 3.05.33-.818.303-2.539.863-3.05-.33z"/></g><path d="M706.107 1223.326c-8.694-3.148-17.476-6.565-24.91-12.182-1.538-.397-2.015 5.733.664 5.594 7.816 3.066 16.112 4.634 24.223 6.657zM678.257 1214.271c.113-2.776 1.515-5.668-1.89-7a707.928 707.928 0 0 0-8.189-7.55c1.988 3.176-2.72 4.647-3.924 7.143-.295 2.15 4.569 3.01 6.246 4.531 1.854.395 6.98 4.795 7.757 2.876z" fill="#fd5"/></g><g><path d="M822.648 1667.102l2.824-.092c2.537.131 4.972.317 7.5.035 1.657-.504 2.595 1.432 2.516 2.18-.225 2.135-4.67 2.374-4.588 4.52.044 1.181 1.526 2.248 2.708 2.292 1.261.047 2.047-1.477 3.064-2.224 1.984-1.457 2.653-1.954 4.652-4.7 1.1-.785.18-3.225 2.628-2.669 3.482-.686 3.18 3.782 3.576 6.084.418 2.375 5.317 3.36 5.601.363 1.804-1.85-1.074-4.579-.392-6.846 1.74-.336 4.04-1.145 6.149-1.46 2.942-1.594 4.665 1.48 6.553 3.172 2.448 1.386 3.628 3.881 4.914 6.276.466 1.332 2.394 2.188 3.216 1.979l.159-.59c2.32-1.741.077-4.557-1.062-6.642-.37-2.38-2.649-3.712-4.174-5.367-1.478-.977-1.818-2.145.243-2.747 1.294-.787 2.598-1.555 3.896-2.333 1.645 1.18 3.67 1.613 5.545 1.88 2.995.187 5.914-.669 8.718-1.589 2.574-.385 5.526-1.017 7.145-3.242-1.413-2.186-4.4-1.184-6.625-.946-2.281-.255-4.549 1.117-6.943 1.184-1.23-.187-4.966.056-2.384-1.612 2.094-1.277 3.357-3.549 4.583-5.458 1.19-2.491 2.32-5 2.28-7.796.068-2.452.16-5.281 3.33-5.03 1.78-1.076 4.411-.811 6.668-1.696 2.43-.935 4.986-1.412 7.429-2.348 3.959-.688 7.443-2.941 10.977-4.748 3.435-1.951 7.333-2.786 10.739-4.8 2.57-1.326 5.126-2.78 7.97-3.375 2.24-1.178 4.786-1.772 6.994-3.1 2.026-1.192 3.57-2.17 5.646-3.373 3.488-1.21 6.618-3.36 9.783-5.272 4.64-3.196 9.72-5.731 14.347-8.963 2.727-1.886 5.136-4.198 8.017-5.876 2.875-1.898 4.872-4.81 7.708-6.752 2.004-2.096 3.91-4.297 5.867-6.39 1.83-1.858 2.538-4.436 4.509-6.178 1.528-1.863 1.463-3.986 2.765-5.785l2.699-6.063 2.306-4.36 1.1-7.124.886-2.238 1.526-6.384.67-5.513-.288-6.73c.242-1.755.32-3.136-.007-4.686-.46-2.27-.902-4.55-1.146-6.852-.108-1.024-.093-2.056-.138-3.085-.018-.407-.025-.815-.052-1.222-.092-1.35-.157-2.705-.374-4.04-.545-3.335-1.497-6.6-2.323-9.868-.636-3.7-1.935-7.42-3.037-11.072-1.258-4.123-2.874-8.126-4.724-12.01-.85-1.627-1.476-3.56-2.62-5.56-4.714-8.963-10.644-17.21-15.568-26.054-1.427-2.631-3.745-4.558-5.485-6.97-1.652-2.232 3.33-4.29.895-6.84-1.186-1.947-3.307-2.928-4.796-4.682-1.906-2.237-5.109-2.02-7.718-2.412-2.708-.747-5.24.115-7.98-.552-1.953-1.681-.29-5.333-.56-7.83.777-2.685-.888-4.994-2.088-7.252-1.077-1.431-3.663-3.33-5.852-4.345-2.044-.682-4.105-1.402-6.254-1.662-.578-6.46-1.399-12.894-2.545-19.282-.605-3.742-.657-7.558-1.327-11.286-1.226-2.409-4.801-1.38-6.059.354-.476 1.804-.795 4.806-1.935 6.802-.518 2.584-1.784 5.145-2.56 7.743-2.135 4.393-3.091 9.296-5.407 13.625-.806 2.4-1.524 4.92-1.623 7.39.246 2.685.163 5.504-.009 8.11-1.02 1.902-5.441 1.736-7.484 3.427-2.18.56-4.756 3.857-6.755 2.02-2.21-3.23-5.337-5.646-8.263-8.176-1.617-1.167-3.16-3.098-4.762-4.548-1.778-1.772-3.849-3.329-5.221-5.305a118.91 118.91 0 0 1-5.633-5.76c-1.816-2.707-4.775-1.102-6.616.685-.19 2.715 1.528 5.125 2.11 7.765.999 3.85 2.948 7.329 4.315 11.038 1.139 3.366 2.484 6.75 3.032 10.308.759 3.345.986 6.866.55 10.266-.844 2.519-1.654 5.16-3.752 7.141-1.745 2.31-3.322 4.648-4.762 7.155-1.426 2.423-3.088 4.587-4.614 6.932-1.306 2.208-2.783 4.495-3.743 6.968-1.378 2.472-2.86 4.815-4.166 7.338-1.189 2.856-2.626 5.632-3.81 8.466-1.285 2.557-2.462 5.213-3.717 7.793-.387 2.525-1.978 4.68-2.522 7.206-.441 2.515-1.66 4.77-1.975 7.2-.743 2.952-.555 6.022-.448 9.074.207 4.724 1.484 9.317 2.538 13.894.447 2.143 1.804 4.747 1.68 6.542.758 1.535 1.415 4.395 2.155 6.431 1.273 4.59 2.68 9.14 4.075 13.695 1.126 2.431 1.229 5.163 2.45 7.605 1.757 4.205 4.136 8.212 7.58 11.251 2.239 1.646 3.285 4.466 4.586 6.86 1.39 2.593 1.314 4.208 2.57 6.582l.975 3.792-.004 4.104c.69 2.402.738 5.006.516 7.295-.162 2.824.095 5.691.16 8.409-.01 2.68 1.411 5.33.014 7.924-.083 3.59-3.832 2.525-6.128 3.026-1.905.499-2.858.029-4.988.826-2.597.685-5.093.96-7.724 1.62-2.997.627-5.894 1.744-8.918 2.128-2.848.851-5.58 1.936-8.451 2.723-2.7.745-5.515.912-8.23 1.51-3.063 1.155-6.146 2.27-9.32 3.062-2.13.262-4.539 1.419-6.487 2.724a9.022 9.022 0 0 0-2.373 2.363c-1.089 1.58 1.477 5.574-2.345 5.255-2.467.83-17.409 3.343-19.81 4.398-2.28.537-4.405 1.12-6.47 1.946-3.172 1.65-6.45 3.139-9.474 5.049-2.165 2.218-.197 5.354 2.062 6.567 2.35 1.516 5.093 1.43 7.731 1.759 2.462-.04 4.99-.166 7.45.144 1.687.058 4.663-.436 6.944-.937 1.831-.402 3.583-1.107 5.377-1.653 1.63-.496 3.246-1.044 4.895-1.476 2.235-.587 6-4.004 6.764-1.515.474 1.541-.74 6.925.752 7.878z"/><path d="M862.483 1657.605c-2.521-.816-3.953.853-5.33 2.607-2.72.88-5.333 1.182-7.595-.75-1.794-.098-4.076.048-4.971 2.138-2.95 1.677-5.623-1.638-8.408-.388-2.733 1.606-6.078 1.436-9.08.957-1.06.31-4.768-.164-2.834-1.55l-1.124-6.209c-.252-2.578-1.335-5.352-1.15-7.777 2.368.472 2.067-4.811-.909-4.21-3.084-.432-3.142-4.57.084-4.947 2.274-1.366 4.889-1.764 7.252-2.913 2.205-1.198 4.551 2.033 6.898-.132 1.533-2.848 4.996-2.75 7.743-3.48 2.702-.715 5.21-2.059 7.89-2.783a254.351 254.351 0 0 1 7.094-1.922c2.537-.06 4.641 1.935 7.117 2.314 2.612 1.302 4.609 3.697 7.103 4.991 1.694 2.077 5.36 1.526 6.763 3.636-.111 2.959-.415 5.782-1.758 8.522-1.28 2.05-2.422 5.79-5.23 5.375-2.458-.68-6.017 1.124-3.96 3.893-1.172 1.354-3.758 2.849-5.595 2.628zM999.735 1517.705c.217 2.71.556 5.287.767 7.962-.055 2.59.362 4.912.087 7.439-.104 2.523-.108 5.104-.52 7.625-.535 3.769-1.258 7.512-2.43 11.142l-2.022 5.083-2.956 4.615-2.678 7.014c-1.715 3.593-4.615 6.408-7.166 9.41-1.84 1.734-3.516 3.812-5.486 5.445-2.263 2.576-5.203 4.545-7.823 6.798-3.068 2.325-6.224 4.514-9.512 6.523-3.72 2.894-7.978 5.004-11.95 7.53-2.036 1.044-3.86 2.668-6.024 3.327-2.134 1.349-4.354 2.885-6.79 3.554-1.924 1.553-4.543 2.29-6.806 3.446-3.196 1.536-6.46 2.943-9.633 4.491-3.178 1.23-6.176 2.972-9.474 3.898-3.328 1.335-6.292 3.599-9.907 4.148-2.33 1.525-5.13 1.803-7.71 2.562-2.649 1.162-5.63 1.317-8.455 1.577-1.75-.794-5.513 1.397-4.14-2.015l1.705-5.812 1.378-3.844 1.085-4.513c.4-2.34-.077-4.631-.198-6.891-.031-2.694-.069-5.348-.024-8.016-.266-2.02-.46-5.265-.846-7.752.21-2.81-.826-5.586-1.544-8.28-1.993-6.837-5.642-13.173-10.525-18.35-2.072-2.339-3.39-5.14-4.387-8.083-1.57-4.51-2.755-9.168-4.528-13.599-1.565-5.826-3.502-11.551-5.134-17.358-1.797-4.576-2.486-9.461-3.122-14.303-.279-4.559-.278-9.202 1.15-13.585.516-2.833 1.674-5.378 2.536-8.054 1.4-2.733 2.166-5.74 3.67-8.412.997-1.87 1.85-4.42 3.02-5.817.305-2.508 2.27-4.54 3.13-6.931 1.393-2.554 2.829-5.047 3.993-7.695 1.502-2.094 2.518-4.068 3.842-6.152 1.78-2.262 2.832-5.008 4.785-7.126 1.406-1.899 2.315-3.829 4.148-5.29 2.086-.678 4.298-1.185 4.307-3.958.815-3.06 3.593-5.017 5.938-6.923 1.933-.989 4.094-4.192 6.249-2.558 2.978.711 5.31-1.824 7.23-3.71.712-1.7-3.623-.586-1.17-1.949 2.538-1.643 5.27-2.949 8.237-3.567 2.855-.768 5.788-.78 8.695-.9 2.148.241 4.182-.414 5.672.721-.262 3.01 3.389 3.989 5.516 2.414 2.528-1.843 4.824 1.443 7.282 1.91 2.87.985 3.283 3.195 3.989 5.8 1.192 2.093 3.604 3.587 4.766 5.923 1.835.951 3.79 1.54 5.79 2.125 2.54.599 5.132.706 7.59.316 2.383-.074 3.424 2.842 5.003 4.313 2.108 2.791 4.021 5.735 5.802 8.761 3.137 4.92 6.347 9.803 9.284 14.844 2.4 4.586 5.023 9.109 6.718 14.01 1.33 2.345 2.054 4.947 2.706 7.513 1.077 2.027 1.098 3.765 1.855 6.25 1.178 5.282 2.976 10.418 3.778 15.787" fill="#f60"/><path d="M950.626 1524.79c2.076-2.232 4.43-4.233 6.303-6.634 1.208-2.24 2.376-4.37 3.695-6.591.903-2.463 1.525-5.15 3.476-6.989.512-2.704-3.129-1.002-4.353-2.401-3.402-.754-4.091 2.809-5.096 5.128-.665 2.688-2.488 4.919-3.417 7.488-1.61 2.009-3.452 4.113-5.607 5.637-2.531.908-5.325 4.007-8.026 2.885-1.095-2.913-2.71-5.628-3.447-8.683-1.444-3.783-2.673-7.637-3.828-11.518-.822-2.372-.872-4.943-1.247-7.425-1.26-2.839.067-4.875 1.592-7.187-.015-2.43-3.62-2.825-5.515-2.475-2.613-.046-1.322 3.194-3.375 3.734-.757 2.61.415 5.259.595 7.872.302 2.684 1.162 5.334 2.052 7.942 1.074 4.177 2.692 8.176 4.114 12.246.92 2.393 2.714 5.51 2.58 7.71-2.484.361-4.954.754-7.488.629-2.403.254-4.788-.222-7.198.196-2.797-.24-5.74-.187-8.393-.61-3.017-.526-6.052-.801-9.06-1.462-2.56-.35-4.891-2.257-7.468-.892-2.715 1.925 1.13 4.877 3.3 4.962 2.144.15 3.843.714 5.954 1.332 2.82.125 5.665.653 8.421 1.361 2.534-.033 5.13.465 7.683.35 2.409.365 4.972-.19 7.464.073 1.387-.287 5.99-.42 5.581.011l1.75-.77c2.32.28 4.7-.408 7.027-.83 2.546-.234 4.85-1.017 7.048-2.385 1.652-.852 3.362-1.626 4.883-2.704zM934.222 1466.792c2.428-2.764-1.161-4.655-3.731-4.878-2.062-.437-2.016 2.29-4.1 2.327-2.794 1.819-.128 4.658 2.468 3.74 1.652-.247 4.213.089 5.363-1.19zM908.386 1469.408c3.01-1.493.562-3.994-1.918-3.85-2.4-.912-6.117 1.55-3.237 3.81 1.607.475 3.782 1.854 5.155.04zM871.96 1626.694c-.885-.561-3.413-1.628-3.177-2.05 1.987-.338 6.447-2.201 4.485 1.511-.22 1.083-.43 1.425-1.308.54z"/><path d="M808.19 1653.084c-1.853 1.128-3.975 1.767-6.012 2.482-2.835 1.146-5.8 1.696-8.786 2.044-2.338.273-4.753.488-7.06.026-1.87-.376-5.294-.319-5.272-2.226.052-4.503 10.08-4.222 12.562-4.969 3.395-1.678 7.253-1.814 10.836-2.843l7.315-.623 3.175.007c.568 1.204 2.517 3.436.043 3.64l-.446.14-.421.135-2.467.792z" fill="#f60"/><path d="M953.115 1430.182c.083-2.47 4.605-2.668 7.049-2.299 1.959.296 4.9 1.45 4.854 3.43-.033 1.39-2.13 2.114-3.514 2.242-3.001.28-8.49-.361-8.389-3.373zM943.929 1419.534c-2.04-1.054-4.467-1.573-6.143-3.3-2.25-1.929-.874-4.992-.648-7.36.59-3.167 4.357-.596 5.771.86 2.522 1.385 2.458 4.972 2.394 7.524-.048.68-.211 3.024-1.374 2.276z" fill="#c83737"/><path d="M927.985 1415.052c-1.884-.471-6.072.976-5.795-2.155-.464-2.62-.422-5.39-.061-8.044.396-2.615 1.451-5.449 2.347-7.6 1.02-2.154 1.54-4.305 2.633-6.301.437-1.479 1.972-5.596 2.13-1.946.685 5.243 1.471 10.49 1.689 15.776.685 2.857-2.404 4.59-2.074 7.455.054.901 1.176 3.59-.869 2.815zM887.7 1431.164c-.38-2.351-.78-4.633-1.332-6.99-1.183-3.788-2.222-7.631-3.808-11.281-.665-1.51-.632-3.069.753-1.112 2.125 1.94 4.363 3.782 6.284 5.929 2.585 1.403 4.32 4.021 5.967 6.397 1.446 2.44-2.93 3.546-4.302 4.898-1.322.433-2.418 1.901-3.563 2.16z" fill="#a40"/><path d="M847.41 1518.017c-1.342-.483-.412 1.372 0 0z"/></g><g><path d="M1054.083 1679.215c-.074-.9 1 .668 0 0z"/><path d="M1068.065 1679.315c-1.998-.033-4-.19-5.982-.256-2.603-.021-5.196-.326-7.802-.278-3.954.026-7.904-.162-11.854-.273-3.128.109-6.235-.42-9.351-.615-1.633-.23-3.28-.253-4.92-.461-2.772.1-5.469-.696-8.231-.72-2.751-.486-5.582-.476-8.296-1.206-1.672-.44-3.43-.767-4.838-1.835-1.294-.818-2.404-1.884-3.553-2.874-1.892-.561-.795-3.339.905-2.603.528.403 1.965 2.707 2.028 1.038-.215-1.824.034-3.663.022-5.483.273-.595.076-2.51-.563-1.055-1.018 1.734-2.113 3.475-3.547 4.896-1.041 1.212-2.292.002-1.68-1.276.071-1.331-.628 1.485-.201 2.094.143 1.723.494 3.636-.404 5.215-1.26.674-.888-1.301-.608-1.926-.026-2.082-.976-4.25.003-6.263 1-1.379 2.152-2.777 2.093-4.613.443-1.813.747-3.683 1.216-5.488.59-2.218 1.319-4.39 1.983-6.59.778-2.49 1.607-4.961 2.568-7.385.462-1.817 1.391-3.482 2.034-5.246 1.424-3.444 2.289-7.113 4.056-10.417 1.437-2.877 2.892-5.76 4.638-8.462.402-1.365 1.223-2.473 1.923-3.689.616-1.472 1.595-2.79 2.408-4.12.512-1.075 1.093-2.146 1.837-3.049 1.022-1.578 1.925-3.24 3.074-4.736.581-1.123 1.58-1.769 2.036-2.946.885-1.048 1.576-2.24 2.446-3.32.899-1.005 1.582-2.085 2.444-3.144.874-.862 1.24-2.015 1.88-3.049 1.403-2.44 3.099-4.843 5.598-6.257 1.603-.924 2.17-2.824 3.378-4.139.896-1.072 1.535-2.34 2.491-3.355.937-.516 2.153.533 2.705-.883 1.607-1.764 3.22-3.514 4.972-5.139 1.082-.839 1.859-2.38 3.31-2.55.851.115 1.024 1.465 1.828.39 1.294-1.13 2.687-2.146 4.047-3.2 1.391-1.144 2.855-2.19 4.329-3.221 1.026-.608 1.92-1.622 3.121-1.827 1.459.645.78 2.37-.425 2.922-.515.046-2.264.942-1.204 1.584 1.584.642-.003 2.283-.627 2.576-.791.632-1.16 1.315-2.197 1.852-1.419.973-1.833 2.732-3.307 3.679-.607.71-2.565 1.738-.796 2.192 1.656.612 3.13 1.59 4.744 2.292 1.118.68 2.285 1.28 3.448 1.858 1.422.682 2.898 1.238 4.274 2.016 1.66.643 3.18 1.609 4.884 2.135a121.862 121.862 0 0 1 10.21 4.897c1.577.652 2.959 1.652 4.56 2.271 1.775 1.148 3.653 2.118 5.583 2.976 1.437.84 2.868 1.684 4.404 2.337 2.783 1.336 5.337 3.09 8.073 4.504 1.621 1.125 3.46 1.887 4.999 3.137 1.421.898 2.638 2.07 4.125 2.863a42.407 42.407 0 0 1 4.59 3.129c1.605 1.185 3.185 2.399 4.88 3.455 2.335 1.833 4.444 4.025 7.13 5.36 1.472.731 2.771 1.725 4.13 2.629 1.564 1.354 3.02 2.826 4.648 4.105 1.57 1.362 3.09 2.766 4.677 4.105 1.755 1.626 3.343 3.442 4.867 5.288.587 1.18 1.362 2.294 1.72 3.552.664 1.184.993 2.444 1.612 3.63.508 1.403 1.21 2.997.197 4.373-.82 1.569-2.03 2.86-3.373 3.992-2.21 1.994-4.606 3.774-7.048 5.472-1.761 1.41-3.654 2.643-5.442 4.018-3.282 2.23-6.769 4.134-10.222 6.07-3.026 1.546-5.943 3.312-9.066 4.666-4.798 2.175-9.962 3.321-15.043 4.617a294.14 294.14 0 0 1-8.13 1.748c-1.392.236-2.697.733-4.114.888-1.642.512-3.392.64-5.043 1.13-1.768.049-3.488.515-5.253.495-2.331-.09-4.627.501-6.965.391-3.647.29-7.308.535-10.921 1.13-.706.044-1.417.058-2.122-.018z" fill="#a40"/><path d="M1072.142 1677.265c2.05-.417 4.163-.413 6.24-.634 2.762-.228 5.533-.312 8.285-.63 2.18-.053 4.36-.152 6.513-.517 3.048-.522 6.072-1.19 9.093-1.853 3.35-.634 6.658-1.46 10.006-2.111 1.277-.46 2.621-.548 3.892-1.059 1.808-.352 3.544-.966 5.29-1.53 1.596-.402 3.096-1.108 4.631-1.698 1.679-.866 3.449-1.546 5.074-2.52a979.593 979.593 0 0 0 8.57-4.57c1.23-.833 2.608-1.464 3.778-2.365 1.454-.76 2.698-1.866 4.057-2.78 2.748-1.99 5.616-3.843 8.207-6.035 1.16-1.015 2.304-2.053 3.064-3.416 1.012-1.315.559-2.926-.088-4.27-1.223-2.85-2.095-5.994-4.415-8.195a34.412 34.412 0 0 0-3.323-3.632c-2.456-2.068-4.807-4.256-7.246-6.343-1.217-1.28-2.69-2.3-4.197-3.198-1.519-1.243-3.556-1.692-4.887-3.192-1.555-1.145-3.01-2.42-4.52-3.624-1.532-.835-2.768-2.086-4.256-2.994-1.443-1.245-3.075-2.226-4.686-3.233-1.441-.948-2.702-2.146-4.22-2.978-1.94-1.313-3.914-2.583-5.998-3.656-2.281-1.414-4.576-2.819-7.001-3.985-2.073-1.01-4.08-2.148-6.123-3.209-1.83-.864-3.585-1.875-5.4-2.752-1.688-1.003-3.542-1.69-5.247-2.668-1.901-.953-3.754-1.99-5.745-2.753-2.845-1.264-5.737-2.45-8.524-3.837-1.748-.608-3.293-1.656-4.98-2.407-2.563-1.208-4.904-3.308-7.886-3.283-.69 1-2.328 1.722-1.74 3.19-.622.207.489.78.764-.079.772-.917 1.352-3.233 2.87-1.92.437 1.66-1.575 2.618-2.364 3.83-2.042 1.86-4.274 3.576-5.773 5.939-1.263 1.816-2.644 3.583-3.875 5.39 1.3-.187 2.544 1.297 1.325 2.379-.742.433-.67 1.454.128.579a25.2 25.2 0 0 1 4.76-2.95c1.51-.958 3.181 1.172 1.238 1.87-1.415.495-1.366 2.244-2.455 2.968-1.746 1.548-3.338 3.244-5.026 4.85-1.036 1.299-2.42 2.256-3.593 3.423-1.832 1.745-3.736 3.442-5.274 5.46-1.252 1.696-1.906 3.732-2.892 5.582a112.152 112.152 0 0 0-1.941 3.975c-.787 1.478-1.458 3.005-2.293 4.46-.634 1.34-1.26 2.688-1.991 3.98-.733 1.191-1.207 2.701-2.002 3.961-.806 1.62-1.487 3.297-2.396 4.865-.823 1.738-1.031 3.68-1.724 5.465-.346 1.562-.565 3.154-1.152 4.653-.256 1.237-.575 2.48-.844 3.745-.396 1.183-.55 2.38-.914 3.577-.513 2.453-1.292 4.84-2.034 7.23-.65 1.242-.712 3.066-2.111 3.736-1.68-.085-1.187 2.388-1.755 3.491-.48 1.02-.232 3.27-1.98 2.847-.63-1.091.232-2.679.043-3.981.071-1.513.196-3.003.321-4.511-.028-1.909-1.075 1.08-1.659 1.596-1.25 1.739-2.317 3.7-4.162 4.892-.497.803-3.131 1.163-1.334 1.986 1.905 1.477 4.36 1.734 6.641 2.21 3.845.524 7.722.727 11.564 1.269 4.627.246 9.25.586 13.855 1.117 1.4.058 2.803.085 4.204.098 2.944-.033 5.904.302 8.857.138 3.622.082 7.244.194 10.853.5 2.404.018 4.802.225 7.2.286.24-.022.48-.074.703-.169z" fill="#ff7f2a"/><path d="M1051.935 1670.709c-2.048-.029-2.766-2.559-2.28-4.226.492-2.627 1.904-5.15 4.021-6.804 1.168-.847 2.961-1.244 3.987.055 1.52 1.855 1.536 4.473.976 6.696-.31 1.525-1.154 3.28-2.756 3.734-.634-1.236 1.25-2.64 1.205-4.089.234-1.668.273-3.871-1.278-4.927-1.53-.538-2.667 1.088-3.346 2.223-.69 1.261-1.29 2.715-1.141 4.173.04 1.433 2.69.528 1.883 2.224-.269.466-.738.835-1.27.94zM1069.85 1668.24c-1.626-.324-3.27-1.219-4.052-2.724-.525-1.489-.18-3.15.651-4.462.3-1.445 1.36-2.757 1.4-4.225-1.081-.985-1.88-2.24-2.485-3.578a6.308 6.308 0 0 1-.76-4.46c.344-1.654 1.53-3.098 2.769-4.248 1.183-1.098 2.705-1.845 4.243-2.332 1.573-.498 3.43-1.826 4.919-.548 1.729 1.26 1.814 3.631 1.802 5.58-.111 1.562-.219 3.172-.77 4.639.152 1.712 2.554.471 3.584 1.499 1.435.597 2.398 1.873 2.868 3.323.556 1.798.487 3.855-.186 5.626-.584 1.146-1.615 2.064-2.694 2.736-2.445 1.622-5.373 2.212-8.15 2.993-1.037.166-2.091.231-3.14.181z" fill="#a40"/><path d="M1073.21 1666.018c2.94-.814 6.143-1.394 8.505-3.46 1.226-1.356 1.063-3.488.38-5.064-.577-1.38-1.933-2.186-3.353-2.455-1.204-.436-2.408-.356-2.902.975-.986 1.297-2.594 1.893-4.187 1.813-1.216-.222-2.858-.295-2.83 1.398 1.306.892-1.97 2.943-1.576 4.475.57 1.921 2.794 2.597 4.608 2.446.454-.013.908-.054 1.356-.128z" fill="#ff7f2a"/><path d="M1073.182 1656.034c.836.197 2.53-1.666.783-1.195-.653.305-2.792.555-2.366 1.22.526.059 1.061.075 1.583-.025zM1069.662 1655.087c1.538-1.21 3.356-2.27 5.365-2.25 1.62-.125 1.352-2.235 1.681-3.416.416-2.027.257-4.416-1.194-6.007-1.284-1.093-2.828.136-4.098.689-1.727.752-3.642 1.754-4.483 3.44-.715 1.43-.55 3.29-.046 4.798.486 1.203 1.296 2.33 2.384 3.04.177-.03.25-.208.391-.294z" fill="#ff7f2a"/><path d="M1037.492 1664.781c-1.545-.39-2.57-1.748-3.655-2.816-1.629-2.001-2.83-4.71-1.954-7.295.275-.806 1.032-2.723 1.938-2.162.026 1.333-.995 2.524-.622 3.901.4 2.39 1.929 4.487 3.797 5.967 1.647 1.348 2.918-1.023 2.853-2.485.204-1.903-.384-3.774-1.33-5.409-.219-.61-2.413-2.594-1.676-.899.576 1.211 1.398 2.372 1.2 3.775.303.84-.49 2.445-1.009.941-.44-1.55-1.396-2.846-1.922-4.357-.414-1.149-.901-3.792 1.055-3.572 2.445.584 4.185 2.84 4.69 5.234.75 2.228.815 4.765-.318 6.881-.5 1.206-1.571 2.577-3.047 2.296z" fill="#a40"/><path d="M1084.038 1662.699c.033-.327.237.314 0 0z"/><path d="M1096.381 1662.703c-.279-1.495-.587-2.971-1.193-4.353-.182-2.008-.063-4.227 1.095-5.95 1.091-1.419 2.514-2.646 4.248-3.174 1.278-.683 2.825-.57 4.159-.266 1.897.984 3.136 2.974 3.3 5.092.309 1.79-.347 3.527-1.282 5.023-.92.784-1.612 2.127-3.03 1.976-1.603-.137-3.014.597-4.448 1.184-.908.33-1.876.575-2.849.468z" fill="#a40"/><path d="M1099.678 1660.653c1.493-.603 3.011-1.365 4.628-1.46 1.333-.463 1.462-2.16 1.55-3.358-.093-1.29-.59-2.688-1.396-3.752-.519-.686-1.222-1.538-2.082-1.524-2.059.034-4.556 1.53-4.863 3.81-.318 1.37-.162 2.843.295 4.153.297.85.684 1.906 1.525 2.226.048.018.15-.038.15-.038z" fill="#ff7f2a"/><path d="M1121.252 1658.079c-1.643-.498-3.276-1.04-4.714-2.075-1.952-1.154-3.687-3.327-3.357-5.703.516-2.16 2.186-3.757 3.795-5.17 1.921-1.52 4.36-2.164 6.749-2.494 1.88-.298 4.023-.677 5.708.21 1.611.847 2.46 2.748 3.256 4.385.64 1.315 1.183 2.77 1.16 4.232-.015 1.064-.485 2.089-.936 3.053-.334.716-.727 1.435-1.292 1.986-.95.93-2.15 1.627-3.394 2.096-1.53.242-3.124.326-4.625-.109-.867-.01-1.59-.18-2.35-.411z" fill="#803300"/><path d="M1123.51 1656.954c.662.703 2.426.458 3.385.545 1.428-.523 2.171-2.27 2.808-3.448l1.914-2.363c.24-1.57-.448-3.267-1.39-4.199l-2.166-3.035c-.912-1.335-2.981-.746-4.321-.557-2.062.33-4.172.949-5.642 2.526-1.343 1.325-2.612 3.076-2.767 4.964-.036.44.21.874.447 1.246.256.401.644.705 1.015 1.003.97.78 1.965 1.623 3.135 2.035.458.178.877.51 1.385.546" fill="#ff7f2a"/><path d="M1052.95 1657.167c-1.937-.434-4.1-1.081-5.112-2.956-.54-1.172-.874-2.654-.21-3.85 1.108-1.525 1.136 1.593 1.502 2.33.74 1.152 2.11 1.72 3.335 2.188 1.6.747 2.887-.496 2.362-2.094.272-.908-1.133-2.839-1.3-1.057.387 1.123-.854 3.34-1.803 1.668-.423-1.597.29-3.623 1.697-4.525 1.685-.79 2.96 1.236 3.086 2.692.245 1.892.07 4.327-1.734 5.41a2.392 2.392 0 0 1-1.822.194z" fill="#803300"/><path d="M1042.438 1643.927c-.635-1.2-1.638-2.259-1.917-3.585-.249-1.182-.086-2.462.277-3.614.275-.874.597-1.904 1.4-2.367.832-1.528 1.884-3.18 3.64-3.727 1.945-.173 3.286 1.66 4.091 3.19.789 1.883.889 4.021.615 6.018-.547 2.221-2.633 4.033-4.98 3.894-1.121.265-2.426-1.31-2.664.327-.142.162-.386.006-.462-.136z" fill="#a40"/><path d="M1047.189 1641.721c1.723-.564 2.073-2.642 1.76-4.205-.262-1.868-.929-4.031-2.745-4.926-1.578-.357-2.35 1.67-2.887 2.829-.39 1.469-1.286 3.217-.393 4.647 1.008 1.222 2.65 2.191 4.265 1.655z" fill="#f60"/><path d="M1101.176 1642.355c-1.653-.284-3.31-.623-4.855-1.268-2.046-1.04-3.287-3.363-3.123-5.636-.783-1.601 2.035-2.264 1.366-.224.24 2.106 1.797 4.046 3.878 4.584 2.223.687 4.632.823 6.902.297 2.14-.885 3.362-3.114 3.927-5.256.454-2.284.157-4.834-1.209-6.764-.652-.035-.985-1.79-2.186-1.825-1.46-.43-2.98-.541-4.486-.377-1.744.034-3.24 1.02-4.682 1.884-2.895 1.884-4.951 5.202-4.944 8.703 1.344.864.644 2.99-.944 2.553-1.328-1.25-.969-3.281-.548-4.866.904-3.858 3.93-6.913 7.358-8.705 1.094-.602 2.333-.905 3.518-1.252 2.049-.26 4.215-.264 6.184.39 2.173.91 3.348 3.164 3.784 5.373.7 3.611-.616 7.436-3.075 10.116-1.515 1.366-3.48 2.225-5.538 2.203-.442.028-.885.046-1.327.07zM1129.333 1640.313c.132-1.53-1.718-1.604-2.667-2.235a37.84 37.84 0 0 1-6.536-4.857c-.485-.448-.89-.976-1.305-1.489-.847-1.046-1.74-2.075-2.416-3.237-.38-1.035-1.05-1.898-1.415-2.785.658-.932.732-2.162 1.252-3.174.502-.977.93-2.081 1.789-2.768.781-.625 1.841-.819 2.818-1.037 2.657-.592 5.51-1.417 8.136-.7 1.423.388 2.7 1.4 3.605 2.565 1.353 1.742 2.313 3.94 2.388 6.172.135 1.39.351 2.771.465 4.164.756 1.442-.246 3.144-.44 4.613-.927 1.106-2.059 2.033-2.79 3.31-.633.97-1.774 1.648-2.884 1.458z" fill="#a40"/><path d="M1125.76 1634.663c-.13-.277-.174.306 0 0z"/><path d="M1124.78 1619.084c-1.393.056-2.41 1.406-3.639 2.064-.823.44-1.965.497-2.501 1.261-.712 1.016-.753 2.494-.44 3.693.276 1.06 1.277 1.78 1.932 2.657.804 1.077 2.453 3.198 2.453 3.198 1.613 1.525 5.277 4.718 7.03 4.86.639-.056 1.233.771 1.804.336.703-.944 1.656-1.754 1.515-3.125-.123-1.394-.13-2.799-.284-4.19.072-1.387.028-2.807-.383-4.126-.21-.673-.71-1.22-1.036-1.844-.394-.754-.509-1.7-1.115-2.297-1.399-1.376-3.375-2.565-5.336-2.487z" fill="#d45500"/><path d="M1055.303 1637.482c-1.983-.622-2.917-2.68-3.635-4.453-.797-2.797-.593-6.24 1.555-8.4 1.035-.995 2.516-.623 3.755-.382 1.378-.052 2.567.755 3.447 1.74 1.706 2.198 1.466 5.334.466 7.782-.892 1.798-2.38 3.83-4.6 3.825a4.195 4.195 0 0 1-.988-.112z" fill="#a40"/><path d="M1057.209 1635.98c2.888-1.059 3.783-4.881 2.545-7.489-.563-1.244-1.84-2.447-3.286-2.254-.928.872-.965 2.4-2.13 3.16-.77 1.212-1.32.055-.622-.765.108-.998.864-2.367.784-3.056-1.315.479-1.483 2.116-1.542 3.33-.159 2.518.478 5.471 2.782 6.873.444.24.976.336 1.469.201z" fill="#ff7f2a"/><path d="M1083.006 1632.083c-2.16-.535-4.355-.833-6.554-1.16-1.639-.321-3.172-1.258-4.292-2.486-1.552-1.896-1.06-4.619.19-6.529 1.6-2.359 4.121-4.123 6.951-4.627 2.547-.76 5.46-.243 7.594 1.33 1.974 1.608 2.508 4.28 2.74 6.681.031 2.102-.108 4.706-2.003 6.023-1.425.82-3.01.999-4.626.768z" fill="#803300"/><path d="M1086.41 1630.075c1.772-1.07 1.527-3.456 1.253-5.215-.315-2.19-1.389-4.648-3.668-5.366-1.94-.856-4.141-.722-6.102-.016-1.599.484-3.097 1.433-3.922 2.923-1.006 1.47-1.512 3.828.05 5.116 1.019 1.106 2.491 1.324 3.857 1.715 1.318.824 2.796-.633 3.993.376 1.032.96 2.85.516 4.212.53.112-.01.22-.035.327-.063z" fill="#d45500"/><path d="M1046.061 1622.506c-1.482-.419-2.455-1.89-2.546-3.383-.593-1.585-1.056-3.376-.046-4.917.722-1.518 1.792-2.919 3.36-3.621 1.33-.791 2.913-1.393 4.463-.905 1.342.043 1.923 1.438 2.098 2.573.561 2.393-.893 4.545-2.063 6.494-1.202 1.83-2.928 3.657-5.266 3.759z" fill="#a40"/><path d="M1047.18 1620.507c1.78-.642 2.705-2.45 3.642-3.962.666-1.35 1.453-3.173.219-4.455-.915-.886-3.522-.893-3.558.712.165.984 2-.252 1.508 1.222-.441 1.489-1.007 2.98-.885 4.55-.17 1.29-1.704 1.498-2.324.623-.76.648.842 1.664 1.398 1.31z" fill="#ff7f2a"/><path d="M1046.26 1617.546c.318-.942.263-3.398-.814-3.304-.745 1.064-.817 3.228.783 3.395z" fill="#ff7f2a"/><path d="M1060.48 1618.202c-1.12-.364-2.175-1.132-2.828-2.11-.682-1.022-1.394-2.474-.905-3.574.525-1.28.22-2.964 1.202-3.91.704-.678 1.858-.834 2.831-.756 2.261.18 4.977.723 6.212 2.778 1.112 1.524 1.561 3.83.197 5.355-1.156 1.507-3.174 1.858-4.93 2.196-.59.072-1.216.205-1.78.021z" fill="#a40"/><path d="M1063.034 1616.318c1.315-.164 3.53-.947 3.162-2.592-.5-1.452-1.577-2.715-2.837-3.57-1.289-.928-3.771-.927-3.866 1.108-.086 1.686.404 3.591 1.713 4.733.51.387 1.218.514 1.828.321z" fill="#d45500"/><path d="M1075.527 1610.767c-1.294-.587-2.023-1.93-2.741-3.086-.193-.814-1.122-.914-1.551-.222-.644-1.526.112-3.14.421-4.63-.339-.856-1.327-2.504.38-2.223 1.195-.837 2.157-2.191 3.801-2.173 2.507-.315 4.66 2.26 4.33 4.671-.006 2.659-.543 5.808-3.006 7.305-.485.291-1.067.481-1.634.358z" fill="#a40"/><path d="M1077.316 1608.406c.943-1.12-.077-.861-.755-.278-1.504.651.472 1.44.755.278zM1075.765 1606.83c1.67-.839 2.618-2.866 1.97-4.662-.321-1.726-2.248-2.006-3.14-.534-1.483 1.25-.662 3.174-.186 4.69.196.57.859.956 1.356.506z" fill="#ff7f2a"/><path d="M1002.671 1663.29c-.59-.23-.157.716 0 0zM1026.428 1640.279c-.086-.362.118.078-.035.107zM1002.756 1667.851c-.014-.394.517.435 0 0zM1002.416 1652.16c-.413-.543.176-.317 0 0z"/><path d="M1148.929 1442.126c-14.973 25.35-41.395 49.032-50.422 76.54-7.067 16.26-7.961 33.926-11.878 50.744-.154 8.857-14.457.439-6.646-2.644 3.8-11.22 3.306-23.476 7.346-34.535 4.518-23.803 18.365-45.506 35.52-65.338 7.694-9.877 13.708-20.43 22.029-30.048 1.323-1.53 5.034 3.616 4.05 5.28zM1095.53 1404.082c-9.293 5.01-15.63 10.651-20.013 17.719-9.286 10.313-16.816 21.177-20.405 32.602-11.039 28.518-4.638 57.424-.938 85.695-.67 7.248.864 13.254 2.574 17.706.77 6.588-16.313 7.434-11.516-.621.666-12.792-1.228-25.457-3.425-38.05-2.902-5.15-.367-14.884-2.234-21.963-1.536-25.478 4.45-52.194 26.075-75.459 5.729-8.359 14.686-15.907 26.34-21.864l3.542 4.235z" fill="#d4aa00" fill-opacity=".784"/></g></svg>