<svg xmlns="http://www.w3.org/2000/svg" xmlns:xlink="http://www.w3.org/1999/xlink" width="2000" height="3000"><defs><linearGradient id="b"><stop offset="0" stop-color="#009633"/><stop offset="1" stop-color="#063"/></linearGradient><linearGradient id="c"><stop offset="0" stop-color="#fff"/><stop offset="1" stop-color="#54deff"/></linearGradient><linearGradient id="a"><stop offset="0" stop-color="#fff"/><stop offset=".5" stop-color="#d4c37f" stop-opacity=".498"/><stop offset="1" stop-color="#a80" stop-opacity="0"/></linearGradient><linearGradient xlink:href="#a" id="e" x1="-45.755" y1="296.36" x2="1051.261" y2="296.36" gradientUnits="userSpaceOnUse" gradientTransform="matrix(1.70362 0 0 4.53146 628.471 -932.73)"/><radialGradient xlink:href="#b" id="f" cx="502.638" cy="609.739" fx="502.638" fy="609.739" r="564.019" gradientTransform="matrix(1.83252 0 0 1.5813 77.856 -1067.895)" gradientUnits="userSpaceOnUse"/><radialGradient xlink:href="#c" id="d" cx="-298.481" cy="496.389" fx="-298.481" fy="496.389" r="450.22" gradientTransform="matrix(2.0763 0 0 3.61191 2104.708 -1382.7)" gradientUnits="userSpaceOnUse"/></defs><path transform="rotate(-90 1116 1116)" opacity=".99" fill="url(#d)" stroke="url(#e)" stroke-width="2.778" d="M551.374-1214.329h1867.192v3249.085H551.374z"/><path d="M2025.114 764.77l-2048.55 9.622c.09 11.427-17.423-1290.804 5-1374.738 34.995-38.126 70.89-57.453 106.315-84.76 26.886-14.746 53.651-36.253 80.765-40.812 40.385-21.524 81.026-20.36 121.715-31.066 55.343-1.155 110.553 20.38 165.818 14.206l37.255-4.162c54.24-6.06 108.504-13.78 162.647-28.2 71.538-23.105 142.506-66.725 213.92-96.27 83.135-35.845 166.037-85.92 249.683-93.115 109.323-24.871 218.851-15.567 328.278-16.108 80.1-2.787 160.239 13.645 239.711 57.933 58.907 28.193 117.24 77.836 176.341 100.043l156.521 69.674c13.357 432.72 4.006 1024.094 4.581 1517.752z" fill="url(#f)" stroke="#244c26" stroke-width="16.157" stroke-dashoffset="2.08" transform="translate(0 2232)"/><path d="M988.036 1648.05l5.373-.176c4.828.25 9.46.604 14.268.067 3.155-.959 4.939 2.725 4.79 4.146-.429 4.063-8.885 4.518-8.731 8.6.084 2.248 2.904 4.278 5.153 4.362 2.4.09 3.893-2.811 5.829-4.232 3.775-2.771 5.048-3.717 8.852-8.94 2.09-1.496.34-6.138 4.999-5.08 6.625-1.305 6.049 7.196 6.803 11.576.795 4.519 10.116 6.391 10.657.69 3.431-3.52-2.043-8.711-.746-13.025 3.31-.639 7.685-2.178 11.698-2.777 5.598-3.033 8.876 2.815 12.468 6.034 4.658 2.638 6.903 7.385 9.35 11.94.887 2.536 4.555 4.164 6.119 3.765l.302-1.12c4.412-3.314.147-8.672-2.021-12.638-.703-4.529-5.04-7.062-7.94-10.21-2.813-1.86-3.46-4.082.462-5.227 2.46-1.497 4.941-2.96 7.412-4.44 3.13 2.245 6.982 3.07 10.55 3.579 5.697.354 11.252-1.274 16.585-3.025 4.899-.732 10.515-1.935 13.595-6.167-2.689-4.16-8.373-2.254-12.604-1.8-4.341-.485-8.655 2.125-13.21 2.253-2.34-.357-9.448.106-4.537-3.069 3.985-2.428 6.387-6.75 8.721-10.383 2.262-4.74 4.414-9.512 4.336-14.833.131-4.665.307-10.047 6.336-9.57 3.389-2.047 8.393-1.543 12.687-3.227 4.625-1.779 9.486-2.686 14.134-4.466 7.532-1.31 14.16-5.597 20.885-9.034 6.536-3.713 13.952-5.301 20.431-9.134 4.89-2.52 9.753-5.288 15.162-6.42 4.264-2.241 9.108-3.372 13.31-5.896 3.854-2.27 6.792-4.128 10.74-6.42 6.637-2.3 12.592-6.393 18.613-10.029 8.829-6.08 18.492-10.904 27.297-17.053 5.188-3.587 9.77-7.986 15.252-11.18 5.471-3.61 9.27-9.15 14.665-12.845 3.813-3.988 7.44-8.176 11.163-12.158 3.481-3.535 4.83-8.44 8.578-11.754 2.907-3.545 2.784-7.584 5.26-11.006 1.713-3.845 3.424-7.69 5.136-11.536l4.387-8.296 2.092-13.552 1.686-4.259 2.905-12.146 1.276-10.488-.55-12.803c.461-3.34.608-5.969-.013-8.917-.875-4.319-1.717-8.656-2.18-13.038-.206-1.947-.178-3.911-.263-5.867-.034-.776-.047-1.553-.1-2.327-.173-2.567-.297-5.146-.711-7.684-1.036-6.346-2.848-12.558-4.419-18.776-1.21-7.038-3.681-14.118-5.778-21.066-2.393-7.844-5.467-15.46-8.988-22.848-1.616-3.098-2.807-6.774-4.983-10.578-8.97-17.054-20.252-32.743-29.622-49.572-2.715-5.005-7.124-8.67-10.435-13.26-3.142-4.247 6.337-8.161 1.704-13.014-2.257-3.703-6.292-5.57-9.125-8.908-3.627-4.255-9.72-3.841-14.685-4.588-5.152-1.422-9.97.218-15.181-1.05-3.716-3.199-.553-10.148-1.068-14.9 1.48-5.107-1.688-9.499-3.97-13.796-2.05-2.723-6.97-6.334-11.135-8.266-3.89-1.297-7.81-2.667-11.899-3.162-1.1-12.291-2.661-24.531-4.841-36.684-1.152-7.12-1.25-14.381-2.526-21.473-2.331-4.583-9.134-2.627-11.526.673-.908 3.431-1.513 9.143-3.682 12.941-.986 4.915-3.395 9.789-4.873 14.731-4.06 8.36-5.879 17.688-10.286 25.924-1.532 4.567-2.898 9.36-3.088 14.058.469 5.11.312 10.473-.015 15.431-1.944 3.62-10.354 3.304-14.24 6.52-4.147 1.065-9.05 7.339-12.851 3.844-4.207-6.145-10.154-10.742-15.722-15.555-3.077-2.222-6.012-5.895-9.06-8.654-3.382-3.372-7.322-6.333-9.933-10.093-3.657-3.51-7.274-7.174-10.716-10.96-3.457-5.148-9.087-2.095-12.588 1.305-.362 5.164 2.906 9.75 4.012 14.773 1.902 7.325 5.61 13.944 8.21 21 2.168 6.405 4.728 12.842 5.77 19.612 1.443 6.365 1.875 13.064 1.045 19.533-1.605 4.791-3.145 9.815-7.137 13.586-3.32 4.395-6.321 8.843-9.06 13.613-2.714 4.61-5.875 8.727-8.778 13.187-2.485 4.201-5.295 8.552-7.121 13.259-2.623 4.702-5.442 9.159-7.927 13.959-2.262 5.434-4.996 10.716-7.249 16.107-2.444 4.866-4.684 9.918-7.073 14.827-.735 4.804-3.761 8.905-4.797 13.71-.84 4.786-3.157 9.076-3.758 13.7-1.413 5.616-1.056 11.456-.852 17.263.394 8.989 2.823 17.727 4.83 26.434.848 4.078 3.432 9.032 3.195 12.447 1.442 2.921 2.691 8.36 4.101 12.236 2.422 8.733 5.099 17.39 7.752 26.054 2.143 4.627 2.338 9.823 4.662 14.47 3.342 8 7.868 15.624 14.422 21.407 4.258 3.132 6.25 8.495 8.723 13.05 2.646 4.934 2.501 8.007 4.892 12.522l1.853 7.215-.007 7.809c1.312 4.57 1.404 9.524.981 13.88-.308 5.373.182 10.827.304 15.998-.019 5.1 2.686 10.139.029 15.076-.159 6.83-7.291 4.804-11.66 5.757-3.624.949-5.438.054-9.491 1.57-4.94 1.305-9.689 1.829-14.694 3.085-5.703 1.192-11.214 3.316-16.969 4.048-5.418 1.62-10.615 3.683-16.077 5.18-5.137 1.418-10.493 1.735-15.658 2.872-5.828 2.198-11.694 4.321-17.734 5.826-4.051.499-8.634 2.7-12.34 5.184-1.765 1.182-3.31 2.747-4.516 4.495-2.071 3.005 2.811 10.605-4.46 9.997-4.694 1.579-33.122 6.362-37.692 8.368-4.337 1.022-8.38 2.133-12.307 3.703-6.036 3.14-12.272 5.971-18.027 9.606-4.118 4.22-.373 10.186 3.924 12.495 4.47 2.884 9.69 2.72 14.71 3.346 4.683-.076 9.492-.317 14.173.273 3.21.112 8.87-.83 13.21-1.782 3.486-.765 6.819-2.106 10.232-3.145 3.102-.944 6.176-1.985 9.312-2.808 4.252-1.116 11.416-7.619 12.87-2.883.9 2.932-1.409 13.177 1.43 14.99z"/><path d="M1063.825 1629.98c-4.796-1.551-7.521 1.623-10.14 4.96-5.174 1.676-10.147 2.25-14.45-1.428-3.414-.185-7.755.092-9.459 4.07-5.61 3.189-10.698-3.117-15.995-.738-5.201 3.055-11.565 2.732-17.277 1.819-2.017.59-9.07-.31-5.39-2.947l-2.14-11.813c-.48-4.906-2.54-10.183-2.186-14.798 4.503.899 3.931-9.153-1.73-8.01-5.868-.822-5.978-8.694.16-9.41 4.326-2.6 9.3-3.357 13.797-5.543 4.194-2.28 8.659 3.868 13.124-.251 2.917-5.419 9.505-5.233 14.73-6.62 5.14-1.361 9.914-3.918 15.01-5.296a483.92 483.92 0 0 1 13.498-3.656c4.827-.114 8.832 3.68 13.541 4.4 4.97 2.478 8.77 7.034 13.515 9.498 3.223 3.951 10.197 2.903 12.866 6.917-.21 5.63-.79 11-3.344 16.214-2.435 3.9-4.608 11.015-9.95 10.226-4.677-1.295-11.449 2.138-7.535 7.406-2.23 2.577-7.15 5.42-10.645 5zM1324.957 1363.811c.413 5.158 1.058 10.06 1.459 15.148-.105 4.93.688 9.347.165 14.153-.197 4.8-.204 9.712-.987 14.508-1.019 7.17-2.394 14.292-4.624 21.197l-3.848 9.672-5.623 8.78-5.097 13.346c-3.262 6.835-8.78 12.191-13.633 17.902-3.502 3.299-6.689 7.252-10.437 10.36-4.307 4.9-9.9 8.647-14.885 12.934-5.835 4.422-11.842 8.588-18.097 12.41-7.078 5.505-15.178 9.52-22.735 14.327-3.874 1.986-7.345 5.076-11.46 6.328-4.062 2.567-8.285 5.49-12.92 6.762-3.66 2.955-8.642 4.356-12.948 6.557-6.081 2.923-12.29 5.599-18.327 8.544-6.048 2.34-11.75 5.655-18.026 7.416-6.333 2.54-11.972 6.847-18.849 7.891-4.434 2.902-9.76 3.43-14.667 4.875-5.04 2.21-10.712 2.506-16.088 3.002-3.33-1.512-10.49 2.658-7.877-3.835l3.244-11.058 2.623-7.313 2.063-8.585c.76-4.454-.145-8.812-.376-13.112-.06-5.126-.131-10.174-.046-15.25-.507-3.842-.876-10.018-1.609-14.749.398-5.347-1.571-10.629-2.938-15.754-3.791-13.008-10.734-25.062-20.024-34.913-3.943-4.45-6.452-9.778-8.347-15.377-2.989-8.58-5.242-17.443-8.614-25.873-2.978-11.085-6.664-21.977-9.768-33.025-3.42-8.706-4.73-18-5.941-27.213-.53-8.673-.528-17.507 2.188-25.846.982-5.39 3.185-10.232 4.825-15.323 2.663-5.2 4.121-10.923 6.983-16.005 1.898-3.557 3.52-8.41 5.744-11.068.583-4.77 4.321-8.638 5.957-13.186 2.65-4.859 5.381-9.603 7.596-14.64 2.857-3.983 4.791-7.739 7.31-11.704 3.386-4.305 5.389-9.53 9.105-13.558 2.674-3.613 4.404-7.285 7.892-10.064 3.968-1.292 8.177-2.255 8.193-7.531 1.552-5.822 6.836-9.545 11.298-13.172 3.677-1.882 7.79-7.976 11.889-4.866 5.666 1.353 10.1-3.47 13.754-7.057 1.356-3.235-6.892-1.117-2.224-3.71 4.827-3.126 10.024-5.61 15.67-6.787 5.433-1.461 11.012-1.484 16.544-1.713 4.086.46 7.955-.787 10.792 1.373-.5 5.726 6.446 7.588 10.494 4.592 4.81-3.506 9.178 2.747 13.854 3.634 5.462 1.875 6.246 6.079 7.589 11.035 2.27 3.983 6.858 6.824 9.068 11.27 3.492 1.809 7.21 2.929 11.017 4.042 4.831 1.14 9.764 1.344 14.438.602 4.536-.141 6.515 5.406 9.52 8.206 4.01 5.31 7.651 10.91 11.038 16.668 5.969 9.36 12.076 18.65 17.665 28.24 4.565 8.727 9.556 17.331 12.78 26.655 2.533 4.463 3.909 9.414 5.149 14.295 2.05 3.857 2.088 7.164 3.53 11.89 2.24 10.05 5.662 19.822 7.187 30.037" fill="#f60"/><path d="M1231.524 1377.29c3.95-4.246 8.427-8.053 11.992-12.62 2.298-4.263 4.52-8.317 7.03-12.541 1.717-4.686 2.9-9.798 6.614-13.297.972-5.145-5.954-1.906-8.284-4.568-6.472-1.434-7.783 5.344-9.694 9.757-1.267 5.114-4.734 9.358-6.502 14.246-3.061 3.821-6.568 7.825-10.668 10.725-4.815 1.728-10.13 7.622-15.27 5.489-2.084-5.543-5.155-10.707-6.557-16.521-2.747-7.197-5.086-14.529-7.283-21.913-1.564-4.514-1.66-9.405-2.374-14.126-2.398-5.402.129-9.276 3.03-13.675-.029-4.623-6.888-5.374-10.492-4.708-4.973-.087-2.515 6.076-6.423 7.104-1.439 4.965.79 10.005 1.134 14.976.573 5.107 2.21 10.15 3.903 15.11 2.043 7.948 5.122 15.557 7.827 23.3 1.752 4.552 5.164 10.484 4.91 14.668-4.727.688-9.427 1.435-14.248 1.197-4.57.484-9.11-.421-13.695.374-5.321-.456-10.919-.356-15.967-1.161-5.74-1.002-11.516-1.525-17.237-2.782-4.873-.666-9.307-4.293-14.209-1.697-5.165 3.662 2.148 9.28 6.278 9.442 4.08.286 7.313 1.358 11.328 2.534 5.365.237 10.777 1.24 16.023 2.59 4.819-.065 9.758.883 14.615.666 4.584.693 9.461-.364 14.202.136 2.64-.544 11.396-.799 10.618.022l3.33-1.464c4.414.532 8.942-.778 13.368-1.581 4.845-.445 9.227-1.934 13.41-4.536 3.143-1.621 6.397-3.094 9.291-5.145zM1200.313 1266.945c4.62-5.258-2.209-8.857-7.098-9.28-3.923-.832-3.836 4.356-7.8 4.427-5.316 3.46-.244 8.863 4.695 7.117 3.144-.472 8.015.167 10.203-2.264zM1151.16 1271.922c5.726-2.84 1.068-7.599-3.65-7.323-4.565-1.736-11.638 2.948-6.158 7.249 3.057.902 7.195 3.525 9.807.074zM1081.856 1571.17c-1.684-1.067-6.493-3.096-6.045-3.9 3.78-.644 12.266-4.188 8.534 2.876-.42 2.06-.817 2.709-2.489 1.025z"/><path d="M960.53 1621.379c-3.527 2.147-7.564 3.362-11.439 4.722-5.395 2.18-11.034 3.227-16.717 3.89-4.447.518-9.041.928-13.43.048-3.56-.714-10.073-.606-10.031-4.235.098-8.567 19.177-8.033 23.899-9.453 6.46-3.193 13.8-3.452 20.617-5.41l13.917-1.185 6.04.014c1.082 2.29 4.789 6.536.082 6.923l-.848.268-.802.258-4.693 1.506z" fill="#f60"/><path d="M1236.26 1197.292c.158-4.7 8.761-5.075 13.41-4.373 3.727.563 9.324 2.757 9.235 6.526-.062 2.642-4.053 4.02-6.685 4.266-5.71.53-16.153-.689-15.96-6.42zM1218.782 1177.034c-3.881-2.006-8.5-2.993-11.688-6.28-4.28-3.668-1.662-9.496-1.233-14.002 1.124-6.025 8.29-1.133 10.98 1.637 4.8 2.635 4.676 9.46 4.554 14.315-.09 1.295-.4 5.753-2.613 4.33z" fill="#c83737"/><path d="M1188.448 1168.506c-3.586-.896-11.553 1.858-11.026-4.099-.882-4.984-.803-10.256-.116-15.305.753-4.974 2.761-10.367 4.466-14.458 1.94-4.1 2.928-8.193 5.009-11.99.83-2.813 3.751-10.646 4.051-3.701 1.305 9.974 2.8 19.956 3.215 30.014 1.303 5.436-4.574 8.734-3.946 14.184.103 1.714 2.238 6.83-1.653 5.355zM1111.8 1199.16c-.721-4.473-1.482-8.813-2.532-13.298-2.25-7.207-4.228-14.519-7.245-21.464-1.265-2.872-1.203-5.837 1.433-2.115 4.043 3.69 8.3 7.197 11.956 11.28 4.917 2.67 8.217 7.651 11.352 12.172 2.75 4.64-5.574 6.746-8.184 9.318-2.516.824-4.6 3.618-6.78 4.108z" fill="#a40"/><path d="M1035.148 1364.404c-2.554-.92-.783 2.61 0 0z"/><g><path d="M1430.037 1659.939c1.829 1.943 6.705 1.267 9.358 1.508 3.947-1.447 6.002-6.279 7.762-9.533l5.291-6.534c.666-4.343-1.238-9.031-3.84-11.608l-5.99-8.391c-2.521-3.691-8.242-2.063-11.947-1.54-5.701.911-11.534 2.623-15.598 6.983-3.711 3.664-7.22 8.504-7.65 13.724-.1 1.216.58 2.417 1.237 3.445.707 1.109 1.78 1.948 2.805 2.773 2.683 2.159 5.433 4.487 8.666 5.625 1.269.493 2.427 1.412 3.83 1.51" fill="#ff7f2a"/><path d="M1450.342 1542.647c-3.853.154-6.662 3.886-10.061 5.706-2.277 1.218-5.435 1.373-6.917 3.488-1.966 2.806-2.081 6.893-1.216 10.209.764 2.93 3.531 4.92 5.344 7.346 2.222 2.976 6.781 8.84 6.781 8.84 4.457 4.216 14.587 13.044 19.434 13.434 1.766-.152 3.41 2.134 4.988.932 1.943-2.612 4.577-4.85 4.189-8.64-.34-3.853-.359-7.738-.786-11.584.202-3.835.077-7.76-1.06-11.406-.58-1.862-1.96-3.372-2.863-5.1-1.09-2.084-1.406-4.699-3.083-6.349-3.866-3.805-9.33-7.092-14.75-6.876zM1346.362 1585.629c4.899-2.959 4.219-9.556 3.463-14.42-.871-6.055-3.84-12.847-10.14-14.833-5.364-2.368-11.45-1.997-16.87-.043-4.421 1.337-8.562 3.959-10.843 8.08-2.78 4.065-4.18 10.582.14 14.142 2.815 3.06 6.885 3.663 10.66 4.741 3.643 2.279 7.731-1.747 11.04 1.04 2.854 2.654 7.881 1.429 11.644 1.467.309-.027.607-.096.906-.175z" fill="#d45500"/></g></svg>