<svg xmlns="http://www.w3.org/2000/svg" xmlns:xlink="http://www.w3.org/1999/xlink" width="2000" height="3000"><defs><linearGradient id="b"><stop offset="0" stop-color="#009633"/><stop offset="1" stop-color="#063"/></linearGradient><linearGradient id="c"><stop offset="0" stop-color="#fff"/><stop offset="1" stop-color="#54deff"/></linearGradient><linearGradient id="a"><stop offset="0" stop-color="#fff"/><stop offset=".5" stop-color="#d4c37f" stop-opacity=".498"/><stop offset="1" stop-color="#a80" stop-opacity="0"/></linearGradient><linearGradient xlink:href="#a" id="e" x1="-45.755" y1="296.36" x2="1051.261" y2="296.36" gradientUnits="userSpaceOnUse" gradientTransform="matrix(2.02525 0 0 4.3586 182.437 -751.645)"/><radialGradient xlink:href="#b" id="f" cx="502.638" cy="609.739" fx="502.638" fy="609.739" r="564.019" gradientTransform="matrix(1.811 0 0 1.4867 95.859 -934.625)" gradientUnits="userSpaceOnUse"/><radialGradient xlink:href="#c" id="d" cx="-298.481" cy="496.389" fx="-298.481" fy="496.389" r="450.22" gradientTransform="matrix(2.4683 0 0 3.47413 1937.377 -1184.451)" gradientUnits="userSpaceOnUse"/></defs><path transform="rotate(-90 1116 1116)" opacity=".99" fill="url(#d)" stroke="url(#e)" stroke-width="2.971" d="M90.785-1022.503h2219.706v3125.148H90.785z"/><path d="M2020.25 788.406L-4.244 797.453C-4.156 808.196-21.462-416.133.697-495.046c34.584-35.846 70.058-54.016 105.066-79.69 26.57-13.864 53.022-34.084 79.817-38.37 39.91-20.236 80.074-19.143 120.286-29.207 54.693-1.087 109.255 19.16 163.871 13.355l36.817-3.913c53.604-5.697 107.23-12.955 160.737-26.514 70.698-21.722 140.833-62.732 211.408-90.51 82.16-33.7 164.088-80.78 246.751-87.545 108.04-23.383 216.282-14.635 324.424-15.144 79.158-2.62 158.357 12.829 236.896 54.468 58.216 26.506 115.863 73.18 174.27 94.057l154.684 65.507c13.2 406.834 3.959 962.832 4.527 1426.958z" fill="url(#f)" stroke="#244c26" stroke-width="15.574" stroke-dashoffset="2.08" transform="translate(0 2232)"/><path d="M1483.495 1094.275c-1.684-.043-3.542 1.335-5.223 4.977-11.296-1.922-27.683-.593-31.22 15.154-4.5 15.336-3.11-2.94-11.728-1.405-1.394 11.521-10.144-1.028-12.517 6.283-.763 18.485-15.175 31.288-24.443 45.954-2 21.057 14.707-17.011 12.296-2.464-2.63 20.806-1.956 44.18-15.622 61.329-13.357 4.815-7.05 41.192-22.398 26.389-14.596-9.116-30.83-14.418-47.136-18.973-13.31 4.11.57-13.717.69-25.527 1.435-18.54-21.633-25.196-34.077-34.57-16.431-11-34.509-24.146-54.405-21.436-5.918.805-8.534 8.439-11.926 13.354-11.357 16.461-3.191 12.5.986 31.392-.252 13.017-24.688.518-33.363 9.141-11.985 6.064-32.57 20.741-16.705 34.373 13.405 6.549 32.417 9.457 46.323.567 2.47-19.077 32.99-1.569 15.326 5.888-17.567 6.5-27.65 24.146-24.517 42.701 2.315 18.237 5.665 37.555 3.745 55.366-14.017-.881-3.57 29.588 7.836 32.87 22.706 6.35-6.175 2.604-14.587 3.302-23.943-1.585-47.785-5.831-71.382-10.324 2.213-10.263-26.974-7.73-19.86 3.08 20.223 7.689 42.277 9.524 63.571 12.788 19.612 4.319 39.6 3.606 59.53 4.533 14.781-7.706 14.907 19.066 2.267 15.647-16.999 6.18-32.144 17.621-44.647 30.627.483 15.59 25.432-3.268 32.524-9.166 10.985-15.717 10.83 1.416 15.006 11.162-.065 20.34 20.247-.595 7.712-10.546-4.647-15.454 5.73-6.473 4.78 4.756-1.424 10.47 17.41 25.61 16.287 9.708-5.543-10.596-15.071-30.552-2.291-38.537-8.802-.769-13.656-2.684-9.24-12.911 16.99.761 34.037 2.063 50.98 2.956-.672 13.111-2.342 26.9-4.73 40.065-12.865 3.33-1.97 13.47-11.927 17.962 6.142 10.687-14.232 13.724-18.898 25.38-1.601 20.61 17.696-8.902 25.576-11.581 11.897-14.905 2.803 9.714 15.277 3.03 6.395-7.677 3.78-22.238 10.127-31.563-15.84.353-4.258-18.225-5.939-28.533-4.779-22.116 17.827-11.014 30.233-11.975 53.714 4.063 107.378-.567 161.022-4.435.018 10.53-10.414 28.761-14.882 41.74-8.825 28.092-20.54 54.59-22.422 84.046-5.067 29.654.26 60.575-9.66 89.443-14.034 38.865-25.586 78.557-36.392 118.42-12.015 32.041-26.996 62.958-39.424 94.863-18.596-5.638-6.104 12.09 4.36 13.38 9.59-13.055 12.189-34.08 21.093-49.674 8.905-24.148 22.415-46.671 28.582-71.776 3.553-12.043 7.281-29.074 11.113-37.946 3.789-19.728 10.694-38.898 18.085-57.534 4.531-14.218 9.528-31.09 9.413-47.555-.3-38.282 2.772-77.537 17.814-113.319 4.29-16.042 11.81-31.077 17.396-46.742 7.911-17.738 13.464-28.366 16.04-48.22 4.216-29.908.424-60.21 6.235-89.96 4.636-19.084 5.156-40.251 14.463-58.003 5.924 14.455 1.168 31.884-1.7 46.914-5.386 16.784-1.32 33.954 4.657 49.872 2.116 14.613 11.753 41.45 30.825 30.356 14.658-21.552 35.459-37.838 52.113-57.854 14.938-13.51 14.188-35.308 25.083-51.227 8.692-17.796-13.856-3.37-20.771.468-6.67-5.182 9.617-19.259 16.78-22.89 13.83-23.188-39.829-.27-31.589-26.168 2.398-12.273 1.505-30.328-11.827-34.028-17.892 13.664-10.407-8.277-11.334-19.317-6.572-18.86-32.465-9.147-42.208 1.996-9.828 5.556-20.77 37.868-25.995 12.566-4.647-13.476-14.884-37.632-32.82-25.355-9.258 15.26-15.426-.514-23.236-8.771 4.306-4.966 1.198-14.404-3.105-14.513zm46.865 193.94c2.452 9.197-.597 27.014.173 39.375-1.007 18.148.589 43.673-13.454 55.12-47.72 4.17-95.461 6.588-143.33 4.977-14.48-2.59-33.021.94-45.337-5.248 6.777-7.588 19.414-11.65 24.54-22.447 14.02-22.549 33.895-41.214 44.796-65.592 27.302 13.331 58.51 14.97 88.31 17.593 19.229 1.96 45.797 2.095 44.302-23.777z"/><path d="M1179.669 1227.368c3.07 13.132 38.059 14.658 29.855.248 3.907-5.796 12.499 4.044 20.03-4.958 11.597-5.173-3.41-22.224-13.812-14.775-13.195-6.838-33.29 5.958-36.073 19.485z" fill="#1a1a1a"/><path d="M1236.17 1199.232l5.833 18.153c8.991-4.06 32.136-.733 15.985 7.884-19.126-7.081-4.346 22.33 6.799 9.117 13.717-3.515 27.993-4.309 41.835-5.255 6.198-10.802 16.294-25.954 2.906-35.866-15.764-11.937-33.45-21.33-50.738-30.761-17.021-6.08-28.389-5.603-25.868 16.704l1.446 7.299" fill="#333"/><path d="M1238.874 1179.748c10.272-14.327 20.869 14.113 3.209 14.697M1266.45 1180.412c7.953-2.763 31.9.978 12.7 7.586-12.953 5.31-18.619 2.916-12.7-7.586z"/><path d="M1224.078 1280.062c.354 21.507 5.98 42.647 3.408 64.25-7.535 17.921 20.445 21.485 28.009 21.883-2.039-9.3 6.441-28.616 11.832-12.462-2.649 9.923.555 13.159 5.295 17.414-18.997 8.5 15.63 5.668 22.356 6.12 12.273.322 22.866-2.634 28.185-11.076 13.758 9.854 20.865-15.466 30.19-23.08 8.687-11.135 14.045-20.92 23.64-31.091 9.591-11.353 15.302-25.728 5.356-38.118-3.398-18.664-27.628-23.096-42.553-30.035-17.21-7.253-34.935-7.65-45.021 10.279-7.646 11.3-17.442 28.264-29.263 10.16-8.695-8.733-16.308-22.982-28.315-7.925-10.432 3.516-11.289 14.43-13.12 23.681z" fill="#333"/><path d="M1262.514 1249.181c5.648 2.33 13.637 20.324 20.338 4.216 5.699-6.605 23.355-20.505 2.917-14.276-3.62 2.347-32.423 1.85-23.255 10.06z" fill="#333"/><path d="M1279.302 1243.368c1.309 1.543-1.796.104 0 0z"/><path d="M1229.02 1367.94c5.426 3.26 31.148 7.992 12.727 1.944-1.284.21-15.141-5.627-12.727-1.943zM1239.39 1379.965c5.373-.153-7.8-1.265 0 0z" fill="#333"/><path d="M1390.896 1250.998c-4.071 14.397 6.435 29.754 14.292 39.86 23.073 10.198 49.005 12.622 73.988 14.47 14.683-.29 42.396 6.866 41.01-15.767 9.633-14.78 11.522-32.076 14.257-48.76 3.523-13.769 10.56-28.195 16.864-39.793 13.957 1.663 19.16 18.13 17.688 31.225.558 17.786-7.853 34.743-5.686 52.51 3.166 12.904 7.447 29.017 12.09 42.788 10.509 20.56 21.39-14.674 32.391-19.946 16.91-17.434 37.526-33.645 44.113-58.104 4.445-8.765 8.51-20.132-4.562-11.239-2.932 7.81-27.525 10.536-14.182.323 6.46-13.12 3.555-45.586-17.588-33.502-22.954 9.32-35.254-18.534-14.149-29.794 7.74-12.856-4.664-8.898-11.909-9.327 17.31-6.923 11.533-24.787 13.612-39.704-16.11-4.142-29.246 11.05-38.698 21.997-10.072 9.186-20.821 39.925-36.865 21.7-11.685-9.761-20.434-30.215-33.074-34.52-5.251 3.413 4.193-9.647-4.446-12.173-12.133-20.354-13.463 19.845-15.748 28.738.892 19.504-14.02 2.576-12.958-7.848-9.505-.993-14.752 21.767-25.124 26.03-14.717-11.332 8.606-34.317.97-50.078-11.895 8.195-12.57 33.673-18.63 48.669-1.752 18.862-2.74 39.035-12.132 55.892-7.788 6.583-14.296 16.044-15.524 26.353z" fill="#668000"/><path d="M1441.751 1154.802c9.319-1.304 22.088-26.163 6.48-20.87-2.344 10.81-1.089 11.582-6.256 19.133z" fill="#668000"/><path d="M1454.722 1126.711c9.658 14.729 22.85-17.735 16.28-21.255-8.134-3.23-21.968 17.618-16.28 21.255z" fill="#450"/><path d="M1466.732 1137.192c.538-5.727-2.81 3.305 0 0z"/><path d="M1505.094 1132.836c10.03 12.33 19.726 25.162 31.302 36.066 20.212-12.19-4.728-31.847-9.695-47.142-5.977-8.869-25.45 3.266-21.607 11.076zM1598.133 1194.988c11.121 10.784 13.24-5.572 6.496-10.093-2.714 2.898-6.235 5.756-6.496 10.093zM1610.471 1163.741c-1.328 17.63 27.528-15.478 8.179-7.675-3.185 1.975-9.603 2.265-8.179 7.675z" fill="#450"/><path d="M1613.249 1182.483c.44 21.62 19.74-20.051 1.279-5.177l-1.392 1.641z" fill="#668000"/><path d="M1627.454 1194.04c6.033-1.21-3.806-5.25 0 0z"/><path d="M1638.112 1207.386c-2.91 20.983 14.672-5.275 14.155-3.81-3.955 1.164-18.581-5.35-14.155 3.81z" fill="#450"/><path d="M1282.46 1423.932c2.455-.059-2.477 1.55 0 0z"/><g><path d="M618.294 1277.93c-2.216-2.15-2.95-5.434-4.37-8.118-1.11-2.53-2.276-5.134-3.292-7.643-3.546-8.329-6.84-16.914-9.38-25.661-2.513-7.94-4.086-16.197-5.481-24.415-.754-5.866-1.804-11.735-1.613-17.672-5.41-2.268-10.493-5.252-15.564-8.136-2.984 2.097-2.923 6.525-5.698 8.517-1.216.874-2.849 1.009-4.338 1.176-2.851.32-6.068.167-8.602-.354-7.025-.34-14.01.435-20.96 1.37-1.712.281-7.782.997-5.781-1.605 5.062-.093 10.097-1.055 15.125-1.645 6.684-.565 13.419.11 20.088-.529 4.019.3 5.257-3.879 7.448-6.368 2.717-2.92-4.077-4.089-5.482-6.538-2.148-2.292-5.42-3.929-6.138-7.208-.757-2.874.188-6.792.383-9.141-9.806 4.952-20.664 8.145-29.423 15.046-5.56 3.838-10.1 8.95-15.1 13.39-2.21 2.604-3.31-1.874-.822-1.705 3.599-2.797 6.5-6.498 10.113-9.215 6.85-6.428 15.25-10.94 23.923-14.439 4.131-1.86 8.322-3.606 12.263-5.85 2.157-5.3 5.26-10.173 9.31-14.25 6.349-7.017 13.914-12.697 21.4-18.418 9.276-6.902 19.07-13.287 29.824-17.683-2.055-1.518-6.463-2.643-9.596-3.317-8.913-1.806-18.07.044-26.796 2.03-5.303 1.102-10.472 2.807-15.804 3.737-5.756.649 4.913-7.06 1.962-2.415 3.561-.282 6.94-1.857 10.5-2.359 6.902-1.65 13.887-3.131 20.983-3.55 6.163-.364 12.277.894 18.01 3.098 3.057 1.692 6.103 1.122 9.193-.219 11.335-3.395 23.23-3.76 34.938-4.735 4.08-.379 8.184-.532 12.274-.71-5.92-4.131-12.036-8.042-17.406-12.904-4.714.86 1.483-4.377 2.644-.739 5.758 5.154 12.379 9.141 18.603 13.66 4.048.73 8.268.896 12.258 2.075 8.936 2.706 17.556 6.283 26.386 9.269 6.37 2.24 12.532 5.025 18.799 7.532 2.229-2.512 4.078-5.523 6.216-8.18 6.701-9.417 15.55-17.09 25.16-23.44 1.899-.933 5.864-4.971 7.033-2.345-2.911 1.942-6 3.738-8.817 5.884-9.106 6.15-17.054 14.02-23.382 22.998-.503 2.164-6.541 5.618-2.74 6.662 6.693 2.92 13.092 6.837 18.01 12.313 4.651 4.628 8.05 10.371 10.513 16.408 2.358 4.785 4.647 9.758 6.053 14.955 1.64 1.322 5.435-1.77 7.864-1.977 9.061-3.128 18.46-5.142 27.92-6.636 5.632-.93 11.229-2.295 16.928-2.675 1.538 2.652-4.472 1.898-6.274 2.614-12.946 2.319-26.06 4.146-38.546 8.455-2.168 1.438-7.97.841-7.12 4.38.98 7.523-3.027 14.94-8.906 19.466-6.906 5.433-15.376 8.452-23.695 11 1.268 1.419 6.217 1.968 8.812 3.263 12.647 4.19 24.06 11.58 37.148 14.524 7.237 1.786 14.58 3.506 22.088 3.452-.261-1.393-2.512-7.099 0-5.429 1.145 2.601 4.44 8.71-1.16 7.788-7.58-.058-14.981-1.96-22.324-3.65-8.753-2.224-16.855-6.193-24.981-9.967-7.763-3.594-15.901-6.422-24.13-8.66-10.53 2.812-21.253 4.79-31.994 6.596.36 4.694 1.847 9.259 3.247 13.74 2.903 7.429 5.89 14.853 9.855 21.78.933 2.086 3.986 5.842 4.14 1.465 3.208 2.027-2.093 6.867-3.922 2.576-4.84-6.921-7.846-14.917-11.083-22.649-1.867-4.986-3.38-10.12-4.246-15.394-1.407-2.528-6.215.218-9.007-.24-9.405.818-18.894.738-28.307.062a93.6 93.6 0 0 1-14.092.841c-.09 2.696.008 5.418 1.27 7.866 1.38 4.022 3.192 7.909 5.788 11.324 6.148 8.847 15.18 15.085 23.605 21.584a24.063 24.063 0 0 0 5.318 4.03c1.948 1.528-.537 4.391-2.006 1.632-3.44-3.304-7.252-6.178-11.092-8.987-1.89-.839-4.184-3.667-6.444-5.148-7.307-6.136-13.76-13.748-16.766-22.925-1.405-2.98-2.072-6.26-1.868-9.558-10.891-1.272-21.18-5.255-31.813-7.69-9.727-2.65-19.796-4.216-29.163-8.074-.466 3.413.319 7.018.67 10.464.68 5.524 1.622 11.038 2.709 16.504 1.112 4.882 2.295 9.743 3.674 14.509 1.47 4.42 2.855 8.88 4.558 13.237 3.024 8.043 6.24 15.985 10.073 23.691 1.17 3.744 1.423-2.357 2.124-1.093 1.37.763.044 5.296-1.679 5.295z" fill="#d4aa00"/><path d="M674.327 1208.384c5.52-.895 11.12-2.237 16.278-4.213 3.788-.812 7.234-2.657 10.87-3.944 2.34-1.823 7.386-1.738 7.654-5.094-.229-2.396 1.396.068 1.813.542.387.44.191 1.157.282 1.737.522 3.335.052 7.888 1.507 10.016 10.075-1.553 20.141-3.433 29.975-6.09-2.301-.287-3.759-3.671-.589-2.952 2.589 2.788 6.174 1.896 9.291.534 9.236-2.948 18.884-6.823 24.957-14.751 2.74-3.775 4.293-8.566 3.652-13.298-.541-2.583-4.766 1.055-6.841 1.05-1.388 1.255-5.238-.053-2.195-1.12 2.56-1.06 7.678-1.13 8.311-3.8-2.277-7.286-5.636-14.174-8.89-21.061-4.985-8.725-12.602-16.121-21.842-20.211-2.655-1.76-5.669-3.162-7.372.454-.627 2.01-5.062 2.592-2.603.094 1.207-1.185 5.225-3.897 1.477-4.37-8.601-3.806-17.449-7.009-26.33-10.075-7.988-2.936-15.901-6.49-24.464-7.305.511 1.482 4.71 3.654 6.498 5.615 2.805 2.36 5.523 4.96 7.941 7.496-.784 4.03-4-1.565-5.718-2.442-4.292-4.15-8.994-7.838-13.936-11.179-10.889-.204-21.697 1.288-32.537 2.06-6.576.748-13.213 1.802-19.445 4.093 2.704.738 6.39 3.282 8.57.14 1.442-2.36 4.06-.562 1.472 1.08-2.016 2.092-4.78 3.326-7.552 1.774-3.237-1.049-6.625-2.515-9.702-.194-10.257 4.556-19.724 10.725-28.633 17.512-8.812 6.693-17.684 13.631-24.334 22.568-1.319 1.998-3.377 4.995-3.602 6.754 4.282-2.452 8.61-4.892 12.799-7.474 3.202-2.02 4.838-5.502 6.994-8.465 3.483-1.934-.165 3.611-1.232 4.633-2.903 5.574-9.217 7.573-14.062 10.96-2.392 1.821-6.728 2.282-6.544 6.07-1.03 3.871-1.006 8.602 2.71 11.041a50.621 50.621 0 0 0 9.225 7.23c1.216-1.802 3.535-3.495 4.187-5.343-.566-2.215-.353-4.538-2.879-5.553-2.671-2.249-6.031-4.266-7.347-7.63-.94-2.85 3.587-2.895 1.636-.132 1.762 3.59 5.396 5.788 8.486 8.114 1.54-.871 1.636 2.883 3.633 3.228 3.242 2.835 6.227 5.934 9.642 8.547 1.949-.536 2.038 2.83 4.297 3.223 6.68 4.618 14.336 7.603 21.917 10.347 13.116 4.204 26.68 7.007 40.355 8.779 4.055.338 8.14 1.39 12.22 1.005zM663.006 1209.277c-1.361-.57-5.664-.239-2.263-.007.753-.073 1.523.19 2.263.007z" fill="#fd5"/><path d="M691.898 1209.167c6.121-.041 12.287-.486 18.311-1.48-.996-2.523.197-7.843-1.776-8.92-8.816 4.462-18.173 7.775-27.72 10.244 3.64.358 7.478.196 11.185.156zM657.679 1208.898c-2.093-1.323-6.856-1.02-9.867-2.07-1.327-.146-5.916-1.224-5.546-.868 4.877 1.436 9.88 2.555 14.928 3.136z" fill="#fd5"/><g fill="#a0892c"><path d="M649.795 1179.057c-12.08-1.064-23.104-9.18-28.452-19.528-1.907-6.488 5.676-4.82 4.891.67 4.638 6.596 11.748 12.023 19.688 14.41 8.565 1.134 18.027 1.914 26.089-1.451 10.105-4.982 18.986-13.319 21.256-24.434 5.812.73-.304 12.677-3.95 15.606-7.938 8.865-19.389 16.086-32.02 14.763-2.5-.001-5.002.032-7.502-.036z"/><path d="M652.84 1151.718c-6.52-4.334 2.19-9.18 3.261-2.012-.238 1.338-1.855 2.622-3.262 2.012zM630.923 1140.733c-3.366-7.426 10.779-1.457 0 0zM669.835 1131.394c-2.189-5.317 8.444-4.08 3.05.33-.818.303-2.54.863-3.05-.33z"/></g><path d="M622.119 1200.637c-8.695-3.148-17.477-6.565-24.91-12.182-1.54-.397-2.016 5.733.664 5.594 7.815 3.065 16.11 4.633 24.222 6.656zM594.268 1191.582c.113-2.776 1.516-5.668-1.89-7a707.928 707.928 0 0 0-8.189-7.551c1.989 3.177-2.72 4.648-3.923 7.144-.296 2.149 4.568 3.01 6.245 4.53 1.855.395 6.98 4.795 7.757 2.877z" fill="#fd5"/></g><g><path d="M1087.03 1753.42c.992 1.053 3.636.686 5.074.817 2.141-.785 3.255-3.405 4.21-5.17l2.87-3.543c.36-2.355-.672-4.898-2.083-6.295l-3.249-4.55c-1.367-2.002-4.47-1.12-6.478-.835-3.092.494-6.255 1.422-8.459 3.786-2.012 1.988-3.915 4.612-4.148 7.443-.055.66.315 1.31.67 1.868.384.601.966 1.057 1.522 1.504 1.455 1.17 2.946 2.433 4.7 3.05.687.267 1.315.766 2.076.82" fill="#ff7f2a"/><path d="M1098.04 1689.814c-2.088.083-3.612 2.107-5.455 3.094-1.235.66-2.947.744-3.75 1.891-1.067 1.522-1.13 3.738-.66 5.536.414 1.59 1.915 2.669 2.897 3.984a444.298 444.298 0 0 0 3.678 4.794c2.417 2.286 7.91 7.073 10.539 7.285.958-.083 1.849 1.157 2.705.506 1.053-1.417 2.482-2.631 2.271-4.686-.184-2.09-.194-4.196-.426-6.282.108-2.08.042-4.208-.574-6.185-.315-1.01-1.063-1.829-1.553-2.765-.592-1.131-.763-2.549-1.672-3.444-2.097-2.063-5.06-3.845-8-3.728zM1041.654 1713.122c2.657-1.604 2.288-5.182 1.878-7.82-.472-3.283-2.082-6.967-5.499-8.044-2.908-1.283-6.208-1.083-9.148-.023-2.397.725-4.643 2.147-5.88 4.382-1.508 2.205-2.267 5.739.076 7.67 1.527 1.658 3.734 1.985 5.781 2.57 1.976 1.236 4.192-.948 5.987.564 1.548 1.44 4.274.775 6.314.795.168-.014.33-.052.491-.094z" fill="#d45500"/></g></svg>