<svg xmlns="http://www.w3.org/2000/svg" xmlns:xlink="http://www.w3.org/1999/xlink" width="1024" height="768"><defs><linearGradient id="b"><stop offset="0" stop-color="#009633"/><stop offset="1" stop-color="#063"/></linearGradient><linearGradient id="c"><stop offset="0" stop-color="#fff"/><stop offset="1" stop-color="#54deff"/></linearGradient><linearGradient id="a"><stop offset="0" stop-color="#fff"/><stop offset=".5" stop-color="#d4c37f" stop-opacity=".498"/><stop offset="1" stop-color="#a80" stop-opacity="0"/></linearGradient><linearGradient xlink:href="#a" id="e" x1="-45.755" y1="296.36" x2="1051.261" y2="296.36" gradientUnits="userSpaceOnUse" gradientTransform="matrix(1.33249 0 0 3.79058 -489.276 -1375.305)"/><radialGradient xlink:href="#b" id="f" cx="502.638" cy="609.739" fx="502.638" fy="609.739" r="564.019" gradientTransform="matrix(1.3636 0 0 .9723 -345.763 315.026)" gradientUnits="userSpaceOnUse"/><radialGradient xlink:href="#c" id="d" cx="-298.481" cy="496.389" fx="-298.481" fy="496.389" r="450.22" gradientTransform="matrix(1.62399 0 0 3.02138 665.367 -1751.707)" gradientUnits="userSpaceOnUse"/></defs><path transform="rotate(-90)" opacity=".99" fill="url(#d)" stroke="url(#e)" stroke-width="2.247" d="M-549.577-1610.865h1460.43v2717.872h-1460.43z"/><path d="M1103.22 1441.884l-1524.356 5.916c.067 7.026-12.964-793.681 3.721-845.29 26.04-23.443 52.75-35.327 79.11-52.117 20.007-9.067 39.923-22.29 60.099-25.094 30.05-13.235 60.292-12.52 90.57-19.102 41.181-.71 82.264 12.532 123.388 8.735l27.721-2.56c40.361-3.725 80.74-8.472 121.028-17.34 53.232-14.205 106.041-41.026 159.181-59.193 61.862-22.04 123.551-52.83 185.793-57.253 81.349-15.293 162.85-9.572 244.276-9.905 59.604-1.713 119.237 8.39 178.373 35.622 43.834 17.335 87.24 47.86 131.218 61.513l116.47 42.841c9.938 266.069 2.98 629.69 3.408 933.227z" fill="url(#f)" stroke="#244c26" stroke-width="10.929" stroke-dashoffset="2.08"/><path d="M881.625 90.275c-1.046-.027-2.2.83-3.244 3.091-7.017-1.194-17.196-.368-19.392 9.413-2.796 9.526-1.933-1.826-7.286-.872-.866 7.156-6.301-.639-7.775 3.902-.474 11.482-9.426 19.435-15.183 28.545-1.242 13.08 9.135-10.567 7.638-1.53-1.634 12.924-1.215 27.442-9.704 38.095-8.297 2.99-4.379 25.587-13.913 16.392-9.066-5.663-19.15-8.956-29.279-11.785-8.267 2.552.354-8.521.429-15.857.891-11.517-13.438-15.65-21.168-21.473-10.206-6.834-21.435-14.999-33.794-13.316-3.676.5-5.3 5.242-7.408 8.296-7.055 10.224-1.982 7.763.612 19.499-.156 8.086-15.335.321-20.723 5.678-7.445 3.766-20.231 12.884-10.377 21.35 8.327 4.069 20.136 5.875 28.774.353 1.535-11.85 20.493-.974 9.52 3.658-10.912 4.037-17.175 14.998-15.229 26.524 1.438 11.328 3.52 23.327 2.327 34.391-8.707-.547-2.218 18.379 4.867 20.418 14.104 3.945-3.836 1.617-9.061 2.05-14.873-.984-29.682-3.621-44.34-6.412 1.375-6.375-16.755-4.801-12.336 1.913 12.562 4.776 26.26 5.916 39.488 7.943 12.182 2.683 24.597 2.24 36.978 2.817 9.181-4.787 9.259 11.842 1.408 9.718-10.56 3.84-19.967 10.946-27.734 19.025.3 9.683 15.798-2.03 20.204-5.694 6.823-9.762 6.726.88 9.32 6.934-.04 12.634 12.577-.37 4.791-6.55-2.887-9.6 3.559-4.022 2.97 2.953-.885 6.504 10.814 15.908 10.116 6.03-3.443-6.581-9.362-18.977-1.423-23.937-5.468-.478-8.482-1.667-5.74-8.02 10.554.473 21.143 1.281 31.667 1.836-.417 8.144-1.455 16.71-2.938 24.887-7.991 2.069-1.224 8.367-7.408 11.158 3.815 6.637-8.84 8.524-11.74 15.764-.994 12.803 10.993-5.53 15.887-7.193 7.39-9.259 1.742 6.034 9.49 1.882 3.972-4.769 2.348-13.814 6.29-19.606-9.838.22-2.644-11.32-3.688-17.724-2.969-13.737 11.073-6.841 18.78-7.438 33.364 2.524 66.698-.352 100.02-2.755.011 6.54-6.469 17.865-9.244 25.927-5.482 17.45-12.758 33.91-13.928 52.207-3.147 18.42.162 37.627-6 55.558-8.717 24.142-15.893 48.797-22.606 73.558-7.463 19.903-16.768 39.107-24.489 58.926-11.55-3.502-3.79 7.51 2.71 8.31 5.956-8.108 7.57-21.168 13.1-30.855 5.533-15 13.924-28.99 17.755-44.585 2.207-7.48 4.523-18.06 6.903-23.57 2.354-12.255 6.643-24.162 11.234-35.738 2.814-8.832 5.919-19.312 5.847-29.54-.186-23.778 1.721-48.162 11.065-70.389 2.665-9.965 7.336-19.304 10.806-29.034 4.914-11.018 8.363-17.62 9.964-29.953 2.618-18.577.263-37.4 3.872-55.88 2.88-11.853 3.203-25.002 8.984-36.029 3.68 8.98.726 19.805-1.056 29.142-3.345 10.425-.82 21.09 2.893 30.978 1.315 9.077 7.3 25.747 19.147 18.856 9.105-13.387 22.026-23.503 32.371-35.937 9.279-8.391 8.813-21.932 15.58-31.82 5.4-11.054-8.606-2.094-12.902.291-4.143-3.22 5.974-11.963 10.423-14.219 8.59-14.403-24.74-.167-19.621-16.254 1.49-7.624.935-18.839-7.347-21.137-11.114 8.487-6.464-5.141-7.04-12-4.082-11.714-20.166-5.68-26.218 1.24-6.105 3.452-12.902 23.523-16.148 7.806-2.886-8.37-9.245-23.375-20.386-15.749-5.75 9.478-9.582-.32-14.433-5.449 2.675-3.084.744-8.947-1.929-9.014zm29.111 120.468c1.523 5.713-.37 16.78.107 24.458-.625 11.273.366 27.128-8.356 34.238-29.642 2.591-59.297 4.093-89.032 3.092-8.995-1.609-20.511.584-28.162-3.26 4.21-4.713 12.06-7.236 15.244-13.943 8.709-14.007 21.054-25.6 27.826-40.743 16.958 8.28 36.343 9.298 54.854 10.928 11.944 1.217 28.448 1.301 27.52-14.77z"/><path d="M692.9 172.947c1.907 8.157 23.64 9.105 18.545.154 2.427-3.6 7.764 2.512 12.441-3.08 7.204-3.213-2.118-13.804-8.579-9.177-8.196-4.248-20.679 3.7-22.407 12.103z" fill="#1a1a1a"/><path d="M727.996 155.47l3.623 11.276c5.586-2.522 19.962-.455 9.93 4.897-11.88-4.398-2.7 13.87 4.223 5.663 8.52-2.183 17.388-2.676 25.987-3.264 3.85-6.71 10.12-16.122 1.805-22.279-9.793-7.414-20.778-13.248-31.517-19.107-10.573-3.777-17.634-3.48-16.068 10.376l.898 4.533" fill="#333"/><path d="M729.676 143.367c6.38-8.899 12.963 8.766 1.993 9.13M746.804 143.78c4.941-1.717 19.816.607 7.89 4.712-8.046 3.298-11.565 1.811-7.89-4.712z"/><path d="M720.485 205.679c.22 13.36 3.714 26.49 2.117 39.91-4.68 11.131 12.7 13.345 17.398 13.592-1.266-5.777 4.001-17.775 7.35-7.74-1.646 6.163.344 8.173 3.289 10.816-11.8 5.28 9.71 3.52 13.887 3.801 7.623.2 14.203-1.636 17.507-6.88 8.546 6.121 12.96-9.606 18.753-14.336 5.396-6.917 8.724-12.995 14.684-19.312 5.958-7.053 9.505-15.982 3.327-23.678-2.11-11.593-17.161-14.347-26.432-18.657-10.69-4.505-21.7-4.752-27.966 6.385-4.749 7.02-10.834 17.557-18.177 6.312-5.4-5.425-10.13-14.276-17.588-4.923-6.48 2.184-7.012 8.964-8.15 14.71z" fill="#333"/><path d="M744.36 186.496c3.509 1.448 8.471 12.625 12.633 2.62 3.54-4.104 14.508-12.738 1.812-8.868-2.249 1.457-20.14 1.15-14.445 6.248z" fill="#333"/><path d="M754.788 182.886c.813.958-1.115.064 0 0z"/><path d="M723.555 260.265c3.37 2.024 19.348 4.964 7.905 1.208-.797.13-9.405-3.496-7.905-1.208zM729.996 267.735c3.338-.095-4.844-.786 0 0z" fill="#333"/><path d="M824.106 187.625c-2.529 8.943 3.997 18.482 8.878 24.76 14.332 6.334 30.44 7.84 45.958 8.988 9.12-.18 26.335 4.265 25.474-9.794 5.984-9.181 7.157-19.924 8.856-30.288 2.189-8.553 6.56-17.514 10.476-24.718 8.67 1.033 11.901 11.261 10.987 19.396.346 11.048-4.878 21.58-3.532 32.617 1.966 8.016 4.626 18.024 7.509 26.578 6.528 12.771 13.287-9.114 20.12-12.389 10.504-10.83 23.31-20.9 27.402-36.092 2.761-5.445 5.286-12.506-2.834-6.981-1.821 4.85-17.097 6.544-8.81.2 4.014-8.15 2.209-28.316-10.924-20.81-14.258 5.789-21.898-11.512-8.789-18.507 4.807-7.985-2.897-5.527-7.397-5.794 10.752-4.3 7.163-15.396 8.455-24.662-10.007-2.573-18.167 6.864-24.038 13.663-6.256 5.707-12.933 24.8-22.899 13.48-7.258-6.064-12.693-18.769-20.544-21.443-3.262 2.12 2.604-5.992-2.762-7.561-7.537-12.643-8.363 12.327-9.782 17.85.554 12.116-8.709 1.601-8.049-4.874-5.904-.617-9.164 13.52-15.606 16.17-9.142-7.04 5.346-21.317.602-31.108-7.388 5.09-7.808 20.916-11.572 30.231-1.089 11.717-1.702 24.248-7.536 34.718-4.838 4.09-8.88 9.967-9.643 16.37z" fill="#668000"/><path d="M855.695 127.872c5.789-.81 13.72-16.251 4.025-12.964-1.455 6.715-.676 7.194-3.885 11.885z" fill="#668000"/><path d="M863.752 110.423c6 9.149 14.193-11.017 10.112-13.203-5.051-2.006-13.645 10.944-10.112 13.203z" fill="#450"/><path d="M871.213 116.933c.334-3.557-1.746 2.053 0 0z"/><path d="M895.041 114.227c6.23 7.659 12.254 15.63 19.444 22.403 12.555-7.572-2.937-19.782-6.022-29.282-3.713-5.51-15.808 2.028-13.422 6.88zM952.834 152.834c6.908 6.699 8.225-3.462 4.035-6.27-1.686 1.8-3.873 3.576-4.035 6.27zM960.498 133.424c-.825 10.951 17.1-9.614 5.08-4.767-1.978 1.227-5.965 1.407-5.08 4.767z" fill="#450"/><path d="M962.223 145.066c.274 13.43 12.262-12.455.795-3.216l-.865 1.02z" fill="#668000"/><path d="M971.047 152.245c3.748-.752-2.364-3.26 0 0z"/><path d="M977.667 160.535c-1.807 13.034 9.114-3.277 8.793-2.367-2.457.723-11.542-3.323-8.793 2.367z" fill="#450"/><path d="M756.75 295.045c1.525-.036-1.539.963 0 0z"/><g><path d="M154.294 225.93c-2.216-2.15-2.95-5.434-4.37-8.118-1.11-2.53-2.276-5.134-3.292-7.643-3.546-8.329-6.84-16.914-9.38-25.661-2.513-7.94-4.086-16.197-5.481-24.415-.754-5.866-1.804-11.735-1.613-17.672-5.41-2.268-10.493-5.252-15.563-8.136-2.985 2.097-2.924 6.525-5.699 8.517-1.216.874-2.849 1.009-4.338 1.176-2.851.32-6.068.167-8.602-.354-7.025-.34-14.01.435-20.96 1.37-1.712.281-7.782.997-5.781-1.605 5.062-.093 10.097-1.055 15.125-1.645 6.684-.565 13.419.11 20.088-.529 4.019.3 5.257-3.879 7.448-6.368 2.717-2.92-4.077-4.089-5.482-6.538-2.148-2.292-5.42-3.929-6.138-7.208-.757-2.874.188-6.792.383-9.141-9.806 4.952-20.664 8.145-29.423 15.046-5.56 3.838-10.1 8.95-15.1 13.39-2.21 2.604-3.31-1.874-.822-1.705 3.599-2.797 6.5-6.498 10.113-9.215 6.85-6.428 15.25-10.94 23.923-14.439 4.131-1.86 8.322-3.606 12.263-5.85 2.157-5.3 5.26-10.173 9.31-14.25 6.349-7.017 13.914-12.697 21.4-18.418 9.276-6.902 19.07-13.287 29.824-17.683-2.055-1.518-6.463-2.643-9.596-3.317-8.913-1.806-18.07.044-26.796 2.03-5.303 1.102-10.472 2.807-15.804 3.737-5.756.649 4.913-7.06 1.962-2.415 3.561-.282 6.94-1.857 10.5-2.359 6.902-1.65 13.887-3.131 20.983-3.55 6.163-.364 12.277.894 18.01 3.098 3.057 1.692 6.103 1.122 9.193-.219 11.335-3.395 23.23-3.76 34.938-4.735 4.08-.379 8.184-.532 12.274-.71-5.92-4.131-12.036-8.042-17.406-12.904-4.714.86 1.483-4.377 2.645-.739 5.757 5.154 12.378 9.141 18.602 13.66 4.048.73 8.268.896 12.258 2.075 8.936 2.706 17.556 6.283 26.386 9.269 6.37 2.24 12.532 5.025 18.799 7.532 2.229-2.512 4.078-5.523 6.216-8.18 6.701-9.417 15.55-17.09 25.16-23.44 1.899-.933 5.864-4.971 7.033-2.345-2.911 1.942-6 3.738-8.817 5.884-9.106 6.15-17.054 14.02-23.382 22.998-.503 2.164-6.541 5.618-2.74 6.662 6.693 2.92 13.092 6.837 18.01 12.313 4.651 4.628 8.05 10.371 10.513 16.408 2.358 4.785 4.647 9.758 6.053 14.955 1.64 1.322 5.435-1.77 7.864-1.977 9.061-3.128 18.46-5.142 27.92-6.636 5.632-.93 11.229-2.295 16.928-2.675 1.538 2.652-4.472 1.898-6.273 2.614-12.947 2.319-26.062 4.146-38.547 8.455-2.168 1.438-7.97.841-7.12 4.38.98 7.523-3.027 14.94-8.906 19.466-6.906 5.433-15.376 8.452-23.695 11 1.268 1.419 6.217 1.968 8.812 3.263 12.647 4.19 24.06 11.58 37.148 14.524 7.237 1.786 14.58 3.506 22.088 3.452-.261-1.393-2.512-7.099 0-5.429 1.145 2.601 4.44 8.71-1.16 7.788-7.58-.058-14.981-1.96-22.324-3.65-8.753-2.224-16.855-6.193-24.981-9.967-7.763-3.594-15.901-6.422-24.13-8.66-10.53 2.812-21.253 4.79-31.994 6.596.36 4.694 1.847 9.259 3.247 13.74 2.903 7.429 5.89 14.853 9.855 21.78.933 2.086 3.986 5.842 4.14 1.465 3.208 2.027-2.093 6.867-3.922 2.576-4.84-6.921-7.846-14.917-11.083-22.649-1.867-4.986-3.38-10.12-4.246-15.394-1.407-2.528-6.215.218-9.007-.24-9.405.818-18.894.738-28.306.062a93.6 93.6 0 0 1-14.093.841c-.09 2.696.008 5.418 1.27 7.866 1.38 4.022 3.192 7.909 5.788 11.324 6.148 8.847 15.18 15.085 23.605 21.584a24.063 24.063 0 0 0 5.318 4.03c1.948 1.528-.537 4.391-2.006 1.632-3.44-3.304-7.252-6.178-11.092-8.987-1.89-.839-4.184-3.667-6.444-5.148-7.307-6.136-13.76-13.748-16.766-22.925-1.405-2.98-2.072-6.26-1.868-9.558-10.891-1.272-21.18-5.255-31.813-7.69-9.727-2.65-19.796-4.216-29.163-8.074-.466 3.413.319 7.018.67 10.464.68 5.524 1.622 11.038 2.709 16.504 1.112 4.882 2.295 9.743 3.674 14.509 1.47 4.42 2.855 8.88 4.558 13.237 3.024 8.043 6.24 15.985 10.073 23.691 1.17 3.744 1.423-2.357 2.124-1.093 1.37.763.044 5.296-1.679 5.295z" fill="#d4aa00"/><path d="M210.327 156.384c5.52-.895 11.12-2.237 16.278-4.213 3.788-.812 7.234-2.657 10.87-3.944 2.34-1.823 7.386-1.738 7.654-5.094-.229-2.396 1.396.068 1.813.542.387.44.191 1.157.282 1.737.522 3.335.052 7.888 1.507 10.016 10.075-1.553 20.141-3.433 29.975-6.09-2.301-.287-3.759-3.671-.589-2.952 2.589 2.788 6.174 1.896 9.291.534 9.236-2.948 18.884-6.823 24.957-14.751 2.741-3.775 4.293-8.566 3.652-13.298-.541-2.583-4.766 1.055-6.841 1.05-1.388 1.255-5.238-.053-2.195-1.12 2.56-1.06 7.678-1.13 8.311-3.8-2.277-7.286-5.636-14.174-8.89-21.061-4.985-8.725-12.602-16.121-21.842-20.211-2.655-1.76-5.669-3.162-7.372.454-.627 2.01-5.062 2.592-2.603.094 1.207-1.185 5.225-3.897 1.477-4.37-8.601-3.806-17.449-7.009-26.33-10.075-7.988-2.936-15.901-6.49-24.464-7.305.511 1.482 4.71 3.654 6.498 5.615 2.805 2.36 5.523 4.96 7.941 7.496-.784 4.03-4-1.565-5.718-2.442-4.292-4.15-8.994-7.838-13.936-11.179-10.889-.204-21.697 1.288-32.537 2.06-6.576.748-13.213 1.802-19.445 4.093 2.704.738 6.39 3.282 8.57.14 1.442-2.36 4.06-.562 1.472 1.08-2.016 2.092-4.78 3.326-7.552 1.774-3.237-1.049-6.625-2.515-9.702-.194-10.257 4.556-19.724 10.725-28.632 17.512-8.813 6.693-17.685 13.631-24.335 22.568-1.319 1.998-3.377 4.995-3.602 6.754 4.282-2.452 8.61-4.892 12.799-7.474 3.202-2.02 4.838-5.502 6.994-8.465 3.483-1.934-.165 3.611-1.232 4.633-2.903 5.574-9.217 7.573-14.062 10.96-2.392 1.821-6.728 2.282-6.544 6.07-1.03 3.871-1.006 8.602 2.71 11.041a50.621 50.621 0 0 0 9.225 7.23c1.216-1.802 3.535-3.495 4.188-5.343-.567-2.215-.354-4.538-2.88-5.553-2.671-2.249-6.031-4.266-7.347-7.63-.94-2.85 3.587-2.895 1.636-.132 1.762 3.59 5.397 5.788 8.486 8.114 1.54-.871 1.636 2.883 3.633 3.228 3.242 2.835 6.227 5.934 9.642 8.547 1.949-.536 2.038 2.83 4.297 3.223 6.68 4.618 14.336 7.603 21.917 10.347 13.116 4.204 26.68 7.007 40.355 8.779 4.055.338 8.14 1.39 12.22 1.005zM199.006 157.277c-1.361-.57-5.664-.239-2.263-.007.753-.073 1.523.19 2.263.007z" fill="#fd5"/><path d="M227.898 157.167c6.121-.041 12.287-.486 18.311-1.48-.996-2.523.197-7.843-1.776-8.92-8.816 4.462-18.173 7.775-27.72 10.244 3.64.358 7.478.196 11.185.156zM193.679 156.898c-2.093-1.323-6.856-1.02-9.867-2.07-1.327-.146-5.916-1.224-5.546-.868 4.877 1.436 9.88 2.555 14.928 3.136z" fill="#fd5"/><g fill="#a0892c"><path d="M185.795 127.057c-12.08-1.064-23.104-9.18-28.452-19.528-1.907-6.488 5.676-4.82 4.891.67 4.638 6.596 11.748 12.023 19.688 14.41 8.565 1.134 18.027 1.914 26.089-1.451 10.105-4.982 18.986-13.319 21.256-24.434 5.812.73-.304 12.677-3.95 15.606-7.938 8.865-19.388 16.086-32.02 14.763-2.5-.001-5.002.032-7.502-.036z"/><path d="M188.84 99.718c-6.52-4.334 2.19-9.18 3.261-2.012-.238 1.338-1.855 2.622-3.262 2.012zM166.923 88.733c-3.366-7.426 10.779-1.457 0 0zM205.835 79.394c-2.189-5.317 8.444-4.08 3.05.33-.818.303-2.54.863-3.05-.33z"/></g><path d="M158.119 148.637c-8.695-3.148-17.477-6.565-24.91-12.182-1.54-.397-2.016 5.733.664 5.594 7.815 3.065 16.11 4.633 24.222 6.656zM130.268 139.582c.113-2.776 1.516-5.668-1.89-7a707.928 707.928 0 0 0-8.189-7.551c1.989 3.177-2.72 4.648-3.923 7.144-.296 2.149 4.568 3.01 6.245 4.53 1.855.395 6.98 4.795 7.757 2.877z" fill="#fd5"/></g><path d="M635.356 499.71c.616.654 2.259.427 3.152.508 1.33-.487 2.022-2.115 2.615-3.211l1.782-2.201c.224-1.463-.417-3.042-1.293-3.91l-2.018-2.827c-.85-1.243-2.776-.695-4.024-.519-1.92.307-3.885.884-5.254 2.353-1.25 1.234-2.432 2.864-2.577 4.622-.034.41.195.815.417 1.161.238.373.6.656.944.934.904.727 1.83 1.511 2.92 1.895.427.166.817.475 1.29.509" fill="#ff7f2a"/><path d="M642.196 460.2c-1.298.052-2.244 1.31-3.39 1.922-.766.41-1.83.463-2.329 1.175-.662.946-.701 2.322-.41 3.44.258.986 1.19 1.657 1.8 2.474a276.534 276.534 0 0 0 2.285 2.978c1.5 1.42 4.913 4.393 6.546 4.525.595-.051 1.148.719 1.68.314.655-.88 1.542-1.634 1.41-2.91-.113-1.299-.12-2.607-.264-3.903.068-1.292.026-2.614-.356-3.842-.196-.627-.66-1.136-.965-1.717-.367-.703-.474-1.583-1.039-2.14-1.302-1.281-3.142-2.388-4.968-2.315zM607.17 474.679c1.65-.997 1.422-3.219 1.167-4.857-.293-2.04-1.294-4.328-3.416-4.997-1.806-.798-3.856-.673-5.682-.014-1.49.45-2.884 1.333-3.653 2.721-.936 1.37-1.408 3.565.047 4.764.949 1.03 2.32 1.234 3.591 1.597 1.228.768 2.604-.589 3.72.35.96.894 2.654.482 3.921.494a1.81 1.81 0 0 0 .305-.058z" fill="#d45500"/></svg>