<?xml version="1.0" encoding="UTF-8" standalone="no"?>
<!-- Created with Inkscape (http://www.inkscape.org/) -->

<svg
   xmlns:dc="http://purl.org/dc/elements/1.1/"
   xmlns:cc="http://creativecommons.org/ns#"
   xmlns:rdf="http://www.w3.org/1999/02/22-rdf-syntax-ns#"
   xmlns:svg="http://www.w3.org/2000/svg"
   xmlns="http://www.w3.org/2000/svg"
   xmlns:sodipodi="http://sodipodi.sourceforge.net/DTD/sodipodi-0.dtd"
   xmlns:inkscape="http://www.inkscape.org/namespaces/inkscape"
   width="420"
   height="420"
   id="svg3227"
   version="1.1"
   inkscape:version="0.48.4 r9939"
   sodipodi:docname="New document 5">
  <defs
     id="defs3229" />
  <sodipodi:namedview
     id="base"
     pagecolor="#ffffff"
     bordercolor="#666666"
     borderopacity="1.0"
     inkscape:pageopacity="0.0"
     inkscape:pageshadow="2"
     inkscape:zoom="1.4"
     inkscape:cx="244.05035"
     inkscape:cy="198.04937"
     inkscape:document-units="px"
     inkscape:current-layer="layer1"
     showgrid="false"
     inkscape:window-width="1855"
     inkscape:window-height="1176"
     inkscape:window-x="65"
     inkscape:window-y="24"
     inkscape:window-maximized="1" />
  <metadata
     id="metadata3232">
    <rdf:RDF>
      <cc:Work
         rdf:about="">
        <dc:format>image/svg+xml</dc:format>
        <dc:type
           rdf:resource="http://purl.org/dc/dcmitype/StillImage" />
        <dc:title></dc:title>
      </cc:Work>
    </rdf:RDF>
  </metadata>
  <g
     inkscape:label="Layer 1"
     inkscape:groupmode="layer"
     id="layer1"
     transform="translate(0,-632.36218)">
    <g
       id="g3215"
       transform="matrix(-0.34286658,0.13476305,0.13713558,0.33681631,238.7083,657.61817)">
      <path
         id="path3208"
         d="m 808.69111,781.084 -9.72126,4.71585 c -8.35348,4.96412 -16.26363,9.92925 -25.31727,13.47263 -6.50791,1.24805 -6.23388,9.47056 -4.63738,11.85854 4.56299,6.82513 20.02995,-0.27965 23.57692,7.12457 1.9543,4.07956 -1.16016,10.32886 -5.08202,12.58301 -4.18455,2.40512 -9.55729,-1.35666 -14.33038,-2.07264 -9.30764,-1.39619 -12.45774,-1.88684 -24.11244,-7.61833 -5.11841,-0.70236 -6.35018,-10.59808 -13.64526,-4.35487 -13.00676,3.87771 -4.02512,18.46083 -1.26847,26.95607 2.81548,8.78317 -12.01113,20.8362 -18.30874,11.20315 -9.39929,-3.05256 -4.51946,-17.40806 -10.86346,-23.8673 -6.48521,1.96114 -15.70884,3.31907 -23.4077,6.00884 -12.79629,-0.15625 -13.1536,13.31526 -16.52896,22.40247 -5.81754,9.0514 -5.36688,19.59519 -5.45605,29.98866 0.79499,5.34005 -4.20535,11.66831 -7.3604,12.42384 l -1.58625,-1.71183 0,8.8e-4 c -10.94972,-1.7638 -8.3769,-15.28691 -8.23217,-24.36977 -2.98849,-8.71385 2.3531,-17.27772 4.56673,-25.59453 3.2632,-5.93813 2.33524,-10.49685 -5.7136,-8.86304 -5.778,-0.36056 -11.56064,-0.64048 -17.34097,-0.96056 -3.46638,6.92214 -9.54554,11.99437 -15.41489,16.23922 -9.80294,5.96288 -21.20645,8.26579 -32.33181,10.14333 -9.39924,3.282 -20.5146,6.39778 -29.95476,1.75337 0.8901,-9.91502 12.78528,-11.84583 20.73476,-14.99873 7.2682,-4.92581 17.3841,-4.32003 25.60729,-8.35658 3.82732,-2.82456 16.90505,-8.6525 5.19659,-9.70354 -9.36037,-0.58956 -17.67904,-6.02995 -25.23043,-10.30702 -8.45846,-6.31389 -16.75349,-12.78819 -21.594,-22.32654 -4.59891,-8.17367 -9.95044,-17.58347 -20.22726,-11.09341 -7.9429,-0.4679 -16.37376,5.11169 -25.58648,6.13499 -9.89096,1.16496 -19.38766,4.10176 -29.32112,5.28495 -14.62377,4.71878 -30.42584,3.29789 -45.60393,3.47877 -15.10008,-0.48827 -29.77814,3.62691 -44.89002,2.87357 -11.05741,0.0928 -22.29737,-0.27757 -32.97816,2.77197 -9.68231,0.004 -19.3568,2.52662 -29.19097,1.96825 -8.98165,-0.42946 -15.94712,-0.98581 -25.11477,-1.36481 -13.95752,2.11805 -28.38025,0.41053 -42.49397,-0.42052 -21.39417,-2.55333 -43.09649,-2.08885 -64.51274,-4.7851 -12.58744,-1.52564 -24.85435,-5.06156 -37.59333,-5.61267 -13.11157,-1.30117 -25.05144,-7.59818 -38.10826,-9.12258 -10.51391,-3.52359 -20.884434,-7.58082 -31.235052,-11.17822 -9.499571,-3.02932 -16.487682,-10.4913 -26.25874,-12.87818 C 49.331938,765.32533 45.771632,758.02585 38.162084,754.2569 31.518542,749.01878 24.875,743.78066 18.231458,738.54254 c -5.189403,-3.5495 -10.3788067,-7.099 -15.56821,-10.6485 -5.4684167,-7.3829 -10.9368333,-14.7658 -16.40525,-22.1487 -2.328136,-1.99913 -4.656271,-3.99827 -6.984407,-5.9974 -5.511581,-6.29567 -11.023162,-12.59133 -16.534743,-18.887 -4.028473,-5.82023 -8.056947,-11.64047 -12.08542,-17.4607 -3.668561,-7.76263 -7.337122,-15.52525 -11.005683,-23.28788 -3.944883,-5.50971 -6.66598,-10.04745 -8.3214,-15.87291 -2.485957,-8.50009 -5.047051,-17.00328 -8.324442,-25.23069 -1.45629,-3.6558 -3.34455,-7.12438 -5.022891,-10.68371 -0.665439,-1.41123 -1.369364,-2.80479 -2.001124,-4.23141 -2.093552,-4.7276 -4.286668,-9.43095 -5.926022,-14.33459 -4.097411,-12.25618 -6.686898,-25.00228 -9.713786,-37.53222 -4.43472,-13.65119 -6.66487,-28.55817 -9.43854,-42.87873 -3.08394,-16.19267 -4.74263,-32.61524 -5.39613,-49.0531 -0.025,-7.02141 -1.34584,-14.67666 -1.03613,-23.47882 -0.006,-38.7292 5.37779,-77.19522 6.29373,-115.8989 0.14491,-11.44324 4.55776,-22.0916 6.15113,-33.35203 1.61455,-10.49566 -18.91,-8.58662 -15.21036,-21.55379 0.54922,-8.70006 5.97695,-15.79831 7.89458,-24.38575 2.46766,-10.96397 13.693736,-15.92992 21.825618,-21.90572 7.83315,-7.34958 17.937232,-8.94149 26.01986,-16.07597 3.616777,-9.16699 -8.514012,-18.56683 -12.04497,-27.5 -7.410734,-7.70167 -5.888545,-18.47711 -5.8492,-28.25666 1.097061,-6.76186 6.469381,-17.79101 12.068871,-25.12438 5.703579,-5.947434 11.395586,-12.054746 18.205929,-16.76051 -9.547492,-22.893029 -18.226136,-46.126644 -25.72239,-69.784078 -4.616503,-13.7428558 -11.236271,-26.749691 -15.604811,-40.558442 -0.141773,-10.333662 13.789753,-13.220422 21.132731,-9.59006 4.825229,5.2544 11.248036,14.848157 18.66036,19.57415 6.355155,7.8189047 15.200706,14.23292408 22.454836,21.6415799 15.046307,11.0673791 27.0114496,25.9583381 42.55797,36.4836741 6.999915,6.689781 13.916899,13.937285 18.650824,22.116426 3.94832,9.526332 9.247692,18.919923 14.46999,27.43301 6.843754,4.619655 21.507678,-3.813659 31.429744,-1.731 8.372878,-1.98611 22.965198,4.585621 26.457258,-5.189359 1.732,-14.868151 8.00724,-28.610762 13.40675,-42.382795 3.39308,-6.830906 5.17674,-16.111366 8.01487,-23.871935 2.86172,-9.163427 7.09866,-18.1182958 8.22341,-27.2496011 3.21973,-9.6660579 6.22417,-19.5697829 8.80374,-29.5247759 1.33057,-12.392643 14.20206,-12.230465 23.61131,-9.4607 5.47665,8.8483 3.95636,20.064854 6.68999,30.033868 3.47277,14.8090686 3.07017,30.052975 5.05014,45.038627 2.13894,13.420782 3.60962,27.265496 8.0934,40.281731 3.38939,12.673327 8.89015,24.99346 16.4209,35.72318 7.34084,7.02007 14.78078,14.51519 25.41141,17.48623 10.01885,4.70956 19.51954,9.81268 28.85568,15.73399 9.1414,5.66098 18.61767,10.02553 27.95661,15.24182 8.35051,5.14685 17.42122,10.25583 25.07479,16.91836 9.06708,5.90877 18.25242,11.19906 27.1646,17.41147 9.10898,7.54851 18.91587,14.3841 27.96892,21.8662 8.901,6.36664 17.6143,13.25786 26.45718,19.75342 5.80359,7.85662 15.02536,12.31895 21.36491,19.89701 5.97335,7.72617 14.11025,13.18794 19.50798,20.85179 7.76865,8.66648 12.5986,19.38914 17.67152,29.908 7.71188,16.35707 11.56799,34.17401 16.14997,51.53978 2.30586,8.04755 2.34712,19.27761 5.96492,25.12895 0.1684,6.54686 3.03757,17.39182 4.1571,25.60456 3.86567,17.79945 7.2059,35.70372 10.59555,53.5985 0.51876,10.23427 5.03508,19.66047 5.25027,30.10129 1.54238,17.35727 0.62795,35.15402 -5.61833,51.5748 -4.64286,9.55579 -3.16438,20.95976 -3.30201,31.37717 -0.088,11.25193 3.04461,16.58253 3.01935,26.85208 l 3.45533,14.56773 7.32103,13.8826 c 1.9439,9.35595 6.41659,18.25541 11.24498,25.60789 5.57638,9.26872 9.80964,19.42859 14.43273,28.73979 4.80664,9.05504 4.71197,20.54904 14.059,26.84378 6.67489,12.00056 17.46485,1.72154 26.12736,-0.67162 7.3352,-1.70549 9.72374,-4.99297 18.35269,-6.08961 10.00789,-2.30264 18.94508,-5.81633 29.02417,-8.2659 11.25974,-3.21721 23.05061,-4.59717 33.97054,-8.68091 11.15255,-2.19098 22.32802,-3.38489 33.44657,-5.83293 10.46453,-2.28577 20.28658,-6.73418 30.5392,-9.54619 12.42354,-1.54505 24.84489,-3.25889 36.99638,-6.23465 7.67229,-2.90451 17.88392,-3.27904 26.80082,-2.32971 4.24517,0.45196 8.45862,1.78871 12.23985,3.77064 6.49602,3.40488 4.92432,21.49337 17.29097,13.60682 9.82578,-1.58449 64.8684,-19.68304 74.8744,-20.39217 8.67111,-2.24023 16.90097,-4.0483 25.35724,-4.93082 13.67523,-0.0642 27.41664,-0.86467 41.05423,0.21375 11.27578,3.65399 10.19848,17.76998 4.71578,25.89767 -5.25329,9.31403 -14.6899,13.90685 -23.0335,19.71827 -8.40066,4.24941 -17.1809,8.32185 -24.95472,13.75125 -5.60615,3.20338 -16.55499,6.82754 -25.16694,9.19449 -6.91482,1.9005 -14.09818,2.63609 -21.14198,3.98207 -6.40016,1.22298 -12.84298,2.24862 -19.19072,3.71968 -8.60845,1.99498 -27.43727,-2.86628 -25.59133,6.91755 1.14316,6.05893 14.83793,22.11971 11.48555,28.00127 z"
         style="fill:#000000"
         inkscape:connector-curvature="0" />
      <path
         id="path3210"
         d="m 656.9698,819.87554 c 7.08027,-7.24833 14.89801,-4.15234 22.67762,-0.66789 10.77328,-1.86182 20.156,-5.49593 24.36746,-16.06421 5.89939,-3.52368 13.8803,-7.09382 20.6334,-1.61356 12.96489,0.422 16.11271,-15.55711 27.7609,-16.28323 12.11095,0.56712 23.128,-5.96341 32.43339,-12.93315 4.14058,-0.83838 15.84456,-9.04158 6.83124,-10.28667 l -7.25179,-23.01559 c -3.73833,-9.17553 -5.01103,-20.48994 -9.96041,-28.36678 -7.16881,5.81227 -15.55907,-12.60289 -4.41844,-15.86988 9.66814,-6.95136 2.49605,-21.05617 -9.09185,-16.58696 -10.12931,-0.57543 -19.68588,2.73385 -29.7292,3.05412 -9.5946,-0.12976 -11.78177,14.98486 -23.58002,11.83682 -10.25918,-6.90835 -21.80437,-0.41274 -32.39849,2.01012 -10.41558,2.39129 -21.29979,2.31077 -31.65496,4.62866 -9.00075,1.87659 -18.35016,3.95782 -27.43004,6.12951 -8.69158,4.31608 -12.26437,14.81159 -19.96661,20.50209 -6.52093,9.05729 -9.01511,20.71762 -15.1503,29.54111 -2.03585,10.04532 -15.42165,14.70805 -16.41179,24.34457 5.64277,9.8168 11.69992,18.8296 21.12234,25.71198 7.98145,4.65791 18.5061,15.27914 27.26829,8.87704 7.10847,-6.68155 22.36734,-6.91165 20.33519,6.12187 6.37744,2.49592 17.79179,2.94842 23.61407,-1.06997 z"
         style="fill:#ff6600"
         inkscape:connector-curvature="0" />
      <path
         id="path3206"
         d="m -56.627717,590.82983 c 4.09172,9.56033 7.532882,18.88223 11.582304,28.30877 4.800594,8.66964 7.523358,17.2693 12.951271,25.32867 4.843351,8.35393 9.453338,17.08362 15.33524,24.88211 8.5226968,11.8013 17.63472393,23.18117 28.064336,33.37701 l 15.895116,13.60284 18.221428,10.3548 21.554202,18.96742 c 12.201126,9.10441 27.027351,13.46897 41.00506,19.08423 9.31763,2.5898 18.68567,6.63838 28.26217,8.65925 12.24549,4.68542 25.70214,6.11514 38.58049,9.07506 14.51882,2.40413 29.10129,4.19336 43.80433,5.13623 17.74221,3.16873 35.90828,2.7284 53.84805,4.2061 8.75133,-0.0928 17.81568,2.15486 26.30942,0.52962 9.6261,0.76561 19.87357,2.01045 29.30934,-0.0635 9.27412,1.83219 19.44844,-0.33995 29.16665,-0.4553 13.55289,-0.49228 27.1007,-1.54307 40.59635,-1.95417 12.94753,-1.49807 26.19291,-0.93956 39.00339,-3.68038 13.64247,-1.40723 27.70343,0.97492 40.91367,-3.60436 10.60243,1.01147 20.5721,-3.03321 30.65109,-5.05603 11.03533,-0.78587 21.39955,-5.56886 31.42654,-9.71839 4.50548,-5.80519 21.14446,-5.08908 10.42109,-14.19329 l -16.12047,-16.63258 -11.50927,-10.55313 -11.70457,-13.34017 c -5.51993,-7.21124 -7.98929,-15.8105 -11.60171,-23.6747 -4.69181,-9.17274 -9.28906,-18.21958 -14.19269,-27.16955 -2.69425,-7.30774 -7.81716,-18.63898 -10.94064,-27.73877 -5.7133,-9.13884 -7.15314,-20.377 -9.51937,-30.77333 -5.43077,-26.68534 -4.363,-54.62438 2.94275,-80.84051 2.84954,-11.60517 2.32429,-23.43086 0.4545,-35.1643 -2.71393,-18.05983 -7.00155,-35.93228 -8.8926,-54.08453 -5.07778,-22.50429 -8.71478,-45.32793 -13.53327,-67.88454 -2.06692,-18.68612 -8.43459,-36.44513 -14.90286,-53.96522 -7.17406,-15.92149 -15.44464,-31.63367 -28.08202,-43.92435 -6.79125,-8.66837 -15.24088,-15.21851 -22.92293,-22.73953 -9.60258,-6.75624 -17.55356,-15.57177 -27.39998,-21.93323 -6.70449,-4.55172 -14.13134,-11.66609 -20.57646,-14.31083 -5.5009,-7.94112 -15.77028,-11.32142 -22.9359,-17.87971 -9.26144,-6.16206 -18.55967,-12.04508 -27.21437,-18.93308 -8.80984,-4.40929 -15.76449,-9.28038 -23.95571,-13.97533 -10.05193,-4.48858 -18.50395,-11.9077 -28.88437,-15.5952 -8.1384,-3.92345 -14.65134,-8.83569 -23.45691,-10.51516 -8.26724,1.41704 -16.65497,3.64258 -21.62234,-5.7279 -8.20813,-8.90206 -21.09287,-10.57888 -32.42359,-12.8542 -8.30214,0.0944 -21.32076,-6.8975 -25.70141,2.47089 -8.81267,7.71023 -21.21524,3.2805 -31.070532,0.32 -5.439787,-4.48504 11.214622,-8.43714 0.483631,-8.67913 -11.512044,-1.04407 -23.081308,-0.59834 -34.225024,2.59248 -11.031527,2.48572 -20.976011,7.66706 -31.030437,12.43629 -6.836863,4.64241 -14.886765,6.04643 -17.910048,12.54341 6.246617,9.71696 -4.3646272,19.53068 -14.368922,17.98914 -11.837115,-1.73488 -13.755442,13.47606 -21.241239,19.43044 -7.960808,8.44701 -5.421404,16.65799 -3.17162,26.73024 -0.308015,9.20947 -5.811713,18.55807 -5.581702,28.53444 -4.518483,6.48505 -10.082266,11.95613 -15.813159,17.5011 -7.527079,6.54763 -16.109082,11.52819 -25.117655,14.58269 -8.201279,3.995 -6.529333,15.71421 -9.253909,23.50644 -2.164545,13.19814 -3.398237,26.56685 -4.033642,39.979 -1.857185,22.23385 -4.024533,44.47655 -4.990046,66.76545 0.04677,19.79489 -0.777888,39.77016 2.213307,59.37357 -0.328158,10.30733 1.857689,20.40156 4.220755,30.24489 -0.03668,8.77952 2.990371,14.69776 4.849268,24.4544 5.421684,19.97214 8.480252,40.55657 15.328644,60.15238"
         style="fill:#ff6600"
         inkscape:connector-curvature="0" />
      <path
         id="path3204"
         d="m 122.18094,527.35984 c -10.99921,-3.85648 -22.526326,-6.43819 -33.142141,-11.22592 -8.078586,-5.43148 -15.823484,-10.56244 -24.241867,-15.72703 -7.44126,-6.72848 -14.329306,-14.71366 -24.208922,-17.46195 -6.545503,-8.24143 8.806669,-8.96222 10.458987,-15.87792 10.169225,-8.60771 18.845517,2.22171 26.374974,8.28206 7.039112,7.91168 17.17858,12.21528 24.897359,19.25523 9.02245,3.93185 19.00647,7.77043 29.01452,9.09236 10.18093,-1.43368 25.1518,4.07716 32.29669,-4.52808 -1.47998,-11.80952 -0.85007,-23.87026 -3.79773,-35.52367 -1.84969,-15.37312 -4.55191,-30.6029 -7.5539,-45.79375 -1.44293,-9.49239 -5.85037,-18.2823 -8.99845,-27.34865 -0.79072,-11.85306 -8.91032,-16.37864 -18.18627,-21.48816 -4.27729,-8.24906 7.22055,-16.00622 14.2543,-18.19476 8.7641,-4.80898 10.16081,8.45384 18.07349,6.6261 7.20558,7.48366 7.95876,18.53486 12,27.69922 3.76068,9.62073 5.56853,20.12148 7.19877,30.53125 3.80495,16.04863 5.45017,32.46383 7.88455,48.76807 1.14347,9.73725 0.62696,23.48085 4.99593,30.68542 9.05168,-3.19891 18.11091,-6.26952 26.46242,-11.20547 8.58284,-3.41639 15.80859,-9.2748 24.70919,-12.15127 9.03875,-5.79152 19.08851,-10.85306 27.31493,-17.00925 9.2739,-7.15498 19.05656,-13.49037 28.0576,-21.08079 8.04312,-5.7456 12.53515,-16.34651 23.68392,-16.31758 12.61499,1.67952 4.86554,18.51685 -2.32875,22.66977 -6.99036,4.32767 -11.73671,9.26001 -17.77851,15.10985 -9.32096,5.44258 -18.00887,12.29415 -26.07622,19.60204 -8.63267,4.39589 -16.5306,10.70494 -25.37383,14.86474 -7.50411,5.5222 -17.16904,8.20697 -25.13433,13.53479 -5.20386,1.50168 -21.01714,9.24404 -18.86567,9.97639 l -7.29184,0.51222 c -7.35488,5.07852 -16.63578,6.98536 -25.25925,9.69892 -9.03431,3.74363 -18.22183,5.19567 -28.09814,4.48205 -7.10845,0.059 -14.27442,0.48428 -21.34181,-0.45623 z"
         style="fill:#000000"
         inkscape:connector-curvature="0" />
      <path
         id="path3202"
         d="m 74.421978,301.87232 c -13.1389,-5.02878 -4.359552,-17.82012 3.941339,-23.14865 6.199027,-5.15142 10.898916,4.15703 18.018064,0.5737 12.693009,1.17936 8.727959,15.53677 -1.690941,17.05383 -6.033487,2.10274 -14.101105,7.79826 -20.268462,5.52112 z"
         style="fill:#000000"
         inkscape:connector-curvature="0" />
      <path
         id="path3200"
         d="m 166.51266,264.72212 c -12.84567,0.30694 -9.0139,-12.51542 -0.36212,-16.44218 6.49452,-7.36051 23.45858,-5.64734 17.73663,7.13149 -4.59297,4.46539 -9.49768,13.00414 -17.37451,9.31069 z"
         style="fill:#000000"
         inkscape:connector-curvature="0" />
      <path
         id="path3198"
         d="m 569.85753,732.14494 c 1.99622,-3.47625 8.65028,-11.5859 7.10076,-12.59754 -7.32662,2.39383 -25.73811,4.0315 -12.48792,13.10319 2.67597,3.26998 3.98951,4.05459 5.38716,-0.50565 z"
         style="fill:#000000"
         inkscape:connector-curvature="0" />
      <path
         id="path3196"
         d="m 832.65435,707.90034 c 8.28398,0.51831 16.60282,-1.0986 24.76767,-2.3056 11.63612,-1.1717 22.64686,-4.58837 33.37492,-8.72823 8.39512,-3.2396 16.95138,-6.81011 23.93519,-12.48456 5.66144,-4.60001 17.3483,-10.50445 13.87795,-16.92073 -8.19171,-15.14549 -41.63001,3.66102 -51.35716,5.55449 -14.47806,0.3657 -27.77672,6.77553 -41.7363,9.67257 l -25.8635,10.91661 c -3.57702,1.89284 -7.15406,3.78564 -10.7311,5.67845 0.22038,5.08586 -2.40025,16.1076 6.33478,12.39155 l 1.75878,-0.31692 1.66704,-0.29223 4e-4,0 9.75771,-1.71458 z"
         style="fill:#ff6600"
         inkscape:connector-curvature="0" />
      <path
         id="path3194"
         d="m -54.707454,211.62101 c -4.679026,-8.21046 -20.333843,-0.82668 -27.945568,4.77391 -6.102162,4.48988 -14.004513,13.63052 -10.31969,20.25 2.584381,4.64262 10.973482,3.35893 15.88475,1.33102 10.652786,-4.39865 28.086952,-16.34162 22.380508,-26.35493 z"
         style="fill:#c83737"
         inkscape:connector-curvature="0" />
      <path
         id="path3192"
         d="m -42.578022,159.22969 c 5.025959,-7.19922 12.316819,-13.27842 14.912315,-22.10872 4.177963,-10.53028 -5.930956,-18.4459 -10.912315,-26.05938 -7.636792,-9.66543 -15.806377,5.74273 -18,13.18783 -6.068512,9.17859 0.537411,21.20167 5.298812,29.72485 1.372339,2.21787 6.097685,9.85772 8.701188,5.25542 z"
         style="fill:#c83737"
         inkscape:connector-curvature="0" />
      <path
         id="path3190"
         d="M 3.396538,115.67036 C 8.9364464,110.72199 25.684356,108.16377 19.171978,98.06159 16.076825,88.37005 11.002968,79.066285 5.0546461,70.728823 -0.94085912,62.584974 -9.5599534,54.872696 -16.420163,49.191209 -23.707277,43.71402 -29.296912,37.359021 -36.552174,32.551555 -40.662325,28.325966 -53.188195,17.126773 -47.221962,29.76053 c 7.014806,18.962741 13.695187,38.117363 22.373503,56.396289 2.769107,10.888286 16.3085288,11.254233 20.2917365,21.536521 1.4216794,3.14557 2.4125612,14.24129 7.9532605,7.97702 z"
         style="fill:#aa4400"
         inkscape:connector-curvature="0" />
      <path
         id="path3188"
         d="m 168.42198,98.4625 c -2.90207,-8.632995 -5.61231,-17.065355 -7.94207,-26.025896 -2.74284,-14.925339 -6.06687,-29.781997 -7.2014,-44.959095 -0.43824,-6.293267 -3.32264,-11.50932 -4.52814,-2.422223 -3.73868,10.348365 -8.02846,20.570215 -10.71003,31.255144 -6.24608,9.35249 -7.4543,21.299851 -8.80015,32.27461 -0.54844,10.829359 16.22951,6.782653 23.27925,8.914836 5.24669,-0.888655 11.56865,2.12944 15.90254,0.962624 z"
         style="fill:#aa4400"
         inkscape:connector-curvature="0" />
      <path
         id="path3052"
         d="m 459.42198,320.64492 c 3.68219,-4.02435 3.83641,3.91193 0,0 z"
         style="fill:#000000"
         inkscape:connector-curvature="0" />
    </g>
    <g
       transform="matrix(-0.2555539,0,0,0.2555539,428.16721,849.20929)"
       id="g3549">
      <path
         inkscape:connector-curvature="0"
         id="path3539"
         d="m 273.90851,787.76519 c -0.31574,-3.82289 4.24779,2.83531 0,0 z"
         style="fill:#000000" />
      <path
         inkscape:connector-curvature="0"
         id="path3537"
         d="m 333.29054,788.18871 c -8.48649,-0.13986 -16.99167,-0.8083 -25.40918,-1.08828 -11.05075,-0.0874 -22.06531,-1.38087 -33.13399,-1.17821 -16.79252,0.1103 -33.56438,-0.68882 -50.34193,-1.16077 -13.28308,0.4616 -26.4791,-1.7816 -39.71482,-2.60985 -6.93179,-0.98174 -13.93158,-1.07534 -20.89574,-1.96013 -11.77055,0.42528 -23.22258,-2.95455 -34.95401,-3.05309 -11.68532,-2.06693 -23.70688,-2.02383 -35.232192,-5.12611 -7.09993,-1.86485 -14.56766,-3.2549 -20.54656,-7.79349 -5.49687,-3.47452 -10.21013,-8.00117 -15.089047,-12.20641 -8.035894,-2.38123 -3.377265,-14.1774 3.843617,-11.05325 2.2422,1.71137 8.34396,11.49839 8.61336,4.41057 -0.91669,-7.74665 0.14357,-15.55718 0.0921,-23.28832 1.15981,-2.52506 0.32138,-10.66226 -2.3927,-4.48221 -4.32256,7.36533 -8.971641,14.76042 -15.063291,20.79377 -4.421851,5.14749 -9.733207,0.008 -7.137913,-5.41787 0.307204,-5.6545 -2.665185,6.30675 -0.851112,8.89114 0.608914,7.32096 2.100962,15.44178 -1.715725,22.15143 -5.349165,2.8591 -3.772221,-5.52776 -2.580572,-8.18137 -0.110197,-8.84003 -4.146152,-18.05122 0.01169,-26.60041 4.245178,-5.85358 9.141396,-11.7923 8.889528,-19.59008 1.881469,-7.69942 3.172836,-15.64139 5.164118,-23.30781 2.5037,-9.4167 5.600106,-18.64592 8.422776,-27.98788 3.30165,-10.57366 6.82221,-21.06834 10.90505,-31.36123 1.96317,-7.71776 5.90954,-14.79013 8.63676,-22.27921 6.05097,-14.62523 9.72233,-30.20792 17.226713,-44.24152 6.10263,-12.22008 12.28224,-24.46051 19.69993,-35.93799 1.70326,-5.79563 5.1917,-10.50133 8.16359,-15.66622 2.6182,-6.25279 6.77474,-11.85208 10.22717,-17.49739 2.17601,-4.56375 4.64248,-9.11284 7.80152,-12.94928 4.34135,-6.70045 8.17678,-13.75646 13.0575,-20.11412 2.46654,-4.76778 6.70613,-7.51217 8.64363,-12.51275 3.75974,-4.45031 6.69385,-9.51161 10.39139,-14.09984 3.81438,-4.26766 6.71826,-8.85333 10.37616,-13.35056 3.71444,-3.66126 5.266,-8.55758 7.9887,-12.94861 5.95697,-10.35956 13.15759,-20.56606 23.77259,-26.57353 6.8049,-3.92321 9.21761,-11.99184 14.34636,-17.57583 3.80534,-4.55311 6.51719,-9.94286 10.57776,-14.24917 3.9786,-2.19437 9.14329,2.26133 11.48861,-3.75211 6.82527,-7.48979 13.67421,-14.92089 21.11494,-21.82297 4.59428,-3.56344 7.89346,-10.11018 14.05969,-10.82916 3.61323,0.48625 4.34686,6.22094 7.75984,1.65825 5.49646,-4.80431 11.41112,-9.11858 17.18952,-13.59235 5.90769,-4.85952 12.1265,-9.30003 18.38365,-13.68105 4.3593,-2.58347 8.15789,-6.88834 13.25695,-7.75731 6.19426,2.73726 3.31135,10.06427 -1.8044,12.4094 -2.19043,0.19517 -9.61819,4.00056 -5.1155,6.72665 6.72918,2.72488 -0.0133,9.69421 -2.66079,10.9405 -3.36113,2.68452 -4.92829,5.58281 -9.33044,7.86551 -6.02659,4.13234 -7.78799,11.59909 -14.04839,15.62129 -2.57511,3.01599 -10.89209,7.38475 -3.37888,9.30883 7.03252,2.59945 13.28957,6.75088 20.14936,9.73535 4.74766,2.89026 9.70051,5.43786 14.64383,7.89237 6.03511,2.89389 12.30737,5.25784 18.15018,8.56123 7.05149,2.73115 13.5037,6.83116 20.73998,9.06693 14.76241,6.28372 29.246,13.17048 43.3627,20.79752 6.69736,2.76866 12.56597,7.0138 19.36821,9.64467 7.53723,4.87698 15.51201,8.99361 23.70857,12.63962 6.1045,3.56348 12.17869,7.15197 18.70229,9.92476 11.81905,5.67182 22.66588,13.12487 34.28862,19.12582 6.88356,4.77856 14.68976,8.01523 21.22764,13.324 6.03619,3.81404 11.20555,8.78938 17.52097,12.15856 6.80317,3.98426 13.27124,8.45153 19.4939,13.28813 6.81468,5.03589 13.52499,10.18843 20.72529,14.67454 9.91569,7.785 18.87221,17.09306 30.27634,22.76011 6.25246,3.10868 11.77178,7.33121 17.54286,11.16889 6.64066,5.74881 12.82149,12.00192 19.74021,17.43461 6.66622,5.7846 13.11934,11.74715 19.86055,17.43379 7.45414,6.90365 14.1991,14.61789 20.6701,22.45499 2.49571,5.01698 5.7871,9.74598 7.30759,15.08495 2.81962,5.03206 4.21435,10.38366 6.84642,15.4183 2.15486,5.95785 5.13538,12.73003 0.83586,18.5735 -3.48638,6.66109 -8.62109,12.14212 -14.32729,16.95188 -9.38838,8.47006 -19.55934,16.02663 -29.93147,23.2402 -7.4807,5.98462 -15.51802,11.22499 -23.11002,17.06488 -13.93908,9.47197 -28.74767,17.55717 -43.41231,25.78086 -12.85322,6.56334 -25.243,14.06425 -38.50571,19.81295 -20.37642,9.23875 -42.30648,14.10508 -63.88466,19.60753 -11.47702,2.63382 -22.98127,5.11834 -34.52576,7.42625 -5.91604,0.99952 -11.45757,3.11087 -17.47339,3.77104 -6.97292,2.17381 -14.40544,2.71766 -21.41803,4.7997 -7.50942,0.20466 -14.81343,2.18616 -22.3089,2.10016 -9.90159,-0.38628 -19.65355,2.12797 -29.57909,1.66211 -15.48889,1.22639 -31.03814,2.27208 -46.38389,4.79719 -2.99873,0.18654 -6.01716,0.24716 -9.00896,-0.0768 z"
         style="fill:#aa4400" />
      <path
         inkscape:connector-curvature="0"
         id="path3535"
         d="m 350.60284,779.48446 c 8.70334,-1.77333 17.67881,-1.75371 26.50188,-2.6947 11.73146,-0.96679 23.49924,-1.3225 35.18443,-2.6759 9.26171,-0.22362 18.521,-0.64356 27.66239,-2.19327 12.94348,-2.21773 25.78601,-5.05721 38.61611,-7.87032 14.22741,-2.69286 28.27721,-6.19919 42.49586,-8.96729 5.42153,-1.95194 11.13182,-2.32703 16.52931,-4.49599 7.67651,-1.49494 15.04841,-4.10404 22.46289,-6.49554 6.77961,-1.71154 13.15165,-4.70735 19.67041,-7.21333 7.13057,-3.6786 14.64617,-6.56409 21.54737,-10.69878 12.16766,-6.43411 24.29442,-12.8627 36.39628,-19.41624 5.22673,-3.53463 11.07739,-6.21515 16.04551,-10.04185 6.17639,-3.22777 11.46032,-7.9232 17.23198,-11.80431 11.66999,-8.45337 23.84952,-16.31975 34.854,-25.62898 4.92537,-4.31444 9.78536,-8.72235 13.01263,-14.51119 4.29777,-5.58426 2.3733,-12.42463 -0.37484,-18.13559 -5.19374,-12.10277 -8.89739,-25.45333 -18.75064,-34.7986 -4.33225,-5.49805 -9.05571,-10.61653 -14.11134,-15.4264 -10.431,-8.7842 -20.41416,-18.07352 -30.7751,-26.94066 -5.16794,-5.43152 -11.41907,-9.76605 -17.82167,-13.58103 -6.45045,-5.27997 -15.10177,-7.1832 -20.75468,-13.55496 -6.60435,-4.86316 -12.78625,-10.27798 -19.19562,-15.39167 -6.50657,-3.54565 -11.75726,-8.85732 -18.07828,-12.71433 -6.12847,-5.2887 -13.05596,-9.45442 -19.90004,-13.73039 -6.12162,-4.02455 -11.47652,-9.11626 -17.92322,-12.64698 -8.23405,-5.57911 -16.62166,-10.97003 -25.47121,-15.52855 -9.68908,-6.00391 -19.43611,-11.97128 -29.73433,-16.92253 -8.80437,-4.29016 -17.32759,-9.1238 -26.00371,-13.62892 -7.77153,-3.66885 -15.22459,-7.96478 -22.93659,-11.68936 -7.16489,-4.25609 -15.03797,-7.1736 -22.28026,-11.32735 -8.07357,-4.04958 -15.94205,-8.45274 -24.39788,-11.6917 -12.08416,-5.37163 -24.36556,-10.40653 -36.20206,-16.29779 -7.42333,-2.58247 -13.98401,-7.03311 -21.14623,-10.22159 -10.88625,-5.13115 -20.831,-14.04752 -33.49531,-13.94457 -2.9322,4.24529 -9.88656,7.31367 -7.38567,13.55103 -2.64419,0.87753 2.07363,3.30896 3.24243,-0.33692 3.27666,-3.89493 5.73954,-13.73144 12.18728,-8.15306 1.85628,7.0504 -6.68902,11.11543 -10.03846,16.26605 -8.67117,7.89363 -18.15404,15.18495 -24.51824,25.22036 -5.36547,7.71394 -11.22937,15.21624 -16.45878,22.89305 5.52098,-0.79558 10.80678,5.5053 5.6275,10.10036 -3.14881,1.83862 -2.84465,6.17794 0.54506,2.4593 6.23616,-4.91295 13.04728,-9.11918 20.21221,-12.5291 6.4198,-4.06544 13.51386,4.98029 5.26164,7.94431 -6.0103,2.10258 -5.80134,9.53023 -10.42692,12.60218 -7.41413,6.57713 -14.17581,13.77755 -21.34726,20.6005 -4.39703,5.5159 -10.27638,9.57853 -15.25565,14.5359 -7.78299,7.41326 -15.86855,14.6169 -22.40033,23.1917 -5.31693,7.19958 -8.09451,15.84495 -12.28021,23.70268 -2.8809,5.58122 -5.59402,11.20705 -8.24647,16.88359 -3.34264,6.27732 -6.19119,12.76244 -9.7369,18.94013 -2.69062,5.68819 -5.35437,11.41544 -8.45515,16.90229 -3.11243,5.05991 -5.1246,11.47181 -8.50324,16.82431 -3.42393,6.87901 -6.31402,14.00155 -10.17412,20.66032 -3.49584,7.38157 -4.38086,15.62555 -7.32345,23.208 -1.46698,6.63606 -2.4004,13.39595 -4.88982,19.76099 -1.09057,5.2556 -2.44344,10.53301 -3.58639,15.90769 -1.68316,5.02392 -2.33773,10.10238 -3.88329,15.18972 -2.17837,10.41691 -5.48603,20.55662 -8.63861,30.70531 -2.75615,5.27438 -3.02278,13.02115 -8.96429,15.86472 -7.13762,-0.35805 -5.04197,10.14208 -7.45383,14.82922 -2.04069,4.33066 -0.98277,13.8843 -8.41137,12.09168 -2.66816,-4.63687 0.99078,-11.37899 0.1865,-16.90934 0.3017,-6.42381 0.83196,-12.75193 1.36432,-19.15852 -0.11975,-8.1064 -4.56536,4.58472 -7.04644,6.7806 -5.308082,7.38224 -9.838642,15.71082 -17.675012,20.77472 -2.11351,3.41207 -13.29874,4.9404 -5.66587,8.43421 8.09188,6.27409 18.51439,7.36237 28.204072,9.38387 16.32858,2.22583 32.79313,3.08825 49.11291,5.39098 19.64867,1.04653 39.28483,2.48753 58.83779,4.74468 5.94739,0.2454 11.90546,0.36097 17.85532,0.416 12.50434,-0.14145 25.07353,1.28125 37.61366,0.58568 15.3829,0.34787 30.76624,0.82233 46.0949,2.12371 10.21013,0.0752 20.39254,0.95727 30.57761,1.21612 1.02198,-0.0943 2.03737,-0.31763 2.98453,-0.71836 z"
         style="fill:#ff7f2a" />
      <path
         inkscape:connector-curvature="0"
         id="path3533"
         d="m 264.78743,751.63836 c -8.69876,-0.12108 -11.74994,-10.86579 -9.68156,-17.94359 2.08629,-11.15855 8.08288,-21.87779 17.07463,-28.89743 4.9594,-3.5997 12.57473,-5.28347 16.93288,0.23122 6.45608,7.87834 6.52086,18.99604 4.14386,28.44084 -1.31902,6.47684 -4.9025,13.93207 -11.70691,15.8567 -2.68953,-5.24902 5.30826,-11.20923 5.11829,-17.36425 0.99527,-7.08769 1.16101,-16.44201 -5.4246,-20.92585 -6.49636,-2.28723 -11.32755,4.62136 -14.21009,9.44169 -2.92968,5.35503 -5.47693,11.52783 -4.84811,17.72118 0.16944,6.08472 11.42478,2.2427 7.99749,9.44425 -1.14071,1.97983 -3.13547,3.547 -5.39588,3.99524 z"
         style="fill:#aa4400" />
      <path
         inkscape:connector-curvature="0"
         id="path3531"
         d="m 340.86592,741.15527 c -6.89994,-1.37462 -13.88046,-5.17629 -17.20367,-11.56838 -2.23218,-6.32486 -0.76638,-13.37583 2.76382,-18.95074 1.27258,-6.13766 5.77159,-11.70902 5.9492,-17.94336 -4.59512,-4.18529 -7.98422,-9.51717 -10.55875,-15.19651 -3.43178,-5.76819 -4.52456,-12.66777 -3.22444,-18.93789 1.45745,-7.02912 6.49505,-13.16066 11.75776,-18.04294 5.02532,-4.66209 11.4868,-7.83561 18.02158,-9.90568 6.67841,-2.11553 14.56485,-7.75546 20.88703,-2.32739 7.34334,5.35081 7.7054,15.4226 7.65347,23.70184 -0.4712,6.63184 -0.92746,13.47055 -3.26619,19.69861 0.64347,7.27171 10.842,2.00041 15.22042,6.3652 6.09072,2.53647 10.18425,7.95395 12.17952,14.1159 2.3586,7.63445 2.06786,16.37135 -0.79284,23.89126 -2.47976,4.86712 -6.85719,8.76573 -11.4387,11.61984 -10.38331,6.88741 -22.82161,9.39506 -34.61719,12.7116 -4.40231,0.70451 -8.87652,0.98065 -13.33102,0.76864 z"
         style="fill:#aa4400" />
      <path
         inkscape:connector-curvature="0"
         id="path3529"
         d="m 355.14294,731.71661 c 12.48013,-3.4569 26.08703,-5.91687 36.11663,-14.69609 5.20602,-5.7546 4.51446,-14.80946 1.61502,-21.5049 -2.45113,-5.8583 -8.2101,-9.28083 -14.24002,-10.42608 -5.11459,-1.85067 -10.22909,-1.50944 -12.32691,4.14297 -4.18479,5.50676 -11.01643,8.0394 -17.77976,7.69661 -5.16452,-0.94078 -12.13786,-1.2494 -12.01745,5.94097 5.54579,3.7879 -8.37225,12.4984 -6.69745,19.00217 2.42532,8.16128 11.86948,11.03108 19.57105,10.39112 1.92882,-0.0551 3.85478,-0.2323 5.75889,-0.54677 z"
         style="fill:#ff7f2a" />
      <path
         inkscape:connector-curvature="0"
         id="path3527"
         d="m 355.01926,689.31793 c 3.55302,0.83529 10.7443,-7.07829 3.32447,-5.07861 -2.77009,1.29815 -11.85436,2.35968 -10.04479,5.18599 2.23058,0.24576 4.50586,0.31632 6.72032,-0.10738 z"
         style="fill:#ff7f2a;fill-opacity:1" />
      <path
         inkscape:connector-curvature="0"
         id="path3525"
         d="m 340.07315,685.29388 c 6.5277,-5.14189 14.24997,-9.64102 22.78287,-9.55784 6.8789,-0.52712 5.74385,-9.48982 7.14009,-14.50254 1.76623,-8.6124 1.09237,-18.75534 -5.07316,-25.51324 -5.45227,-4.64336 -12.01044,0.57781 -17.40459,2.92549 -7.33415,3.19199 -15.46524,7.45066 -19.03771,14.60719 -3.03405,6.07799 -2.33665,13.97573 -0.19682,20.37861 2.06492,5.11188 5.50479,9.89742 10.12754,12.91071 0.75287,-0.12853 1.06082,-0.88283 1.66178,-1.24838 z"
         style="fill:#ff7f2a" />
      <path
         inkscape:connector-curvature="0"
         id="path3523"
         d="m 203.44818,726.46625 c -6.56087,-1.65693 -10.91658,-7.42693 -15.5253,-11.9599 -6.91621,-8.49931 -12.01395,-20.0081 -8.29817,-30.9828 1.16911,-3.42186 4.38259,-11.56651 8.23308,-9.18226 0.10841,5.66286 -4.22571,10.71882 -2.64254,16.5689 1.70118,10.15279 8.19101,19.05697 16.12526,25.33995 6.99659,5.7242 12.39368,-4.34398 12.11498,-10.55264 0.86773,-8.08328 -1.62857,-16.0271 -5.6476,-22.97087 -0.92857,-2.59467 -10.24906,-11.01676 -7.11551,-3.81763 2.44291,5.14284 5.93661,10.0702 5.09263,16.03163 1.28846,3.56352 -2.07536,10.3833 -4.28152,3.99681 -1.87356,-6.58237 -5.92915,-12.08899 -8.16372,-18.50753 -1.75706,-4.87631 -3.82861,-16.10141 4.48029,-15.16631 10.38351,2.47996 17.77231,12.05851 19.91941,22.22834 3.18291,9.46243 3.45769,20.23641 -1.35031,29.22294 -2.12559,5.12104 -6.67466,10.94328 -12.94098,9.75137 z"
         style="fill:#aa4400" />
      <path
         inkscape:connector-curvature="0"
         id="path3521"
         d="m 401.12659,717.62199 c 0.13753,-1.3892 1.00353,1.33358 0,0 z"
         style="fill:#000000" />
      <path
         inkscape:connector-curvature="0"
         id="path3519"
         d="m 453.54618,717.63969 c -1.18424,-6.34941 -2.49405,-12.61883 -5.06967,-18.48938 -0.77206,-8.52685 -0.26511,-17.94897 4.6534,-25.26817 4.63395,-6.02399 10.67457,-11.23711 18.04154,-13.48023 5.4253,-2.89883 11.99774,-2.41645 17.65985,-1.12652 8.05928,4.17578 13.3189,12.62777 14.01331,21.62527 1.31449,7.59729 -1.4703,14.97523 -5.44032,21.3287 -3.90848,3.33292 -6.84876,9.03634 -12.86767,8.39415 -6.81051,-0.58024 -12.80245,2.53657 -18.89225,5.02959 -3.85488,1.39733 -7.96835,2.43851 -12.09819,1.98659 z"
         style="fill:#aa4400" />
      <path
         inkscape:connector-curvature="0"
         id="path3517"
         d="m 467.54939,708.93464 c 6.33922,-2.56343 12.78574,-5.79818 19.6532,-6.20531 5.65985,-1.96221 6.21013,-9.17387 6.58097,-14.2592 -0.39472,-5.47492 -2.50782,-11.4151 -5.92648,-15.93497 -2.20295,-2.91256 -5.18973,-6.52983 -8.84111,-6.46984 -8.74451,0.14366 -19.35144,6.49697 -20.65274,16.18144 -1.35231,5.81869 -0.68997,12.07181 1.25204,17.63622 1.25846,3.60597 2.90562,8.09607 6.476,9.45213 0.20483,0.0778 0.63779,-0.1589 0.63779,-0.1589 z"
         style="fill:#ff7f2a" />
      <path
         inkscape:connector-curvature="0"
         id="path3515"
         d="m 559.16968,698.00027 c -6.97792,-2.11233 -13.91371,-4.4151 -20.0193,-8.80951 -8.29091,-4.90191 -15.65805,-14.13312 -14.25638,-24.224 2.19193,-9.17523 9.28208,-15.95322 16.11748,-21.95242 8.1579,-6.45681 18.51983,-9.19435 28.66065,-10.59592 7.98321,-1.26181 17.08653,-2.87434 24.24249,0.89146 6.84324,3.60129 10.4446,11.6734 13.83011,18.62596 2.71958,5.58479 5.02089,11.76089 4.92771,17.97194 -0.0676,4.52031 -2.06334,8.87047 -3.97713,12.96625 -1.41995,3.03903 -3.0864,6.0925 -5.48624,8.4362 -4.04009,3.94558 -9.13221,6.90921 -14.41672,8.89748 -6.49529,1.03069 -13.26664,1.38741 -19.64285,-0.45997 -3.67936,-0.0446 -6.74745,-0.76899 -9.97982,-1.74747 z"
         style="fill:#803300" />
      <path
         inkscape:connector-curvature="0"
         id="path3513"
         d="m 568.76213,693.2235 c 2.81009,2.98522 10.30098,1.94574 14.37496,2.31648 6.0645,-2.22232 9.22038,-9.64517 11.9251,-14.64417 l 8.12803,-10.03723 c 1.02196,-6.6709 -1.90196,-13.87373 -5.89945,-17.83111 l -9.20209,-12.89101 c -3.87291,-5.67044 -12.66141,-3.1695 -18.35258,-2.36511 -8.7577,1.39971 -17.71755,4.02927 -23.96049,10.72659 -5.70186,5.62918 -11.09166,13.06387 -11.7505,21.08205 -0.15351,1.86825 0.89113,3.71286 1.89934,5.2932 1.08605,1.70236 2.73536,2.99247 4.30846,4.25852 4.12158,3.31709 8.34619,6.89331 13.31289,8.64185 1.94869,0.75663 3.72804,2.16879 5.88348,2.32029"
         style="fill:#ff7f2a" />
      <path
         inkscape:connector-curvature="0"
         id="path3511"
         d="m 269.09888,694.12821 c -8.22917,-1.84192 -17.41428,-4.59246 -21.71431,-12.55376 -2.29405,-4.97974 -3.71105,-11.27223 -0.88982,-16.35286 4.70356,-6.4745 4.82563,6.76938 6.37826,9.89732 3.14557,4.89296 8.96004,7.30659 14.16492,9.29395 6.7939,3.16976 12.25772,-2.10799 10.02825,-8.89683 1.15572,-3.85282 -4.8097,-12.05519 -5.51772,-4.48676 1.64043,4.76816 -3.63076,14.18123 -7.66044,7.08261 -1.79492,-6.78092 1.23093,-15.38461 7.20876,-19.21429 7.15563,-3.35372 12.5716,5.2467 13.10401,11.42941 1.04016,8.03602 0.29766,18.37716 -7.36448,22.97512 -2.34145,1.27933 -5.17888,1.60126 -7.73743,0.82609 z"
         style="fill:#803300;fill-opacity:1" />
      <path
         inkscape:connector-curvature="0"
         id="path3509"
         d="m 224.45341,637.8985 c -2.69585,-5.09384 -6.95666,-9.59198 -8.14143,-15.22321 -1.05656,-5.02186 -0.36742,-10.45585 1.17451,-15.35052 1.16953,-3.71247 2.53674,-8.08533 5.94338,-10.05129 3.53684,-6.49201 8.00344,-13.50776 15.46149,-15.8283 8.2607,-0.73783 13.95576,7.04734 17.37663,13.54955 3.34767,7.99299 3.77321,17.07395 2.60952,25.55696 -2.32243,9.43168 -11.18378,17.1269 -21.15116,16.53469 -4.76073,1.12491 -10.30218,-5.56404 -11.31011,1.39137 -0.60305,0.68537 -1.6408,0.0236 -1.96283,-0.57925 z"
         style="fill:#aa4400" />
      <path
         inkscape:connector-curvature="0"
         id="path3507"
         d="m 244.62893,628.52981 c 7.31599,-2.39412 8.80457,-11.21872 7.4784,-17.8583 -1.11762,-7.9343 -3.94768,-17.12039 -11.66185,-20.92136 -6.70101,-1.5145 -9.97837,7.09612 -12.26076,12.01461 -1.65584,6.23821 -5.46,13.6654 -1.6705,19.73744 4.28489,5.18811 11.25538,9.30487 18.11471,7.02761 z"
         style="fill:#ff6600" />
      <path
         inkscape:connector-curvature="0"
         id="path3505"
         d="m 473.90899,631.22198 c -7.01952,-1.2055 -14.05532,-2.64473 -20.619,-5.38593 -8.69064,-4.41449 -13.95862,-14.28263 -13.2623,-23.93513 -3.32388,-6.79957 8.64313,-9.61529 5.79897,-0.95053 1.01905,8.94602 7.63384,17.18493 16.47103,19.46666 9.44224,2.92081 19.67283,3.49847 29.31223,1.26183 9.08768,-3.75578 14.27683,-13.22541 16.67853,-22.3213 1.92756,-9.7016 0.66776,-20.52983 -5.13279,-28.72489 -2.77069,-0.1481 -4.18579,-7.60512 -9.28451,-7.75178 -6.20403,-1.82399 -12.65332,-2.29847 -19.05333,-1.60097 -7.40664,0.14337 -13.75913,4.33455 -19.88276,8.00125 -12.29818,8.00153 -21.0294,22.09309 -20.99817,36.9596 5.7067,3.66934 2.73402,12.70026 -4.00827,10.8457 -5.6419,-5.30717 -4.11507,-13.93619 -2.32637,-20.66657 3.83575,-16.38437 16.68947,-29.36163 31.24781,-36.96907 4.64371,-2.55638 9.9081,-3.84499 14.94001,-5.32075 8.70016,-1.10321 17.90084,-1.12098 26.26257,1.65843 9.23098,3.86274 14.22123,13.4368 16.07297,22.81994 2.96833,15.33535 -2.61636,31.57834 -13.06022,42.95936 -6.43475,5.80152 -14.78412,9.45198 -23.51935,9.35652 -1.87805,0.11775 -3.7581,0.1978 -5.63705,0.29763 z"
         style="fill:#aa4400" />
      <path
         inkscape:connector-curvature="0"
         id="path3503"
         d="m 593.48909,622.55074 c 0.56146,-6.49805 -7.29491,-6.81204 -11.32438,-9.49062 -9.97123,-5.83037 -19.2858,-12.8125 -27.75909,-20.62977 -2.05958,-1.90011 -3.77772,-4.14414 -5.54069,-6.32222 -3.5981,-4.4453 -7.38944,-8.81308 -10.26408,-13.7482 -1.61133,-4.39553 -4.4595,-8.06012 -6.00605,-11.82588 2.79239,-3.96195 3.10678,-9.18543 5.31458,-13.48191 2.13214,-4.14928 3.95482,-8.83896 7.59751,-11.75331 3.32021,-2.6563 7.82105,-3.48033 11.97119,-4.40519 11.28288,-2.51438 23.39894,-6.01872 34.55106,-2.9762 6.04305,1.64867 11.46541,5.95153 15.30935,10.89727 5.74895,7.39689 9.82327,16.73517 10.14225,26.21105 0.57573,5.90321 1.49342,11.76901 1.97741,17.68176 3.21031,6.12751 -1.04603,13.35493 -1.86736,19.5946 -3.94171,4.69371 -8.74751,8.63437 -11.85337,14.05491 -2.68576,4.12056 -7.5323,7.00137 -12.24833,6.19371 z"
         style="fill:#aa4400" />
      <path
         inkscape:connector-curvature="0"
         id="path3501"
         d="m 578.31284,598.55571 c -0.54527,-1.17864 -0.73423,1.29977 0,0 z"
         style="fill:#000000" />
      <path
         inkscape:connector-curvature="0"
         id="path3499"
         d="m 574.1562,532.39229 c -5.9178,0.23582 -10.23393,5.9692 -15.4554,8.76418 -3.4969,1.87186 -8.34845,2.10985 -10.62446,5.35826 -3.02102,4.31173 -3.19814,10.58891 -1.86945,15.68325 1.17395,4.50114 5.42513,7.55857 8.20925,11.28517 3.41465,4.57066 10.41755,13.58052 10.41755,13.58052 6.84708,6.47593 22.40788,20.03609 29.85357,20.63639 2.71399,-0.23443 5.23808,3.27798 7.66349,1.4314 2.98419,-4.01217 7.03003,-7.45214 6.43374,-13.27199 -0.52135,-5.91999 -0.55104,-11.88825 -1.20727,-17.79589 0.30796,-5.89191 0.11891,-11.92207 -1.62654,-17.52221 -0.89104,-2.85894 -3.01124,-5.17944 -4.39905,-7.83302 -1.67505,-3.20272 -2.16037,-7.21841 -4.73623,-9.75377 -5.93909,-5.84568 -14.33247,-10.89411 -22.6592,-10.56229 z"
         style="fill:#d45500" />
      <path
         inkscape:connector-curvature="0"
         id="path3497"
         d="m 279.08872,610.52702 c -8.421,-2.64136 -12.3893,-11.38223 -15.43777,-18.9121 -3.38278,-11.87704 -2.5162,-26.4971 6.60659,-35.67741 4.39421,-4.22239 10.68428,-2.64332 15.94526,-1.61677 5.85345,-0.22168 10.90063,3.20597 14.63932,7.39149 7.24373,9.33086 6.22719,22.65024 1.97704,33.0457 -3.78669,7.63718 -10.10741,16.26361 -19.53041,16.24339 -1.41236,0.0112 -2.82517,-0.15213 -4.20003,-0.4743 z"
         style="fill:#aa4400" />
      <path
         inkscape:connector-curvature="0"
         id="path3495"
         d="m 287.18326,604.1497 c 12.26606,-4.49827 16.06554,-20.73136 10.80828,-31.80677 -2.39146,-5.2851 -7.81623,-10.39232 -13.9529,-9.57222 -3.9417,3.7048 -4.09829,10.1949 -9.04919,13.42113 -3.2694,5.14788 -5.60522,0.23414 -2.64165,-3.25218 0.46161,-4.23781 3.66937,-10.04938 3.32977,-12.97668 -5.58311,2.03409 -6.29727,8.98552 -6.54886,14.14464 -0.67331,10.69082 2.02954,23.23387 11.81823,29.18575 1.88517,1.02409 4.14323,1.42731 6.23632,0.85633 z"
         style="fill:#ff7f2a" />
      <path
         inkscape:connector-curvature="0"
         id="path3493"
         d="m 396.74148,587.5998 c -9.17645,-2.2749 -18.49503,-3.54136 -27.83198,-4.92837 -6.96082,-1.36425 -13.47415,-5.34201 -18.22783,-10.55844 -6.59307,-8.05266 -4.50636,-19.61538 0.80646,-27.72657 6.79331,-10.01892 17.50203,-17.50964 29.51923,-19.65072 10.8181,-3.22752 23.18718,-1.03153 32.24958,5.64771 8.38444,6.82979 10.65385,18.17515 11.63734,28.37508 0.13369,8.92343 -0.45976,19.98365 -8.50668,25.57725 -6.05056,3.48287 -12.78476,4.24209 -19.64612,3.26406 z"
         style="fill:#803300" />
      <path
         inkscape:connector-curvature="0"
         id="path3491"
         d="m 411.20095,579.07042 c 7.52512,-4.54419 6.48126,-14.67895 5.31958,-22.15 -1.33787,-9.30281 -5.89917,-19.73641 -15.57714,-22.78732 -8.23848,-3.63712 -17.5877,-3.06792 -25.91419,-0.0659 -6.79147,2.05429 -13.1525,6.08181 -16.65649,12.41167 -4.27213,6.24613 -6.42156,16.2573 0.2141,21.72611 4.32424,4.69867 10.57704,5.62583 16.37659,7.28274 5.59614,3.49993 11.87533,-2.68455 16.95985,1.59715 4.38344,4.07747 12.10562,2.19466 17.88606,2.25317 0.47437,-0.0401 0.93246,-0.147 1.39164,-0.26762 z"
         style="fill:#d45500" />
      <path
         inkscape:connector-curvature="0"
         id="path3489"
         d="m 239.83938,546.92302 c -6.29511,-1.7773 -10.4264,-8.02182 -10.81113,-14.36625 -2.51924,-6.72987 -4.48614,-14.33714 -0.19811,-20.88082 3.06826,-6.44926 7.61098,-12.39625 14.27336,-15.37953 5.64437,-3.35954 12.36752,-5.91623 18.94919,-3.84074 5.70066,0.17882 8.169,6.10495 8.91207,10.92329 2.38248,10.16337 -3.79198,19.30575 -8.76098,27.5819 -5.10513,7.77223 -12.4358,15.52982 -22.3644,15.96215 z"
         style="fill:#aa4400" />
      <path
         inkscape:connector-curvature="0"
         id="path3487"
         d="m 244.59247,538.4358 c 7.5573,-2.72526 11.48699,-10.40171 15.4644,-16.82549 2.83084,-5.7327 6.17336,-13.47835 0.93132,-18.91988 -3.88491,-3.76348 -14.95916,-3.79345 -15.10938,3.02338 0.6988,4.17705 8.49032,-1.07265 6.40323,5.18765 -1.8733,6.32254 -4.27677,12.6545 -3.75697,19.32403 -0.72164,5.4783 -7.23766,6.36108 -9.8719,2.64556 -3.22354,2.7514 3.57717,7.06766 5.9393,5.56475 z"
         style="fill:#ff7f2a" />
      <path
         inkscape:connector-curvature="0"
         id="path3485"
         d="m 240.68747,525.86158 c 1.34534,-4.0002 1.11413,-14.43445 -3.46199,-14.03171 -3.16049,4.5161 -3.46865,13.70565 3.32618,14.41737 z"
         style="fill:#ff7f2a" />
      <path
         inkscape:connector-curvature="0"
         id="path3483"
         d="m 301.07164,528.6472 c -4.74905,-1.54493 -9.23269,-4.80888 -12.00598,-8.9621 -2.89848,-4.3407 -5.91984,-10.50754 -3.84264,-15.17959 2.22928,-5.43365 0.93424,-12.58732 5.10438,-16.60487 2.98743,-2.87812 7.8884,-3.5415 12.0235,-3.21097 9.60263,0.76758 21.13482,3.07212 26.38218,11.79733 4.71936,6.47182 6.62972,16.26591 0.83685,22.74417 -4.91242,6.3984 -13.48291,7.89008 -20.93666,9.32375 -2.50657,0.30843 -5.16455,0.87209 -7.56163,0.0923 z"
         style="fill:#aa4400" />
      <path
         inkscape:connector-curvature="0"
         id="path3481"
         d="m 311.92205,520.64596 c 5.58368,-0.6967 14.99393,-4.02411 13.4286,-11.01069 -2.12596,-6.16554 -6.69753,-11.52901 -12.04962,-15.16407 -5.47066,-3.93884 -16.0145,-3.93127 -16.41591,4.71161 -0.36469,7.15933 1.71246,15.24944 7.27576,20.09963 2.16544,1.64245 5.16869,2.18001 7.76117,1.36352 z"
         style="fill:#d45500" />
      <path
         inkscape:connector-curvature="0"
         id="path3479"
         d="m 364.97972,497.06951 c -5.49485,-2.49372 -8.59118,-8.19596 -11.64126,-13.10354 -0.81824,-3.45768 -4.7668,-3.88352 -6.58823,-0.94355 -2.73311,-6.48325 0.47562,-13.3375 1.78953,-19.66251 -1.43941,-3.63731 -5.63756,-10.6383 1.61309,-9.44439 5.07351,-3.55473 9.1621,-9.30511 16.14428,-9.22762 10.64568,-1.33943 19.79325,9.59576 18.38549,19.83944 -0.0209,11.28887 -2.30299,24.66444 -12.76421,31.02356 -2.05774,1.23608 -4.53048,2.04173 -6.93869,1.51861 z"
         style="fill:#aa4400" />
      <path
         inkscape:connector-curvature="0"
         id="path3477"
         d="m 372.57866,487.04283 c 4.00368,-4.75452 -0.33016,-3.65633 -3.20773,-1.17914 -6.38874,2.76513 2.00355,6.11141 3.20773,1.17914 z"
         style="fill:#ff7f2a;fill-opacity:1" />
      <path
         inkscape:connector-curvature="0"
         id="path3475"
         d="m 365.9901,480.3484 c 7.09225,-3.56106 11.11721,-12.17198 8.36465,-19.79845 -1.3625,-7.32918 -9.54378,-8.51915 -13.33244,-2.26775 -6.3004,5.31061 -2.8141,13.4795 -0.79277,19.91539 0.83286,2.42489 3.6498,4.06481 5.76056,2.15081 z"
         style="fill:#ff7f2a" />
      <path
         inkscape:connector-curvature="0"
         id="path3457"
         d="m 55.56398,720.13122 c -2.507542,-0.97816 -0.664819,3.04214 0,0 z"
         style="fill:#000000" />
      <path
         inkscape:connector-curvature="0"
         id="path3391"
         d="m 156.45759,622.40426 c -0.36432,-1.53426 0.5005,0.33268 -0.14605,0.45669 z"
         style="fill:#000000" />
      <path
         inkscape:connector-curvature="0"
         id="path3273"
         d="m 55.925618,739.50384 c -0.06112,-1.67655 2.196831,1.84631 0,0 z"
         style="fill:#000000" />
      <path
         inkscape:connector-curvature="0"
         id="path3271"
         d="m 54.482503,672.86134 c -1.755113,-2.30253 0.744921,-1.34544 0,0 z"
         style="fill:#000000" />
    </g>
  </g>
</svg>
