<svg xmlns="http://www.w3.org/2000/svg" xmlns:xlink="http://www.w3.org/1999/xlink" width="2000" height="3000"><defs><linearGradient id="b"><stop offset="0" stop-color="#009633"/><stop offset="1" stop-color="#063"/></linearGradient><linearGradient id="c"><stop offset="0" stop-color="#fff"/><stop offset="1" stop-color="#54deff"/></linearGradient><linearGradient id="a"><stop offset="0" stop-color="#fff"/><stop offset=".5" stop-color="#d4c37f" stop-opacity=".498"/><stop offset="1" stop-color="#a80" stop-opacity="0"/></linearGradient><linearGradient xlink:href="#a" id="e" x1="-45.755" y1="296.36" x2="1051.261" y2="296.36" gradientUnits="userSpaceOnUse" gradientTransform="matrix(2.20553 0 0 4.36834 96.827 -850.192)"/><radialGradient xlink:href="#b" id="f" cx="502.638" cy="609.739" fx="502.638" fy="609.739" r="564.019" gradientTransform="matrix(1.89245 0 0 1.44682 23.77 -878.556)" gradientUnits="userSpaceOnUse"/><radialGradient xlink:href="#c" id="d" cx="-298.481" cy="496.389" fx="-298.481" fy="496.389" r="450.22" gradientTransform="matrix(2.68801 0 0 3.48189 2007.982 -1283.964)" gradientUnits="userSpaceOnUse"/></defs><path transform="rotate(-90 1116 1116)" opacity=".99" fill="url(#d)" stroke="url(#e)" stroke-width="3.104" d="M-2.984-1121.655h2417.292v3132.124H-2.984z"/><path d="M2034.703 798.256l-2115.538 8.805c.093 10.454-17.992-1181.033 5.165-1257.829 36.139-34.884 73.208-52.567 109.79-77.552 27.766-13.492 55.406-33.17 83.407-37.341 41.705-19.694 83.675-18.63 125.694-28.424 57.153-1.057 114.169 18.647 171.241 12.998l38.473-3.809c56.014-5.544 112.052-12.607 167.965-25.802 73.877-21.14 147.167-61.05 220.915-88.083 85.854-32.796 171.467-78.613 257.848-85.196 112.898-22.756 226.008-14.243 339.013-14.738 82.719-2.55 165.479 12.485 247.55 53.007 60.833 25.795 121.073 71.216 182.107 91.534l161.64 63.75c13.793 395.92 4.136 937.003 4.73 1388.68z" fill="url(#f)" stroke="#244c26" stroke-width="15.705" stroke-dashoffset="2.08" transform="translate(0 2232)"/><path d="M506.476 1363.44c-3.166-3.07-4.213-7.76-6.242-11.595-1.585-3.615-3.252-7.332-4.703-10.917-5.065-11.897-9.768-24.159-13.398-36.653-3.589-11.342-5.836-23.135-7.83-34.874-1.075-8.38-2.575-16.762-2.302-25.242-7.728-3.24-14.99-7.502-22.231-11.621-4.263 2.994-4.176 9.32-8.139 12.166-1.738 1.248-4.07 1.44-6.196 1.679-4.074.457-8.668.239-12.287-.506-10.035-.486-20.013.622-29.938 1.957-2.446.402-11.117 1.424-8.259-2.293 7.231-.132 14.422-1.507 21.605-2.35 9.546-.805 19.166.158 28.692-.755 5.741.428 7.51-5.54 10.638-9.095 3.883-4.172-5.823-5.841-7.83-9.34-3.068-3.273-7.74-5.611-8.766-10.295-1.083-4.106.268-9.7.546-13.057-14.007 7.073-29.515 11.634-42.026 21.49-7.943 5.484-14.426 12.785-21.568 19.128-3.157 3.718-4.729-2.677-1.175-2.435 5.14-3.997 9.286-9.283 14.445-13.164 9.783-9.18 21.782-15.625 34.17-20.623 5.902-2.658 11.888-5.151 17.517-8.357 3.081-7.569 7.513-14.53 13.297-20.353 9.07-10.024 19.876-18.137 30.569-26.309 13.25-9.858 27.238-18.979 42.598-25.257-2.935-2.168-9.23-3.776-13.705-4.738-12.732-2.58-25.812.063-38.276 2.9-7.573 1.573-14.957 4.01-22.574 5.337-8.221.927 7.018-10.084 2.804-3.45 5.086-.402 9.912-2.651 14.999-3.368 9.856-2.358 19.834-4.473 29.97-5.071 8.802-.52 17.536 1.277 25.726 4.424 4.366 2.417 8.716 1.603 13.13-.312 16.19-4.85 33.181-5.372 49.903-6.764 5.83-.54 11.691-.759 17.533-1.013-8.457-5.902-17.192-11.487-24.862-18.432-6.734 1.227 2.118-6.252 3.777-1.055 8.224 7.36 17.68 13.056 26.572 19.51 5.781 1.042 11.81 1.28 17.508 2.965 12.765 3.864 25.077 8.973 37.689 13.239 9.1 3.199 17.9 7.178 26.852 10.759 3.183-3.589 5.825-7.89 8.88-11.685 9.57-13.45 22.21-24.41 35.937-33.482 2.711-1.332 8.375-7.1 10.045-3.348-4.158 2.773-8.57 5.339-12.593 8.404-13.008 8.784-24.36 20.025-33.4 32.85-.717 3.09-9.342 8.024-3.913 9.516 9.561 4.17 18.7 9.765 25.726 17.587 6.643 6.61 11.499 14.815 15.015 23.437 3.368 6.834 6.638 13.938 8.646 21.36 2.343 1.89 7.765-2.527 11.233-2.822 12.944-4.47 26.369-7.346 39.88-9.48 8.045-1.327 16.04-3.277 24.18-3.82 2.197 3.788-6.388 2.71-8.96 3.734-18.493 3.312-37.226 5.922-55.06 12.077-3.096 2.054-11.383 1.2-10.17 6.256 1.4 10.745-4.324 21.34-12.72 27.804-9.865 7.76-21.963 12.073-33.846 15.712 1.811 2.027 8.88 2.812 12.587 4.662 18.065 5.984 34.366 16.54 53.061 20.744 10.337 2.553 20.825 5.009 31.55 4.932-.373-1.99-3.588-10.14 0-7.755 1.636 3.715 6.342 12.44-1.656 11.124-10.827-.082-21.4-2.8-31.888-5.214-12.502-3.177-24.075-8.846-35.683-14.236-11.087-5.133-22.712-9.173-34.466-12.37-15.04 4.017-30.357 6.842-45.698 9.421.514 6.706 2.638 13.226 4.638 19.628 4.145 10.61 8.413 21.214 14.075 31.109 1.333 2.98 5.694 8.344 5.913 2.093 4.584 2.895-2.988 9.808-5.601 3.679-6.914-9.886-11.207-21.308-15.83-32.351-2.667-7.122-4.828-14.455-6.066-21.989-2.01-3.61-8.877.312-12.864-.343-13.435 1.168-26.988 1.054-40.433.088a133.696 133.696 0 0 1-20.129 1.203c-.129 3.85.01 7.738 1.813 11.235 1.971 5.744 4.56 11.296 8.268 16.174 8.781 12.638 21.682 21.548 33.716 30.83a34.37 34.37 0 0 0 7.596 5.756c2.784 2.184-.766 6.273-2.864 2.331-4.913-4.718-10.359-8.824-15.844-12.837-2.7-1.197-5.977-5.237-9.204-7.353-10.437-8.763-19.654-19.637-23.948-32.745-2.007-4.257-2.96-8.94-2.668-13.653-15.557-1.816-30.253-7.506-45.441-10.984-13.893-3.785-28.277-6.022-41.656-11.531-.665 4.875.455 10.024.958 14.946.97 7.89 2.316 15.766 3.869 23.573 1.588 6.974 3.278 13.917 5.248 20.725 2.1 6.314 4.077 12.683 6.51 18.907 4.32 11.488 8.914 22.832 14.388 33.84 1.67 5.347 2.033-3.367 3.034-1.562 1.955 1.09.062 7.565-2.398 7.563z" fill="#d4aa00"/><path d="M586.511 1264.104c7.886-1.28 15.885-3.196 23.252-6.018 5.41-1.16 10.332-3.796 15.525-5.633 3.343-2.605 10.551-2.483 10.933-7.276-.326-3.423 1.995.096 2.59.773.553.63.274 1.653.403 2.48.746 4.765.075 11.269 2.153 14.308 14.39-2.218 28.769-4.905 42.815-8.699-3.287-.41-5.369-5.244-.84-4.216 3.697 3.981 8.818 2.708 13.27.762 13.192-4.21 26.973-9.746 35.647-21.07 3.916-5.392 6.132-12.235 5.216-18.994-.772-3.69-6.807 1.506-9.77 1.5-1.983 1.792-7.482-.077-3.136-1.601 3.656-1.514 10.967-1.614 11.872-5.427-3.254-10.407-8.05-20.246-12.7-30.083-7.12-12.463-17.999-23.027-31.198-28.869-3.792-2.514-8.096-4.516-10.53.648-.895 2.871-7.23 3.704-3.718.134 1.725-1.691 7.464-5.565 2.11-6.241-12.285-5.436-24.923-10.011-37.609-14.391-11.41-4.193-22.712-9.271-34.943-10.434.73 2.116 6.728 5.22 9.281 8.02 4.007 3.371 7.89 7.086 11.343 10.707-1.12 5.757-5.712-2.235-8.168-3.488-6.13-5.929-12.846-11.195-19.906-15.967-15.552-.292-30.99 1.84-46.474 2.943-9.394 1.067-18.873 2.573-27.775 5.845 3.863 1.054 9.126 4.688 12.242.201 2.06-3.372 5.798-.803 2.102 1.541-2.88 2.99-6.828 4.751-10.788 2.536-4.622-1.5-9.462-3.593-13.857-.279-14.651 6.508-28.174 15.32-40.898 25.015-12.587 9.56-25.26 19.47-34.76 32.235-1.883 2.853-4.822 7.135-5.143 9.647 6.116-3.503 12.297-6.987 18.281-10.676 4.574-2.884 6.91-7.859 9.99-12.09 4.975-2.763-.235 5.157-1.76 6.616-4.147 7.963-13.165 10.817-20.086 15.655-3.416 2.602-9.61 3.26-9.347 8.67-1.47 5.53-1.436 12.288 3.87 15.772a72.306 72.306 0 0 0 13.179 10.327c1.736-2.574 5.049-4.993 5.98-7.632-.809-3.164-.505-6.482-4.112-7.932-3.816-3.212-8.615-6.093-10.495-10.899-1.343-4.071 5.123-4.135 2.337-.188 2.517 5.128 7.708 8.267 12.121 11.59 2.201-1.245 2.337 4.118 5.189 4.61 4.63 4.05 8.895 8.476 13.773 12.21 2.783-.767 2.91 4.041 6.137 4.602 9.541 6.597 20.477 10.86 31.306 14.78 18.734 6.005 38.11 10.009 57.642 12.54 5.792.483 11.626 1.986 17.454 1.436zM570.34 1265.378c-1.943-.813-8.09-.34-3.232-.01 1.076-.103 2.176.271 3.233.01z" fill="#fd5"/><path d="M611.609 1265.222c8.744-.06 17.551-.695 26.155-2.115-1.422-3.604.281-11.203-2.536-12.741-12.594 6.374-25.959 11.107-39.594 14.632 5.198.513 10.68.28 15.975.224zM562.732 1264.838c-2.99-1.89-9.793-1.457-14.094-2.956-1.895-.21-8.45-1.75-7.921-1.24 6.966 2.05 14.11 3.649 21.322 4.478z" fill="#fd5"/><g fill="#a0892c"><path d="M551.47 1222.214c-17.255-1.52-33-13.114-40.639-27.894-2.724-9.267 8.107-6.885 6.986.957 6.625 9.421 16.78 17.174 28.122 20.582 12.234 1.621 25.749 2.736 37.264-2.071 14.434-7.117 27.12-19.024 30.362-34.902 8.302 1.042-.434 18.108-5.642 22.292-11.338 12.662-27.694 22.977-45.737 21.086-3.571 0-7.145.046-10.715-.05z"/><path d="M555.82 1183.163c-9.312-6.19 3.127-13.114 4.658-2.873-.34 1.91-2.649 3.745-4.659 2.873zM524.514 1167.473c-4.807-10.607 15.396-2.08 0 0zM580.095 1154.133c-3.126-7.594 12.061-5.828 4.357.471-1.17.433-3.628 1.232-4.357-.471z"/></g><path d="M511.938 1253.037c-12.418-4.496-24.962-9.377-35.58-17.4-2.198-.567-2.878 8.189.948 7.99 11.164 4.379 23.013 6.619 34.6 9.508zM472.158 1240.104c.161-3.966 2.164-8.097-2.7-9.998-3.868-3.63-7.775-7.222-11.696-10.787 2.84 4.538-3.885 6.64-5.605 10.205-.422 3.07 6.526 4.3 8.92 6.471 2.65.564 9.972 6.849 11.081 4.109z" fill="#fd5"/><g><path d="M776.904 1785.792c-2.347-4.67 3.551-9.795 5.414-14.715 2.22-7.158 4.625-14.3 7.83-21.062 1.661-3.753 7.197-9.62-.528-9.382-5.04-.84-9.888-2.259-14.86-3.358-5.199-1.169-10.366-3.425-15.468-4.187l-3.011-.924c-5.743-1.081-11.18-3.698-16.978-4.775-1.584-.729-3.753-1.171-2.137 1.318-2.532 1.58-7.828 6.141-9.277.674.312-4.416.433-9.176.871-13.79 1.991-6.033-6.877-.379-10.07-2.178-4.95.76-7.988.17-13.663.59-5.566.14-11.127.365-16.638.895-4.87.197-9.159-1.48-13.495-3.922-3.822-2.45-3.258-10.811 2.206-10.091 4.834 1.547 6.29-4.47 10.982-3.284 4.777.19 9.619 2.357 13.916-.89 4.13-1.784 7.77-5.202 12.282-5.447 3.812.279 7.273.026 10.57 1.49 3.641 1.692 8.165-.06 8.701 4.038 2.207-4.428 3.4-10.04 5.826-14.777 2.691-4.557-.846-4.078-3.952-2.355-3.107 2.284-8.624 1.621-7.05-3.359 1.257-4.757 7.775-4.674 11.774-6.071 5.633-2.093 11.673-2.781 17.62-3.368 4.632 1.403 9.097.718 13.22 1.627 5.39.83 10.835 1.436 16.246 2.387 4.879.72 9.64 2.161 14.509 3.162 4.935.59 8.957 1.043 13.767 1.848 10.195 1.46 20.605 1.41 30.913 1.939 6.059-1.367 12.337-1.282 18.397-2.703a221.388 221.388 0 0 0 17.39-2.231c4.843-.609 9.14-1.254 13.987-1.854 3.005-1.05 8.789-.924 9.398-3.962-4.1-3.124-8.957-4.971-12.643-8.344-3.24-4.384-9.08-5.488-12.858-9.6-4.955-4.484-10.59-8.37-14.637-13.81-2.696-2.898-4.93-6.526-7.529-9.272-2.209-4.483-4.83-8.55-7.131-13.01-1.877-4.233-3.84-8.192-5.697-12.414-2.106-4.632-3.407-9.323-5.504-13.873-2.225-5.195-3.664-10.678-6.09-15.778-.679-4.913-3.204-9.458-4.091-14.425-2.315-6.971-3.397-14.275-4.425-21.526-2.146-.127-3.6 6.398-6.999 7.506-3.547 3.604-7.895 6.744-12.88 7.45-5.203 1.04-10.302 1.256-15.633.364-5.818-1.1-11.986-1.424-17.079-4.745-6.835-4.803-12.431-12.307-13.676-20.819.265-8.788 4.811-16.805 9.11-24.234 2.617-2.765 3.685-6.803 6.405-9.708 2.643-4.556 6.088-8.786 9.609-12.75 3.656-5.65 8.44-10.474 12.376-15.91 5.67-6.423 11.142-13.029 16.992-19.27 3.82-3.933 7.218-8.598 11.538-12.23 4.658-4.335 9.094-8.925 14.196-12.711 3.89-3.575 8.432-6.29 12.737-9.31 4.433-3.111 9.224-5.77 14.027-8.343 4.757-1.73 9.02-4.553 13.489-7 3.726-2.576 8.043-4.526 11.482-7.388 4.48-1.04 8.925-7.4 13.03-2.32 3.693-2.517 7.74-4.53 11.853-6.474 3.488-1.421 7.007-3.242 10.567-5.042.243-3.026-5.736-5.997-2.757-9.356 3.248-4.435 9.292-4.546 14.054-6.245 4.968-2.375 10.902-2.539 16.144-1.268 3.123-.03 7.678 1.077 10.78.209 3.784-2.783 8.084-3.172 12.218-4.266 4.754-1.62 9.349-3.616 14.29-4.69 3.26-1.264 11.965-3.433 11.14 2.08-1.264 4.51 2.804 2.71 5.624 2.365 9.676-1.588 19.495-2.387 29.318-2.113 4.927-.228 9.75.398 14.577 1.244 6.462.798 12.917 1.602 19.416 1.959 7.499 1.677 15.274 2.028 22.513 4.754 5.4 1.453 10.87 3.186 15.618 6.14 2.791 1.66 4.818 1.806 6.728-1.244 4.54.162 9.485-1.495 13.337 1.738 4.01 2.643 8.963 3.653 13.113 6.203 3.735 3.58 9.27 3.293 14.083 4.24 4.758.307 9.236 1.183 13.84 2.233 5.155.902 10.417 1.32 15.604 1.738 3.717 1.335 8.733 1.984 13.031 2.38 5.43.551 10.472.953 15.587 2.682 4.532 1.037 9.42 2.789 13.22 5.053 5.282 3.34 10.383 8.155 11 14.704 1.305 5.168 1.11 10.927.2 16.13-1.488 4.992-5.25 8.834-9.655 11.558-4.31 2.525-9.083 4.055-13.964 4.767-9.202 2.757-19.066 2.112-28.37.244-3.534-1.667-8.192-.089-9.405-2.67-4.1-1.37-7.92-3.152-11.53-5.774-3.608-2.599-7.95-4.015-10.554-7.684-3.457-3.613-7.328-7.28-9.7-11.542-3.35-3.765-4.966-8.62-7.582-12.856-2.716-4.171-6.474-7.504-9.649-11.345-.614 2.931 2.738 8.519 3.586 12.443 2.397 6.746 5.13 13.433 6.258 20.556 3.128 14.21 1.333 28.884 2.862 43.255-.306 6-1.598 11.919-3.734 17.499-3.089 6.67-1 14.47-3.373 21.296 1.405 4.39 3.004 8.837 3.753 13.455.751 2.778 1.122 10.055 2.084 10.208l1.157 9.132c.18 5.625 1.684 8.04 2.52 13.728.048 9.445 1.49 18.902-.699 28.175-1.72 3.785-3.601 7.128-6.476 10.095-2.834 3.187-4.397 5.16-7.363 7.986-3.546 3.923-7.376 7.633-10.775 11.655-2.526 1.173-7.163 5.273-7.45 6.32l-40.521 32.557c-4.22 3.95-8.71 7.64-13.25 11.149-3.872 3.111-7.825 6.219-11.665 9.422-4.091 2.523-7.838 5.664-12.21 7.724-2.809 2.097-6.552 4.327-9.95 5.45-4.757 2.328-10.088 4.039-15.279 5.492-5.035 1.337-10.042 3.221-15.3 3.212-12.653-.025-25.34-.453-37.932-1.737-5.847-.478-11.554-1.813-17.339-2.684-5.124-.13-6.197 6.52-9.254 9.565-3.076 4.366-6.474 8.36-9.828 12.46-4.489 4.702-9.472 8.864-14.152 13.364-4.011 3.734-9.91 2.205-14.487 4.528-4.398 1.151-7.836 3.298-12.763 3.845-2.886 1.495-7.172 2.227-4.492 5.905.569 5.359 2.306 11.084 4.408 15.695 2.122 2.851-1.696 4.886-2.016 7.68.105 1.564-5.383 1.639-4.978-2.088-1.865-2.802-3.11-7.524-4.091-11.403-.227-1.078-.529-7.574-2.218-8.764-3.967.692-8.08 3.133-12.119 4.678-3.982 2.22-12.387 2.9-11.645 8.828.845 10.89 3.46 21.553 5.104 32.307-2.507.56-5.382 3.107-7.52 1.683-8.132-5.416-3.627-19.215-5.116-28.862.292-4.096-1.695-6.668-5.692-4.732-3.878.432-7.458 1.22-11.395 1.018-2.397-.638-2.632 2.978-2.638 4.525-2.041 3.427-3.39 7.016-4.618 10.61-.626 2.95-2.23 7.686-.699 9.402l-.041.437c1.412 3.739-6.059 12.718-6.505 5.603-2.182-4.905.177-9.982 1.17-14.877.716-5.092 2.892-9.981 5.524-14.393.75-3.314-7.78-4.226-7.84.185-2.902 3.604-4.432 8.14-6.15 12.426-1.866 4.588-3.755 8.943-5.184 13.68-1.898 4.8-3.61 9.632-5.417 14.338 0 0-4.854.09-5.752-1.696z"/><path d="M822.085 1736.47c3.749.045 6.4-.23 5.267-4.519 2.309-5.06 7.736-3.894 9.655.755 3.835-.144 7.234-3.49 11.323-4.48 3.42-2.856 8.139-3.195 11.445-6.193 1.75.318 6.483-2.419 9.376-3.252 5.135-2.607 10.687-4.443 15.973-6.46 5.054-1.628 10.653-2.577 15.862-4.162 5.517-4.018 9.972-9.39 14.864-14.145 3.043-3.623 5.688-7.53 8.217-11.502 2.018-2.894 5.36-6-.065-6.515-4.327-1.546-8.848-4.142-12.734-5.63-2.812 4.39-6.663 9.24-12.465 8.83-4.963.882-9.526 1.772-14.532 2.495-6.841.946-13.734 1.916-20.636 2.596-6.953 1.562-14.14 1.39-21.13 2.77-7.537.643-14.957-1.397-22.483-1.464-7.289-.6-14.564-1.914-21.75-2.965-6.42-2.24-13.346-2.43-19.82-4.32-5.376-.527-10.595-1.124-15.962-1.588-3.784-.8-7.591-2.749-11.503-.952-2.629 3.813-5.312 8.006-6.265 12.74-1.845 4.49-3.71 8.904-5.23 13.5-1.108 3.378-2.105 6.664-2.55 10.416-3.027 5.93 4.015 7.2 8.333 7.657 4.345 1.153 8.69 2.369 12.996 4.01 4.817.857 9.376 2.524 14.042 3.887 4.918 1.15 9.792 2.384 14.803 3.126 4.656.941 9.117 2.839 13.867 3.175 6.487 2.962 14.124 2.61 21.103 2.19z" fill="gray"/><path d="M733.414 1699.176c-.96-1.438-.84 1.39 0 0z"/><path d="M992.649 1676.152c6.389-1.414 12.982-2.273 19.154-4.613 5.078-1.135 9.4-4.376 14.198-6.267 4.253-2.065 7.993-4.857 11.994-7.288 2.772-1.984 5.896-4.037 8.58-6.36 3.576-2.41 6.709-5.23 10.174-7.746l19.59-16.729c4.997-1.974 10.624-9.88 15.405-12.362 3.767-2.079 7.073-5.358 10.694-8.036 4.863-3.06 8.963-7.372 13.649-10.708 4.399-4.502 9.148-8.793 13.237-13.54l8.174-13.216.767-7.962-1.477-10.011-1.006-2.656-2.766-13.48c-1.467-6.86-1.715-14.004-3.41-20.838-.087-5.633-5.57-10.152-2.84-15.974 1.096-5.088.302-10.308 1.154-15.379 1.998-6.837 5.427-13.558 4.457-20.9-.273-10.398.14-20.84-1.245-31.166-.337-5.807-1.94-11.517-3.02-17.235-1.53-4.484-2.841-9.032-4.419-13.503-1.664-4.443-2.583-8.903-4.467-13.247-1.556-5.116-4.723-9.635-8.828-13.183a37.057 37.057 0 0 0-12.772-8.029c-4.764-2.257-9.956-2.978-14.99-4.445-6.585-1.396-13.292-2.118-19.943-3.149-7.977-.718-15.942-1.465-23.87-2.584-4.66-.7-7.921.568-11.89.16-7.078.018-14.024 1.63-21.1 1.795-5.943-.924-7.112 5.363-12.385 5.839-3.874 1.971-8.166 3.415-12.568 3.47-3.924-.45-3.421 3.967-6.198 2.229-5.345 1.217-10.853 1.134-14.74 5.799-3.72 3.59-9.063 3.747-13.926 4.972-4.576.512-9.206-.041-13.147-2.283-4.692-1.168-8.814 2.855-13.007 4.064-4.439 2.628-9.269 4.403-13.58 7.16-1.124 3.976 2.56 9.286-2.435 12.435-2.737 3.706-5.882 6.771-8.993 10.208-3.954 3.446-7.066 7.597-10.49 11.576-2.686 3.791-5.405 7.737-7.862 11.645-2.742 3.943-3.906 8.744-6.394 13.098-2.11 4.944-4.86 9.904-5.91 15.112 3.252-1.574 6.608-5.003 9.87-7.183 2.79-2.844 6.585-4.17 9.853-5.66 4.773-1.538 8.175-5.15 12.27-7.851 2.712-1.923 10.335-8.128 10.791-2.18-1.847 2.749-6.683 4.853-.656 6.384 3.918 2.572 6.486 5.99 9.728 9.27 3.42 2.835 7.196 5.661 10.654 9 3.849 3.097 7.222 7.177 8.279 11.953.581 4.43 5.572 10.093 2.532 13.863-3.177 3.875-7.548 6.975-11.349 9.855-4.716 3.13-9.378 6.955-14.076 10.396-3.89 2.245-7.172 5.596-11.48 6.837-4.41 2.13-9.146 2.775-13.525 4.98-5.829.993-11.421 3.348-17.416 3.368-6.73 1.178-13.753 2.115-20.516.76-2.794-3.484 3.053-6.648 5.624-9.014 4.917-4.076 9.964-8.098 14.648-12.503 1.636-2.195 7.824-6.823 6.05-7.956-7.715 2.77-16.004 3.118-24.08 3.95-5.218-.716-7.586 5.015-10.773 7.935-2.792 4.712-7.657 7.781-8.804 13.548.675 9.006 1.133 18.103 3.915 26.77.936 5.469 2.814 10.659 4.487 15.919 1.934 5.963 4.474 11.77 6.476 17.684 2.452 6.893 5.14 13.947 8.563 20.552 1.527 4.154 3.89 8.033 6.007 11.732 1.66 4.119 4.614 7.44 7.379 10.9 4.996 6.135 10.67 11.977 17.096 16.507 2.687 2.113 5.72 5.049 9.142 7.045 4.58 3.614 9.158 7.043 14.258 9.95 4.586 2.193 8.69 5.062 13.43 6.843 3.227 1.135 10.313 5.048 7.756-1.654-3.237-4.945 5.478-9.086 7.188-3.571 1.466 3.099.66 7.382 1.542 10.278 5.979 1.837 12.19 2.553 18.417 2.977 10.566 1.816 21.347 1.201 31.993 1.938a39.3 39.3 0 0 0 3.178-.295z" fill="#999"/><path d="M938.828 1589.285c-5.252-.85-10.95-1.394-15.434-4.496-3.883-3.816-6.684-8.746-10.732-12.286-3.526-3.172-1.472-7.569 2.621-8.711 5.05.734 6.513 5.856 9.953 8.687 2.555 4.799 7.928 7.583 12.796 7.91 4.244-.21 9.843 1.233 14.625.554 4.37-.461 8.781-.687 12.859-2.36 4.038-1.03 8.358-1.384 12.051-3.155 5.341-2.1-1.618-9.053-.592-13.404-1.796-8.826-1.795-17.952-4.505-26.602.144-5.286-4.461-7.77-8.304-9.472-4.625 1.235-12.484-2.342-8.957-8.044 1.334-3.075-2.174-5.44 2.766-6.37 4.368-.08 9.396-2.296 11.01 3.704 1.198 5.39 9.257 4.125 10.088 9.762 1.741 8.068 3.822 16.103 3.986 24.393 1.116 6.445 2.291 12.746 4.362 18.92.291 2.955-.87 5.065 2.89 2.66 5.244-2.208 9.872-5.711 14.965-8.31 4.202-2.552 8.493-4.917 12.3-7.991 3.781-2.9 8.61-5.489 10.377-10.165 2.087-6.163 10.054-.901 4.917 3.486-1.847 4.64-5.902 8.005-9.85 10.786-4.222 2.957-8.483 5.8-12.657 8.744-4.27 2.025-7.896 5.499-12.338 7.08-4.272 2.16-8.236 4.772-12.762 6.363-4.75 1.811-9.69 3.116-14.519 4.658-5.171.528-9.912 3.13-15.205 3.103a66.755 66.755 0 0 1-16.71.556z"/><path d="M969.567 1530.153c2.194-.357-.663.69 0 0zM1033.629 1433.965c-2.108-2.064-6.517-.554-7.394-5.192-.526-4.018.744-8.46 3.735-11.305 4.93-2.683 7.718 2.69 11.307 4.208.795 3.616 3.862 6.638.079 9.024-1.034 3.028-6.468 1.869-7.727 3.265zM1087.227 1368.428c.068-1.924 1.61.824 0 0zM1014.237 1358.05c-.94-1.306 2.103.944 0 0z"/><path d="M871.26 1406.42c-4.732 1.555-9.168 3.961-13.122 6.777-4.573 3.398-8.954 6.818-13.44 10.337-4.21 2.66-7.345 6.706-11.384 9.492-4.75 5.332-10.098 10.365-14.736 15.658-4.234 3.319-6.836 8.302-10.828 11.969-3.126 4.049-6.671 7.769-9.825 11.786-3.307 3.616-5.974 7.887-9.393 11.252-2.697 2.478-3.84 6.772-6.88 8.964-2.203 3.867-4.79 7.918-6.79 11.694-3.074 4.21-4.782 9.235-6.827 14.026-2.058 5.121-.427 10.46 2.174 15.065 3.324 4.113 7.114 8.161 12.445 9.313 6.534 1.354 13.44 3.276 20.07 1.512 4.793-1.523 9.36-4.33 11.68-8.988 2.395-4.158 4.29-8.634 6.95-12.715l13.144-17.989 7.213-8.181 6.702-10.318 2.247-11.923c2.644-5.717 3.451-12.18 6.019-17.974 1.75-4.943 3.971-9.68 6.237-14.35 1.53-3.682 3.467-7.471 5.735-10.93 2.071-4.102 5.12-7.704 7.85-11.286 4.96-7.114 11.806-13.097 17.485-19.792 2.04-1.386 6.217-7.901 1.289-5.11-4.162 2.91-9.119 2.124-12.647 5.929z" fill="#b3b3b3"/><path d="M867.938 1518.234c6.418-1.33 13.321-.82 19.334-3.81 4.986-.382 9.38-2.843 13.911-4.7 5.64-2.653 10.794-6.166 15.635-10.051 4.077-2.513 7.904-6.035 11.775-9.185 1.366-4.57-1.286-9.805-3.605-13.831-2.748-4.268-7.192-7.44-11.02-10.489-4.756-3.1-7.993-8.272-12.489-11.789-3.548-1.178-7.675-5.13-11.157-1.882-5.525 3.508-12.008 5.496-16.675 10.266-3.999 3.541-9.076 6.038-12.592 9.998-1.363 4.377-2.706 8.612-4.421 12.865.358 2.682-5.822 7.478-1.15 7.59 7.657-.665 15.532-1.115 22.84-3.497 3.888-.352 10.106-5.554 12.297-.465-1.062 5.011-6.932 7.941-9.788 12.24-3.401 2.927-6.216 6.238-9.52 9.385-2.336 2.915-7.24 5.272-8.535 7.984 1.727-.087 3.434-.48 5.16-.63z" fill="#ccc"/><path d="M884.532 1484.071c-3.557-.18-4.676-5.634-9.128-4.035-4.214-1.95 1.449-6.706-.963-9.989 1.053-4.121 2.832-8.501 6.723-10.682 4.056-1.108 10.318 3.142 10.132 7.832.204 3.996.833 7.637.64 11.59-1.547 2.785-3.35 5.925-7.404 5.284z"/><path d="M1208.53 1429.322c4.797-.207 9.499-1.595 13.72-3.344 3.8-1.676 7.2-4.361 8.2-8.65.629-5.65.362-11.86-2.243-16.925a21.282 21.282 0 0 0-11.38-9.07c-5.902-2.703-12.415-2.817-18.694-3.955-9.628-1.16-19.262-3.139-28.807-4.24-6.756-.778-13.35-2.976-20.22-3.118-4.997-.901-10.265-1.82-14.214-5.25-2.252-1.672-4.832-1.981-1.752.735 3.147 3.44 6.258 6.663 9.234 10.282 6.27 5.824 8.527 14.203 13.802 20.798 3.4 4.958 8.315 8.652 12.696 12.694 4.274 2.926 8.765 5.517 13.787 6.946 6.56 3.184 14.098 3.305 21.25 3.365 1.54-.059 3.092-.053 4.62-.268z" fill="#b3b3b3"/><path d="M949.233 1371.74c4.466.407 7.238-3.083 10.41-5.507-4.11.16-8.504 2.66-12.515 3.522-4.523.84-2.82 3.324.728 2.086l.675-.053zM937.641 1366.97c2.522-1.57 8.396-2.346 9.066-4.351-4.423.002-9.5.015-13.286 2.391-.154 2.89 2.047 3.658 4.22 1.96z"/></g><g><path d="M1013.248 1655.097c-.64-.408.955-.33 0 0z"/><path d="M1020.424 1645.795c-1.038 1.32-2.162 2.58-3.213 3.872-1.337 1.73-2.86 3.31-4.153 5.077-1.993 2.658-4.127 5.204-6.21 7.79-1.518 2.148-3.452 3.957-5.167 5.943-.984.974-1.837 2.065-2.81 3.056-1.343 1.905-3.246 3.304-4.666 5.14-1.725 1.593-3.157 3.492-5.026 4.935-1.144.895-2.257 1.905-3.688 2.303-1.205.45-2.482.65-3.729.915-1.337.981-2.637-1.165-1.28-1.928.538-.149 2.81.062 1.726-.829-1.33-.783-2.434-1.885-3.657-2.803-.26-.485-1.641-1.327-.993-.16.643 1.563 1.25 3.18 1.472 4.863.28 1.312-1.164 1.534-1.708.475-.854-.725.674 1.175 1.298 1.199 1.226.78 2.684 1.518 3.284 2.922-.19 1.185-1.323-.068-1.598-.573-1.405-1.041-3.34-1.508-4.188-3.187-.414-1.37-.763-2.851-2.021-3.745-.988-1.219-2.084-2.373-3.053-3.604-1.183-1.522-2.266-3.115-3.4-4.678-1.27-1.786-2.501-3.597-3.633-5.473-.98-1.233-1.622-2.701-2.475-4.027-1.58-2.704-3.594-5.148-4.906-8.01-1.194-2.425-2.382-4.864-3.301-7.406-.71-.963-1.033-2.075-1.49-3.162-.672-1.16-1.056-2.486-1.532-3.706-.458-.889-.879-1.822-1.105-2.779-.536-1.486-1.188-2.935-1.605-4.465-.455-.959-.38-1.955-.935-2.86-.251-1.124-.697-2.192-.977-3.324-.215-1.112-.59-2.118-.86-3.233-.132-1.023-.718-1.854-1.083-2.808-.919-2.179-1.664-4.535-1.34-6.926.198-1.542-.784-2.888-1.05-4.364-.261-1.145-.786-2.217-.978-3.372.131-.89 1.451-1.17.785-2.259-.362-1.972-.713-3.94-.909-5.939-.011-1.15-.647-2.453-.022-3.51.509-.511 1.5.06 1.19-1.024-.099-1.441-.07-2.89-.083-4.335-.058-1.512-.012-3.023.047-4.533.115-.996-.108-2.11.365-3.017 1.173-.648 1.982.683 1.739 1.77-.232.368-.522 1.994.447 1.61 1.234-.733 1.525 1.164 1.404 1.73.02.85.29 1.444.122 2.411-.07 1.444.894 2.616.778 4.083.167.767-.14 2.6 1.062 1.647 1.251-.797 2.654-1.285 3.946-2.008 1.023-.402 2.018-.877 2.996-1.361 1.178-.605 2.302-1.31 3.522-1.834 1.274-.784 2.692-1.31 3.91-2.181a102.392 102.392 0 0 1 8.468-4.34c1.238-.723 2.61-1.139 3.838-1.895 1.67-.604 3.274-1.367 4.83-2.221 1.292-.535 2.584-1.062 3.802-1.757 2.309-1.183 4.781-1.999 7.118-3.11 1.577-.513 3.021-1.355 4.64-1.749 1.324-.494 2.726-.713 4.013-1.304a35.632 35.632 0 0 1 4.427-1.48c1.609-.47 3.224-.91 4.793-1.506 2.413-.63 4.951-.926 7.21-2.044 1.238-.612 2.563-.976 3.859-1.426 1.7-.357 3.425-.582 5.11-1.021 1.709-.357 3.42-.66 5.123-1.04 1.98-.348 4.003-.487 6.012-.568 1.089.208 2.228.256 3.25.655 1.13.159 2.14.58 3.249.768 1.196.374 2.62.715 3.025 2.092.632 1.347.88 2.812.955 4.287.21 2.492.182 4.999.076 7.496.047 1.895-.09 3.788-.08 5.683-.176 3.33-.676 6.63-1.136 9.925-.506 2.81-.808 5.66-1.49 8.437-.985 4.315-2.844 8.352-4.561 12.41a247.146 247.146 0 0 1-2.964 6.326c-.551 1.052-.882 2.177-1.498 3.204-.493 1.358-1.297 2.594-1.809 3.948-.867 1.207-1.43 2.595-2.34 3.765-1.247 1.513-2.018 3.35-3.28 4.858-1.661 2.586-3.358 5.16-4.798 7.88-.33.494-.681.977-1.09 1.41z" fill="#a40"/><path d="M1021.126 1642.026c.763-1.583 1.84-2.994 2.749-4.496 1.252-1.964 2.605-3.86 3.791-5.862 1.074-1.486 2.116-2.995 2.967-4.62 1.2-2.304 2.29-4.667 3.384-7.024 1.279-2.563 2.409-5.196 3.675-7.767.342-1.088.967-2.032 1.271-3.142.684-1.388 1.156-2.861 1.667-4.315.542-1.273.833-2.635 1.219-3.962.274-1.564.72-3.093.895-4.675.443-2.687.883-5.366 1.3-8.057.069-1.246.347-2.489.339-3.73.231-1.359.124-2.753.204-4.127.066-2.85.285-5.71.137-8.558-.09-1.292-.203-2.586-.728-3.787-.365-1.346-1.673-1.861-2.901-2.112-2.528-.631-5.074-1.647-7.726-1.214a28.914 28.914 0 0 0-4.12.376c-2.632.591-5.29 1.051-7.927 1.621-1.474.164-2.906.63-4.273 1.181-1.604.384-2.94 1.519-4.62 1.646-1.557.458-3.15.783-4.722 1.18-1.338.6-2.803.792-4.168 1.326-1.566.332-3.052.924-4.545 1.49-1.367.482-2.81.716-4.138 1.309-1.864.628-3.718 1.304-5.495 2.152-2.106.807-4.213 1.628-6.226 2.657-1.73.873-3.511 1.637-5.26 2.464-1.508.785-3.077 1.444-4.587 2.213-1.528.619-2.93 1.51-4.452 2.153-1.604.786-3.24 1.499-4.762 2.443-2.293 1.26-4.557 2.591-6.902 3.75-1.295.86-2.782 1.36-4.141 2.107-2.112 1.1-4.707 1.599-6.207 3.606.317.97-.032 2.432 1.25 2.785-.179.522.77.07.335-.55-.221-.983-1.476-2.549.175-2.896 1.333.551.95 2.384 1.36 3.528.205 2.311.218 4.678 1.037 6.882.572 1.768 1.052 3.59 1.635 5.333.535-.965 2.16-1.043 2.264.323-.087.716.633 1.188.453.209-.027-1.57.126-3.147.447-4.684.128-1.498 2.402-1.532 1.88.122-.388 1.199.807 2.055.737 3.152.148 1.955.473 3.882.689 5.828.342 1.353.278 2.766.463 4.143.235 2.114.402 4.25.97 6.305.498 1.7 1.527 3.172 2.263 4.772a94.234 94.234 0 0 0 1.672 3.32c.589 1.279 1.269 2.504 1.817 3.802.574 1.105 1.157 2.21 1.65 3.356.424 1.096 1.193 2.18 1.632 3.353.673 1.363 1.45 2.671 2.036 4.076.744 1.435 1.936 2.561 2.778 3.932.87 1.026 1.823 1.982 2.527 3.137.697.8 1.366 1.646 2.076 2.47.59.866 1.311 1.577 1.928 2.43 1.38 1.59 2.58 3.325 3.801 5.036.501 1.066 1.69 2.036 1.426 3.312-.911 1.081.993 2.008 1.443 2.95.438.84 2.069 1.817.897 2.772-1.05-.135-1.673-1.519-2.64-2.054-.976-.817-1.91-1.658-2.855-2.509-1.29-.952.176 1.268.224 1.922.528 1.72 1.297 3.43 1.156 5.271.285.741-.814 2.686.65 1.902 1.957-.523 3.377-2.034 4.855-3.318 2.306-2.306 4.413-4.795 6.73-7.09 2.517-2.97 5.095-5.89 7.792-8.7.75-.906 1.482-1.831 2.203-2.761 1.475-1.987 3.204-3.796 4.596-5.855 1.896-2.38 3.813-4.747 5.853-7.005 1.235-1.6 2.593-3.097 3.853-4.67.107-.173.194-.36.244-.557z" fill="#ff7f2a"/><path d="M1006.466 1652.208c-1.061 1.356-3.119.55-3.986-.623-1.507-1.665-2.478-3.893-2.507-6.15.027-1.212.674-2.613 2.064-2.639 2.014-.073 3.773 1.248 4.976 2.753.862.983 1.607 2.44 1.095 3.742-1.148-.205-1.13-2.178-2.122-2.885-.997-1.005-2.45-2.151-3.945-1.651-1.138.75-.628 2.337-.214 3.368.492 1.103 1.16 2.243 2.21 2.886.979.702 1.721-1.531 2.445-.129.176.417.184.919-.016 1.328zM1013.923 1638.97c-1.042.923-2.477 1.567-3.881 1.325-1.264-.406-2.199-1.48-2.654-2.704-.815-.935-1.153-2.311-2.114-3.086-1.21.223-2.455.118-3.658-.156a5.3 5.3 0 0 1-3.369-1.76c-.932-1.07-1.295-2.598-1.434-4.012-.132-1.35.142-2.747.598-4.024.467-1.305.522-3.223 2.134-3.569 1.722-.516 3.352.633 4.65 1.633.988.868 2.01 1.759 2.711 2.873 1.223.769 1.613-1.468 2.825-1.635 1.129-.656 2.472-.652 3.682-.229a7.412 7.412 0 0 1 3.668 2.986c.47.973.56 2.13.46 3.193-.158 2.46-1.253 4.719-2.142 6.974a12.843 12.843 0 0 1-1.476 2.192z" fill="#a40"/><path d="M1014.146 1635.592c.95-2.38 2.192-4.817 2.01-7.448-.283-1.51-1.792-2.484-3.194-2.83-1.216-.315-2.444.183-3.347.995-.904.584-1.462 1.43-.823 2.438.366 1.318-.053 2.697-.917 3.722-.766.7-1.65 1.762-.503 2.604 1.26-.42.966 2.815 2.191 3.33 1.576.595 3.159-.549 3.98-1.839a8.48 8.48 0 0 0 .603-.972z" fill="#ff7f2a"/><path d="M1007.454 1630.535c.557-.46.171-2.54-.402-1.132-.127.592-1.048 2.15-.386 2.203.306-.322.59-.672.788-1.071zM1005.03 1632.407c-.028-1.644.188-3.399 1.223-4.733.74-1.146-.807-2.04-1.43-2.86-1.144-1.31-2.823-2.418-4.625-2.256-1.384.303-1.347 1.96-1.623 3.091-.376 1.538-.679 3.328.02 4.748.595 1.205 1.922 2.041 3.187 2.47 1.052.287 2.218.319 3.246-.049.07-.134-.012-.272.002-.41z" fill="#ff7f2a"/><path d="M995.157 1658.855c-1.047.835-2.477.83-3.743 1.014-2.167.071-4.59-.504-5.873-2.403-.4-.594-1.297-2.075-.46-2.396.904.66 1.182 1.949 2.293 2.4 1.802.947 3.982.991 5.921.494 1.74-.417.8-2.472-.211-3.172-1.17-1.104-2.72-1.662-4.294-1.86-.52-.165-2.963.295-1.454.663 1.103.231 2.297.27 3.135 1.118.716.223 1.387 1.57.117 1.153-1.261-.494-2.614-.514-3.892-.93-.979-.308-2.995-1.325-1.853-2.522 1.634-1.339 4.027-1.356 5.886-.476 1.872.632 3.602 1.878 4.441 3.712.552.947.925 2.361-.013 3.205z" fill="#a40"/><path d="M1017.432 1626.662c-.202-.188.33.001 0 0z"/><path d="M1023.711 1618.408c-1.142-.574-2.286-1.118-3.519-1.415-1.435-.9-2.859-2.108-3.423-3.759-.394-1.45-.491-3.026.037-4.455.193-1.202 1.056-2.18 1.937-2.917 1.623-.769 3.584-.585 5.084.382 1.354.703 2.183 2.025 2.708 3.411.057 1.015.603 2.16-.218 3.032-.907 1.003-1.134 2.32-1.47 3.578-.242.774-.57 1.546-1.136 2.143z" fill="#a40"/><path d="M1024.017 1615.16c.355-1.305.617-2.708 1.375-3.838.37-1.127-.7-2.077-1.457-2.744-.91-.593-2.099-.972-3.22-.975-.722-.001-1.65.036-2.077.618-1.025 1.395-1.294 3.826.075 5.19.755.91 1.82 1.555 2.928 1.915.719.233 1.623.512 2.264.112.037-.023.052-.12.052-.12z" fill="#ff7f2a"/><path d="M1033.264 1599.42c-1.168.847-2.36 1.663-3.784 2.099-1.765.719-4.1.774-5.522-.655-1.183-1.444-1.402-3.372-1.528-5.167-.04-2.058.77-4.018 1.763-5.783.757-1.408 1.593-3.035 3.043-3.711 1.386-.647 3.089-.248 4.59.052 1.204.24 2.453.617 3.42 1.375.704.552 1.15 1.387 1.566 2.18.308.587.59 1.215.672 1.873.137 1.11-.006 2.266-.325 3.336-.616 1.147-1.37 2.256-2.424 3.039-.448.574-.93.97-1.47 1.363z" fill="#803300"/><path d="M1033.66 1597.338c.807-.085 1.54-1.39 2.087-1.987.376-1.221-.416-2.607-.88-3.631l-.607-2.482c-.928-.96-2.413-1.362-3.515-1.206l-3.132-.094c-1.357-.07-2.015 1.614-2.57 2.607-.828 1.547-1.486 3.273-1.179 5.058.204 1.572.73 3.311 1.914 4.375.275.248.691.304 1.06.335.399.032.8-.073 1.187-.169 1.016-.252 2.085-.49 2.955-1.062.353-.216.788-.328 1.07-.649" fill="#ff7f2a"/><path d="M997.924 1644.643c-1.276 1.076-2.808 2.193-4.577 1.917-1.06-.235-2.22-.765-2.682-1.818-.457-1.516 1.644.051 2.322.18 1.147.091 2.224-.535 3.16-1.117 1.313-.69 1.136-2.183-.2-2.645-.47-.643-2.475-.686-1.368.332.947.312 1.799 2.27.198 2.054-1.283-.529-2.275-2.035-2.163-3.436.329-1.528 2.332-1.351 3.37-.695 1.39.798 2.93 2.153 2.736 3.91a2.01 2.01 0 0 1-.796 1.318z" fill="#803300"/><path d="M983.722 1644.943c-1.125-.186-2.344-.053-3.372-.54-.918-.436-1.691-1.195-2.277-2.024-.445-.628-.97-1.367-.872-2.14-.599-1.334-1.17-2.877-.642-4.33.873-1.39 2.781-1.354 4.215-1.114 1.66.43 3.14 1.45 4.338 2.649 1.207 1.495 1.358 3.812.071 5.31-.392.885-2.11.957-1.135 1.949.036.177-.192.261-.326.24z" fill="#a40"/><path d="M984.662 1640.643c.5-1.439-.713-2.73-1.917-3.316-1.384-.774-3.17-1.428-4.691-.668-1.041.874-.078 2.421.424 3.37.784 1.007 1.498 2.496 2.908 2.626 1.33-.054 2.814-.659 3.276-2.012z" fill="#f60"/><path d="M1012.538 1604.854c-1.03.961-2.1 1.897-3.317 2.602-1.736.84-3.92.489-5.357-.777-1.47-.29-.48-2.512.544-1.027 1.531.91 3.62.856 5.038-.263 1.59-1.138 2.907-2.68 3.709-4.466.496-1.88-.374-3.832-1.519-5.3-1.297-1.464-3.154-2.562-5.139-2.63-.355.419-1.699-.251-2.332.534a9.627 9.627 0 0 0-2.534 2.81c-.864 1.183-.964 2.685-1.12 4.089-.212 2.895.962 5.957 3.307 7.732 1.261-.46 2.328 1.09 1.228 1.93-1.511.253-2.688-1.02-3.533-2.108-2.122-2.566-2.627-6.144-2.082-9.348.154-1.037.581-2.02.951-2.99.868-1.502 1.967-2.953 3.406-3.938 1.713-.991 3.819-.63 5.518.201 2.771 1.369 4.66 4.193 5.203 7.2.143 1.709-.282 3.46-1.343 4.825-.206.31-.418.616-.628.924zM1025.49 1584.982c-.956-.867-1.946.333-2.85.647a31.795 31.795 0 0 1-6.573 1.902c-.546.097-1.105.099-1.66.116-1.13.034-2.272.108-3.394-.03-.885-.272-1.803-.263-2.582-.47-.29-.914-1.074-1.589-1.487-2.451-.398-.833-.918-1.681-.941-2.604-.02-.841.388-1.649.74-2.413.954-2.078 1.853-4.406 3.668-5.798.983-.754 2.31-1.093 3.549-1.107 1.853-.02 3.812.457 5.342 1.541 1 .616 2.033 1.174 3.022 1.806 1.35.228 1.978 1.764 2.863 2.64.267 1.183.312 2.412.794 3.55.328.916.201 2.024-.49 2.67z" fill="#a40"/><path d="M1019.894 1584.499c-.251-.055.117.271 0 0z"/><path d="M1008.975 1577.232c-.671.96-.285 2.326-.47 3.483-.124.775-.667 1.568-.428 2.315.317.992 1.285 1.772 2.246 2.172.85.354 1.84.051 2.76.059 1.13.01 3.387-.015 3.387-.015 1.84-.303 5.839-1.13 6.825-2.231.288-.456 1.143-.433 1.143-1.036-.275-.95-.332-2-1.32-2.602-.995-.627-1.939-1.337-2.948-1.94-.89-.755-1.863-1.447-2.954-1.843-.557-.202-1.177-.145-1.76-.245-.706-.12-1.396-.524-2.104-.422-1.632.236-3.432.954-4.377 2.305z" fill="#d45500"/><path d="M985.953 1633.06c-1.425 1.01-3.276.589-4.827.167-2.276-.889-4.475-2.776-4.829-5.312-.138-1.198.863-2 1.655-2.705.666-.948 1.81-1.333 2.917-1.42 2.337-.024 4.313 1.73 5.441 3.645.75 1.51 1.352 3.539.22 5.02a3.524 3.524 0 0 1-.577.605z" fill="#a40"/><path d="M985.917 1631.022c.76-2.47-1.341-5.013-3.715-5.51-1.119-.257-2.573-.014-3.178 1.05.111 1.065 1.115 1.867 1.03 3.033.42 1.131-.634.91-.828.027-.613-.58-1.144-1.782-1.646-2.079-.348 1.123.662 2.068 1.444 2.725 1.603 1.386 3.902 2.463 6.012 1.633.387-.174.72-.481.881-.88z" fill="#ff7f2a"/><path d="M996.428 1611.785c-1.457 1.173-2.772 2.489-4.108 3.793-1.048.933-2.455 1.483-3.846 1.607-2.057.074-3.629-1.639-4.27-3.447-.765-2.27-.662-4.853.44-7.002.786-2.09 2.613-3.775 4.75-4.403 2.08-.503 4.138.498 5.863 1.564 1.421 1.048 3.092 2.466 3.01 4.403-.176 1.37-.863 2.521-1.839 3.485z" fill="#803300"/><path d="M996.816 1608.486c.186-1.73-1.536-2.778-2.851-3.49-1.626-.903-3.815-1.434-5.455-.275-1.559.862-2.589 2.403-3.113 4.074-.49 1.316-.617 2.8-.04 4.11.473 1.42 1.793 2.957 3.448 2.567 1.258-.119 2.153-.992 3.108-1.707 1.222-.463 1-2.192 2.282-2.48 1.167-.203 1.796-1.644 2.497-2.548.05-.08.088-.164.124-.25z" fill="#d45500"/><path d="M971.236 1631.627c-1.034.778-2.512.681-3.557-.018-1.362-.409-2.796-1.01-3.313-2.469-.648-1.255-1.041-2.683-.713-4.09.146-1.29.549-2.655 1.664-3.443.71-.877 1.94-.556 2.787-.096 1.886.841 2.587 2.909 3.295 4.682.613 1.735.957 3.818-.163 5.434z" fill="#a40"/><path d="M970.468 1629.862c.476-1.517-.263-3.055-.798-4.45-.564-1.133-1.384-2.586-2.869-2.412-1.058.16-2.388 1.902-1.333 2.741.742.39.848-1.465 1.584-.387.772 1.052 1.481 2.189 2.594 2.905.776.77.135 1.902-.766 1.872.048.837 1.542.283 1.588-.27z" fill="#ff7f2a"/><path d="M968.02 1628.971c-.469-.69-2.14-1.903-2.625-1.134.333 1.038 1.744 2.187 2.67 1.202z" fill="#ff7f2a"/><path d="M975.689 1619.794c-.812.563-1.863.879-2.85.818-1.03-.063-2.363-.325-2.85-1.212-.59-1.002-1.87-1.654-2.004-2.792-.096-.815.386-1.667.933-2.278 1.271-1.42 3.015-2.961 5.017-2.743 1.585.032 3.356.903 3.683 2.591.42 1.54-.372 3.069-1.039 4.414-.251.432-.48.918-.89 1.202z" fill="#a40"/><path d="M975.728 1617.127c.558-.962 1.161-2.843-.127-3.433-1.225-.403-2.618-.325-3.83.082-1.276.39-2.537 2.052-1.224 3.15 1.084.915 2.607 1.556 4.037 1.26a1.733 1.733 0 0 0 1.144-1.059z" fill="#d45500"/><path d="M978.367 1605.948c-1.05.567-2.32.372-3.458.265-.642-.286-1.182.285-.937.924-1.348-.346-2.044-1.672-2.883-2.636-.745-.209-2.35-.386-1.294-1.385.047-1.224-.369-2.557.48-3.647 1.063-1.837 3.88-1.969 5.326-.52 1.775 1.354 3.609 3.315 3.358 5.724-.052.472-.221.958-.592 1.275z" fill="#a40"/><path d="M977.698 1603.55c-.27-1.2-.616-.385-.57.365-.33 1.337 1.202.416.57-.364zM975.854 1603.787c.289-1.544-.586-3.209-2.116-3.688-1.318-.663-2.485.483-1.954 1.828.082 1.628 1.786 2.057 3.042 2.51.481.159 1.077-.089 1.028-.65z" fill="#ff7f2a"/><path d="M976.452 1681.389c-.454.277.4.469 0 0zM973.14 1653.797c-.285-.126.113-.04.055.078zM979.547 1683.651c-.271-.19.554-.125 0 0zM968.878 1675.9c-.573 0-.123-.28 0 0z"/></g></svg>