<svg xmlns="http://www.w3.org/2000/svg" xmlns:xlink="http://www.w3.org/1999/xlink" width="2000" height="3000"><defs><linearGradient id="b"><stop offset="0" stop-color="#009633"/><stop offset="1" stop-color="#063"/></linearGradient><linearGradient id="c"><stop offset="0" stop-color="#fff"/><stop offset="1" stop-color="#54deff"/></linearGradient><linearGradient id="a"><stop offset="0" stop-color="#fff"/><stop offset=".5" stop-color="#d4c37f" stop-opacity=".498"/><stop offset="1" stop-color="#a80" stop-opacity="0"/></linearGradient><linearGradient xlink:href="#a" id="e" x1="-45.755" y1="296.36" x2="1051.261" y2="296.36" gradientUnits="userSpaceOnUse" gradientTransform="matrix(2.20553 0 0 4.36834 96.827 -850.192)"/><radialGradient xlink:href="#b" id="f" cx="502.638" cy="609.739" fx="502.638" fy="609.739" r="564.019" gradientTransform="matrix(1.89245 0 0 1.44682 23.77 -878.556)" gradientUnits="userSpaceOnUse"/><radialGradient xlink:href="#c" id="d" cx="-298.481" cy="496.389" fx="-298.481" fy="496.389" r="450.22" gradientTransform="matrix(2.68801 0 0 3.48189 2007.982 -1283.964)" gradientUnits="userSpaceOnUse"/></defs><path transform="rotate(-90 1116 1116)" opacity=".99" fill="url(#d)" stroke="url(#e)" stroke-width="3.104" d="M-2.984-1121.655h2417.292v3132.124H-2.984z"/><path d="M2034.703 798.256l-2115.538 8.805c.093 10.454-17.992-1181.033 5.165-1257.829 36.139-34.884 73.208-52.567 109.79-77.552 27.766-13.492 55.406-33.17 83.407-37.341 41.705-19.694 83.675-18.63 125.694-28.424 57.153-1.057 114.169 18.647 171.241 12.998l38.473-3.809c56.014-5.544 112.052-12.607 167.965-25.802 73.877-21.14 147.167-61.05 220.915-88.083 85.854-32.796 171.467-78.613 257.848-85.196 112.898-22.756 226.008-14.243 339.013-14.738 82.719-2.55 165.479 12.485 247.55 53.007 60.833 25.795 121.073 71.216 182.107 91.534l161.64 63.75c13.793 395.92 4.136 937.003 4.73 1388.68z" fill="url(#f)" stroke="#244c26" stroke-width="15.705" stroke-dashoffset="2.08" transform="translate(0 2232)"/><path d="M506.476 1363.44c-3.166-3.07-4.213-7.76-6.242-11.595-1.585-3.615-3.252-7.332-4.703-10.917-5.065-11.897-9.768-24.159-13.398-36.653-3.589-11.342-5.836-23.135-7.83-34.874-1.075-8.38-2.575-16.762-2.302-25.242-7.728-3.24-14.99-7.502-22.231-11.621-4.263 2.994-4.176 9.32-8.139 12.166-1.738 1.248-4.07 1.44-6.196 1.679-4.074.457-8.668.239-12.287-.506-10.035-.486-20.013.622-29.938 1.957-2.446.402-11.117 1.424-8.259-2.293 7.231-.132 14.422-1.507 21.605-2.35 9.546-.805 19.166.158 28.692-.755 5.741.428 7.51-5.54 10.638-9.095 3.883-4.172-5.823-5.841-7.83-9.34-3.068-3.273-7.74-5.611-8.766-10.295-1.083-4.106.268-9.7.546-13.057-14.007 7.073-29.515 11.634-42.026 21.49-7.943 5.484-14.426 12.785-21.568 19.128-3.157 3.718-4.729-2.677-1.175-2.435 5.14-3.997 9.286-9.283 14.445-13.164 9.783-9.18 21.782-15.625 34.17-20.623 5.902-2.658 11.888-5.151 17.517-8.357 3.081-7.569 7.513-14.53 13.297-20.353 9.07-10.024 19.876-18.137 30.569-26.309 13.25-9.858 27.238-18.979 42.598-25.257-2.935-2.168-9.23-3.776-13.705-4.738-12.732-2.58-25.812.063-38.276 2.9-7.573 1.573-14.957 4.01-22.574 5.337-8.221.927 7.018-10.084 2.804-3.45 5.086-.402 9.912-2.651 14.999-3.368 9.856-2.358 19.834-4.473 29.97-5.071 8.802-.52 17.536 1.277 25.726 4.424 4.366 2.417 8.716 1.603 13.13-.312 16.19-4.85 33.181-5.372 49.903-6.764 5.83-.54 11.691-.759 17.533-1.013-8.457-5.902-17.192-11.487-24.862-18.432-6.734 1.227 2.118-6.252 3.777-1.055 8.224 7.36 17.68 13.056 26.572 19.51 5.781 1.042 11.81 1.28 17.508 2.965 12.765 3.864 25.077 8.973 37.689 13.239 9.1 3.199 17.9 7.178 26.852 10.759 3.183-3.589 5.825-7.89 8.88-11.685 9.57-13.45 22.21-24.41 35.937-33.482 2.711-1.332 8.375-7.1 10.045-3.348-4.158 2.773-8.57 5.339-12.593 8.404-13.008 8.784-24.36 20.025-33.4 32.85-.717 3.09-9.342 8.024-3.913 9.516 9.561 4.17 18.7 9.765 25.726 17.587 6.643 6.61 11.499 14.815 15.015 23.437 3.368 6.834 6.638 13.938 8.646 21.36 2.343 1.89 7.765-2.527 11.233-2.822 12.944-4.47 26.369-7.346 39.88-9.48 8.045-1.327 16.04-3.277 24.18-3.82 2.197 3.788-6.388 2.71-8.96 3.734-18.493 3.312-37.226 5.922-55.06 12.077-3.096 2.054-11.383 1.2-10.17 6.256 1.4 10.745-4.324 21.34-12.72 27.804-9.865 7.76-21.963 12.073-33.846 15.712 1.811 2.027 8.88 2.812 12.587 4.662 18.065 5.984 34.366 16.54 53.061 20.744 10.337 2.553 20.825 5.009 31.55 4.932-.373-1.99-3.588-10.14 0-7.755 1.636 3.715 6.342 12.44-1.656 11.124-10.827-.082-21.4-2.8-31.888-5.214-12.502-3.177-24.075-8.846-35.683-14.236-11.087-5.133-22.712-9.173-34.466-12.37-15.04 4.017-30.357 6.842-45.698 9.421.514 6.706 2.638 13.226 4.638 19.628 4.145 10.61 8.413 21.214 14.075 31.109 1.333 2.98 5.694 8.344 5.913 2.093 4.584 2.895-2.988 9.808-5.601 3.679-6.914-9.886-11.207-21.308-15.83-32.351-2.667-7.122-4.828-14.455-6.066-21.989-2.01-3.61-8.877.312-12.864-.343-13.435 1.168-26.988 1.054-40.433.088a133.696 133.696 0 0 1-20.129 1.203c-.129 3.85.01 7.738 1.813 11.235 1.971 5.744 4.56 11.296 8.268 16.174 8.781 12.638 21.682 21.548 33.716 30.83a34.37 34.37 0 0 0 7.596 5.756c2.784 2.184-.766 6.273-2.864 2.331-4.913-4.718-10.359-8.824-15.844-12.837-2.7-1.197-5.977-5.237-9.204-7.353-10.437-8.763-19.654-19.637-23.948-32.745-2.007-4.257-2.96-8.94-2.668-13.653-15.557-1.816-30.253-7.506-45.441-10.984-13.893-3.785-28.277-6.022-41.656-11.531-.665 4.875.455 10.024.958 14.946.97 7.89 2.316 15.766 3.869 23.573 1.588 6.974 3.278 13.917 5.248 20.725 2.1 6.314 4.077 12.683 6.51 18.907 4.32 11.488 8.914 22.832 14.388 33.84 1.67 5.347 2.033-3.367 3.034-1.562 1.955 1.09.062 7.565-2.398 7.563z" fill="#d4aa00"/><path d="M586.511 1264.104c7.886-1.28 15.885-3.196 23.252-6.018 5.41-1.16 10.332-3.796 15.525-5.633 3.343-2.605 10.551-2.483 10.933-7.276-.326-3.423 1.995.096 2.59.773.553.63.274 1.653.403 2.48.746 4.765.075 11.269 2.153 14.308 14.39-2.218 28.769-4.905 42.815-8.699-3.287-.41-5.369-5.244-.84-4.216 3.697 3.981 8.818 2.708 13.27.762 13.192-4.21 26.973-9.746 35.647-21.07 3.916-5.392 6.132-12.235 5.216-18.994-.772-3.69-6.807 1.506-9.77 1.5-1.983 1.792-7.482-.077-3.136-1.601 3.656-1.514 10.967-1.614 11.872-5.427-3.254-10.407-8.05-20.246-12.7-30.083-7.12-12.463-17.999-23.027-31.198-28.869-3.792-2.514-8.096-4.516-10.53.648-.895 2.871-7.23 3.704-3.718.134 1.725-1.691 7.464-5.565 2.11-6.241-12.285-5.436-24.923-10.011-37.609-14.391-11.41-4.193-22.712-9.271-34.943-10.434.73 2.116 6.728 5.22 9.281 8.02 4.007 3.371 7.89 7.086 11.343 10.707-1.12 5.757-5.712-2.235-8.168-3.488-6.13-5.929-12.846-11.195-19.906-15.967-15.552-.292-30.99 1.84-46.474 2.943-9.394 1.067-18.873 2.573-27.775 5.845 3.863 1.054 9.126 4.688 12.242.201 2.06-3.372 5.798-.803 2.102 1.541-2.88 2.99-6.828 4.751-10.788 2.536-4.622-1.5-9.462-3.593-13.857-.279-14.651 6.508-28.174 15.32-40.898 25.015-12.587 9.56-25.26 19.47-34.76 32.235-1.883 2.853-4.822 7.135-5.143 9.647 6.116-3.503 12.297-6.987 18.281-10.676 4.574-2.884 6.91-7.859 9.99-12.09 4.975-2.763-.235 5.157-1.76 6.616-4.147 7.963-13.165 10.817-20.086 15.655-3.416 2.602-9.61 3.26-9.347 8.67-1.47 5.53-1.436 12.288 3.87 15.772a72.306 72.306 0 0 0 13.179 10.327c1.736-2.574 5.049-4.993 5.98-7.632-.809-3.164-.505-6.482-4.112-7.932-3.816-3.212-8.615-6.093-10.495-10.899-1.343-4.071 5.123-4.135 2.337-.188 2.517 5.128 7.708 8.267 12.121 11.59 2.201-1.245 2.337 4.118 5.189 4.61 4.63 4.05 8.895 8.476 13.773 12.21 2.783-.767 2.91 4.041 6.137 4.602 9.541 6.597 20.477 10.86 31.306 14.78 18.734 6.005 38.11 10.009 57.642 12.54 5.792.483 11.626 1.986 17.454 1.436zM570.34 1265.378c-1.943-.813-8.09-.34-3.232-.01 1.076-.103 2.176.271 3.233.01z" fill="#fd5"/><path d="M611.609 1265.222c8.744-.06 17.551-.695 26.155-2.115-1.422-3.604.281-11.203-2.536-12.741-12.594 6.374-25.959 11.107-39.594 14.632 5.198.513 10.68.28 15.975.224zM562.732 1264.838c-2.99-1.89-9.793-1.457-14.094-2.956-1.895-.21-8.45-1.75-7.921-1.24 6.966 2.05 14.11 3.649 21.322 4.478z" fill="#fd5"/><g fill="#a0892c"><path d="M551.47 1222.214c-17.255-1.52-33-13.114-40.639-27.894-2.724-9.267 8.107-6.885 6.986.957 6.625 9.421 16.78 17.174 28.122 20.582 12.234 1.621 25.749 2.736 37.264-2.071 14.434-7.117 27.12-19.024 30.362-34.902 8.302 1.042-.434 18.108-5.642 22.292-11.338 12.662-27.694 22.977-45.737 21.086-3.571 0-7.145.046-10.715-.05z"/><path d="M555.82 1183.163c-9.312-6.19 3.127-13.114 4.658-2.873-.34 1.91-2.649 3.745-4.659 2.873zM524.514 1167.473c-4.807-10.607 15.396-2.08 0 0zM580.095 1154.133c-3.126-7.594 12.061-5.828 4.357.471-1.17.433-3.628 1.232-4.357-.471z"/></g><path d="M511.938 1253.037c-12.418-4.496-24.962-9.377-35.58-17.4-2.198-.567-2.878 8.189.948 7.99 11.164 4.379 23.013 6.619 34.6 9.508zM472.158 1240.104c.161-3.966 2.164-8.097-2.7-9.998-3.868-3.63-7.775-7.222-11.696-10.787 2.84 4.538-3.885 6.64-5.605 10.205-.422 3.07 6.526 4.3 8.92 6.471 2.65.564 9.972 6.849 11.081 4.109z" fill="#fd5"/><path d="M1702.927 1954.436c-26.184-30.293-61.204 2.926-90.241 9.183-68.345 18.904-138.945 29.986-209.617 33.792-17.178.925-34.408-1.124-51.538-2.695-34.963-3.204-70.413-5.226-104.432-13.71-26.237-11.732-54.555-14.893-77.744-24.213-5.474-29.249-27.108-52.998-36.556-81.107-9.125-27.147-21.953-55.245-19.177-83.75 2.53-25.98 18.177-49.31 31.878-71.528 37.248-60.404 73.71-128.712 134.845-164.747 33.129-19.526 75.276-24.958 113.493-20.692 57.158 6.38 115.686 28.44 158.74 67.61 28.436 22.743 58.171 43.822 86.256 67.01 40.703 12.112 54.275 61.783 78.209 92.114 3.772 37.438.531 75.454 11.08 112.327 6.628 29.46-1.45 63.116-25.196 80.406z" fill="#0ff"/><g><path d="M958.659 1793.542c-2.348-4.67 3.55-9.795 5.414-14.715 2.219-7.158 4.624-14.3 7.83-21.062 1.66-3.753 7.197-9.62-.528-9.382-5.04-.84-9.889-2.259-14.86-3.358-5.2-1.168-10.366-3.424-15.469-4.187l-3.01-.923c-5.743-1.082-11.18-3.7-16.979-4.776-1.583-.729-3.753-1.17-2.137 1.318-2.531 1.58-7.828 6.141-9.277.674.312-4.415.433-9.176.872-13.79 1.99-6.032-6.877-.379-10.07-2.178-4.95.761-7.988.17-13.663.591-5.567.14-11.128.365-16.639.895-4.869.196-9.158-1.481-13.494-3.923-3.823-2.45-3.259-10.81 2.206-10.091 4.833 1.547 6.289-4.469 10.982-3.284 4.776.19 9.618 2.357 13.916-.89 4.13-1.784 7.769-5.202 12.282-5.447 3.811.28 7.272.027 10.57 1.49 3.64 1.692 8.165-.06 8.7 4.038 2.208-4.428 3.4-10.04 5.826-14.777 2.692-4.557-.846-4.078-3.952-2.355-3.107 2.284-8.623 1.622-7.049-3.358 1.256-4.758 7.774-4.675 11.774-6.072 5.632-2.093 11.672-2.781 17.62-3.368 4.631 1.403 9.097.718 13.219 1.627 5.39.83 10.835 1.436 16.246 2.388 4.879.72 9.641 2.16 14.51 3.16 4.934.592 8.956 1.044 13.766 1.85 10.195 1.458 20.606 1.409 30.914 1.938 6.058-1.367 12.336-1.282 18.396-2.702a221.388 221.388 0 0 0 17.39-2.232c4.844-.609 9.141-1.254 13.987-1.854 3.005-1.05 8.789-.924 9.398-3.962-4.099-3.124-8.957-4.971-12.643-8.344-3.24-4.383-9.08-5.487-12.858-9.6-4.954-4.484-10.59-8.37-14.636-13.81-2.696-2.898-4.93-6.526-7.53-9.272-2.209-4.483-4.83-8.55-7.13-13.01-1.878-4.233-3.841-8.192-5.698-12.414-2.106-4.632-3.407-9.323-5.503-13.873-2.226-5.194-3.664-10.678-6.09-15.778-.68-4.912-3.205-9.458-4.092-14.425-2.314-6.971-3.396-14.274-4.424-21.526-2.146-.127-3.601 6.398-7 7.507-3.546 3.603-7.895 6.743-12.879 7.449-5.203 1.041-10.303 1.256-15.634.365-5.817-1.101-11.985-1.425-17.078-4.745-6.836-4.803-12.432-12.308-13.677-20.82.266-8.787 4.811-16.805 9.111-24.233 2.616-2.766 3.684-6.803 6.405-9.708 2.643-4.557 6.088-8.786 9.608-12.75 3.656-5.651 8.44-10.475 12.376-15.91 5.671-6.424 11.142-13.03 16.993-19.27 3.82-3.934 7.217-8.6 11.537-12.23 4.658-4.336 9.095-8.926 14.197-12.712 3.89-3.575 8.431-6.29 12.736-9.31 4.433-3.111 9.224-5.77 14.027-8.343 4.758-1.73 9.02-4.552 13.489-7 3.727-2.576 8.043-4.525 11.483-7.388 4.48-1.04 8.924-7.4 13.029-2.32 3.693-2.517 7.74-4.53 11.854-6.473 3.488-1.422 7.007-3.242 10.567-5.042.242-3.027-5.736-5.998-2.758-9.356 3.249-4.436 9.293-4.547 14.055-6.246 4.968-2.374 10.902-2.539 16.144-1.268 3.122-.03 7.677 1.078 10.779.21 3.785-2.783 8.084-3.173 12.218-4.267 4.755-1.62 9.35-3.616 14.291-4.69 3.26-1.263 11.964-3.433 11.14 2.08-1.265 4.51 2.803 2.71 5.624 2.365 9.676-1.588 19.494-2.387 29.317-2.113 4.928-.227 9.751.398 14.577 1.244 6.462.798 12.918 1.602 19.417 1.959 7.498 1.678 15.273 2.028 22.513 4.754 5.399 1.453 10.87 3.187 15.617 6.141 2.791 1.659 4.818 1.805 6.728-1.245 4.541.162 9.486-1.495 13.337 1.738 4.01 2.644 8.964 3.653 13.114 6.203 3.734 3.58 9.27 3.293 14.082 4.24 4.758.307 9.237 1.183 13.84 2.233 5.155.902 10.417 1.32 15.604 1.738 3.717 1.336 8.733 1.984 13.032 2.38 5.429.551 10.472.953 15.587 2.682 4.532 1.038 9.42 2.789 13.22 5.054 5.281 3.34 10.382 8.154 11 14.704 1.305 5.168 1.109 10.927.2 16.13-1.488 4.992-5.25 8.833-9.656 11.558-4.31 2.524-9.083 4.054-13.964 4.766-9.201 2.757-19.066 2.112-28.37.244-3.533-1.667-8.191-.088-9.405-2.67-4.1-1.37-7.92-3.152-11.53-5.773-3.607-2.6-7.949-4.016-10.554-7.685-3.457-3.612-7.327-7.279-9.7-11.542-3.35-3.764-4.965-8.62-7.582-12.856-2.716-4.171-6.473-7.504-9.648-11.345-.615 2.932 2.737 8.519 3.585 12.444 2.397 6.745 5.13 13.432 6.258 20.556 3.129 14.21 1.333 28.883 2.863 43.254-.307 6-1.599 11.919-3.735 17.499-3.088 6.67-1 14.47-3.373 21.296 1.405 4.39 3.004 8.837 3.753 13.455.752 2.778 1.123 10.056 2.084 10.208l1.158 9.132c.18 5.625 1.684 8.04 2.52 13.728.048 9.445 1.49 18.902-.7 28.175-1.72 3.785-3.6 7.128-6.476 10.095-2.833 3.187-4.396 5.16-7.363 7.987-3.546 3.922-7.376 7.632-10.774 11.654-2.527 1.173-7.164 5.273-7.45 6.32l-40.522 32.558c-4.22 3.949-8.71 7.638-13.25 11.148-3.872 3.112-7.825 6.22-11.664 9.422-4.092 2.523-7.839 5.664-12.21 7.725-2.81 2.096-6.552 4.326-9.951 5.449-4.757 2.329-10.088 4.039-15.278 5.492-5.036 1.338-10.042 3.221-15.3 3.212-12.653-.025-25.341-.453-37.933-1.737-5.846-.477-11.554-1.813-17.338-2.684-5.125-.13-6.198 6.52-9.255 9.565-3.076 4.366-6.474 8.36-9.828 12.46-4.488 4.703-9.472 8.864-14.152 13.364-4.01 3.735-9.91 2.206-14.486 4.528-4.398 1.152-7.837 3.298-12.763 3.845-2.887 1.495-7.173 2.227-4.493 5.906.57 5.358 2.306 11.083 4.408 15.694 2.123 2.852-1.696 4.886-2.015 7.68.104 1.564-5.383 1.639-4.978-2.088-1.866-2.802-3.111-7.524-4.092-11.403-.227-1.078-.528-7.574-2.218-8.764-3.966.692-8.08 3.133-12.119 4.678-3.982 2.22-12.387 2.9-11.644 8.828.844 10.89 3.459 21.553 5.103 32.307-2.506.561-5.381 3.107-7.519 1.683-8.132-5.415-3.627-19.215-5.116-28.862.291-4.096-1.696-6.668-5.693-4.732-3.878.432-7.457 1.22-11.395 1.018-2.396-.638-2.632 2.978-2.638 4.525-2.041 3.427-3.39 7.016-4.617 10.61-.627 2.95-2.231 7.686-.7 9.402l-.04.437c1.412 3.739-6.06 12.719-6.506 5.604-2.182-4.906.177-9.982 1.17-14.878.716-5.092 2.892-9.981 5.525-14.393.749-3.313-7.781-4.225-7.84.185-2.903 3.604-4.433 8.14-6.151 12.426-1.865 4.588-3.754 8.943-5.184 13.68-1.898 4.8-3.61 9.632-5.416 14.338 0 0-4.854.09-5.752-1.696z"/><path d="M1003.84 1744.22c3.748.045 6.4-.23 5.267-4.519 2.308-5.06 7.735-3.894 9.654.755 3.835-.144 7.234-3.49 11.323-4.48 3.421-2.856 8.14-3.195 11.446-6.193 1.749.319 6.482-2.419 9.376-3.252 5.135-2.607 10.686-4.443 15.973-6.46 5.053-1.628 10.653-2.577 15.862-4.162 5.516-4.018 9.971-9.39 14.863-14.145 3.043-3.623 5.688-7.53 8.218-11.501 2.017-2.895 5.359-6-.066-6.516-4.327-1.546-8.848-4.141-12.734-5.63-2.812 4.39-6.662 9.24-12.464 8.83-4.964.882-9.527 1.773-14.533 2.495-6.841.946-13.733 1.916-20.636 2.596-6.953 1.562-14.14 1.39-21.13 2.77-7.537.644-14.956-1.396-22.483-1.464-7.288-.6-14.564-1.914-21.75-2.965-6.42-2.24-13.346-2.43-19.82-4.32-5.376-.527-10.595-1.123-15.962-1.588-3.784-.8-7.591-2.748-11.503-.952-2.629 3.813-5.312 8.006-6.264 12.74-1.846 4.49-3.71 8.904-5.231 13.5-1.108 3.378-2.104 6.664-2.55 10.416-3.026 5.93 4.016 7.2 8.334 7.657 4.344 1.153 8.69 2.369 12.995 4.01 4.817.857 9.377 2.525 14.043 3.887 4.917 1.15 9.791 2.384 14.803 3.127 4.655.94 9.116 2.838 13.866 3.174 6.487 2.963 14.124 2.61 21.103 2.19z" fill="gray"/><path d="M915.168 1706.927c-.96-1.438-.84 1.389 0 0z"/><path d="M1174.403 1683.902c6.389-1.414 12.982-2.273 19.154-4.613 5.078-1.134 9.4-4.376 14.198-6.267 4.253-2.064 7.993-4.857 11.994-7.288 2.773-1.984 5.896-4.036 8.58-6.36 3.576-2.41 6.709-5.23 10.175-7.746l19.59-16.728c4.997-1.974 10.624-9.881 15.405-12.363 3.766-2.078 7.072-5.357 10.694-8.036 4.862-3.06 8.963-7.372 13.648-10.707 4.4-4.503 9.148-8.794 13.238-13.54l8.173-13.217.768-7.962-1.477-10.01-1.006-2.657-2.767-13.479c-1.466-6.861-1.715-14.005-3.409-20.839-.088-5.633-5.57-10.152-2.84-15.974 1.096-5.087.301-10.308 1.153-15.378 1.998-6.838 5.427-13.558 4.458-20.9-.274-10.4.139-20.841-1.246-31.167-.337-5.806-1.94-11.516-3.02-17.234-1.53-4.485-2.84-9.033-4.418-13.504-1.665-4.443-2.583-8.903-4.468-13.247-1.555-5.116-4.723-9.634-8.827-13.182a37.057 37.057 0 0 0-12.772-8.03c-4.764-2.257-9.957-2.978-14.99-4.445-6.586-1.396-13.293-2.118-19.944-3.149-7.976-.718-15.942-1.465-23.87-2.584-4.66-.7-7.92.569-11.889.16-7.078.018-14.025 1.63-21.1 1.795-5.944-.924-7.112 5.364-12.385 5.84-3.875 1.97-8.167 3.414-12.568 3.468-3.925-.448-3.422 3.968-6.2 2.23-5.344 1.218-10.852 1.134-14.738 5.799-3.72 3.59-9.063 3.747-13.927 4.972-4.576.512-9.206-.041-13.147-2.283-4.692-1.168-8.814 2.855-13.007 4.064-4.438 2.628-9.269 4.403-13.579 7.16-1.125 3.977 2.56 9.286-2.435 12.435-2.738 3.706-5.883 6.772-8.993 10.208-3.955 3.446-7.066 7.597-10.49 11.577-2.686 3.79-5.406 7.736-7.863 11.644-2.741 3.944-3.905 8.744-6.394 13.099-2.11 4.943-4.86 9.903-5.909 15.111 3.252-1.574 6.607-5.003 9.87-7.183 2.789-2.844 6.585-4.17 9.853-5.66 4.772-1.538 8.175-5.15 12.27-7.85 2.712-1.923 10.335-8.128 10.79-2.181-1.846 2.749-6.683 4.853-.656 6.385 3.918 2.572 6.486 5.99 9.728 9.269 3.421 2.835 7.196 5.661 10.655 9 3.848 3.097 7.222 7.178 8.278 11.953.582 4.43 5.573 10.094 2.532 13.863-3.176 3.875-7.548 6.975-11.348 9.855-4.717 3.13-9.379 6.955-14.077 10.396-3.89 2.245-7.171 5.596-11.48 6.837-4.41 2.13-9.146 2.776-13.524 4.98-5.83.993-11.422 3.348-17.417 3.368-6.73 1.178-13.752 2.115-20.516.76-2.794-3.484 3.054-6.648 5.625-9.013 4.917-4.076 9.964-8.098 14.647-12.504 1.636-2.195 7.824-6.823 6.05-7.956-7.715 2.77-16.003 3.118-24.079 3.951-5.218-.717-7.586 5.015-10.774 7.934-2.792 4.712-7.657 7.781-8.804 13.548.676 9.006 1.133 18.103 3.916 26.77.935 5.469 2.814 10.66 4.487 15.919 1.933 5.963 4.473 11.77 6.475 17.684 2.453 6.894 5.141 13.948 8.563 20.553 1.528 4.153 3.89 8.032 6.008 11.731 1.66 4.119 4.613 7.44 7.378 10.9 4.996 6.135 10.67 11.977 17.096 16.507 2.688 2.113 5.72 5.049 9.143 7.046 4.58 3.613 9.157 7.042 14.258 9.95 4.585 2.192 8.689 5.061 13.43 6.842 3.226 1.135 10.313 5.048 7.755-1.654-3.236-4.945 5.478-9.086 7.188-3.571 1.466 3.099.66 7.382 1.542 10.278 5.98 1.838 12.19 2.554 18.418 2.977 10.565 1.817 21.346 1.201 31.993 1.938a39.3 39.3 0 0 0 3.177-.295z" fill="#999"/><path d="M1120.583 1597.035c-5.252-.85-10.951-1.394-15.435-4.496-3.883-3.816-6.684-8.745-10.731-12.286-3.527-3.172-1.473-7.568 2.62-8.711 5.051.734 6.513 5.856 9.953 8.688 2.556 4.798 7.929 7.582 12.797 7.909 4.244-.21 9.842 1.233 14.625.554 4.37-.461 8.78-.687 12.858-2.36 4.038-1.03 8.359-1.384 12.052-3.155 5.34-2.1-1.618-9.053-.593-13.404-1.796-8.826-1.795-17.952-4.505-26.602.145-5.286-4.46-7.77-8.304-9.472-4.624 1.235-12.484-2.342-8.957-8.044 1.335-3.074-2.173-5.439 2.767-6.37 4.367-.08 9.395-2.295 11.01 3.704 1.197 5.39 9.256 4.126 10.087 9.762 1.742 8.068 3.823 16.103 3.986 24.394 1.117 6.445 2.292 12.745 4.362 18.92.292 2.955-.87 5.064 2.89 2.658 5.244-2.207 9.873-5.71 14.965-8.31 4.202-2.55 8.494-4.916 12.3-7.99 3.781-2.9 8.61-5.488 10.377-10.165 2.087-6.163 10.054-.901 4.918 3.486-1.848 4.64-5.903 8.005-9.85 10.786-4.223 2.957-8.484 5.8-12.657 8.744-4.27 2.025-7.897 5.5-12.338 7.08-4.273 2.16-8.237 4.772-12.762 6.363-4.751 1.812-9.691 3.117-14.52 4.658-5.17.528-9.912 3.13-15.205 3.103a66.755 66.755 0 0 1-16.71.556z"/><path d="M1151.32 1537.904c2.195-.358-.662.69 0 0zM1215.383 1441.715c-2.107-2.063-6.517-.554-7.393-5.192-.527-4.017.743-8.46 3.735-11.305 4.93-2.682 7.717 2.69 11.306 4.208.795 3.616 3.862 6.638.08 9.024-1.034 3.028-6.469 1.869-7.728 3.265zM1268.981 1376.178c.068-1.924 1.61.824 0 0zM1195.991 1365.8c-.94-1.305 2.103.944 0 0z"/><path d="M1053.014 1414.17c-4.732 1.555-9.168 3.961-13.122 6.778-4.573 3.397-8.953 6.818-13.439 10.336-4.21 2.66-7.345 6.706-11.385 9.492-4.749 5.332-10.098 10.366-14.736 15.658-4.233 3.319-6.835 8.302-10.827 11.969-3.127 4.049-6.672 7.769-9.826 11.786-3.307 3.616-5.973 7.887-9.393 11.253-2.697 2.477-3.839 6.77-6.88 8.963-2.202 3.868-4.79 7.918-6.79 11.694-3.074 4.211-4.782 9.235-6.827 14.026-2.058 5.122-.427 10.46 2.174 15.065 3.325 4.113 7.114 8.161 12.445 9.313 6.535 1.354 13.441 3.276 20.07 1.512 4.793-1.523 9.36-4.33 11.68-8.988 2.395-4.157 4.29-8.633 6.95-12.715l13.145-17.988 7.212-8.182 6.702-10.318 2.248-11.923c2.643-5.717 3.45-12.18 6.018-17.974 1.75-4.943 3.971-9.68 6.238-14.35 1.53-3.682 3.466-7.471 5.735-10.93 2.07-4.102 5.12-7.703 7.85-11.286 4.96-7.114 11.806-13.097 17.485-19.791 2.04-1.387 6.216-7.902 1.288-5.112-4.162 2.912-9.118 2.126-12.646 5.93z" fill="#b3b3b3"/><path d="M1049.692 1525.984c6.419-1.33 13.321-.82 19.334-3.81 4.986-.382 9.381-2.842 13.912-4.7 5.64-2.653 10.793-6.165 15.634-10.051 4.078-2.513 7.905-6.035 11.776-9.185 1.366-4.569-1.287-9.805-3.605-13.83-2.749-4.268-7.193-7.44-11.02-10.49-4.757-3.1-7.994-8.272-12.49-11.788-3.548-1.18-7.675-5.13-11.157-1.883-5.524 3.508-12.008 5.496-16.675 10.266-3.998 3.541-9.075 6.038-12.592 9.999-1.362 4.376-2.706 8.611-4.421 12.864.359 2.682-5.822 7.479-1.15 7.591 7.657-.666 15.532-1.116 22.84-3.498 3.888-.352 10.106-5.554 12.297-.464-1.062 5.01-6.932 7.94-9.788 12.24-3.4 2.926-6.216 6.237-9.52 9.384-2.336 2.916-7.24 5.272-8.535 7.984 1.728-.087 3.434-.48 5.16-.63z" fill="#ccc"/><path d="M1066.287 1491.822c-3.558-.18-4.677-5.635-9.129-4.035-4.214-1.952 1.45-6.707-.963-9.99 1.054-4.12 2.832-8.5 6.724-10.682 4.055-1.107 10.317 3.142 10.131 7.832.205 3.996.833 7.637.641 11.59-1.547 2.785-3.351 5.925-7.404 5.285z"/><path d="M1390.283 1437.073c4.799-.207 9.5-1.596 13.722-3.345 3.8-1.676 7.2-4.361 8.2-8.65.628-5.65.362-11.86-2.244-16.925a21.282 21.282 0 0 0-11.38-9.07c-5.902-2.702-12.414-2.816-18.693-3.955-9.628-1.16-19.263-3.139-28.808-4.24-6.756-.778-13.35-2.976-20.22-3.118-4.997-.9-10.264-1.819-14.214-5.25-2.252-1.671-4.831-1.98-1.752.735 3.148 3.44 6.258 6.664 9.234 10.282 6.27 5.824 8.527 14.203 13.802 20.798 3.4 4.958 8.315 8.653 12.696 12.694 4.274 2.926 8.766 5.517 13.788 6.946 6.56 3.184 14.097 3.305 21.25 3.365 1.54-.059 3.091-.052 4.62-.267z" fill="#b3b3b3"/><path d="M1130.988 1379.49c4.465.407 7.238-3.083 10.409-5.507-4.109.16-8.504 2.66-12.514 3.522-4.524.84-2.82 3.324.728 2.086l.674-.052zM1119.395 1374.72c2.523-1.57 8.396-2.346 9.067-4.35-4.424.001-9.501.015-13.286 2.39-.154 2.89 2.047 3.658 4.22 1.96z"/></g><g><path d="M1192.222 1661.343c-.64-.408.955-.33 0 0z"/><path d="M1199.399 1652.041c-1.038 1.32-2.162 2.58-3.214 3.872-1.337 1.73-2.86 3.31-4.153 5.077-1.993 2.658-4.127 5.204-6.21 7.79-1.518 2.148-3.451 3.957-5.166 5.943-.985.974-1.838 2.065-2.81 3.056-1.343 1.905-3.247 3.304-4.667 5.14-1.725 1.593-3.157 3.491-5.026 4.935-1.143.895-2.257 1.905-3.687 2.303-1.206.45-2.483.65-3.73.915-1.337.98-2.637-1.165-1.28-1.928.538-.149 2.81.062 1.726-.829-1.33-.783-2.433-1.885-3.657-2.803-.259-.485-1.64-1.327-.992-.16.642 1.563 1.25 3.18 1.471 4.862.281 1.313-1.164 1.534-1.708.476-.854-.725.674 1.175 1.299 1.199 1.226.78 2.683 1.518 3.283 2.922-.19 1.185-1.322-.068-1.598-.573-1.405-1.041-3.34-1.508-4.188-3.187-.413-1.37-.763-2.851-2.02-3.745-.988-1.219-2.084-2.373-3.054-3.605-1.183-1.521-2.266-3.114-3.4-4.677-1.27-1.786-2.5-3.597-3.633-5.473-.98-1.233-1.622-2.701-2.475-4.027-1.579-2.705-3.593-5.149-4.905-8.01-1.194-2.425-2.382-4.864-3.302-7.406-.709-.963-1.032-2.075-1.49-3.162-.671-1.161-1.055-2.486-1.531-3.706-.458-.889-.88-1.822-1.106-2.779-.535-1.486-1.187-2.935-1.604-4.465-.456-.96-.38-1.955-.936-2.86-.25-1.124-.697-2.192-.977-3.324-.215-1.112-.59-2.118-.86-3.233-.132-1.023-.717-1.854-1.083-2.808-.918-2.18-1.664-4.535-1.339-6.926.197-1.542-.785-2.888-1.05-4.364-.262-1.145-.786-2.217-.978-3.372.13-.89 1.45-1.17.784-2.26-.362-1.97-.712-3.94-.909-5.938-.01-1.15-.647-2.453-.022-3.51.51-.512 1.5.06 1.19-1.024-.098-1.441-.07-2.89-.082-4.335-.058-1.512-.013-3.024.046-4.534.115-.995-.108-2.11.366-3.016 1.172-.648 1.981.683 1.738 1.77-.231.368-.521 1.994.447 1.61 1.235-.733 1.525 1.164 1.405 1.73.02.85.289 1.444.121 2.411-.07 1.444.895 2.615.779 4.083.166.767-.141 2.6 1.061 1.647 1.252-.797 2.655-1.285 3.946-2.008 1.024-.402 2.018-.877 2.996-1.362 1.179-.604 2.302-1.308 3.522-1.833 1.274-.784 2.693-1.31 3.911-2.181a102.392 102.392 0 0 1 8.468-4.34c1.238-.723 2.609-1.14 3.838-1.895 1.67-.604 3.274-1.367 4.83-2.221 1.291-.535 2.584-1.062 3.802-1.758 2.308-1.182 4.78-1.998 7.117-3.11 1.577-.512 3.022-1.354 4.64-1.748 1.324-.494 2.727-.713 4.013-1.304a35.632 35.632 0 0 1 4.427-1.48c1.61-.47 3.224-.91 4.793-1.506 2.413-.63 4.952-.926 7.21-2.044 1.238-.612 2.564-.976 3.86-1.426 1.7-.357 3.425-.582 5.109-1.021 1.709-.358 3.42-.66 5.124-1.04 1.98-.348 4.002-.487 6.011-.568 1.09.208 2.228.256 3.25.655 1.131.159 2.141.58 3.25.768 1.195.374 2.619.715 3.024 2.092.632 1.347.88 2.812.955 4.286.21 2.493.182 5 .077 7.497.046 1.895-.09 3.788-.08 5.683-.177 3.33-.676 6.63-1.137 9.925-.505 2.81-.807 5.66-1.49 8.436-.984 4.316-2.844 8.353-4.56 12.41a247.146 247.146 0 0 1-2.965 6.327c-.55 1.051-.882 2.177-1.498 3.204-.492 1.358-1.297 2.594-1.808 3.948-.867 1.207-1.43 2.594-2.34 3.765-1.247 1.513-2.019 3.35-3.28 4.857-1.662 2.587-3.359 5.161-4.799 7.88-.33.495-.681.978-1.09 1.41z" fill="#a40"/><path d="M1200.1 1648.272c.763-1.583 1.841-2.994 2.75-4.497 1.252-1.963 2.605-3.859 3.79-5.861 1.074-1.486 2.117-2.995 2.967-4.62 1.2-2.304 2.291-4.667 3.384-7.024 1.28-2.564 2.41-5.196 3.676-7.767.342-1.088.966-2.032 1.27-3.142.684-1.388 1.156-2.861 1.667-4.315.542-1.273.834-2.635 1.22-3.962.274-1.564.72-3.093.894-4.675.444-2.687.883-5.366 1.3-8.057.069-1.247.347-2.489.34-3.73.23-1.359.124-2.753.203-4.127.066-2.85.286-5.71.137-8.558-.09-1.293-.202-2.586-.727-3.787-.365-1.346-1.673-1.862-2.902-2.112-2.528-.632-5.074-1.647-7.726-1.214a28.914 28.914 0 0 0-4.119.376c-2.632.59-5.29 1.051-7.928 1.621-1.474.164-2.905.63-4.273 1.181-1.604.384-2.94 1.519-4.62 1.646-1.556.458-3.15.783-4.722 1.18-1.338.6-2.803.792-4.167 1.325-1.567.333-3.052.925-4.545 1.49-1.367.483-2.81.717-4.138 1.31-1.865.628-3.718 1.304-5.496 2.152-2.105.807-4.212 1.628-6.225 2.657-1.73.873-3.512 1.637-5.26 2.464-1.508.785-3.077 1.444-4.587 2.213-1.529.619-2.93 1.51-4.452 2.153-1.605.786-3.24 1.498-4.763 2.442-2.293 1.26-4.556 2.592-6.901 3.75-1.296.86-2.782 1.361-4.142 2.108-2.112 1.1-4.707 1.599-6.207 3.606.318.97-.032 2.432 1.25 2.785-.178.522.77.07.335-.55-.22-.983-1.475-2.549.175-2.896 1.333.551.95 2.384 1.36 3.528.205 2.311.218 4.678 1.037 6.882.573 1.768 1.052 3.59 1.635 5.333.536-.965 2.161-1.043 2.265.323-.088.716.632 1.188.452.208-.027-1.57.126-3.146.447-4.683.128-1.498 2.402-1.532 1.881.122-.388 1.199.807 2.055.737 3.151.148 1.956.472 3.883.688 5.83.343 1.352.279 2.765.463 4.142.236 2.114.402 4.25.97 6.305.498 1.7 1.527 3.172 2.264 4.772a94.234 94.234 0 0 0 1.671 3.32c.589 1.279 1.27 2.504 1.818 3.802.574 1.105 1.157 2.21 1.65 3.355.424 1.096 1.193 2.181 1.631 3.354.674 1.363 1.45 2.671 2.036 4.076.744 1.435 1.937 2.561 2.779 3.932.87 1.026 1.822 1.982 2.526 3.137.698.8 1.367 1.646 2.077 2.47.59.866 1.31 1.577 1.927 2.43 1.38 1.59 2.58 3.325 3.802 5.036.5 1.066 1.689 2.035 1.425 3.312-.91 1.081.994 2.008 1.443 2.95.438.84 2.07 1.816.898 2.772-1.05-.135-1.674-1.519-2.641-2.054-.976-.817-1.91-1.658-2.854-2.509-1.291-.952.175 1.268.224 1.922.527 1.72 1.296 3.43 1.156 5.271.284.741-.814 2.686.65 1.902 1.957-.523 3.376-2.034 4.855-3.318 2.305-2.306 4.412-4.796 6.729-7.09 2.517-2.97 5.095-5.89 7.792-8.7.75-.907 1.482-1.831 2.203-2.762 1.475-1.986 3.204-3.795 4.596-5.854 1.897-2.38 3.813-4.747 5.854-7.005 1.234-1.6 2.592-3.098 3.852-4.67.108-.173.194-.36.245-.557z" fill="#ff7f2a"/><path d="M1185.44 1658.454c-1.06 1.356-3.118.55-3.985-.623-1.508-1.665-2.478-3.893-2.507-6.15.026-1.212.673-2.613 2.063-2.639 2.014-.073 3.773 1.247 4.976 2.753.862.983 1.607 2.44 1.096 3.742-1.149-.205-1.13-2.178-2.122-2.885-.997-1.005-2.45-2.152-3.946-1.651-1.138.75-.628 2.337-.214 3.368.493 1.103 1.16 2.243 2.21 2.886.98.702 1.722-1.531 2.446-.13.175.418.183.92-.017 1.33zM1192.898 1645.217c-1.043.922-2.477 1.566-3.882 1.324-1.263-.406-2.198-1.48-2.654-2.704-.814-.936-1.153-2.311-2.114-3.086-1.209.223-2.455.118-3.657-.156a5.3 5.3 0 0 1-3.37-1.76c-.932-1.07-1.294-2.599-1.433-4.012-.133-1.35.141-2.747.598-4.024.466-1.306.522-3.223 2.134-3.569 1.722-.516 3.351.633 4.65 1.633.987.868 2.01 1.759 2.71 2.873 1.223.769 1.614-1.468 2.826-1.635 1.128-.656 2.472-.652 3.681-.229a7.412 7.412 0 0 1 3.668 2.986c.47.973.56 2.13.46 3.193-.158 2.46-1.252 4.719-2.142 6.974a12.843 12.843 0 0 1-1.475 2.192z" fill="#a40"/><path d="M1193.12 1641.838c.95-2.38 2.192-4.817 2.01-7.448-.283-1.51-1.792-2.484-3.193-2.83-1.216-.315-2.445.183-3.347.995-.904.584-1.463 1.43-.824 2.438.366 1.318-.053 2.697-.916 3.721-.767.701-1.65 1.763-.504 2.605 1.261-.42.967 2.815 2.191 3.33 1.576.595 3.159-.55 3.98-1.839a8.48 8.48 0 0 0 .604-.972z" fill="#ff7f2a"/><path d="M1186.428 1636.78c.557-.459.172-2.539-.402-1.13-.127.59-1.047 2.149-.386 2.202.306-.322.59-.672.788-1.071zM1184.005 1638.653c-.029-1.644.187-3.399 1.222-4.733.74-1.146-.807-2.04-1.43-2.86-1.144-1.31-2.822-2.418-4.625-2.256-1.384.302-1.347 1.96-1.623 3.091-.375 1.537-.678 3.328.021 4.748.594 1.205 1.922 2.04 3.186 2.47 1.053.287 2.218.319 3.246-.049.07-.134-.012-.273.003-.411z" fill="#ff7f2a"/><path d="M1174.131 1665.101c-1.046.835-2.477.83-3.742 1.013-2.167.072-4.59-.503-5.874-2.402-.399-.594-1.297-2.075-.46-2.396.905.66 1.182 1.949 2.293 2.4 1.803.947 3.982.991 5.922.494 1.739-.417.8-2.472-.212-3.172-1.169-1.104-2.72-1.662-4.294-1.86-.52-.165-2.962.295-1.453.663 1.102.231 2.297.27 3.135 1.118.715.223 1.386 1.57.116 1.152-1.26-.493-2.613-.513-3.892-.93-.978-.307-2.994-1.325-1.852-2.521 1.634-1.339 4.027-1.356 5.886-.476 1.871.631 3.601 1.878 4.44 3.711.553.948.925 2.362-.013 3.206z" fill="#a40"/><path d="M1196.406 1632.908c-.202-.188.33.001 0 0z"/><path d="M1202.686 1624.654c-1.142-.574-2.287-1.118-3.52-1.416-1.435-.899-2.858-2.107-3.422-3.758-.394-1.451-.492-3.027.037-4.455.193-1.202 1.056-2.18 1.937-2.917 1.622-.77 3.583-.586 5.084.382 1.354.703 2.182 2.025 2.708 3.411.057 1.015.603 2.16-.219 3.032-.907 1.003-1.133 2.32-1.47 3.577-.241.775-.57 1.547-1.135 2.144z" fill="#a40"/><path d="M1202.991 1621.406c.355-1.305.618-2.708 1.376-3.838.368-1.127-.701-2.077-1.458-2.744-.91-.594-2.098-.972-3.22-.975-.722-.001-1.65.036-2.077.618-1.024 1.395-1.294 3.826.076 5.19.754.91 1.819 1.554 2.928 1.915.718.233 1.623.512 2.264.112.036-.023.05-.12.05-.12z" fill="#ff7f2a"/><path d="M1212.239 1605.666c-1.168.847-2.362 1.663-3.785 2.099-1.764.719-4.1.774-5.522-.655-1.183-1.444-1.401-3.372-1.528-5.167-.04-2.058.77-4.018 1.763-5.783.757-1.408 1.593-3.035 3.043-3.711 1.387-.647 3.09-.248 4.59.052 1.205.24 2.453.617 3.42 1.375.704.552 1.15 1.387 1.566 2.18.309.587.59 1.215.672 1.873.138 1.109-.005 2.266-.325 3.336-.615 1.147-1.37 2.256-2.424 3.039-.448.574-.93.97-1.47 1.362z" fill="#803300"/><path d="M1212.635 1603.584c.807-.085 1.54-1.39 2.086-1.987.376-1.221-.415-2.607-.879-3.632l-.607-2.481c-.929-.96-2.413-1.362-3.515-1.206l-3.132-.094c-1.357-.07-2.015 1.614-2.57 2.607-.828 1.547-1.487 3.273-1.18 5.058.204 1.572.73 3.311 1.914 4.375.276.248.691.304 1.061.335.398.032.799-.073 1.187-.17 1.016-.251 2.085-.488 2.955-1.061.352-.217.788-.328 1.07-.649" fill="#ff7f2a"/><path d="M1176.898 1650.89c-1.275 1.075-2.808 2.192-4.577 1.916-1.059-.235-2.22-.765-2.682-1.818-.457-1.516 1.644.05 2.323.18 1.147.091 2.223-.536 3.16-1.117 1.312-.69 1.135-2.183-.201-2.645-.469-.643-2.475-.686-1.368.332.948.312 1.8 2.27.199 2.054-1.283-.529-2.276-2.036-2.163-3.436.328-1.528 2.331-1.351 3.369-.695 1.39.798 2.93 2.153 2.737 3.91a2.01 2.01 0 0 1-.797 1.318z" fill="#803300"/><path d="M1162.697 1651.188c-1.125-.185-2.344-.052-3.373-.54-.917-.435-1.69-1.194-2.277-2.023-.445-.629-.97-1.367-.871-2.14-.6-1.334-1.17-2.877-.642-4.33.873-1.39 2.78-1.354 4.214-1.114 1.66.43 3.141 1.45 4.338 2.649 1.208 1.495 1.359 3.812.072 5.31-.393.885-2.11.957-1.135 1.949.036.177-.193.261-.326.24z" fill="#a40"/><path d="M1163.637 1646.89c.499-1.44-.713-2.73-1.918-3.317-1.383-.774-3.169-1.428-4.691-.668-1.04.874-.077 2.421.424 3.37.785 1.007 1.499 2.496 2.909 2.626 1.33-.054 2.813-.659 3.276-2.012z" fill="#f60"/><path d="M1191.513 1611.1c-1.03.96-2.1 1.897-3.317 2.602-1.736.84-3.921.489-5.358-.777-1.469-.29-.48-2.512.545-1.027 1.53.91 3.62.855 5.038-.263 1.59-1.138 2.906-2.68 3.708-4.466.497-1.88-.374-3.832-1.519-5.3-1.297-1.464-3.153-2.563-5.138-2.63-.355.418-1.7-.251-2.333.534a9.627 9.627 0 0 0-2.533 2.81c-.865 1.183-.965 2.685-1.12 4.089-.213 2.895.961 5.957 3.306 7.732 1.261-.46 2.328 1.09 1.229 1.93-1.512.253-2.688-1.02-3.534-2.108-2.121-2.566-2.626-6.144-2.081-9.348.153-1.037.58-2.02.95-2.99.868-1.502 1.967-2.954 3.406-3.938 1.714-.991 3.82-.63 5.519.201 2.77 1.369 4.66 4.193 5.202 7.2.143 1.709-.281 3.46-1.342 4.825-.207.31-.419.616-.628.924zM1204.465 1591.227c-.957-.866-1.947.334-2.851.648a31.795 31.795 0 0 1-6.573 1.902c-.546.097-1.105.099-1.66.115-1.13.035-2.272.11-3.393-.029-.886-.273-1.804-.263-2.582-.47-.29-.914-1.075-1.59-1.487-2.451-.398-.833-.919-1.681-.942-2.604-.02-.841.389-1.649.74-2.413.955-2.078 1.853-4.406 3.668-5.798.983-.755 2.31-1.093 3.55-1.107 1.853-.02 3.811.457 5.342 1.541.999.616 2.032 1.174 3.022 1.806 1.349.228 1.978 1.764 2.862 2.64.267 1.183.313 2.412.795 3.55.327.916.2 2.024-.491 2.67z" fill="#a40"/><path d="M1198.868 1590.745c-.25-.055.117.271 0 0z"/><path d="M1187.95 1583.478c-.672.96-.285 2.326-.47 3.483-.124.775-.668 1.568-.429 2.315.318.992 1.285 1.772 2.247 2.172.85.354 1.84.05 2.76.059 1.129.009 3.386-.015 3.386-.015 1.84-.303 5.839-1.13 6.825-2.231.288-.456 1.143-.433 1.143-1.036-.275-.95-.332-2-1.32-2.602-.995-.627-1.938-1.337-2.947-1.94-.892-.755-1.864-1.447-2.955-1.843-.557-.202-1.176-.146-1.76-.245-.705-.12-1.396-.524-2.104-.422-1.631.236-3.432.953-4.376 2.305z" fill="#d45500"/><path d="M1164.927 1639.306c-1.424 1.01-3.276.589-4.827.167-2.276-.889-4.475-2.776-4.828-5.312-.139-1.198.863-2 1.654-2.705.666-.948 1.81-1.333 2.917-1.42 2.337-.024 4.313 1.73 5.442 3.645.75 1.51 1.351 3.539.22 5.02a3.524 3.524 0 0 1-.578.605z" fill="#a40"/><path d="M1164.892 1637.268c.76-2.47-1.342-5.013-3.716-5.51-1.118-.257-2.572-.014-3.178 1.05.112 1.065 1.115 1.867 1.03 3.033.42 1.131-.634.91-.828.026-.612-.58-1.143-1.78-1.645-2.078-.348 1.123.661 2.068 1.444 2.725 1.603 1.386 3.902 2.462 6.011 1.633.387-.174.721-.481.882-.88z" fill="#ff7f2a"/><path d="M1175.403 1618.03c-1.457 1.174-2.772 2.49-4.109 3.794-1.048.933-2.454 1.483-3.845 1.607-2.058.074-3.63-1.639-4.27-3.447-.765-2.27-.663-4.853.439-7.002.787-2.09 2.614-3.776 4.75-4.403 2.08-.503 4.139.498 5.863 1.564 1.422 1.048 3.092 2.465 3.01 4.403-.176 1.37-.863 2.521-1.838 3.485z" fill="#803300"/><path d="M1175.79 1614.732c.186-1.73-1.535-2.778-2.851-3.49-1.625-.903-3.815-1.434-5.454-.275-1.56.862-2.59 2.403-3.113 4.074-.49 1.315-.617 2.8-.04 4.11.473 1.42 1.792 2.957 3.448 2.567 1.258-.119 2.152-.992 3.108-1.707 1.22-.463.999-2.192 2.282-2.48 1.167-.203 1.795-1.644 2.496-2.548.05-.08.089-.164.125-.251z" fill="#d45500"/><path d="M1150.21 1637.873c-1.034.778-2.512.681-3.557-.018-1.362-.409-2.795-1.01-3.313-2.469-.648-1.255-1.04-2.683-.713-4.09.147-1.29.55-2.655 1.664-3.444.71-.876 1.94-.555 2.788-.095 1.886.841 2.586 2.908 3.295 4.682.613 1.735.957 3.818-.164 5.434z" fill="#a40"/><path d="M1149.442 1636.108c.476-1.517-.263-3.055-.798-4.45-.564-1.133-1.384-2.587-2.868-2.412-1.058.16-2.389 1.901-1.333 2.741.741.39.847-1.465 1.583-.387.772 1.052 1.481 2.189 2.594 2.905.777.77.135 1.902-.765 1.872.047.837 1.541.283 1.587-.27z" fill="#ff7f2a"/><path d="M1146.994 1635.217c-.469-.69-2.14-1.903-2.624-1.135.333 1.039 1.743 2.188 2.669 1.203z" fill="#ff7f2a"/><path d="M1154.663 1626.04c-.812.563-1.863.879-2.849.818-1.03-.063-2.364-.326-2.85-1.212-.59-1.002-1.872-1.654-2.005-2.792-.096-.815.387-1.667.934-2.278 1.27-1.42 3.014-2.961 5.017-2.743 1.584.032 3.355.903 3.682 2.591.42 1.54-.371 3.069-1.038 4.414-.252.432-.481.918-.891 1.202z" fill="#a40"/><path d="M1154.702 1623.373c.559-.963 1.161-2.843-.126-3.433-1.226-.403-2.618-.326-3.831.082-1.276.39-2.537 2.052-1.224 3.15 1.084.914 2.607 1.556 4.037 1.26a1.733 1.733 0 0 0 1.144-1.059z" fill="#d45500"/><path d="M1157.341 1612.194c-1.05.567-2.32.372-3.457.264-.643-.285-1.183.286-.938.925-1.348-.346-2.043-1.672-2.882-2.636-.746-.209-2.35-.386-1.295-1.385.048-1.225-.368-2.557.48-3.647 1.064-1.838 3.881-1.969 5.326-.52 1.775 1.354 3.609 3.315 3.358 5.724-.052.472-.22.958-.592 1.275z" fill="#a40"/><path d="M1156.672 1609.796c-.27-1.2-.615-.385-.57.364-.33 1.338 1.203.417.57-.364zM1154.829 1610.033c.288-1.544-.586-3.209-2.117-3.688-1.318-.663-2.484.483-1.954 1.828.083 1.628 1.787 2.057 3.042 2.51.482.159 1.077-.089 1.029-.65z" fill="#ff7f2a"/><path d="M1155.427 1687.635c-.454.277.4.469 0 0zM1152.115 1660.043c-.285-.127.112-.04.054.077zM1158.521 1689.897c-.271-.191.554-.125 0 0zM1147.852 1682.145c-.572 0-.122-.278 0 0z"/></g><g opacity=".386"><path d="M1155.264 1759.959c-1.168 3.432-2.204 7.018-2.455 10.597.482 3.884-2.013 7.348-1.945 11.357-.361 4.785-1.373 9.596-.79 14.428.031 2.843.663 5.836.668 8.552 1.067 3.426 1.714 6.84 2.722 10.299 1.116 3.132 2.052 6.164 3.175 9.28 1.194 3.454 2.837 6.539 3.996 9.944 1.411 3.806 3.374 7.371 4.634 11.226 2.076 2.894 3.01 6.509 5.005 9.534 2.243 4.773 5.292 9.11 8.343 13.394-1.054 1.127-5.039-1.55-7.356-.446-3.629-.122-7.446.395-10.39 2.492-3.223 2.032-5.984 4.442-8.318 7.543-2.484 3.45-5.535 6.67-6.544 10.918-1.183 5.88-.385 12.555 3.177 17.602 4.485 4.444 10.817 6.369 16.73 8.11 2.73.145 5.283 1.719 8.136 1.885 3.629 1.065 7.515 1.563 11.308 1.885 4.698 1.134 9.575 1.279 14.312 2.161 6.129.54 12.244 1.272 18.377 1.628 3.934.158 8.01.906 12.055.66 4.57-.047 9.149.148 13.678-.405 3.793-.063 7.5-.896 11.234-1.453 3.847-.573 7.657-1.558 11.43-2.595 3.331-1.452 6.947-2.091 10.484-3.027 3.214-.503 6.425-1.623 9.632-1.834 2.846-1.675 8.305-.561 7.93-5.236 3.167-.517 6.27-1.47 9.373-2.493 2.518-.985 5.25-1.778 7.994-2.602 1.624 1.455-.02 5.96 3.192 6.234 3.885.702 7.087-2.229 10.406-3.7 3.76-1.221 6.931-4.07 9.031-7.325 1.64-1.529 3.464-4.358 5.508-5.44 3.347-.424 5.778-2.347 8.471-3.823 3.277-1.508 6.655-2.741 9.759-4.627 2.322-.954 7.927-4.13 4.77-6.592-2.888-1.722.12-2.798 1.758-4.013 5.823-3.96 11.33-8.4 16.308-13.4 2.677-2.32 4.879-5.03 6.973-7.858 2.97-3.612 5.932-7.223 9.139-10.624 3.073-4.582 6.947-8.61 9.368-13.61 2.092-3.427 4.082-7.035 5.093-10.921.632-2.244 1.615-3.323 4.118-2.68 2.284-2.33 5.677-3.913 6.083-7.501.78-3.36 2.86-6.335 3.759-9.715.174-3.711 3.197-6.3 5.234-9.172 2.325-2.514 4.223-5.186 6.1-8.008 2.238-3.02 4.77-5.84 7.264-8.623 1.274-2.534 3.564-5.353 5.606-7.685 2.554-2.972 4.98-5.676 6.788-9.106 1.846-2.781 3.525-6.11 4.383-9.17 1.097-4.35 1.371-9.38-1.547-13.095-1.877-3.335-4.827-6.236-7.873-8.495-3.244-1.863-7.102-2.002-10.744-1.242-3.492.818-6.734 2.383-9.627 4.426-6.153 3.116-10.97 8.33-14.89 13.905-1.014 2.616-4.22 4.098-3.575 6.042-1.456 2.741-2.564 5.558-3.147 8.708-.592 3.138-2.151 6.022-1.693 9.22-.013 3.591-.214 7.414.66 10.807.118 3.616 1.678 6.943 2.411 10.443.65 3.514.342 7.108.589 10.678-1.77-1.222-2.789-5.789-4.288-8.251-2.089-4.698-3.974-9.53-6.91-13.797-5.4-8.944-13.592-15.695-19.904-23.933-3.127-2.972-6.727-5.414-10.599-7.262-4.907-1.945-7.677-7.038-12.29-9.418-1.44-2.98-2.806-6.086-4.7-8.861-.983-1.818-4.39-5.79-3.965-6.345l-3.914-5.326c-2.688-3.018-3.1-5.018-5.478-8.393-4.646-4.94-8.573-10.577-14.3-14.322-2.767-1.12-5.4-1.929-8.364-2.051-3.051-.258-4.841-.512-7.783-.516-3.786-.288-7.615-.325-11.374-.739-1.895.64-6.337.8-7.004.396l-37.198 3.093c-4.15.032-8.312.331-12.412.75-3.554.295-7.15.633-10.732.864-3.378.71-6.882.929-10.177 2.018-2.5.299-5.55.989-7.875 2.086-3.629 1.14-7.25 2.886-10.67 4.697-3.283 1.794-6.821 3.29-9.554 5.895-6.575 6.272-12.968 12.77-18.888 19.666-2.807 3.14-5.53 6.378-7.698 9.974-4.227 7.007-7.558 14.586-10.193 22.333z"/><path d="M1196.093 1712.176c4.025-2.424 7.882-5.237 12.252-7.072 3.205-1.921 7.058-2.371 10.491-3.76 3.235-1.03 6.564-1.425 9.849-2.139 2.424-.338 5.065-.814 7.612-.932 3.054-.514 6.079-.597 9.128-1l18.472-.981c3.578-1.444 10.418-.111 14.134-1.184 2.989-.781 6.332-.71 9.542-1.106 4.045-.812 8.312-.596 12.401-1.177 4.517.168 9.111.053 13.588.502l10.792 2.837 4.338 3.765 4.183 5.942.79 1.88 5.226 8.386c2.63 4.297 6.034 8.138 8.533 12.534 2.74 2.976 2.121 8.04 6.422 9.721 3.087 2.106 5.255 5.217 8.207 7.435 4.422 2.571 9.53 4.374 12.657 8.675 5.002 5.549 10.38 10.78 14.767 16.841 2.697 3.19 4.687 6.955 6.953 10.466 1.422 3.09 2.989 6.107 4.379 9.215 1.33 3.136 3.059 5.912 4.226 9.106 1.72 3.432 2.307 7.351 1.925 11.228a26.61 26.61 0 0 1-2.678 10.497c-1.363 3.532-3.71 6.475-5.604 9.729-2.738 3.984-5.873 7.677-8.826 11.503-3.797 4.32-7.573 8.648-11.147 13.152-2.08 2.668-4.405 3.621-6.269 5.797-3.693 3.492-8.107 6.088-11.872 9.502-2.637 3.42-6.355.725-9.335 3.086-2.992.89-5.94 2.262-8.259 4.41-1.821 2.175-3.744-.373-4.33 1.906-3.384 2.01-6.21 4.777-10.54 4.27-3.713-.029-6.572 2.533-9.71 4.3-2.635 1.997-4.772 4.575-5.715 7.692-1.864 2.929-6 2.873-8.781 4.317-3.61.828-7.003 2.293-10.61 2.99-2.553-1.514-3.261-6.1-7.419-5.27-3.258-.575-6.411-.615-9.73-.865-3.763.162-7.436-.46-11.187-.839-3.273-.644-6.64-1.353-9.853-2.172-3.377-.697-6.358-2.62-9.807-3.657-3.544-1.53-7.428-2.752-10.55-4.944 2.47-.789 5.914-.663 8.69-1.142 2.86.101 5.49-1.086 7.929-1.927 3.246-1.56 6.803-1.362 10.27-1.982 2.364-.34 9.4-.88 6.697-4.202-2.321-.518-5.88.78-3.5-3 .768-3.276.414-6.325.48-9.636.378-3.168.945-6.507 1.095-9.955.471-3.516.209-7.309-1.603-10.317-1.889-2.595-2.091-8.01-5.539-8.47-3.57-.445-7.379.103-10.782.483-4.003.704-8.322 1.018-12.47 1.55-3.135.756-6.5.635-9.357 2.12-3.35 1.072-6.134 3.078-9.504 4.097-3.526 2.366-7.602 3.906-10.733 6.86-4.086 2.716-8.205 5.702-11.056 9.753.269 3.195 4.878 1.95 7.386 1.91 4.576-.31 9.193-.713 13.81-.736 1.937.333 7.447-.318 7.085 1.15-5.387 2.373-9.874 6.292-14.49 9.852-2.362 2.955-6.43 1.142-9.533 1.199-3.784-1.072-7.834-.264-11.284-2.698-4.103-5.023-8.364-9.985-11.202-15.873-2.218-3.31-3.808-6.94-5.538-10.506-1.943-4.06-3.493-8.34-5.376-12.41-2.133-4.8-4.222-9.803-5.708-14.934-1.259-2.917-1.947-6.106-2.675-9.078-1.173-2.965-1.278-6.155-1.55-9.324-.434-5.665-.369-11.512.735-17.049.354-2.43.48-5.457 1.275-8.19.597-4.146 1.284-8.195 2.501-12.232 1.303-3.409 2.02-6.932 3.607-10.204 1.118-2.187 2.872-7.73 4.856-2.975.76 4.175 7.345 2.02 5.508-1.697-.77-2.338-3.308-4.169-4.281-6.113 2.203-3.913 5.083-7.358 8.115-10.659 4.602-6.171 10.519-11.184 15.697-16.833.581-.495 1.18-.971 1.8-1.418z" fill="#999"/><path d="M1211.04 1784.017c-2.314 3.04-5.011 6.143-5.811 9.975-.134 3.907.846 7.859.49 11.704-.267 3.395 2.977 4.668 5.673 3.238 2.266-2.88.494-6.27.884-9.445-1.043-3.762.377-7.869 2.75-10.447 2.313-1.99 4.514-5.51 7.34-7.522 2.502-1.921 4.91-3.985 7.86-5.131 2.612-1.462 5.036-3.414 7.834-4.319 3.82-1.548 3.636 5.513 6.322 7.271 3.43 5.483 7.945 10.234 10.812 16.077 2.69 2.68 1.521 6.251.362 9.038-3.018 1.644-5.34 7.394-.684 8.618 2.215.94 1.559 3.906 4.59 1.947 2.314-2.118 6.027-3.452 3.9-7.373-2.042-3.398 2.779-6.726.423-10.072-3.084-5.061-5.975-10.273-9.99-14.67-2.606-3.907-5.11-7.768-7.087-12.007-1.31-1.682-2.958-2.206.19-2.813 3.82-1.445 7.963-1.91 11.9-3.076 3.449-.75 6.853-1.642 10.355-1.924 3.403-.361 7.197-1.401 10.43.159 4.135 2.176 5.68-4.504.836-4.247-3.257-1.502-7.033-1.248-10.463-.743-3.661.549-7.285 1.177-10.914 1.708-3.224 1.058-6.83 1.043-9.924 2.417-3.293.99-6.648 1.59-9.792 3-3.368 1.407-6.586 3.17-9.862 4.756-2.953 2.283-6.708 3.273-9.45 5.906a47.936 47.936 0 0 0-8.974 7.975z"/><path d="M1256.289 1799.596c1.319-.898-.687-.031 0 0zM1337.214 1817.984c-.077 2.117-3.119 3.512-1.28 6.36 1.712 2.352 4.57 4.036 7.535 4.038 3.893-1.042 2.687-5.218 3.805-7.783-1.375-2.276-1.273-5.366-4.423-4.737-2.036-1.065-4.291 2.226-5.637 2.122zM1397.53 1825.591c.988.968.432-1.225 0 0zM1364.667 1867.096c.157 1.144.628-1.532 0 0z"/><path d="M1266.312 1912.634c-3.233 1.53-6.732 2.471-10.183 2.961-4.061.493-8.033.88-12.109 1.266-3.507.698-7.14.142-10.622.69-5.109-.427-10.383-.401-15.415-.862-3.846.366-7.665-.941-11.557-.876-3.63-.561-7.315-.745-10.944-1.276-3.51-.247-7.01-1.15-10.456-1.212-2.63.045-5.347-1.626-8.014-1.263-3.06-.924-6.41-1.753-9.32-2.73-3.682-.671-7.057-2.442-10.49-3.925-3.605-1.647-5.397-5.233-6.32-8.917-.304-3.785-.334-7.767 1.872-11.003 2.732-3.938 5.376-8.354 9.7-10.715 3.248-1.577 7.015-2.375 10.526-1.097 3.303.98 6.504 2.372 9.907 3.18l15.74 2.864 7.801.692 8.593 2.056 7.067 5.095c4.204 1.67 7.82 4.634 12.023 6.38 3.356 1.708 6.856 3.076 10.345 4.386 2.618 1.16 5.5 2.174 8.391 2.853 3.108 1.111 6.476 1.478 9.67 1.992 6.1 1.251 12.623.98 18.89 1.655 1.748-.287 7.145 1.04 3.2 2.024-3.607.543-5.799 3.404-9.517 3.168z" fill="#b3b3b3"/><path d="M1209.279 1856.068c3.998-2.482 7.34-6.162 11.949-7.58 2.784-2.267 6.289-3.16 9.566-4.433 4.249-1.409 8.669-2.13 13.11-2.5 3.367-.71 7.1-.769 10.674-1.044 2.97 1.703 4.18 5.74 4.964 8.984.68 3.58-.065 7.43-.549 10.91-.943 3.967-.07 8.26-.67 12.314-1.265 2.37-1.46 6.467-4.878 6.5-4.61.905-8.97 3.077-13.758 2.902-3.833.135-7.71 1.346-11.5 1.024-2.875-1.605-5.669-3.145-8.665-4.51-1.14-1.574-6.73-1.014-4.353-3.384 4.315-3.44 8.637-7.101 13.62-9.476 2.198-1.74 8.008-2.107 6.631-5.84-3.031-2.083-7.536-.705-11.15-1.53-3.217.158-6.32-.173-9.596-.178-2.659-.362-6.378.837-8.393.066.942-.81 2.025-1.449 2.998-2.225z" fill="#ccc"/><path d="M1234.814 1865.645c-1.762 1.853.353 5.246-2.756 6.615-1.229 3.1 4.071 2.775 4.44 5.677 2.586 1.624 5.679 3.024 8.783 2.235 2.659-1.43 3.817-6.739 1.4-9.088-1.87-2.182-3.343-4.388-5.398-6.35-2.184-.685-4.676-1.428-6.469.91z"/><path d="M1430.56 1733.894c2.6-2.266 5.734-3.868 8.797-5.046 2.807-1.007 5.905-1.29 8.547.447 3.121 2.63 6.055 5.996 7.203 9.92a15.282 15.282 0 0 1-1.438 10.352c-1.736 4.325-5.07 7.606-7.775 11.304-4.439 5.366-8.475 11.161-12.9 16.455-3.132 3.747-5.477 8.153-8.983 11.625-2.156 2.94-4.444 6.024-4.804 9.763-.345 1.984-1.535 3.421-1.275.484-.063-3.347-.038-6.564-.278-9.92.383-6.133-2.586-11.61-3.102-17.653-.682-4.263.049-8.617.33-12.888.778-3.637 1.834-7.208 3.742-10.435 1.84-4.903 5.704-8.694 9.398-12.263.831-.73 1.635-1.501 2.537-2.145z" fill="#b3b3b3"/><path d="M1324.057 1892.12c2.123-2.42 5.292-1.975 8.142-2.281-2.218 1.948-5.742 2.821-8.257 4.356-2.77 1.8-3.112-.336-.652-1.446l.377-.306zM1320.38 1900.337c2.09-.43 5.532-2.931 6.873-2.22-2.303 2.189-4.954 4.692-8.1 5.327-1.509-1.428-.743-2.916 1.228-3.107z"/></g><g opacity=".887"><path d="M1199.876 1710.484c-.154.62.774-.353 0 0z"/><path d="M1209.65 1711.999c-1.4-.204-2.816-.32-4.207-.5-1.819-.28-3.664-.361-5.478-.69-2.758-.466-5.536-.783-8.307-1.153-2.17-.43-4.4-.414-6.598-.631-1.166-.024-2.319-.195-3.487-.236-1.924-.384-3.897-.134-5.828-.43-1.976.027-3.95-.301-5.928-.099-1.217.117-2.482.146-3.586.733-.996.424-1.892 1.043-2.806 1.604-1.385.177-.934 2.24.336 1.92.415-.222 1.68-1.668 1.534-.496-.357 1.25-.392 2.561-.606 3.831.123.446-.232 1.761-.513.673-.514-1.326-1.081-2.666-1.921-3.82-.59-.965-1.6-.261-1.319.7-.1.937-.27-1.108.098-1.485.295-1.187.757-2.482.31-3.687-.804-.613-.768.808-.643 1.276-.255 1.45-1.164 2.857-.709 4.373.542 1.076 1.188 2.183.939 3.458.104 1.316.104 2.656.227 3.97.16 1.614.422 3.214.637 4.825.26 1.826.56 3.646.956 5.447.116 1.32.576 2.589.825 3.893.604 2.565.792 5.225 1.65 7.732.678 2.172 1.367 4.349 2.28 6.434.125.998.573 1.865.923 2.793.264 1.098.798 2.13 1.215 3.15.236.808.52 1.621.936 2.336.535 1.218.977 2.48 1.61 3.655.278.85.902 1.414 1.087 2.288.5.832.846 1.742 1.332 2.595.513.804.868 1.635 1.35 2.472.512.701.636 1.547.967 2.342.702 1.862 1.614 3.732 3.198 5.003 1.014.826 1.195 2.217 1.89 3.272.503.85.805 1.808 1.358 2.625.595.467 1.563-.128 1.788.923.922 1.414 1.85 2.818 2.889 4.151.66.709 1.028 1.873 2.022 2.156.607.016.88-.907 1.32-.066.775.937 1.632 1.804 2.463 2.694.841.956 1.745 1.852 2.657 2.74.647.54 1.157 1.35 1.972 1.628 1.091-.284.813-1.566.035-2.088-.355-.09-1.475-.914-.662-1.242 1.18-.268.257-1.594-.145-1.87-.481-.53-.661-1.049-1.324-1.542-.88-.84-.97-2.114-1.892-2.943-.343-.564-1.594-1.504-.307-1.62 1.225-.24 2.364-.755 3.572-1.063a32.26 32.26 0 0 1 2.618-.906c1.07-.315 2.163-.536 3.212-.923 1.232-.26 2.402-.762 3.651-.937a86.192 86.192 0 0 0 7.684-2.261c1.175-.276 2.253-.818 3.441-1.069 1.37-.6 2.79-1.064 4.235-1.444 1.099-.423 2.193-.851 3.34-1.133 2.094-.617 4.076-1.552 6.147-2.229 1.259-.601 2.628-.925 3.845-1.623 1.094-.466 2.076-1.146 3.205-1.531a29.994 29.994 0 0 0 3.559-1.664c1.255-.646 2.495-1.314 3.799-1.86 1.837-1.014 3.558-2.305 5.584-2.933 1.111-.344 2.131-.89 3.182-1.367 1.245-.768 2.428-1.631 3.71-2.34 1.25-.772 2.47-1.58 3.73-2.335 1.41-.936 2.725-2.024 3.998-3.14.544-.758 1.212-1.447 1.604-2.285.598-.751.97-1.594 1.537-2.351.513-.922 1.184-1.956.633-3.031-.395-1.188-1.093-2.226-1.902-3.17-1.318-1.642-2.788-3.156-4.3-4.619-1.07-1.183-2.252-2.26-3.344-3.422-2.038-1.93-4.257-3.654-6.448-5.397-1.938-1.422-3.774-2.986-5.801-4.285-3.103-2.062-6.578-3.448-9.979-4.928a208.043 208.043 0 0 0-5.477-2.143c-.946-.322-1.8-.817-2.772-1.086-1.088-.544-2.295-.831-3.392-1.36-1.23-.235-2.377-.756-3.612-.942-1.638-.2-3.174-.874-4.818-1.062-2.513-.615-5.041-1.202-7.497-2.027a8.842 8.842 0 0 0-1.483-.228z" fill="#a40"/><path d="M1212.263 1713.892c1.383.524 2.86.76 4.285 1.15 1.902.473 3.827.845 5.712 1.38 1.517.284 3.027.6 4.489 1.099 2.068.71 4.104 1.52 6.138 2.324 2.267.823 4.483 1.774 6.746 2.609.84.465 1.768.68 2.597 1.18 1.222.45 2.365 1.076 3.52 1.667 1.068.463 2.036 1.125 3.04 1.711 1.075.795 2.233 1.47 3.257 2.334a692.857 692.857 0 0 1 5.465 4.163c.765.721 1.655 1.318 2.37 2.08.929.695 1.672 1.608 2.517 2.4 1.693 1.701 3.485 3.32 5.046 5.143.694.841 1.375 1.696 1.751 2.733.558 1.033.059 2.106-.545 2.972-1.177 1.85-2.142 3.946-4.012 5.22a24.34 24.34 0 0 1-2.731 2.159c-1.95 1.165-3.838 2.426-5.778 3.607-.995.755-2.138 1.3-3.292 1.757-1.202.696-2.675.778-3.774 1.674-1.216.623-2.376 1.348-3.567 2.018-1.164.409-2.169 1.142-3.31 1.607-1.15.706-2.4 1.206-3.639 1.726-1.113.498-2.13 1.193-3.284 1.6-1.502.698-3.025 1.36-4.601 1.874-1.753.728-3.515 1.449-5.34 1.988-1.562.47-3.092 1.037-4.638 1.546-1.376.396-2.716.903-4.083 1.31-1.291.508-2.664.777-3.965 1.267-1.435.45-2.846.964-4.323 1.27-2.13.56-4.283 1.06-6.386 1.713-1.29.227-2.487.783-3.749 1.116-1.927.553-3.8 1.753-5.878 1.398-.37-.776-1.43-1.466-.853-2.425-.411-.214.43-.488.524.142.435.728.577 2.41 1.786 1.666.493-1.11-.803-2.006-1.216-2.942-1.215-1.529-2.579-2.98-3.357-4.8-.676-1.412-1.44-2.801-2.095-4.203.887.278 1.924-.617 1.195-1.51-.469-.386-.303-1.092.155-.39a17.823 17.823 0 0 0 2.988 2.6c.947.839 2.355-.459 1.077-1.166-.932-.506-.699-1.722-1.377-2.35-1.044-1.28-1.963-2.643-2.96-3.957-.575-1.024-1.433-1.848-2.12-2.796-1.081-1.427-2.218-2.827-3.063-4.41-.682-1.326-.907-2.821-1.386-4.225a79.324 79.324 0 0 1-.905-2.995c-.382-1.122-.677-2.264-1.095-3.374-.29-1.007-.575-2.02-.938-3.004-.377-.915-.537-2.023-.95-2.993-.378-1.222-.663-2.47-1.12-3.668-.378-1.307-.303-2.685-.585-4.01-.064-1.13-.037-2.267-.276-3.38-.039-.892-.12-1.796-.165-2.71-.142-.87-.114-1.723-.233-2.6-.08-1.771-.353-3.526-.6-5.279-.312-.94-.15-2.221-1.05-2.847-1.183-.132-.558-1.802-.83-2.637-.22-.766.21-2.309-1.06-2.212-.562.69-.14 1.897-.42 2.784-.122 1.065-.204 2.119-.288 3.186-.236 1.33-.628-.875-.977-1.302-.675-1.356-1.198-2.846-2.351-3.887-.256-.618-2.054-1.167-.706-1.538 1.497-.815 3.24-.716 4.887-.79 2.743.07 5.473.368 8.217.425 3.258.352 6.525.64 9.799.79.984.119 1.967.26 2.946.409 2.052.357 4.156.459 6.2.908 2.537.353 5.079.686 7.633.881 1.68.26 3.378.387 5.06.616.165.043.326.107.47.198z" fill="#ff7f2a"/><path d="M1197.413 1716.179c-1.434-.212-2.222 1.472-2.071 2.691.045 1.89.745 3.812 2.035 5.206.72.724 1.927 1.205 2.79.414 1.272-1.122 1.58-2.948 1.44-4.564-.043-1.1-.433-2.422-1.5-2.92-.583.792.573 1.985.377 2.992-.025 1.191-.248 2.733-1.45 3.295-1.129.202-1.739-1.062-2.084-1.932-.339-.958-.593-2.041-.324-3.042.19-.996 1.938-.064 1.567-1.34a1.378 1.378 0 0 0-.78-.8zM1209.64 1719.933c-1.172.042-2.42.48-3.138 1.442-.536.98-.483 2.179-.051 3.19.045 1.042.636 2.078.499 3.108-.867.565-1.567 1.351-2.142 2.216a4.462 4.462 0 0 0-1.035 3.027c.052 1.195.716 2.337 1.45 3.28.703.9 1.68 1.595 2.699 2.11 1.041.526 2.187 1.663 3.371.94 1.35-.684 1.679-2.33 1.891-3.692.1-1.103.207-2.24-.01-3.326.3-1.178 1.835-.039 2.671-.64 1.07-.254 1.887-1.035 2.38-1.995a6.24 6.24 0 0 0 .507-3.949c-.278-.866-.894-1.624-1.57-2.215-1.524-1.41-3.501-2.154-5.352-3.014a10.811 10.811 0 0 0-2.17-.482z" fill="#a40"/><path d="M1211.734 1721.866c1.96.901 4.13 1.669 5.545 3.38.702 1.085.347 2.555-.309 3.578-.559.898-1.597 1.306-2.619 1.334-.89.167-1.722-.025-1.916-1.01-.54-1.017-1.596-1.616-2.717-1.74-.874.017-2.029-.119-1.817-1.298 1.013-.474-1.043-2.278-.594-3.302.617-1.277 2.246-1.497 3.495-1.186.316.06.627.141.932.244z" fill="#ff7f2a"/><path d="M1210.582 1728.832c.606-.042 1.577 1.45.41.924-.42-.288-1.885-.705-1.512-1.12.373.018.75.067 1.102.196zM1208.018 1729.095c.935 1.02 2.085 1.965 3.49 2.18 1.116.27.69 1.712.786 2.574.06 1.463-.32 3.112-1.515 4.058-1.02.618-1.959-.415-2.783-.945-1.12-.72-2.343-1.638-2.74-2.91-.336-1.08-.01-2.36.512-3.355.476-.785 1.17-1.48 2.01-1.852.12.041.15.174.24.25z" fill="#ff7f2a"/><path d="M1186.657 1718.68c-1.123.097-1.993.929-2.871 1.551-1.364 1.213-2.51 2.969-2.191 4.872.1.594.411 2.018 1.108 1.729.169-.928-.409-1.875.008-2.794.55-1.624 1.855-2.914 3.327-3.735 1.303-.755 1.921 1.045 1.71 2.058-.073 1.352-.696 2.59-1.542 3.625-.222.402-1.979 1.538-1.271.438.539-.78 1.244-1.497 1.265-2.5.307-.551-.064-1.762-.597-.771-.484 1.032-1.298 1.829-1.836 2.824-.42.755-1.06 2.545.331 2.613 1.773-.13 3.244-1.508 3.868-3.122.776-1.47 1.109-3.234.558-4.84-.213-.899-.805-1.977-1.867-1.949z" fill="#a40"/><path d="M1218.917 1725.41c-.014.232.2-.192 0 0z"/><path d="M1227.535 1726.807c-.365 1.012-.747 2.007-1.327 2.904-.355 1.38-.523 2.943.09 4.278.601 1.114 1.455 2.132 2.606 2.697.815.622 1.908.718 2.873.657 1.436-.472 2.527-1.72 2.881-3.181.419-1.214.158-2.501-.325-3.651-.554-.653-.885-1.669-1.891-1.724-1.135-.086-2.037-.759-2.972-1.331-.596-.333-1.244-.614-1.935-.65z" fill="#a40"/><path d="M1229.604 1728.611c.974.59 1.947 1.295 3.065 1.545.878.474.776 1.674.702 2.52a5.165 5.165 0 0 1-1.4 2.461c-.44.42-1.028.935-1.626.828-1.434-.257-3.008-1.585-2.963-3.212-.067-.992.209-2.003.676-2.865.303-.56.694-1.254 1.317-1.381.036-.008.1.043.1.043z" fill="#ff7f2a"/><path d="M1244.374 1732.854c-1.204.161-2.405.355-3.526.914-1.494.585-2.952 1.906-2.99 3.602.115 1.567 1.1 2.87 2.063 4.039 1.169 1.279 2.799 2.006 4.428 2.507 1.28.42 2.733.928 4.01.5 1.22-.409 2.028-1.64 2.77-2.692.596-.846 1.14-1.8 1.29-2.823.11-.745-.102-1.514-.308-2.238-.152-.537-.344-1.084-.676-1.533-.56-.757-1.317-1.38-2.133-1.848-1.04-.342-2.144-.582-3.241-.448-.606-.091-1.13-.054-1.687.02z" fill="#803300"/><path d="M1245.823 1733.896c.542-.416 1.745-.045 2.425.003.938.527 1.258 1.831 1.57 2.725l1.068 1.867c-.01 1.124-.683 2.23-1.446 2.774l-1.857 1.874c-.788.828-2.166.183-3.08-.102-1.402-.463-2.805-1.135-3.653-2.402-.787-1.078-1.474-2.444-1.368-3.78.024-.311.245-.586.453-.82.224-.25.53-.418.822-.584.766-.436 1.556-.91 2.42-1.065.34-.073.67-.257 1.028-.225" fill="#ff7f2a"/><path d="M1196.586 1725.748c-1.402.083-2.985.29-3.905 1.484-.51.757-.91 1.754-.582 2.664.6 1.19.974-.984 1.312-1.456.648-.72 1.668-.962 2.577-1.15 1.201-.34 1.959.674 1.411 1.73.087.664-1.112 1.854-1.027.59.397-.74-.218-2.428-1.07-1.368-.476 1.067-.208 2.562.672 3.35 1.087.743 2.207-.526 2.46-1.528.385-1.294.539-3.013-.598-3.974a1.692 1.692 0 0 0-1.25-.342z" fill="#803300"/><path d="M1187.746 1733.8c-.58.765-1.4 1.39-1.745 2.285-.308.797-.34 1.709-.216 2.555.093.641.2 1.397.708 1.81.408 1.162.955 2.435 2.12 3.015 1.338.342 2.482-.786 3.218-1.763.763-1.225 1.076-2.706 1.11-4.132-.13-1.612-1.38-3.114-3.035-3.283-.752-.312-1.842.64-1.822-.53-.08-.129-.269-.048-.338.043z" fill="#a40"/><path d="M1190.812 1735.878c1.14.59 1.148 2.08.753 3.136-.395 1.274-1.106 2.709-2.475 3.128-1.142.07-1.451-1.433-1.695-2.303-.106-1.07-.533-2.392.252-3.289.843-.738 2.099-1.23 3.165-.672z" fill="#f60"/><path d="M1228.575 1741.556c-1.186.01-2.38.06-3.533.335-1.547.494-2.676 1.975-2.82 3.58-.727 1.03 1.165 1.812.929.312.406-1.444 1.713-2.621 3.227-2.76 1.63-.229 3.327-.05 4.852.574 1.394.86 1.994 2.556 2.146 4.115.058 1.646-.438 3.393-1.61 4.585-.46-.05-.891 1.138-1.734 1.026a8.104 8.104 0 0 1-3.174-.245c-1.214-.221-2.147-1.08-3.055-1.846-1.808-1.644-2.868-4.193-2.466-6.636 1.037-.451.789-2.015-.369-1.89-1.07.722-1.048 2.18-.934 3.335.193 2.796 1.96 5.272 4.15 6.911.695.545 1.526.897 2.314 1.274 1.4.414 2.913.662 4.361.428 1.62-.388 2.697-1.829 3.252-3.322.897-2.442.413-5.26-1-7.41-.903-1.126-2.179-1.949-3.617-2.166-.306-.07-.613-.133-.919-.2zM1248.001 1746.174c-.08 1.083-1.38.925-2.115 1.257a26.765 26.765 0 0 0-5.114 2.65c-.389.258-.731.581-1.08.892-.71.635-1.45 1.252-2.053 1.986-.383.68-.949 1.206-1.303 1.784.353.726.265 1.593.513 2.358.24.739.414 1.559.936 2.135.474.525 1.192.78 1.85 1.044 1.787.714 3.686 1.614 5.6 1.411 1.038-.11 2.044-.672 2.808-1.383 1.142-1.062 2.061-2.488 2.367-4.038.252-.955.56-1.894.797-2.853.691-.922.184-2.224.216-3.271-.523-.877-1.208-1.653-1.574-2.627-.331-.75-1.05-1.352-1.848-1.345z" fill="#a40"/><path d="M1244.866 1749.713c-.121.18-.086-.233 0 0z"/><path d="M1242.417 1760.479c-.967-.197-1.523-1.255-2.307-1.854-.525-.4-1.316-.57-1.604-1.164-.381-.79-.243-1.826.112-2.628.313-.709 1.093-1.098 1.65-1.636.684-.66 2.075-1.955 2.075-1.955 1.299-.881 4.219-2.695 5.459-2.595.44.11.948-.4 1.298-.03.383.738.957 1.412.703 2.353-.244.959-.408 1.94-.673 2.893-.107.977-.299 1.963-.735 2.837-.223.446-.634.77-.933 1.17-.36.482-.548 1.129-1.039 1.477-1.132.802-2.647 1.408-4.006 1.132z" fill="#d45500"/><path d="M1195.997 1739.758c-1.455.21-2.34 1.54-3.043 2.696-.873 1.863-1.12 4.29.134 6.042.61.811 1.686.72 2.578.691.956.193 1.877-.236 2.604-.824 1.44-1.34 1.628-3.557 1.207-5.38-.419-1.356-1.228-2.943-2.777-3.191a2.967 2.967 0 0 0-.703-.034z" fill="#a40"/><path d="M1197.157 1741.022c1.896 1.067 2.088 3.837.928 5.517-.534.805-1.563 1.5-2.55 1.201-.548-.714-.401-1.785-1.129-2.447-.4-.934-.915-.189-.52.464-.038.709.334 1.75.2 2.222-.863-.484-.795-1.646-.699-2.5.175-1.776.954-3.766 2.722-4.483.337-.118.72-.124 1.048.026z" fill="#ff7f2a"/><path d="M1214.725 1746.667c-1.569.13-3.135.089-4.706.067-1.181.039-2.358.519-3.279 1.25-1.298 1.147-1.264 3.104-.607 4.579.849 1.828 2.41 3.346 4.328 4.018 1.692.82 3.784.789 5.452-.067 1.56-.9 2.237-2.704 2.67-4.354.26-1.463.458-3.297-.715-4.432-.902-.734-1.989-1.038-3.143-1.06z" fill="#803300"/><path d="M1216.875 1748.455c1.115.948.673 2.586.283 3.783-.468 1.494-1.497 3.087-3.17 3.33-1.45.379-2.972.035-4.26-.68-1.062-.52-2-1.351-2.408-2.485-.535-1.141-.621-2.844.615-3.566.837-.657 1.89-.643 2.887-.76 1.013-.426 1.88.758 2.83.19.83-.553 2.05-.038 3.001.107.077.02.15.05.222.081z" fill="#d45500"/><path d="M1187.847 1749.166c-1.083.124-1.928 1.04-2.161 2.073-.594 1.039-1.12 2.237-.59 3.427.332 1.142.92 2.24 1.936 2.91.838.702 1.875 1.302 3.012 1.136.942.123 1.506-.785 1.757-1.557.663-1.608-.108-3.275-.704-4.768-.632-1.414-1.63-2.885-3.25-3.221z" fill="#a40"/><path d="M1188.402 1750.688c1.17.65 1.61 2.016 2.093 3.178.312 1.018.655 2.38-.352 3.136-.74.514-2.56.224-2.403-.9.226-.669 1.367.402 1.19-.683-.139-1.089-.365-2.194-.101-3.277.027-.92-1.02-1.238-1.552-.698-.457-.538.776-1.066 1.125-.756z" fill="#ff7f2a"/><path d="M1187.424 1752.65c.114.694-.202 2.403-.944 2.215-.399-.827-.204-2.346.932-2.281z" fill="#ff7f2a"/><path d="M1197.425 1753.805c-.822.127-1.646.544-2.213 1.152-.592.636-1.254 1.57-1.037 2.393.221.953-.182 2.094.396 2.866.414.553 1.202.793 1.89.849 1.6.13 3.557.059 4.652-1.235.949-.938 1.525-2.497.745-3.717-.637-1.183-2.006-1.657-3.193-2.091-.404-.118-.825-.282-1.24-.218z" fill="#a40"/><path d="M1198.995 1755.41c.9.263 2.357 1.061 1.913 2.168-.514.957-1.408 1.716-2.385 2.171-1.005.502-2.738.219-2.573-1.213.131-1.186.689-2.46 1.733-3.11.4-.212.907-.22 1.312-.017z" fill="#d45500"/><path d="M1207.088 1760.701c-.97.264-1.632 1.118-2.264 1.844-.227.546-.887.51-1.108-.021-.623.993-.278 2.205-.23 3.28-.335.56-1.212 1.598.012 1.596.74.72 1.258 1.774 2.408 1.948 1.714.504 3.51-1.05 3.552-2.771.298-1.856.28-4.116-1.27-5.44-.306-.259-.69-.457-1.1-.436z" fill="#a40"/><path d="M1208.069 1762.553c.531.888-.152.592-.559.108-.976-.625.493-.951.559-.108zM1206.807 1763.477c1.071.775 1.503 2.298.847 3.478-.42 1.169-1.796 1.146-2.252.017-.894-1.041-.103-2.291.4-3.295.203-.376.71-.57 1.005-.2z" fill="#ff7f2a"/><path d="M1162.178 1715.773c-.439.094-.028-.518 0 0zM1176.155 1734.532c-.101.242.09-.042-.012-.08zM1162.754 1712.598c-.055.274.41-.245 0 0zM1160.738 1723.515c-.35.332.087.241 0 0z"/></g></svg>