<svg xmlns="http://www.w3.org/2000/svg" xmlns:xlink="http://www.w3.org/1999/xlink" width="2000" height="3000"><defs><linearGradient id="b"><stop offset="0" stop-color="#009633"/><stop offset="1" stop-color="#063"/></linearGradient><linearGradient id="c"><stop offset="0" stop-color="#fff"/><stop offset="1" stop-color="#54deff"/></linearGradient><linearGradient id="a"><stop offset="0" stop-color="#fff"/><stop offset=".5" stop-color="#d4c37f" stop-opacity=".498"/><stop offset="1" stop-color="#a80" stop-opacity="0"/></linearGradient><linearGradient xlink:href="#a" id="e" x1="-45.755" y1="296.36" x2="1051.261" y2="296.36" gradientUnits="userSpaceOnUse" gradientTransform="matrix(2.20553 0 0 4.36834 96.827 -850.192)"/><radialGradient xlink:href="#b" id="f" cx="502.638" cy="609.739" fx="502.638" fy="609.739" r="564.019" gradientTransform="matrix(1.89245 0 0 1.44682 23.77 -878.556)" gradientUnits="userSpaceOnUse"/><radialGradient xlink:href="#c" id="d" cx="-298.481" cy="496.389" fx="-298.481" fy="496.389" r="450.22" gradientTransform="matrix(2.68801 0 0 3.48189 2007.982 -1283.964)" gradientUnits="userSpaceOnUse"/></defs><path transform="rotate(-90 1116 1116)" opacity=".99" fill="url(#d)" stroke="url(#e)" stroke-width="3.104" d="M-2.984-1121.655h2417.292v3132.124H-2.984z"/><path d="M2034.703 798.256l-2115.538 8.805c.093 10.454-17.992-1181.033 5.165-1257.829 36.139-34.884 73.208-52.567 109.79-77.552 27.766-13.492 55.406-33.17 83.407-37.341 41.705-19.694 83.675-18.63 125.694-28.424 57.153-1.057 114.169 18.647 171.241 12.998l38.473-3.809c56.014-5.544 112.052-12.607 167.965-25.802 73.877-21.14 147.167-61.05 220.915-88.083 85.854-32.796 171.467-78.613 257.848-85.196 112.898-22.756 226.008-14.243 339.013-14.738 82.719-2.55 165.479 12.485 247.55 53.007 60.833 25.795 121.073 71.216 182.107 91.534l161.64 63.75c13.793 395.92 4.136 937.003 4.73 1388.68z" fill="url(#f)" stroke="#244c26" stroke-width="15.705" stroke-dashoffset="2.08" transform="translate(0 2232)"/><path d="M506.476 1363.44c-3.166-3.07-4.213-7.76-6.242-11.595-1.585-3.615-3.252-7.332-4.703-10.917-5.065-11.897-9.768-24.159-13.398-36.653-3.589-11.342-5.836-23.135-7.83-34.874-1.075-8.38-2.575-16.762-2.302-25.242-7.728-3.24-14.99-7.502-22.231-11.621-4.263 2.994-4.176 9.32-8.139 12.166-1.738 1.248-4.07 1.44-6.196 1.679-4.074.457-8.668.239-12.287-.506-10.035-.486-20.013.622-29.938 1.957-2.446.402-11.117 1.424-8.259-2.293 7.231-.132 14.422-1.507 21.605-2.35 9.546-.805 19.166.158 28.692-.755 5.741.428 7.51-5.54 10.638-9.095 3.883-4.172-5.823-5.841-7.83-9.34-3.068-3.273-7.74-5.611-8.766-10.295-1.083-4.106.268-9.7.546-13.057-14.007 7.073-29.515 11.634-42.026 21.49-7.943 5.484-14.426 12.785-21.568 19.128-3.157 3.718-4.729-2.677-1.175-2.435 5.14-3.997 9.286-9.283 14.445-13.164 9.783-9.18 21.782-15.625 34.17-20.623 5.902-2.658 11.888-5.151 17.517-8.357 3.081-7.569 7.513-14.53 13.297-20.353 9.07-10.024 19.876-18.137 30.569-26.309 13.25-9.858 27.238-18.979 42.598-25.257-2.935-2.168-9.23-3.776-13.705-4.738-12.732-2.58-25.812.063-38.276 2.9-7.573 1.573-14.957 4.01-22.574 5.337-8.221.927 7.018-10.084 2.804-3.45 5.086-.402 9.912-2.651 14.999-3.368 9.856-2.358 19.834-4.473 29.97-5.071 8.802-.52 17.536 1.277 25.726 4.424 4.366 2.417 8.716 1.603 13.13-.312 16.19-4.85 33.181-5.372 49.903-6.764 5.83-.54 11.691-.759 17.533-1.013-8.457-5.902-17.192-11.487-24.862-18.432-6.734 1.227 2.118-6.252 3.777-1.055 8.224 7.36 17.68 13.056 26.572 19.51 5.781 1.042 11.81 1.28 17.508 2.965 12.765 3.864 25.077 8.973 37.689 13.239 9.1 3.199 17.9 7.178 26.852 10.759 3.183-3.589 5.825-7.89 8.88-11.685 9.57-13.45 22.21-24.41 35.937-33.482 2.711-1.332 8.375-7.1 10.045-3.348-4.158 2.773-8.57 5.339-12.593 8.404-13.008 8.784-24.36 20.025-33.4 32.85-.717 3.09-9.342 8.024-3.913 9.516 9.561 4.17 18.7 9.765 25.726 17.587 6.643 6.61 11.499 14.815 15.015 23.437 3.368 6.834 6.638 13.938 8.646 21.36 2.343 1.89 7.765-2.527 11.233-2.822 12.944-4.47 26.369-7.346 39.88-9.48 8.045-1.327 16.04-3.277 24.18-3.82 2.197 3.788-6.388 2.71-8.96 3.734-18.493 3.312-37.226 5.922-55.06 12.077-3.096 2.054-11.383 1.2-10.17 6.256 1.4 10.745-4.324 21.34-12.72 27.804-9.865 7.76-21.963 12.073-33.846 15.712 1.811 2.027 8.88 2.812 12.587 4.662 18.065 5.984 34.366 16.54 53.061 20.744 10.337 2.553 20.825 5.009 31.55 4.932-.373-1.99-3.588-10.14 0-7.755 1.636 3.715 6.342 12.44-1.656 11.124-10.827-.082-21.4-2.8-31.888-5.214-12.502-3.177-24.075-8.846-35.683-14.236-11.087-5.133-22.712-9.173-34.466-12.37-15.04 4.017-30.357 6.842-45.698 9.421.514 6.706 2.638 13.226 4.638 19.628 4.145 10.61 8.413 21.214 14.075 31.109 1.333 2.98 5.694 8.344 5.913 2.093 4.584 2.895-2.988 9.808-5.601 3.679-6.914-9.886-11.207-21.308-15.83-32.351-2.667-7.122-4.828-14.455-6.066-21.989-2.01-3.61-8.877.312-12.864-.343-13.435 1.168-26.988 1.054-40.433.088a133.696 133.696 0 0 1-20.129 1.203c-.129 3.85.01 7.738 1.813 11.235 1.971 5.744 4.56 11.296 8.268 16.174 8.781 12.638 21.682 21.548 33.716 30.83a34.37 34.37 0 0 0 7.596 5.756c2.784 2.184-.766 6.273-2.864 2.331-4.913-4.718-10.359-8.824-15.844-12.837-2.7-1.197-5.977-5.237-9.204-7.353-10.437-8.763-19.654-19.637-23.948-32.745-2.007-4.257-2.96-8.94-2.668-13.653-15.557-1.816-30.253-7.506-45.441-10.984-13.893-3.785-28.277-6.022-41.656-11.531-.665 4.875.455 10.024.958 14.946.97 7.89 2.316 15.766 3.869 23.573 1.588 6.974 3.278 13.917 5.248 20.725 2.1 6.314 4.077 12.683 6.51 18.907 4.32 11.488 8.914 22.832 14.388 33.84 1.67 5.347 2.033-3.367 3.034-1.562 1.955 1.09.062 7.565-2.398 7.563z" fill="#d4aa00"/><path d="M586.511 1264.104c7.886-1.28 15.885-3.196 23.252-6.018 5.41-1.16 10.332-3.796 15.525-5.633 3.343-2.605 10.551-2.483 10.933-7.276-.326-3.423 1.995.096 2.59.773.553.63.274 1.653.403 2.48.746 4.765.075 11.269 2.153 14.308 14.39-2.218 28.769-4.905 42.815-8.699-3.287-.41-5.369-5.244-.84-4.216 3.697 3.981 8.818 2.708 13.27.762 13.192-4.21 26.973-9.746 35.647-21.07 3.916-5.392 6.132-12.235 5.216-18.994-.772-3.69-6.807 1.506-9.77 1.5-1.983 1.792-7.482-.077-3.136-1.601 3.656-1.514 10.967-1.614 11.872-5.427-3.254-10.407-8.05-20.246-12.7-30.083-7.12-12.463-17.999-23.027-31.198-28.869-3.792-2.514-8.096-4.516-10.53.648-.895 2.871-7.23 3.704-3.718.134 1.725-1.691 7.464-5.565 2.11-6.241-12.285-5.436-24.923-10.011-37.609-14.391-11.41-4.193-22.712-9.271-34.943-10.434.73 2.116 6.728 5.22 9.281 8.02 4.007 3.371 7.89 7.086 11.343 10.707-1.12 5.757-5.712-2.235-8.168-3.488-6.13-5.929-12.846-11.195-19.906-15.967-15.552-.292-30.99 1.84-46.474 2.943-9.394 1.067-18.873 2.573-27.775 5.845 3.863 1.054 9.126 4.688 12.242.201 2.06-3.372 5.798-.803 2.102 1.541-2.88 2.99-6.828 4.751-10.788 2.536-4.622-1.5-9.462-3.593-13.857-.279-14.651 6.508-28.174 15.32-40.898 25.015-12.587 9.56-25.26 19.47-34.76 32.235-1.883 2.853-4.822 7.135-5.143 9.647 6.116-3.503 12.297-6.987 18.281-10.676 4.574-2.884 6.91-7.859 9.99-12.09 4.975-2.763-.235 5.157-1.76 6.616-4.147 7.963-13.165 10.817-20.086 15.655-3.416 2.602-9.61 3.26-9.347 8.67-1.47 5.53-1.436 12.288 3.87 15.772a72.306 72.306 0 0 0 13.179 10.327c1.736-2.574 5.049-4.993 5.98-7.632-.809-3.164-.505-6.482-4.112-7.932-3.816-3.212-8.615-6.093-10.495-10.899-1.343-4.071 5.123-4.135 2.337-.188 2.517 5.128 7.708 8.267 12.121 11.59 2.201-1.245 2.337 4.118 5.189 4.61 4.63 4.05 8.895 8.476 13.773 12.21 2.783-.767 2.91 4.041 6.137 4.602 9.541 6.597 20.477 10.86 31.306 14.78 18.734 6.005 38.11 10.009 57.642 12.54 5.792.483 11.626 1.986 17.454 1.436zM570.34 1265.378c-1.943-.813-8.09-.34-3.232-.01 1.076-.103 2.176.271 3.233.01z" fill="#fd5"/><path d="M611.609 1265.222c8.744-.06 17.551-.695 26.155-2.115-1.422-3.604.281-11.203-2.536-12.741-12.594 6.374-25.959 11.107-39.594 14.632 5.198.513 10.68.28 15.975.224zM562.732 1264.838c-2.99-1.89-9.793-1.457-14.094-2.956-1.895-.21-8.45-1.75-7.921-1.24 6.966 2.05 14.11 3.649 21.322 4.478z" fill="#fd5"/><g fill="#a0892c"><path d="M551.47 1222.214c-17.255-1.52-33-13.114-40.639-27.894-2.724-9.267 8.107-6.885 6.986.957 6.625 9.421 16.78 17.174 28.122 20.582 12.234 1.621 25.749 2.736 37.264-2.071 14.434-7.117 27.12-19.024 30.362-34.902 8.302 1.042-.434 18.108-5.642 22.292-11.338 12.662-27.694 22.977-45.737 21.086-3.571 0-7.145.046-10.715-.05z"/><path d="M555.82 1183.163c-9.312-6.19 3.127-13.114 4.658-2.873-.34 1.91-2.649 3.745-4.659 2.873zM524.514 1167.473c-4.807-10.607 15.396-2.08 0 0zM580.095 1154.133c-3.126-7.594 12.061-5.828 4.357.471-1.17.433-3.628 1.232-4.357-.471z"/></g><path d="M511.938 1253.037c-12.418-4.496-24.962-9.377-35.58-17.4-2.198-.567-2.878 8.189.948 7.99 11.164 4.379 23.013 6.619 34.6 9.508zM472.158 1240.104c.161-3.966 2.164-8.097-2.7-9.998-3.868-3.63-7.775-7.222-11.696-10.787 2.84 4.538-3.885 6.64-5.605 10.205-.422 3.07 6.526 4.3 8.92 6.471 2.65.564 9.972 6.849 11.081 4.109z" fill="#fd5"/><path d="M1702.927 1954.436c-26.184-30.293-61.204 2.926-90.241 9.183-68.345 18.904-138.945 29.986-209.617 33.792-17.178.925-34.408-1.124-51.538-2.695-34.963-3.204-70.413-5.226-104.432-13.71-26.237-11.732-54.555-14.893-77.744-24.213-5.474-29.249-27.108-52.998-36.556-81.107-9.125-27.147-21.953-55.245-19.177-83.75 2.53-25.98 18.177-49.31 31.878-71.528 37.248-60.404 73.71-128.712 134.845-164.747 33.129-19.526 75.276-24.958 113.493-20.692 57.158 6.38 115.686 28.44 158.74 67.61 28.436 22.743 58.171 43.822 86.256 67.01 40.703 12.112 54.275 61.783 78.209 92.114 3.772 37.438.531 75.454 11.08 112.327 6.628 29.46-1.45 63.116-25.196 80.406z" fill="#0ff"/><g><path d="M1264.659 1871.542c-2.347-4.67 3.55-9.795 5.414-14.715 2.219-7.158 4.624-14.3 7.83-21.062 1.66-3.753 7.197-9.62-.528-9.382-5.04-.84-9.889-2.259-14.86-3.358-5.2-1.168-10.366-3.424-15.469-4.187l-3.01-.923c-5.743-1.082-11.18-3.7-16.979-4.776-1.583-.729-3.753-1.17-2.137 1.318-2.531 1.58-7.828 6.141-9.277.674.312-4.415.433-9.176.872-13.79 1.99-6.032-6.877-.379-10.07-2.178-4.95.761-7.988.17-13.663.591-5.567.14-11.128.365-16.639.895-4.869.196-9.158-1.481-13.494-3.923-3.823-2.45-3.259-10.81 2.206-10.091 4.833 1.547 6.289-4.469 10.982-3.284 4.776.19 9.618 2.357 13.916-.89 4.13-1.784 7.769-5.202 12.282-5.447 3.811.28 7.272.027 10.57 1.49 3.64 1.692 8.165-.06 8.7 4.038 2.208-4.428 3.4-10.04 5.826-14.777 2.692-4.557-.846-4.078-3.952-2.355-3.107 2.284-8.623 1.622-7.049-3.358 1.256-4.758 7.774-4.675 11.774-6.072 5.632-2.093 11.672-2.781 17.62-3.368 4.631 1.403 9.097.718 13.219 1.627 5.39.83 10.835 1.436 16.246 2.388 4.879.72 9.641 2.16 14.51 3.16 4.934.592 8.956 1.044 13.766 1.85 10.195 1.458 20.606 1.409 30.914 1.938 6.058-1.367 12.336-1.282 18.396-2.702a221.388 221.388 0 0 0 17.39-2.232c4.844-.609 9.141-1.254 13.987-1.854 3.005-1.05 8.789-.924 9.398-3.962-4.099-3.124-8.956-4.971-12.643-8.344-3.24-4.383-9.08-5.487-12.858-9.6-4.954-4.484-10.59-8.37-14.636-13.81-2.696-2.898-4.93-6.526-7.53-9.272-2.209-4.483-4.83-8.55-7.13-13.01-1.878-4.233-3.841-8.192-5.698-12.414-2.106-4.632-3.407-9.323-5.503-13.873-2.226-5.194-3.664-10.678-6.09-15.778-.68-4.912-3.205-9.458-4.092-14.425-2.314-6.971-3.396-14.274-4.424-21.526-2.146-.127-3.601 6.398-7 7.507-3.546 3.603-7.895 6.743-12.879 7.449-5.203 1.041-10.303 1.256-15.634.365-5.817-1.101-11.985-1.425-17.078-4.745-6.836-4.803-12.432-12.308-13.677-20.82.266-8.787 4.812-16.805 9.111-24.233 2.616-2.766 3.684-6.803 6.405-9.708 2.643-4.557 6.088-8.786 9.608-12.75 3.656-5.651 8.44-10.475 12.376-15.91 5.671-6.424 11.142-13.03 16.993-19.27 3.82-3.934 7.217-8.6 11.537-12.23 4.658-4.336 9.095-8.926 14.197-12.712 3.89-3.575 8.431-6.29 12.736-9.31 4.433-3.111 9.224-5.77 14.027-8.343 4.758-1.73 9.02-4.552 13.49-7 3.726-2.576 8.043-4.525 11.482-7.388 4.48-1.04 8.924-7.4 13.029-2.32 3.694-2.517 7.74-4.53 11.854-6.473 3.488-1.422 7.007-3.242 10.567-5.042.242-3.027-5.736-5.998-2.757-9.356 3.248-4.436 9.292-4.547 14.054-6.246 4.968-2.374 10.902-2.539 16.144-1.268 3.122-.03 7.677 1.078 10.779.21 3.785-2.783 8.084-3.173 12.218-4.267 4.755-1.62 9.35-3.616 14.291-4.69 3.26-1.263 11.964-3.433 11.14 2.08-1.265 4.51 2.804 2.71 5.624 2.365 9.676-1.588 19.494-2.387 29.317-2.113 4.928-.227 9.751.398 14.577 1.244 6.462.798 12.918 1.602 19.417 1.959 7.498 1.678 15.273 2.028 22.513 4.754 5.399 1.453 10.87 3.187 15.617 6.141 2.791 1.659 4.818 1.805 6.728-1.245 4.541.162 9.486-1.495 13.338 1.738 4.01 2.644 8.963 3.653 13.113 6.203 3.734 3.58 9.27 3.293 14.082 4.24 4.759.307 9.237 1.183 13.84 2.233 5.155.902 10.417 1.32 15.604 1.738 3.717 1.336 8.733 1.984 13.032 2.38 5.429.551 10.472.953 15.587 2.682 4.532 1.038 9.42 2.789 13.22 5.054 5.281 3.34 10.382 8.154 11 14.704 1.305 5.168 1.109 10.927.2 16.13-1.488 4.992-5.25 8.833-9.656 11.558-4.31 2.524-9.083 4.054-13.964 4.766-9.201 2.757-19.066 2.112-28.37.244-3.533-1.667-8.191-.088-9.405-2.67-4.1-1.37-7.92-3.152-11.53-5.773-3.607-2.6-7.949-4.016-10.554-7.685-3.457-3.612-7.327-7.279-9.7-11.542-3.35-3.764-4.965-8.62-7.582-12.856-2.716-4.171-6.473-7.504-9.648-11.345-.615 2.932 2.737 8.519 3.585 12.444 2.397 6.745 5.13 13.432 6.258 20.556 3.129 14.21 1.333 28.883 2.863 43.254-.307 6-1.599 11.919-3.735 17.499-3.088 6.67-1 14.47-3.373 21.296 1.405 4.39 3.004 8.837 3.753 13.455.752 2.778 1.123 10.056 2.084 10.208l1.158 9.132c.18 5.625 1.684 8.04 2.52 13.728.048 9.445 1.49 18.902-.7 28.175-1.72 3.785-3.6 7.128-6.476 10.095-2.833 3.187-4.396 5.16-7.363 7.987-3.546 3.922-7.376 7.632-10.774 11.654-2.527 1.173-7.164 5.273-7.45 6.32l-40.522 32.558c-4.22 3.949-8.71 7.638-13.25 11.148-3.871 3.112-7.825 6.22-11.664 9.422-4.092 2.523-7.839 5.664-12.21 7.725-2.81 2.096-6.552 4.326-9.951 5.449-4.757 2.329-10.088 4.039-15.278 5.492-5.036 1.338-10.042 3.221-15.3 3.212-12.653-.025-25.341-.453-37.933-1.737-5.846-.477-11.554-1.813-17.338-2.684-5.125-.13-6.198 6.52-9.255 9.565-3.076 4.366-6.473 8.36-9.827 12.46-4.49 4.703-9.473 8.864-14.153 13.364-4.01 3.735-9.91 2.206-14.486 4.528-4.398 1.152-7.837 3.298-12.763 3.845-2.887 1.495-7.173 2.227-4.493 5.906.57 5.358 2.306 11.083 4.408 15.694 2.123 2.852-1.696 4.886-2.015 7.68.105 1.564-5.383 1.639-4.978-2.088-1.866-2.802-3.111-7.524-4.092-11.403-.227-1.078-.528-7.574-2.217-8.764-3.967.692-8.081 3.133-12.12 4.678-3.982 2.22-12.387 2.9-11.644 8.828.844 10.89 3.459 21.553 5.103 32.307-2.506.561-5.381 3.107-7.519 1.683-8.132-5.415-3.627-19.215-5.116-28.862.291-4.096-1.696-6.668-5.693-4.732-3.878.432-7.457 1.22-11.395 1.018-2.396-.638-2.632 2.978-2.638 4.525-2.041 3.427-3.39 7.016-4.617 10.61-.627 2.95-2.231 7.686-.7 9.402l-.04.437c1.412 3.739-6.06 12.719-6.506 5.604-2.182-4.906.177-9.982 1.17-14.878.717-5.092 2.892-9.981 5.525-14.393.749-3.313-7.781-4.225-7.84.185-2.902 3.604-4.433 8.14-6.151 12.426-1.865 4.588-3.754 8.943-5.184 13.68-1.898 4.8-3.61 9.632-5.416 14.338 0 0-4.854.09-5.752-1.696z"/><path d="M1309.84 1822.22c3.748.045 6.4-.23 5.267-4.519 2.308-5.06 7.735-3.894 9.654.755 3.835-.144 7.234-3.49 11.323-4.48 3.421-2.856 8.14-3.195 11.446-6.193 1.75.319 6.483-2.419 9.376-3.252 5.135-2.607 10.686-4.443 15.973-6.46 5.053-1.628 10.653-2.577 15.862-4.162 5.516-4.018 9.971-9.39 14.863-14.145 3.043-3.623 5.688-7.53 8.218-11.501 2.017-2.895 5.359-6-.066-6.516-4.327-1.546-8.848-4.141-12.734-5.63-2.811 4.39-6.662 9.24-12.464 8.83-4.963.882-9.527 1.773-14.533 2.495-6.841.946-13.733 1.916-20.636 2.596-6.953 1.562-14.14 1.39-21.13 2.77-7.536.644-14.956-1.396-22.483-1.464-7.288-.6-14.564-1.914-21.75-2.965-6.42-2.24-13.346-2.43-19.82-4.32-5.376-.527-10.595-1.123-15.961-1.588-3.785-.8-7.592-2.748-11.504-.952-2.628 3.813-5.312 8.006-6.264 12.74-1.846 4.49-3.71 8.904-5.231 13.5-1.108 3.378-2.104 6.664-2.55 10.416-3.026 5.93 4.016 7.2 8.334 7.657 4.344 1.153 8.69 2.369 12.995 4.01 4.818.857 9.377 2.525 14.043 3.887 4.917 1.15 9.791 2.384 14.803 3.127 4.655.94 9.116 2.838 13.866 3.174 6.488 2.963 14.125 2.61 21.103 2.19z" fill="gray"/><path d="M1221.168 1784.927c-.96-1.438-.84 1.389 0 0z"/><path d="M1480.403 1761.902c6.389-1.414 12.982-2.273 19.154-4.613 5.078-1.134 9.4-4.376 14.198-6.267 4.253-2.064 7.994-4.857 11.994-7.288 2.773-1.984 5.896-4.036 8.58-6.36 3.576-2.41 6.709-5.23 10.175-7.746l19.59-16.728c4.997-1.974 10.624-9.881 15.405-12.363 3.766-2.078 7.072-5.357 10.694-8.036 4.862-3.06 8.963-7.372 13.648-10.707 4.4-4.503 9.148-8.794 13.238-13.54l8.173-13.217.768-7.962-1.477-10.01-1.006-2.657-2.767-13.479c-1.466-6.861-1.715-14.005-3.409-20.839-.088-5.633-5.57-10.152-2.84-15.974 1.096-5.087.301-10.308 1.153-15.378 1.998-6.838 5.427-13.558 4.458-20.9-.274-10.4.139-20.841-1.246-31.167-.336-5.806-1.94-11.516-3.02-17.234-1.53-4.485-2.84-9.033-4.418-13.504-1.665-4.443-2.583-8.903-4.468-13.247-1.555-5.116-4.723-9.634-8.827-13.182a37.057 37.057 0 0 0-12.772-8.03c-4.764-2.257-9.957-2.978-14.99-4.445-6.586-1.396-13.293-2.118-19.944-3.149-7.976-.718-15.942-1.465-23.87-2.584-4.66-.7-7.92.569-11.889.16-7.078.018-14.025 1.63-21.1 1.795-5.944-.924-7.112 5.364-12.385 5.84-3.875 1.97-8.167 3.414-12.568 3.468-3.925-.448-3.422 3.968-6.2 2.23-5.344 1.218-10.852 1.134-14.738 5.799-3.72 3.59-9.063 3.747-13.927 4.972-4.576.512-9.206-.041-13.147-2.283-4.692-1.168-8.814 2.855-13.007 4.064-4.438 2.628-9.269 4.403-13.579 7.16-1.125 3.977 2.56 9.286-2.435 12.435-2.738 3.706-5.883 6.772-8.993 10.208-3.955 3.446-7.066 7.597-10.49 11.577-2.686 3.79-5.405 7.736-7.863 11.644-2.741 3.944-3.905 8.744-6.394 13.099-2.11 4.943-4.86 9.903-5.909 15.111 3.252-1.574 6.607-5.003 9.87-7.183 2.789-2.844 6.585-4.17 9.853-5.66 4.772-1.538 8.175-5.15 12.27-7.85 2.712-1.923 10.335-8.128 10.79-2.181-1.846 2.749-6.683 4.853-.656 6.385 3.918 2.572 6.486 5.99 9.728 9.269 3.421 2.835 7.196 5.661 10.655 9 3.848 3.097 7.222 7.178 8.278 11.953.582 4.43 5.573 10.094 2.532 13.863-3.176 3.875-7.548 6.975-11.348 9.855-4.717 3.13-9.379 6.955-14.076 10.396-3.89 2.245-7.172 5.596-11.48 6.837-4.41 2.13-9.146 2.776-13.525 4.98-5.83.993-11.422 3.348-17.417 3.368-6.73 1.178-13.752 2.115-20.516.76-2.793-3.484 3.054-6.648 5.625-9.013 4.917-4.076 9.964-8.098 14.648-12.504 1.635-2.195 7.823-6.823 6.05-7.956-7.716 2.77-16.004 3.118-24.08 3.951-5.218-.717-7.586 5.015-10.774 7.934-2.792 4.712-7.657 7.781-8.804 13.548.676 9.006 1.133 18.103 3.916 26.77.935 5.469 2.814 10.66 4.487 15.919 1.933 5.963 4.473 11.77 6.475 17.684 2.453 6.894 5.141 13.948 8.563 20.553 1.528 4.153 3.89 8.032 6.008 11.731 1.66 4.119 4.613 7.44 7.378 10.9 4.996 6.135 10.67 11.977 17.096 16.507 2.688 2.113 5.72 5.049 9.143 7.046 4.58 3.613 9.157 7.042 14.258 9.95 4.585 2.192 8.69 5.061 13.43 6.842 3.226 1.135 10.313 5.048 7.755-1.654-3.236-4.945 5.478-9.086 7.188-3.571 1.466 3.099.66 7.382 1.542 10.278 5.98 1.838 12.19 2.554 18.418 2.977 10.565 1.817 21.346 1.201 31.993 1.938a39.3 39.3 0 0 0 3.177-.295z" fill="#999"/><path d="M1426.583 1675.035c-5.252-.85-10.951-1.394-15.435-4.496-3.883-3.816-6.684-8.745-10.731-12.286-3.527-3.172-1.473-7.568 2.62-8.711 5.051.734 6.513 5.856 9.953 8.688 2.556 4.798 7.929 7.582 12.797 7.909 4.244-.21 9.842 1.233 14.625.554 4.37-.461 8.78-.687 12.858-2.36 4.038-1.03 8.359-1.384 12.052-3.155 5.34-2.1-1.618-9.053-.593-13.404-1.796-8.826-1.795-17.952-4.505-26.602.145-5.286-4.46-7.77-8.304-9.472-4.624 1.235-12.484-2.342-8.957-8.044 1.335-3.074-2.173-5.439 2.767-6.37 4.367-.08 9.395-2.295 11.01 3.704 1.197 5.39 9.256 4.126 10.087 9.762 1.742 8.068 3.823 16.103 3.986 24.394 1.117 6.445 2.292 12.745 4.363 18.92.29 2.955-.87 5.064 2.89 2.658 5.243-2.207 9.872-5.71 14.965-8.31 4.201-2.55 8.493-4.916 12.3-7.99 3.78-2.9 8.61-5.488 10.377-10.165 2.086-6.163 10.053-.901 4.917 3.486-1.848 4.64-5.903 8.005-9.85 10.786-4.223 2.957-8.484 5.8-12.657 8.744-4.27 2.025-7.897 5.5-12.338 7.08-4.273 2.16-8.237 4.772-12.762 6.363-4.751 1.812-9.691 3.117-14.52 4.658-5.17.528-9.911 3.13-15.205 3.103a66.755 66.755 0 0 1-16.71.556z"/><path d="M1457.321 1615.904c2.194-.358-.663.69 0 0zM1521.383 1519.715c-2.107-2.063-6.517-.554-7.393-5.192-.527-4.017.743-8.46 3.735-11.305 4.93-2.682 7.717 2.69 11.306 4.208.795 3.616 3.863 6.638.08 9.024-1.034 3.028-6.469 1.869-7.728 3.265zM1574.981 1454.178c.068-1.924 1.61.824 0 0zM1501.991 1443.8c-.94-1.305 2.103.944 0 0z"/><path d="M1359.014 1492.17c-4.732 1.555-9.168 3.961-13.122 6.778-4.573 3.397-8.953 6.818-13.439 10.336-4.21 2.66-7.345 6.706-11.385 9.492-4.749 5.332-10.098 10.366-14.736 15.658-4.233 3.319-6.835 8.302-10.827 11.969-3.127 4.049-6.672 7.769-9.826 11.786-3.307 3.616-5.973 7.887-9.393 11.253-2.697 2.477-3.839 6.77-6.88 8.963-2.202 3.868-4.79 7.918-6.79 11.694-3.074 4.211-4.782 9.235-6.826 14.026-2.059 5.122-.428 10.46 2.173 15.065 3.325 4.113 7.114 8.161 12.445 9.313 6.535 1.354 13.441 3.276 20.07 1.512 4.793-1.523 9.36-4.33 11.68-8.988 2.395-4.157 4.29-8.633 6.95-12.715l13.145-17.988 7.212-8.182 6.702-10.318 2.248-11.923c2.643-5.717 3.45-12.18 6.018-17.974 1.75-4.943 3.971-9.68 6.238-14.35 1.53-3.682 3.467-7.471 5.735-10.93 2.07-4.102 5.12-7.703 7.85-11.286 4.96-7.114 11.806-13.097 17.485-19.791 2.04-1.387 6.216-7.902 1.288-5.112-4.162 2.912-9.118 2.126-12.646 5.93z" fill="#b3b3b3"/><path d="M1355.692 1603.984c6.419-1.33 13.321-.82 19.334-3.81 4.986-.382 9.381-2.842 13.912-4.7 5.64-2.653 10.793-6.165 15.634-10.051 4.078-2.513 7.905-6.035 11.776-9.185 1.366-4.569-1.287-9.805-3.605-13.83-2.749-4.268-7.193-7.44-11.02-10.49-4.757-3.1-7.994-8.272-12.49-11.788-3.548-1.18-7.675-5.13-11.157-1.883-5.524 3.508-12.008 5.496-16.675 10.266-3.998 3.541-9.075 6.038-12.592 9.999-1.362 4.376-2.706 8.611-4.42 12.864.358 2.682-5.823 7.479-1.15 7.591 7.656-.666 15.531-1.116 22.84-3.498 3.888-.352 10.105-5.554 12.296-.464-1.062 5.01-6.932 7.94-9.788 12.24-3.4 2.926-6.216 6.237-9.52 9.384-2.335 2.916-7.24 5.272-8.535 7.984 1.728-.087 3.434-.48 5.16-.63z" fill="#ccc"/><path d="M1372.287 1569.822c-3.558-.18-4.676-5.635-9.129-4.035-4.214-1.952 1.45-6.707-.963-9.99 1.054-4.12 2.832-8.5 6.724-10.682 4.055-1.107 10.317 3.142 10.131 7.832.205 3.996.833 7.637.641 11.59-1.547 2.785-3.351 5.925-7.404 5.285z"/><path d="M1696.284 1515.073c4.798-.207 9.5-1.596 13.72-3.345 3.8-1.676 7.201-4.361 8.2-8.65.63-5.65.363-11.86-2.243-16.925a21.282 21.282 0 0 0-11.38-9.07c-5.902-2.702-12.414-2.816-18.693-3.955-9.628-1.16-19.263-3.139-28.808-4.24-6.755-.778-13.35-2.976-20.22-3.118-4.997-.9-10.264-1.819-14.214-5.25-2.252-1.671-4.831-1.98-1.752.735 3.148 3.44 6.258 6.664 9.235 10.282 6.27 5.824 8.526 14.203 13.801 20.798 3.4 4.958 8.315 8.653 12.696 12.694 4.274 2.926 8.766 5.517 13.788 6.946 6.56 3.184 14.097 3.305 21.25 3.365 1.54-.059 3.091-.052 4.62-.267z" fill="#b3b3b3"/><path d="M1436.988 1457.49c4.465.407 7.238-3.083 10.409-5.507-4.109.16-8.504 2.66-12.514 3.522-4.524.84-2.82 3.324.728 2.086l.674-.052zM1425.395 1452.72c2.523-1.57 8.396-2.346 9.067-4.35-4.424.001-9.501.015-13.286 2.39-.154 2.89 2.047 3.658 4.22 1.96z"/></g><path fill="#0ff" fill-opacity=".784" d="M1187.82 1690.725l281.52 97.51-53.16 137.04-281.519-97.51z"/></svg>