<svg xmlns="http://www.w3.org/2000/svg" height="420" width="420"><path d="M80.087 399.15c-1.703-3.842 2.576-8.057 3.927-12.103 1.61-5.887 3.355-11.76 5.68-17.323 1.205-3.086 5.221-7.912-.383-7.716-3.656-.691-7.173-1.858-10.78-2.762-3.77-.96-7.52-2.816-11.22-3.444l-2.185-.759c-4.166-.89-8.11-3.042-12.316-3.927-1.149-.6-2.723-.963-1.55 1.083-1.837 1.3-5.68 5.051-6.73.555.226-3.632.314-7.547.632-11.342 1.444-4.961-4.989-.311-7.305-1.791-3.59.626-5.794.14-9.911.486-4.039.115-8.073.3-12.07.736-3.533.162-6.644-1.218-9.79-3.226-2.773-2.016-2.363-8.892 1.6-8.3 3.507 1.273 4.563-3.675 7.967-2.7 3.465.156 6.978 1.938 10.095-.732 2.996-1.468 5.636-4.279 8.91-4.48 2.765.23 5.276.022 7.668 1.225 2.641 1.392 5.923-.05 6.311 3.321 1.602-3.642 2.466-8.258 4.227-12.153 1.952-3.748-.614-3.354-2.867-1.937-2.254 1.878-6.256 1.334-5.114-2.762.911-3.913 5.64-3.845 8.54-4.994 4.087-1.72 8.468-2.287 12.783-2.77 3.36 1.155 6.6.591 9.59 1.339 3.91.682 7.86 1.18 11.785 1.963 3.539.593 6.993 1.777 10.525 2.6 3.58.486 6.498.858 9.987 1.52 7.396 1.2 14.948 1.16 22.425 1.595 4.395-1.124 8.95-1.055 13.346-2.223 4.229-.428 8.446-1.031 12.615-1.835 3.513-.5 6.63-1.032 10.146-1.525 2.18-.864 6.376-.76 6.818-3.258-2.974-2.57-6.498-4.089-9.172-6.863-2.35-3.605-6.587-4.513-9.327-7.896-3.594-3.687-7.683-6.883-10.618-11.357-1.956-2.384-3.576-5.368-5.462-7.626-1.602-3.687-3.504-7.032-5.173-10.7-1.362-3.481-2.786-6.737-4.133-10.21-1.528-3.81-2.471-7.667-3.992-11.41-1.615-4.272-2.658-8.781-4.418-12.976-.493-4.04-2.325-7.779-2.968-11.864-1.68-5.733-2.464-11.74-3.21-17.704-1.556-.104-2.612 5.262-5.077 6.174-2.573 2.964-5.728 5.546-9.343 6.127-3.775.856-7.474 1.033-11.341.3-4.22-.906-8.695-1.172-12.39-3.903-4.958-3.95-9.018-10.122-9.92-17.123.192-7.227 3.49-13.82 6.609-19.93 1.897-2.275 2.672-5.596 4.646-7.985 1.917-3.747 4.416-7.226 6.97-10.486 2.652-4.648 6.123-8.615 8.978-13.085 4.113-5.283 8.082-10.716 12.326-15.849 2.771-3.235 5.236-7.072 8.37-10.058 3.379-3.566 6.597-7.34 10.299-10.455 2.822-2.94 6.116-5.172 9.239-7.656 3.216-2.56 6.691-4.746 10.175-6.862 3.451-1.422 6.544-3.744 9.785-5.757 2.704-2.119 5.835-3.722 8.33-6.077 3.25-.854 6.474-6.086 9.452-1.907 2.68-2.07 5.615-3.727 8.599-5.325 2.53-1.169 5.083-2.666 7.665-4.147.177-2.489-4.16-4.932-2-7.694 2.357-3.648 6.741-3.74 10.196-5.137 3.604-1.953 7.908-2.088 11.71-1.043 2.266-.024 5.57.887 7.82.172 2.746-2.288 5.865-2.609 8.864-3.508 3.449-1.333 6.782-2.974 10.367-3.857 2.364-1.04 8.679-2.824 8.08 1.71-.917 3.709 2.035 2.23 4.08 1.945 7.02-1.306 14.142-1.963 21.268-1.738 3.574-.187 7.073.328 10.574 1.024 4.688.656 9.371 1.317 14.086 1.61 5.44 1.38 11.08 1.669 16.331 3.91 3.917 1.196 7.885 2.621 11.33 5.051 2.024 1.365 3.494 1.485 4.88-1.024 3.294.133 6.881-1.23 9.675 1.43 2.91 2.174 6.502 3.004 9.513 5.101 2.709 2.944 6.725 2.708 10.216 3.487 3.451.253 6.7.974 10.04 1.837 3.74.741 7.556 1.085 11.319 1.43 2.697 1.098 6.335 1.631 9.453 1.957 3.939.453 7.597.784 11.308 2.206 3.287.853 6.833 2.293 9.59 4.156 3.831 2.747 7.531 6.706 7.98 12.093.946 4.25.804 8.987.145 13.266-1.08 4.106-3.809 7.265-7.005 9.506-3.126 2.076-6.59 3.334-10.13 3.92-6.675 2.267-13.83 1.737-20.58.2-2.563-1.37-5.942-.072-6.823-2.196-2.974-1.127-5.745-2.592-8.364-4.748-2.617-2.137-5.766-3.302-7.656-6.32-2.508-2.97-5.315-5.986-7.036-9.492-2.43-3.096-3.603-7.09-5.5-10.574-1.97-3.43-4.697-6.171-7-9.33-.446 2.41 1.986 7.006 2.601 10.234 1.74 5.547 3.721 11.048 4.54 16.906 2.27 11.687.967 23.755 2.076 35.574a52.503 52.503 0 0 1-2.709 14.392c-2.24 5.485-.725 11.9-2.447 17.515 1.02 3.61 2.18 7.268 2.723 11.066.545 2.285.814 8.27 1.512 8.396l.84 7.51c.13 4.627 1.221 6.612 1.828 11.29.034 7.768 1.08 15.546-.508 23.173-1.248 3.113-2.612 5.862-4.698 8.302-2.055 2.622-3.189 4.245-5.341 6.569-2.572 3.226-5.35 6.277-7.816 9.585-1.833.965-5.197 4.337-5.405 5.198l-29.395 26.777c-3.062 3.248-6.318 6.282-9.612 9.169-2.808 2.559-5.676 5.115-8.461 7.749-2.968 2.075-5.687 4.658-8.857 6.353-2.039 1.724-4.754 3.558-7.22 4.481-3.45 1.916-7.317 3.322-11.082 4.517-3.654 1.1-7.285 2.65-11.1 2.642-9.178-.02-18.382-.373-27.517-1.428-4.24-.393-8.381-1.491-12.577-2.208-3.718-.107-4.496 5.363-6.714 7.867-2.231 3.59-4.696 6.876-7.129 10.248-3.256 3.867-6.871 7.29-10.266 10.99-2.91 3.072-7.19 1.815-10.51 3.725-3.19.947-5.684 2.712-9.258 3.162-2.094 1.23-5.203 1.832-3.259 4.857.413 4.407 1.673 9.116 3.198 12.908 1.54 2.345-1.23 4.018-1.462 6.316.076 1.287-3.905 1.348-3.612-1.717-1.353-2.304-2.256-6.188-2.967-9.378-.165-.887-.384-6.23-1.61-7.208-2.877.57-5.861 2.576-8.79 3.847-2.89 1.826-8.987 2.385-8.448 7.261.612 8.956 2.51 17.726 3.702 26.57-1.818.462-3.904 2.556-5.454 1.385-5.9-4.454-2.632-15.804-3.712-23.737.211-3.37-1.23-5.485-4.13-3.893-2.813.355-5.41 1.004-8.266.837-1.738-.524-1.909 2.45-1.913 3.722-1.481 2.819-2.459 5.77-3.35 8.726-.455 2.427-1.618 6.322-.507 7.733l-.03.36c1.025 3.074-4.395 10.46-4.719 4.608-1.583-4.035.128-8.21.848-12.236.52-4.188 2.099-8.21 4.008-11.837.544-2.726-5.644-3.476-5.687.152-2.105 2.964-3.215 6.694-4.462 10.22-1.353 3.773-2.723 7.354-3.76 11.25-1.377 3.948-2.62 7.922-3.93 11.793 0 0-3.52.074-4.172-1.395z"/><path d="M112.862 358.584c2.72.037 4.643-.189 3.821-3.716 1.675-4.162 5.612-3.203 7.003.62 2.783-.118 5.248-2.87 8.215-3.683 2.481-2.35 5.904-2.629 8.302-5.095 1.27.263 4.703-1.989 6.802-2.674 3.725-2.144 7.752-3.654 11.587-5.314 3.666-1.338 7.728-2.118 11.507-3.422 4.002-3.305 7.233-7.723 10.782-11.633 2.207-2.98 4.126-6.193 5.961-9.46 1.464-2.38 3.888-4.935-.047-5.359-3.14-1.27-6.419-3.406-9.238-4.63-2.04 3.61-4.833 7.6-9.042 7.263-3.6.725-6.91 1.457-10.542 2.051-4.963.779-9.963 1.576-14.97 2.136-5.044 1.284-10.257 1.142-15.328 2.277-5.467.53-10.85-1.148-16.31-1.203-5.287-.493-10.565-1.575-15.778-2.439-4.657-1.842-9.681-1.998-14.377-3.553-3.9-.434-7.686-.924-11.58-1.306-2.745-.658-5.507-2.26-8.344-.783-1.907 3.136-3.854 6.585-4.545 10.478-1.339 3.693-2.691 7.323-3.794 11.103-.804 2.778-1.527 5.48-1.85 8.566-2.195 4.877 2.913 5.923 6.046 6.298 3.15.949 6.303 1.948 9.427 3.298 3.494.705 6.802 2.076 10.186 3.197 3.568.945 7.103 1.96 10.739 2.571 3.377.774 6.613 2.335 10.06 2.611 4.705 2.436 10.245 2.147 15.307 1.801z" fill="gray"/><path d="M48.538 327.912c-.697-1.182-.61 1.143 0 0z"/><path d="M236.593 308.976c4.635-1.163 9.417-1.87 13.895-3.794 3.684-.933 6.818-3.599 10.3-5.154 3.085-1.698 5.798-3.995 8.7-5.994 2.011-1.632 4.277-3.32 6.224-5.231 2.594-1.982 4.867-4.3 7.38-6.37l14.212-13.759c3.625-1.623 7.707-8.126 11.175-10.167 2.732-1.71 5.13-4.407 7.758-6.61 3.527-2.516 6.502-6.062 9.9-8.806 3.192-3.703 6.637-7.232 9.603-11.136l5.93-10.87.557-6.548-1.072-8.233-.73-2.185-2.007-11.085c-1.063-5.643-1.244-11.519-2.473-17.14-.064-4.632-4.04-8.349-2.06-13.137.795-4.184.219-8.478.837-12.648 1.449-5.623 3.937-11.15 3.233-17.189-.198-8.553.101-17.14-.903-25.633-.245-4.775-1.407-9.471-2.191-14.174-1.11-3.688-2.06-7.43-3.205-11.106-1.208-3.654-1.874-7.323-3.241-10.895-1.128-4.208-3.426-7.924-6.404-10.842-2.677-2.917-5.845-5.167-9.265-6.603-3.456-1.857-7.223-2.45-10.874-3.657-4.777-1.148-9.643-1.742-14.468-2.59-5.786-.59-11.564-1.205-17.316-2.125-3.38-.575-5.745.468-8.624.131-5.135.015-10.174 1.341-15.307 1.477-4.311-.76-5.159 4.411-8.984 4.803-2.81 1.62-5.924 2.808-9.117 2.853-2.847-.37-2.482 3.263-4.497 1.833-3.877 1.002-7.873.934-10.692 4.77-2.699 2.953-6.575 3.082-10.103 4.089-3.32.421-6.678-.034-9.537-1.877-3.403-.961-6.394 2.348-9.435 3.342-3.22 2.162-6.724 3.622-9.85 5.888-.817 3.271 1.855 7.638-1.768 10.228-1.986 3.048-4.267 5.569-6.523 8.395-2.87 2.834-5.126 6.248-7.61 9.521-1.949 3.118-3.921 6.363-5.704 9.577-1.988 3.244-2.833 7.191-4.638 10.773-1.53 4.066-3.525 8.145-4.287 12.429 2.36-1.295 4.793-4.115 7.16-5.908 2.023-2.34 4.777-3.43 7.147-4.655 3.463-1.265 5.93-4.236 8.902-6.457 1.967-1.581 7.497-6.685 7.827-1.794-1.34 2.261-4.848 3.992-.476 5.252 2.842 2.115 4.705 4.926 7.057 7.623 2.482 2.332 5.22 4.657 7.73 7.402 2.79 2.548 5.238 5.903 6.004 9.831.422 3.644 4.043 8.301 1.838 11.402-2.305 3.186-5.476 5.736-8.233 8.105-3.422 2.573-6.803 5.72-10.211 8.55-2.822 1.846-5.203 4.602-8.328 5.623-3.2 1.752-6.635 2.283-9.811 4.095-4.229.817-8.286 2.754-12.635 2.77-4.882.97-9.976 1.74-14.882.625-2.027-2.865 2.214-5.467 4.08-7.412 3.566-3.353 7.228-6.66 10.625-10.284 1.187-1.805 5.676-5.612 4.39-6.543-5.597 2.279-11.61 2.564-17.469 3.25-3.785-.59-5.503 4.124-7.815 6.525-2.026 3.875-5.555 6.4-6.387 11.142.49 7.407.822 14.889 2.84 22.017.68 4.498 2.042 8.767 3.256 13.092 1.402 4.905 3.245 9.68 4.697 14.544 1.78 5.67 3.73 11.472 6.212 16.904 1.108 3.416 2.822 6.606 4.358 9.648 1.204 3.388 3.347 6.12 5.353 8.966 3.624 5.045 7.74 9.85 12.401 13.575 1.95 1.738 4.15 4.153 6.632 5.795 3.322 2.972 6.644 5.792 10.344 8.183 3.326 1.803 6.303 4.163 9.742 5.628 2.34.933 7.481 4.151 5.626-1.361-2.348-4.067 3.974-7.473 5.215-2.937 1.063 2.549.478 6.071 1.118 8.453 4.337 1.512 8.843 2.1 13.36 2.449 7.665 1.494 15.486.988 23.209 1.593.77-.047 1.54-.124 2.305-.242z" fill="#999"/><path d="M197.55 237.533c-3.81-.699-7.944-1.147-11.196-3.698-2.817-3.138-4.85-7.193-7.785-10.105-2.558-2.608-1.068-6.224 1.901-7.164 3.664.604 4.724 4.817 7.22 7.145 1.854 3.946 5.752 6.236 9.283 6.505 3.079-.172 7.14 1.014 10.61.456 3.17-.38 6.37-.565 9.327-1.941 2.93-.847 6.063-1.138 8.742-2.595 3.875-1.727-1.173-7.445-.43-11.024-1.302-7.259-1.302-14.765-3.267-21.879.105-4.347-3.236-6.39-6.024-7.79-3.355 1.016-9.056-1.926-6.498-6.615.968-2.53-1.577-4.474 2.007-5.24 3.168-.066 6.816-1.887 7.987 3.047.869 4.432 6.715 3.393 7.318 8.029 1.263 6.635 2.772 13.243 2.891 20.062.81 5.3 1.662 10.482 3.165 15.56.211 2.43-.631 4.166 2.096 2.187 3.804-1.815 7.162-4.696 10.856-6.834 3.048-2.098 6.161-4.044 8.923-6.572 2.743-2.385 6.245-4.514 7.527-8.36 1.514-5.069 7.294-.741 3.568 2.867-1.34 3.817-4.282 6.584-7.146 8.871-3.063 2.432-6.154 4.77-9.182 7.191-3.097 1.666-5.728 4.523-8.95 5.823-3.1 1.776-5.975 3.925-9.258 5.234-3.446 1.49-7.03 2.563-10.532 3.83-3.752.435-7.19 2.575-11.03 2.552-4 .73-8.088.88-12.123.458z"/><path d="M219.849 188.9c1.591-.294-.481.568 0 0zM266.32 109.79c-1.528-1.696-4.727-.455-5.363-4.27-.381-3.304.54-6.957 2.71-9.297 3.576-2.206 5.598 2.212 8.202 3.46.577 2.975 2.802 5.46.057 7.422-.75 2.491-4.692 1.537-5.605 2.686zM305.202 55.89c.05-1.582 1.168.678 0 0zM252.253 47.355c-.682-1.074 1.526.776 0 0z"/><path d="M148.534 87.136c-3.432 1.28-6.65 3.258-9.518 5.575-3.318 2.794-6.496 5.607-9.75 8.5-3.054 2.189-5.328 5.516-8.258 7.808-3.445 4.384-7.326 8.524-10.69 12.877-3.071 2.73-4.959 6.828-7.855 9.844-2.268 3.33-4.84 6.39-7.128 9.693-2.398 2.974-4.333 6.487-6.813 9.255-1.957 2.037-2.785 5.569-4.99 7.372-1.599 3.18-3.476 6.512-4.927 9.618-2.23 3.463-3.469 7.595-4.952 11.535-1.493 4.212-.31 8.603 1.577 12.39 2.411 3.383 5.16 6.712 9.028 7.66 4.74 1.113 9.75 2.694 14.56 1.243 3.476-1.252 6.79-3.562 8.471-7.392 1.738-3.42 3.113-7.1 5.043-10.457l9.535-14.795 5.232-6.728 4.862-8.487 1.63-9.806c1.918-4.702 2.503-10.016 4.366-14.782 1.27-4.066 2.881-7.962 4.525-11.803 1.11-3.028 2.515-6.144 4.16-8.988 1.502-3.375 3.715-6.336 5.695-9.283 3.597-5.85 8.564-10.772 12.684-16.277 1.48-1.14 4.51-6.499.935-4.204-3.02 2.395-6.615 1.748-9.175 4.877z" fill="#b3b3b3"/><path d="M146.125 179.097c4.656-1.094 9.663-.674 14.025-3.134 3.617-.313 6.805-2.337 10.092-3.865 4.091-2.182 7.83-5.07 11.341-8.266 2.958-2.067 5.734-4.964 8.543-7.555.99-3.757-.934-8.063-2.616-11.374-1.993-3.51-5.217-6.12-7.994-8.627-3.45-2.55-5.799-6.803-9.06-9.696-2.574-.969-5.568-4.219-8.094-1.548-4.007 2.885-8.71 4.52-12.096 8.444-2.9 2.912-6.583 4.965-9.134 8.223-.989 3.599-1.964 7.082-3.208 10.58.26 2.206-4.223 6.15-.834 6.243 5.555-.548 11.268-.918 16.57-2.877 2.82-.29 7.33-4.568 8.92-.382-.771 4.121-5.03 6.531-7.101 10.067-2.467 2.407-4.51 5.13-6.906 7.718-1.694 2.398-5.253 4.336-6.191 6.566 1.253-.07 2.49-.394 3.743-.517z" fill="#ccc"/><path d="M158.163 151c-2.58-.148-3.393-4.633-6.622-3.318-3.057-1.605 1.05-5.516-.7-8.216.765-3.39 2.056-6.992 4.878-8.785 2.942-.911 7.485 2.584 7.35 6.441.149 3.287.604 6.281.465 9.532-1.122 2.291-2.43 4.874-5.371 4.346z"/><path d="M393.198 105.972c3.48-.17 6.89-1.311 9.953-2.75 2.757-1.378 5.224-3.587 5.949-7.114.456-4.647.262-9.755-1.628-13.92-1.88-3.485-4.808-6.156-8.255-7.46-4.281-2.222-9.006-2.316-13.56-3.253-6.985-.953-13.974-2.58-20.898-3.486-4.901-.64-9.685-2.448-14.668-2.565-3.625-.741-7.447-1.496-10.312-4.318-1.634-1.375-3.505-1.63-1.27.604 2.283 2.83 4.54 5.481 6.698 8.457 4.549 4.79 6.186 11.681 10.012 17.105 2.467 4.078 6.032 7.116 9.21 10.44 3.1 2.407 6.359 4.538 10.002 5.713 4.759 2.619 10.227 2.718 15.415 2.768 1.117-.049 2.243-.044 3.352-.22z" fill="#b3b3b3"/><path d="M205.098 58.614c3.24.335 5.25-2.535 7.551-4.53-2.98.133-6.168 2.188-9.078 2.898-3.281.69-2.045 2.734.528 1.715l.49-.043zM196.689 54.692c1.83-1.292 6.09-1.93 6.577-3.58-3.21.003-6.892.013-9.638 1.967-.112 2.377 1.485 3.009 3.061 1.613z"/><g><path d="M249.52 290.422c-.465-.335.692-.27 0 0z"/><path d="M254.725 282.772c-.753 1.086-1.568 2.122-2.331 3.184-.97 1.423-2.074 2.723-3.013 4.176-1.445 2.186-2.994 4.28-4.505 6.407-1.1 1.766-2.503 3.255-3.747 4.888-.715.8-1.333 1.698-2.04 2.513-.973 1.567-2.354 2.718-3.384 4.227-1.251 1.31-2.29 2.872-3.646 4.06-.83.736-1.637 1.566-2.675 1.894-.874.37-1.8.534-2.705.752-.97.807-1.913-.958-.93-1.586.391-.122 2.04.051 1.253-.682-.965-.644-1.765-1.55-2.653-2.305-.188-.399-1.19-1.091-.72-.131.466 1.285.907 2.615 1.068 3.999.204 1.08-.845 1.261-1.24.39-.619-.596.49.967.943.986.889.643 1.946 1.249 2.381 2.404-.137.974-.959-.056-1.158-.471-1.02-.857-2.423-1.24-3.039-2.621-.3-1.127-.553-2.346-1.466-3.08-.716-1.003-1.511-1.952-2.214-2.965-.859-1.252-1.644-2.561-2.466-3.847a73.514 73.514 0 0 1-2.636-4.5c-.712-1.015-1.177-2.223-1.796-3.314-1.145-2.224-2.607-4.234-3.558-6.588-.867-1.993-1.728-4-2.395-6.09-.515-.792-.75-1.707-1.081-2.6-.487-.955-.766-2.045-1.111-3.048-.333-.732-.638-1.499-.802-2.286-.389-1.222-.862-2.414-1.164-3.672-.33-.79-.276-1.609-.679-2.352-.182-.925-.505-1.804-.708-2.734-.157-.915-.428-1.743-.625-2.66-.095-.84-.52-1.524-.785-2.31-.666-1.79-1.207-3.729-.971-5.695.142-1.268-.57-2.375-.762-3.59-.19-.94-.57-1.823-.71-2.773.095-.731 1.053-.961.57-1.857-.264-1.622-.518-3.241-.66-4.884-.008-.947-.47-2.019-.016-2.888.37-.42 1.088.05.863-.842-.071-1.185-.05-2.376-.06-3.565-.042-1.244-.009-2.487.034-3.729.083-.819-.079-1.735.265-2.48.85-.534 1.438.561 1.261 1.455-.168.303-.378 1.64.324 1.325.896-.603 1.107.956 1.02 1.422.014.7.21 1.188.088 1.983-.052 1.188.648 2.151.564 3.358.121.63-.102 2.138.77 1.355.908-.655 1.926-1.057 2.863-1.652.742-.33 1.464-.72 2.173-1.12.855-.496 1.67-1.076 2.555-1.508.924-.644 1.953-1.076 2.837-1.793a71.44 71.44 0 0 1 6.143-3.57c.898-.594 1.893-.936 2.784-1.559 1.212-.496 2.375-1.123 3.503-1.826.938-.44 1.875-.873 2.759-1.445 1.674-.973 3.468-1.644 5.163-2.558 1.144-.422 2.192-1.114 3.366-1.438.96-.406 1.978-.586 2.911-1.072a23.791 23.791 0 0 1 3.212-1.217c1.167-.387 2.338-.749 3.476-1.24 1.751-.518 3.592-.761 5.23-1.68.899-.504 1.86-.803 2.8-1.173 1.234-.294 2.485-.479 3.707-.84 1.24-.294 2.481-.543 3.717-.856 1.436-.286 2.903-.4 4.36-.466.79.17 1.617.21 2.359.538.82.13 1.552.477 2.356.632.868.307 1.9.588 2.195 1.72.458 1.108.638 2.313.692 3.526.153 2.05.133 4.112.056 6.166.034 1.558-.065 3.115-.058 4.674-.128 2.738-.49 5.452-.825 8.162-.366 2.31-.585 4.654-1.08 6.939-.715 3.549-2.063 6.869-3.309 10.206a216.773 216.773 0 0 1-2.15 5.203c-.4.865-.64 1.79-1.087 2.635-.357 1.117-.94 2.134-1.312 3.247-.629.993-1.037 2.134-1.698 3.097-.904 1.244-1.464 2.755-2.379 3.995-1.205 2.127-2.436 4.244-3.48 6.48-.24.407-.495.804-.792 1.16z" fill="#a40"/><path d="M255.234 279.672c.554-1.302 1.336-2.462 1.994-3.698.909-1.615 1.89-3.174 2.75-4.821.78-1.222 1.536-2.463 2.153-3.8.87-1.894 1.662-3.837 2.454-5.776.929-2.109 1.748-4.274 2.667-6.388.248-.895.701-1.671.922-2.584.496-1.142.838-2.354 1.209-3.55.393-1.046.604-2.167.884-3.258.2-1.286.522-2.543.65-3.844.321-2.21.64-4.414.942-6.627.05-1.025.252-2.047.246-3.067.168-1.118.09-2.265.148-3.395.048-2.344.207-4.696.1-7.039-.066-1.062-.147-2.126-.528-3.114-.265-1.107-1.214-1.531-2.105-1.737-1.834-.52-3.68-1.354-5.604-.998-1.005.02-2 .127-2.989.309-1.91.486-3.838.864-5.75 1.333-1.07.135-2.108.518-3.1.971-1.164.316-2.133 1.25-3.352 1.354-1.129.377-2.285.644-3.425.97-.97.495-2.034.652-3.023 1.09-1.137.274-2.215.76-3.298 1.226-.991.397-2.038.59-3.001 1.077-1.353.517-2.697 1.073-3.987 1.77-1.527.664-3.056 1.339-4.516 2.185-1.255.718-2.547 1.346-3.816 2.027-1.094.645-2.232 1.187-3.327 1.82-1.109.509-2.126 1.241-3.23 1.77-1.164.647-2.35 1.233-3.455 2.01-1.663 1.036-3.305 2.13-5.006 3.084-.94.707-2.018 1.119-3.005 1.733-1.532.904-3.414 1.315-4.502 2.965.23.798-.023 2.001.907 2.291-.13.43.558.058.243-.453-.16-.808-1.07-2.096.127-2.381.966.453.689 1.96.986 2.902.149 1.9.158 3.847.752 5.66.416 1.454.763 2.952 1.186 4.386.389-.794 1.568-.858 1.643.265-.063.59.459.977.328.172a19.67 19.67 0 0 1 .324-3.852c.094-1.232 1.743-1.26 1.365.1-.282.986.585 1.69.534 2.592.108 1.608.343 3.193.5 4.794.248 1.113.202 2.274.336 3.407.17 1.739.291 3.495.704 5.186.36 1.398 1.107 2.609 1.641 3.925.388.922.795 1.828 1.213 2.73.427 1.052.92 2.06 1.318 3.127.417.908.84 1.817 1.197 2.76.308.9.866 1.793 1.184 2.758.489 1.12 1.051 2.196 1.477 3.352.54 1.18 1.405 2.106 2.015 3.234.631.844 1.322 1.63 1.833 2.58.506.658.992 1.353 1.506 2.03.428.713.952 1.298 1.399 2 1 1.307 1.872 2.734 2.758 4.142.363.876 1.225 1.674 1.034 2.723-.661.89.72 1.652 1.046 2.426.318.69 1.501 1.495.651 2.28-.761-.11-1.214-1.249-1.915-1.689-.708-.672-1.385-1.363-2.07-2.063-.937-.783.126 1.043.162 1.58.382 1.415.94 2.822.838 4.336.207.61-.59 2.209.472 1.564 1.42-.43 2.45-1.673 3.522-2.73 1.672-1.895 3.2-3.943 4.881-5.83 1.827-2.443 3.697-4.844 5.653-7.155a89.99 89.99 0 0 0 1.598-2.272c1.07-1.633 2.324-3.121 3.334-4.814 1.376-1.959 2.766-3.905 4.246-5.762.896-1.315 1.881-2.547 2.795-3.841.078-.142.14-.295.177-.458z" fill="#ff7f2a"/><path d="M244.6 288.046c-.77 1.115-2.263.453-2.892-.512-1.093-1.37-1.797-3.202-1.818-5.058.02-.997.488-2.149 1.497-2.17 1.46-.06 2.736 1.026 3.61 2.263.625.81 1.165 2.007.794 3.078-.833-.168-.82-1.791-1.54-2.373-.723-.826-1.777-1.769-2.861-1.357-.826.616-.456 1.922-.156 2.77.358.907.842 1.845 1.604 2.373.71.577 1.248-1.259 1.773-.106.128.343.133.756-.012 1.092zM250.01 277.16c-.757.758-1.798 1.288-2.817 1.089-.916-.334-1.594-1.218-1.925-2.225-.59-.769-.836-1.9-1.533-2.537-.877.183-1.781.097-2.654-.129-.957-.123-1.84-.661-2.443-1.447-.677-.881-.94-2.137-1.04-3.3-.097-1.11.102-2.26.433-3.31.338-1.073.379-2.65 1.548-2.934 1.25-.425 2.432.52 3.373 1.342.717.714 1.459 1.447 1.967 2.363.887.633 1.17-1.207 2.05-1.345.818-.539 1.793-.536 2.67-.187 1.077.446 2.05 1.344 2.66 2.455.341.8.407 1.751.335 2.626-.115 2.023-.909 3.881-1.555 5.736a10.75 10.75 0 0 1-1.07 1.802z" fill="#a40"/><path d="M250.171 274.38c.689-1.957 1.59-3.961 1.458-6.125-.205-1.241-1.3-2.043-2.317-2.327-.882-.26-1.773.15-2.428.818-.656.48-1.06 1.176-.597 2.005.265 1.084-.039 2.218-.665 3.06-.556.577-1.197 1.45-.365 2.142.914-.345.7 2.316 1.59 2.74 1.142.489 2.29-.452 2.886-1.513.162-.255.309-.522.438-.8z" fill="#ff7f2a"/><path d="M245.316 270.221c.404-.378.125-2.088-.291-.93-.093.486-.76 1.768-.28 1.811.221-.264.427-.552.571-.88zM243.558 271.761c-.02-1.352.136-2.795.887-3.892.537-.943-.585-1.679-1.037-2.353-.83-1.077-2.048-1.989-3.356-1.855-1.004.249-.977 1.612-1.177 2.542-.272 1.265-.492 2.737.015 3.905.431.991 1.394 1.679 2.312 2.032.763.236 1.609.261 2.354-.04.051-.11-.008-.225.002-.339z" fill="#ff7f2a"/><path d="M236.396 293.513c-.76.687-1.797.683-2.715.834-1.572.059-3.33-.414-4.261-1.976-.29-.489-.941-1.707-.334-1.971.656.544.858 1.603 1.663 1.974 1.308.78 2.89.815 4.296.406 1.262-.342.58-2.033-.153-2.608-.848-.909-1.973-1.367-3.115-1.53-.377-.136-2.15.242-1.054.545.8.19 1.666.223 2.274.92.519.183 1.006 1.29.084.947-.914-.405-1.896-.422-2.823-.765-.71-.252-2.173-1.09-1.344-2.073 1.185-1.101 2.921-1.115 4.27-.392 1.357.52 2.612 1.545 3.221 3.053.4.78.671 1.942-.01 2.636z" fill="#a40"/><path d="M252.555 267.036c-.147-.155.24.001 0 0z"/><path d="M257.11 260.248c-.829-.472-1.659-.92-2.553-1.164-1.042-.74-2.074-1.734-2.483-3.091-.286-1.194-.357-2.49.027-3.665.14-.988.766-1.792 1.405-2.398 1.177-.633 2.6-.482 3.688.314.982.578 1.583 1.665 1.964 2.805.042.834.438 1.777-.158 2.493-.658.825-.822 1.908-1.067 2.943-.175.637-.413 1.272-.823 1.763z" fill="#a40"/><path d="M257.331 257.576c.258-1.073.448-2.227.998-3.156.268-.927-.508-1.708-1.057-2.257-.66-.488-1.522-.8-2.336-.802-.524-.001-1.197.03-1.507.509-.743 1.147-.938 3.146.055 4.268.548.748 1.32 1.278 2.124 1.575.521.192 1.177.42 1.642.092.027-.02.038-.099.038-.099z" fill="#ff7f2a"/><path d="M264.04 244.632c-.848.695-1.713 1.367-2.746 1.725-1.28.592-2.974.637-4.006-.538-.857-1.188-1.016-2.774-1.108-4.25-.029-1.692.558-3.304 1.279-4.756.55-1.158 1.156-2.496 2.207-3.052 1.006-.532 2.241-.204 3.33.042.874.198 1.78.508 2.481 1.132.51.454.834 1.14 1.136 1.792.224.483.428 1 .487 1.541.1.912-.003 1.863-.235 2.744-.447.943-.994 1.855-1.759 2.499-.324.472-.674.798-1.066 1.12z" fill="#803300"/><path d="M264.327 242.919c.585-.07 1.117-1.143 1.513-1.634.273-1.005-.3-2.144-.637-2.987l-.44-2.041c-.674-.79-1.751-1.12-2.55-.992l-2.273-.077c-.984-.057-1.462 1.328-1.864 2.144-.6 1.272-1.078 2.692-.855 4.16.147 1.293.529 2.723 1.388 3.598.2.204.501.25.77.275.288.027.579-.06.86-.138.737-.208 1.513-.403 2.144-.874.256-.178.571-.27.776-.534" fill="#ff7f2a"/><path d="M238.403 281.825c-.925.884-2.037 1.803-3.32 1.576-.769-.193-1.61-.629-1.946-1.495-.331-1.247 1.192.042 1.685.149.832.074 1.613-.441 2.292-.92.952-.568.824-1.795-.146-2.175-.34-.53-1.795-.564-.991.273.687.257 1.304 1.867.143 1.69-.93-.436-1.65-1.675-1.569-2.826.239-1.257 1.692-1.112 2.444-.572 1.009.656 2.126 1.77 1.986 3.216a1.7 1.7 0 0 1-.578 1.084z" fill="#803300"/><path d="M228.1 282.07c-.815-.152-1.7-.043-2.446-.444-.665-.357-1.226-.982-1.652-1.663-.322-.517-.703-1.125-.632-1.76-.434-1.097-.848-2.367-.465-3.561.633-1.143 2.017-1.114 3.057-.917 1.204.353 2.279 1.192 3.147 2.179.876 1.23.985 3.135.052 4.368-.285.727-1.53.786-.824 1.602.026.145-.14.215-.236.197z" fill="#a40"/><path d="M228.783 278.535c.362-1.184-.517-2.245-1.391-2.727-1.004-.637-2.3-1.175-3.403-.55-.756.719-.056 1.991.307 2.771.57.83 1.087 2.053 2.11 2.16.965-.044 2.041-.541 2.377-1.654z" fill="#f60"/><path d="M249.005 249.1c-.748.79-1.523 1.56-2.407 2.14-1.259.692-2.844.402-3.886-.638-1.066-.24-.348-2.067.395-.845 1.11.749 2.626.703 3.655-.217a9.038 9.038 0 0 0 2.69-3.673c.36-1.547-.271-3.151-1.102-4.358-.941-1.205-2.288-2.108-3.728-2.164-.257.345-1.232-.207-1.692.44-.747.624-1.361 1.412-1.838 2.31-.627.973-.7 2.21-.812 3.363-.154 2.381.697 4.9 2.399 6.36.914-.378 1.688.896.89 1.587-1.096.208-1.95-.84-2.563-1.734-1.539-2.11-1.905-5.053-1.51-7.688.112-.853.422-1.662.69-2.459.63-1.236 1.427-2.43 2.47-3.239 1.244-.815 2.771-.519 4.004.166 2.01 1.125 3.38 3.448 3.774 5.922.104 1.404-.204 2.845-.974 3.968-.15.254-.304.506-.455.76zM258.4 232.756c-.694-.712-1.412.274-2.068.533a21.034 21.034 0 0 1-4.768 1.564c-.396.08-.802.081-1.203.095-.82.028-1.65.09-2.463-.024-.642-.224-1.308-.216-1.873-.387-.21-.752-.78-1.307-1.078-2.016-.29-.684-.667-1.382-.683-2.141-.015-.692.281-1.356.536-1.985.693-1.709 1.345-3.623 2.661-4.768.713-.62 1.676-.9 2.575-.91 1.344-.017 2.765.375 3.875 1.267.725.507 1.475.965 2.192 1.485.98.187 1.435 1.45 2.077 2.171.194.973.227 1.984.576 2.92.238.753.146 1.665-.356 2.196z" fill="#a40"/><path d="M254.34 232.36c-.182-.046.085.222 0 0z"/><path d="M246.42 226.382c-.487.79-.207 1.914-.341 2.866-.09.637-.484 1.289-.31 1.903.23.816.931 1.457 1.629 1.787.616.291 1.335.041 2.002.048.819.008 2.457-.012 2.457-.012 1.334-.25 4.235-.93 4.95-1.835.21-.375.83-.356.83-.852-.2-.782-.241-1.645-.958-2.14-.722-.516-1.406-1.1-2.138-1.596-.647-.62-1.352-1.19-2.143-1.515-.404-.166-.854-.12-1.277-.202-.512-.098-1.013-.43-1.526-.347-1.184.194-2.49.784-3.175 1.895z" fill="#d45500"/><path d="M229.719 272.298c-1.033.831-2.377.484-3.502.138-1.65-.732-3.246-2.284-3.502-4.37-.101-.984.626-1.644 1.2-2.224.483-.78 1.313-1.096 2.116-1.168 1.695-.02 3.129 1.423 3.947 2.998.544 1.242.98 2.91.16 4.129a2.778 2.778 0 0 1-.42.497z" fill="#a40"/><path d="M229.693 270.622c.552-2.032-.973-4.123-2.695-4.532-.812-.211-1.866-.011-2.306.864.081.876.81 1.535.748 2.494.304.93-.46.75-.601.022-.444-.477-.83-1.465-1.194-1.709-.252.924.48 1.7 1.048 2.241 1.163 1.14 2.83 2.025 4.36 1.343.281-.143.524-.396.64-.723z" fill="#ff7f2a"/><path d="M237.318 254.8c-1.057.965-2.01 2.047-2.98 3.12a4.62 4.62 0 0 1-2.79 1.322c-1.493.06-2.632-1.348-3.098-2.835-.554-1.867-.48-3.991.319-5.759.57-1.719 1.896-3.105 3.446-3.621 1.509-.414 3.002.41 4.253 1.287 1.031.86 2.243 2.027 2.184 3.62-.128 1.127-.626 2.074-1.334 2.866z" fill="#803300"/><path d="M237.6 252.087c.134-1.422-1.115-2.285-2.07-2.87-1.178-.743-2.767-1.18-3.956-.226-1.13.71-1.878 1.976-2.258 3.35-.355 1.082-.448 2.303-.029 3.38.343 1.169 1.3 2.433 2.501 2.112.913-.098 1.562-.816 2.255-1.404.886-.38.724-1.803 1.655-2.04.847-.166 1.302-1.352 1.811-2.095.037-.065.064-.135.09-.207z" fill="#d45500"/><path d="M219.043 271.12c-.75.64-1.822.56-2.58-.015-.988-.336-2.028-.83-2.404-2.03-.47-1.033-.755-2.207-.517-3.364.106-1.062.398-2.185 1.207-2.833.515-.72 1.407-.457 2.022-.078 1.368.692 1.876 2.392 2.39 3.85.445 1.427.695 3.14-.118 4.47z" fill="#a40"/><path d="M218.486 269.668c.345-1.247-.19-2.512-.58-3.66-.409-.931-1.003-2.127-2.08-1.984-.768.133-1.733 1.564-.967 2.255.538.32.615-1.205 1.149-.319.56.866 1.074 1.8 1.881 2.39.564.633.098 1.564-.555 1.54.035.688 1.118.232 1.152-.222z" fill="#ff7f2a"/><path d="M216.71 268.935c-.34-.568-1.552-1.565-1.904-.933.242.854 1.265 1.8 1.936.989z" fill="#ff7f2a"/><path d="M222.273 261.388c-.589.463-1.351.722-2.067.673-.747-.052-1.714-.268-2.068-.997-.427-.824-1.357-1.361-1.454-2.297-.07-.67.28-1.37.678-1.873.921-1.169 2.186-2.436 3.64-2.256 1.148.026 2.433.743 2.67 2.131.305 1.266-.27 2.524-.753 3.63-.182.355-.349.755-.646.989z" fill="#a40"/><path d="M222.301 259.194c.406-.791.843-2.338-.091-2.823-.89-.332-1.9-.268-2.78.067-.925.321-1.84 1.688-.887 2.59.786.753 1.891 1.28 2.928 1.038.376-.12.698-.455.83-.872z" fill="#d45500"/><path d="M224.216 250c-.762.466-1.683.306-2.508.218-.467-.235-.858.235-.68.76-.979-.284-1.483-1.375-2.092-2.168-.54-.172-1.705-.317-.938-1.139.034-1.007-.268-2.103.347-3 .772-1.51 2.816-1.619 3.864-.428 1.288 1.115 2.618 2.727 2.436 4.709-.037.388-.16.787-.43 1.048z" fill="#a40"/><path d="M223.73 248.028c-.195-.987-.446-.317-.413.3-.239 1.1.872.342.413-.3zM222.393 248.222c.21-1.269-.425-2.638-1.535-3.033-.956-.545-1.803.398-1.417 1.504.06 1.34 1.295 1.692 2.206 2.064.35.13.782-.073.746-.535z" fill="#ff7f2a"/><path d="M222.827 312.046c-.33.228.29.385 0 0zM220.425 289.353c-.207-.104.081-.032.039.064zM225.072 313.907c-.197-.158.402-.103 0 0zM217.332 307.531c-.415 0-.089-.229 0 0z"/></g></svg>