<svg xmlns="http://www.w3.org/2000/svg" xmlns:xlink="http://www.w3.org/1999/xlink" width="1024" height="768"><defs><linearGradient id="b"><stop offset="0" stop-color="#009633"/><stop offset="1" stop-color="#063"/></linearGradient><linearGradient id="c"><stop offset="0" stop-color="#fff"/><stop offset="1" stop-color="#54deff"/></linearGradient><linearGradient id="a"><stop offset="0" stop-color="#fff"/><stop offset=".5" stop-color="#d4c37f" stop-opacity=".498"/><stop offset="1" stop-color="#a80" stop-opacity="0"/></linearGradient><linearGradient xlink:href="#a" id="e" x1="-45.755" y1="296.36" x2="1051.261" y2="296.36" gradientUnits="userSpaceOnUse" gradientTransform="matrix(.78022 0 0 2.17875 -512.74 -343.306)"/><radialGradient xlink:href="#b" id="f" cx="502.638" cy="609.739" fx="502.638" fy="609.739" r="564.019" gradientTransform="matrix(1 0 0 .30017 0 426.714)" gradientUnits="userSpaceOnUse"/><radialGradient xlink:href="#c" id="d" cx="-298.481" cy="496.389" fx="-298.481" fy="496.389" r="450.22" gradientTransform="matrix(.9509 0 0 1.73663 163.346 -559.654)" gradientUnits="userSpaceOnUse"/></defs><path transform="rotate(-90)" opacity=".99" fill="url(#d)" stroke="url(#e)" stroke-width="1.304" d="M-548.049-478.701h855.136v1562.18h-855.136z"/><path d="M1062.61 774.6l-1117.885 1.826c.049 2.17-9.507-245.027 2.729-260.96 19.096-7.237 38.684-10.906 58.015-16.09 14.672-2.798 29.278-6.88 44.073-7.746 22.038-4.086 44.216-3.865 66.42-5.897 30.2-.22 60.328 3.868 90.486 2.696l20.33-.79c29.599-1.15 59.21-2.616 88.755-5.353 39.038-4.386 77.765-12.666 116.736-18.274 45.366-6.805 90.606-16.31 136.25-17.676 59.658-4.721 119.427-2.955 179.14-3.058 43.71-.529 87.442 2.59 130.81 10.998 32.146 5.351 63.977 14.775 96.229 18.99l85.413 13.226c7.288 82.141 2.186 194.399 2.5 288.108z" fill="url(#f)" stroke="#244c26" stroke-width="5.2" stroke-dashoffset="2.08"/><path d="M243.798 578.016c-.063-.756.84.561 0 0z"/><path d="M255.546 578.1c-1.679-.027-3.362-.16-5.027-.215-2.186-.017-4.366-.273-6.555-.233-3.323.022-6.64-.136-9.96-.23-2.628.091-5.239-.352-7.858-.516-1.371-.194-2.756-.213-4.134-.388-2.328.084-4.594-.585-6.915-.604-2.312-.409-4.69-.4-6.97-1.014-1.405-.37-2.883-.644-4.066-1.542-1.087-.688-2.02-1.583-2.985-2.415-1.59-.471-.668-2.805.76-2.187.444.339 1.651 2.275 1.705.873-.182-1.533.028-3.078.018-4.608.23-.5.063-2.11-.473-.886-.856 1.457-1.775 2.92-2.98 4.113-.875 1.019-1.926.002-1.413-1.071.06-1.12-.527 1.247-.168 1.759.12 1.448.415 3.055-.34 4.382-1.058.566-.746-1.094-.51-1.619-.022-1.748-.82-3.57.002-5.262.84-1.158 1.809-2.333 1.759-3.876.372-1.523.628-3.095 1.022-4.611.495-1.863 1.107-3.69 1.666-5.538.653-2.091 1.35-4.168 2.157-6.204.389-1.527 1.17-2.926 1.71-4.408 1.196-2.893 1.923-5.976 3.407-8.753 1.208-2.418 2.43-4.84 3.898-7.11.337-1.147 1.027-2.078 1.615-3.1.518-1.237 1.34-2.344 2.023-3.461.43-.903.919-1.803 1.544-2.562.859-1.326 1.618-2.722 2.583-3.98.488-.943 1.327-1.486 1.71-2.475.744-.88 1.325-1.882 2.056-2.79.755-.844 1.33-1.751 2.053-2.641.735-.724 1.042-1.693 1.58-2.562 1.179-2.05 2.604-4.069 4.704-5.257 1.346-.776 1.823-2.373 2.838-3.478.753-.9 1.29-1.967 2.093-2.819.787-.434 1.809.448 2.273-.742 1.35-1.482 2.705-2.952 4.177-4.318.91-.705 1.562-2 2.782-2.142.715.096.86 1.23 1.535.328 1.088-.95 2.258-1.804 3.4-2.69 1.17-.96 2.4-1.839 3.638-2.706.862-.51 1.614-1.363 2.623-1.535 1.225.542.655 1.992-.357 2.456-.434.038-1.903.791-1.012 1.33 1.331.54-.003 1.918-.527 2.165-.665.531-.975 1.104-1.846 1.556-1.192.818-1.54 2.295-2.779 3.09-.51.597-2.155 1.462-.668 1.842 1.39.515 2.629 1.336 3.986 1.926.94.572 1.92 1.076 2.897 1.562 1.194.572 2.435 1.04 3.591 1.694 1.395.54 2.672 1.351 4.103 1.793a102.392 102.392 0 0 1 8.58 4.115c1.324.548 2.485 1.388 3.831 1.908 1.491.965 3.07 1.78 4.69 2.501 1.209.705 2.41 1.415 3.7 1.964 2.34 1.122 4.485 2.596 6.785 3.783 1.362.946 2.906 1.586 4.2 2.637 1.194.754 2.216 1.738 3.466 2.405a35.632 35.632 0 0 1 3.857 2.629c1.348.996 2.675 2.016 4.1 2.903 1.962 1.54 3.734 3.382 5.99 4.503 1.237.615 2.329 1.45 3.47 2.21 1.315 1.137 2.537 2.374 3.906 3.45 1.32 1.144 2.596 2.323 3.93 3.448 1.474 1.366 2.809 2.892 4.089 4.443.494.993 1.145 1.928 1.446 2.984.558.996.834 2.055 1.354 3.05.427 1.18 1.016 2.52.166 3.675-.69 1.318-1.706 2.403-2.835 3.354-1.857 1.676-3.87 3.171-5.922 4.598-1.48 1.184-3.07 2.221-4.572 3.376-2.758 1.874-5.687 3.474-8.589 5.101-2.543 1.299-4.994 2.783-7.618 3.92-4.031 1.828-8.37 2.79-12.639 3.88-2.27.52-4.547 1.012-6.83 1.468-1.171.198-2.268.616-3.458.746-1.38.43-2.85.538-4.237.95-1.486.04-2.93.433-4.414.416-1.959-.077-3.888.42-5.852.328-3.064.243-6.14.45-9.177.95-.593.036-1.19.048-1.782-.016z" fill="#a40"/><path d="M258.971 576.378c1.722-.35 3.498-.347 5.243-.533 2.321-.191 4.65-.262 6.961-.53 1.833-.044 3.665-.127 5.473-.433 2.561-.44 5.102-1 7.64-1.557 2.815-.533 5.595-1.227 8.408-1.775 1.072-.386 2.202-.46 3.27-.89 1.519-.295 2.977-.811 4.444-1.284 1.341-.339 2.602-.931 3.892-1.427 1.41-.728 2.897-1.299 4.263-2.117a823.085 823.085 0 0 0 7.2-3.841c1.035-.7 2.192-1.23 3.175-1.987 1.222-.639 2.267-1.568 3.41-2.335 2.308-1.673 4.718-3.23 6.895-5.071.974-.854 1.936-1.726 2.574-2.871.85-1.105.47-2.458-.074-3.588-1.027-2.394-1.76-5.036-3.71-6.885a28.914 28.914 0 0 0-2.791-3.052c-2.064-1.738-4.04-3.575-6.089-5.33-1.022-1.074-2.26-1.932-3.526-2.687-1.276-1.044-2.988-1.42-4.106-2.681-1.307-.963-2.53-2.034-3.798-3.046-1.287-.701-2.326-1.752-3.576-2.515-1.213-1.046-2.584-1.87-3.938-2.716-1.21-.797-2.27-1.804-3.546-2.503-1.629-1.103-3.288-2.17-5.039-3.072-1.917-1.188-3.845-2.368-5.883-3.348-1.742-.849-3.428-1.805-5.144-2.696-1.538-.726-3.012-1.576-4.538-2.313-1.418-.842-2.975-1.42-4.408-2.24-1.597-.802-3.154-1.673-4.827-2.314-2.39-1.063-4.82-2.059-7.163-3.224-1.468-.511-2.766-1.392-4.183-2.023-2.154-1.015-4.121-2.779-6.627-2.759-.58.84-1.956 1.447-1.461 2.681-.523.174.41.655.641-.066.649-.77 1.136-2.717 2.411-1.613.368 1.395-1.323 2.199-1.986 3.218-1.715 1.562-3.591 3.004-4.85 4.99-1.062 1.526-2.222 3.01-3.257 4.529 1.093-.158 2.138 1.089 1.114 1.998-.623.364-.563 1.222.108.487a21.174 21.174 0 0 1 3.998-2.48c1.27-.804 2.674.986 1.041 1.573-1.189.416-1.147 1.885-2.062 2.493-1.467 1.301-2.805 2.726-4.224 4.075-.87 1.092-2.033 1.896-3.018 2.876-1.54 1.467-3.14 2.892-4.432 4.589-1.052 1.424-1.601 3.134-2.43 4.69a94.234 94.234 0 0 0-1.631 3.34c-.661 1.241-1.225 2.524-1.926 3.747-.533 1.125-1.06 2.258-1.673 3.344-.616 1-1.014 2.27-1.682 3.328-.678 1.361-1.25 2.77-2.013 4.088-.692 1.46-.867 3.091-1.45 4.591-.29 1.313-.474 2.65-.967 3.91-.215 1.04-.483 2.084-.71 3.147-.332.994-.462 1.999-.768 3.005-.43 2.061-1.085 4.067-1.709 6.075-.545 1.044-.598 2.576-1.773 3.139-1.412-.071-.998 2.006-1.475 2.934-.404.857-.194 2.747-1.664 2.392-.528-.917.196-2.251.037-3.345.06-1.271.165-2.523.27-3.79-.024-1.605-.903.906-1.394 1.34-1.05 1.461-1.947 3.109-3.497 4.11-.418.676-2.631.978-1.121 1.67 1.6 1.24 3.663 1.456 5.58 1.856 3.23.44 6.488.611 9.717 1.067 3.887.207 7.772.492 11.64.938 1.177.049 2.356.072 3.533.083 2.474-.028 4.96.253 7.441.115 3.044.07 6.087.163 9.12.42 2.02.016 4.035.19 6.05.241.202-.018.403-.063.59-.142z" fill="#ff7f2a"/><path d="M241.993 570.869c-1.72-.024-2.325-2.15-1.915-3.55.412-2.208 1.599-4.328 3.378-5.717.98-.712 2.488-1.046 3.35.045 1.277 1.56 1.29 3.759.82 5.627-.261 1.282-.97 2.757-2.316 3.137-.533-1.038 1.05-2.217 1.012-3.435.197-1.402.23-3.253-1.073-4.14-1.285-.452-2.241.914-2.811 1.868-.58 1.06-1.084 2.28-.96 3.506.034 1.204 2.26.444 1.583 1.869-.226.391-.62.701-1.068.79zM257.045 568.795c-1.365-.272-2.746-1.024-3.404-2.289-.442-1.251-.152-2.646.547-3.75.252-1.213 1.142-2.316 1.177-3.55-.91-.827-1.58-1.882-2.09-3.006a5.3 5.3 0 0 1-.637-3.746c.288-1.391 1.285-2.604 2.326-3.57.994-.922 2.273-1.55 3.566-1.96 1.32-.418 2.881-1.534 4.132-.46 1.453 1.058 1.524 3.051 1.514 4.689-.093 1.312-.183 2.665-.646 3.897.127 1.439 2.145.396 3.011 1.26 1.205.501 2.015 1.573 2.41 2.792a7.412 7.412 0 0 1-.157 4.727c-.49.963-1.357 1.734-2.263 2.299-2.054 1.363-4.515 1.859-6.849 2.515-.87.14-1.756.194-2.637.152z" fill="#a40"/><path d="M259.87 566.928c2.468-.684 5.16-1.171 7.145-2.908 1.03-1.138.893-2.93.32-4.255-.486-1.159-1.625-1.836-2.818-2.062-1.012-.366-2.024-.299-2.439.82-.828 1.089-2.18 1.59-3.517 1.522-1.022-.186-2.402-.247-2.378 1.175 1.097.75-1.656 2.473-1.325 3.76.48 1.615 2.348 2.182 3.872 2.056a8.48 8.48 0 0 0 1.14-.108z" fill="#ff7f2a"/><path d="M259.845 558.54c.703.164 2.126-1.401.658-1.006-.548.257-2.346.467-1.988 1.026.442.05.892.063 1.33-.02zM256.888 557.743c1.291-1.017 2.82-1.907 4.507-1.89 1.361-.105 1.137-1.878 1.413-2.87.35-1.704.216-3.71-1.004-5.048-1.078-.918-2.376.115-3.443.58-1.451.63-3.06 1.473-3.767 2.889-.6 1.202-.462 2.765-.039 4.032.409 1.011 1.09 1.958 2.004 2.554.15-.025.21-.175.329-.247z" fill="#ff7f2a"/><path d="M229.857 565.889c-1.298-.328-2.16-1.47-3.071-2.366-1.368-1.682-2.377-3.959-1.642-6.13.231-.677.867-2.289 1.629-1.817.021 1.12-.836 2.12-.523 3.278.337 2.009 1.62 3.77 3.19 5.014 1.385 1.132 2.453-.86 2.397-2.088.172-1.6-.322-3.171-1.117-4.545-.184-.513-2.028-2.18-1.408-.755.484 1.017 1.175 1.992 1.008 3.172.255.705-.41 2.054-.847.79-.37-1.302-1.173-2.391-1.615-3.661-.348-.965-.758-3.186.886-3 2.054.49 3.516 2.385 3.94 4.397.63 1.872.685 4.004-.266 5.782-.42 1.013-1.32 2.165-2.56 1.929z" fill="#a40"/><path d="M268.967 564.139c.027-.275.198.264 0 0z"/><path d="M279.338 564.143c-.234-1.257-.494-2.497-1.003-3.658-.153-1.687-.053-3.552.92-5 .917-1.191 2.112-2.223 3.57-2.667 1.073-.573 2.374-.478 3.494-.222 1.594.826 2.635 2.498 2.772 4.278.26 1.503-.29 2.963-1.076 4.22-.773.66-1.355 1.787-2.546 1.66-1.347-.114-2.533.502-3.738.995-.762.277-1.576.483-2.393.394z" fill="#a40"/><path d="M282.108 562.42c1.254-.507 2.53-1.147 3.889-1.227 1.12-.389 1.228-1.815 1.302-2.821-.079-1.084-.497-2.259-1.173-3.153-.436-.576-1.027-1.292-1.75-1.28-1.73.028-3.828 1.285-4.085 3.201-.268 1.151-.137 2.389.248 3.49.249.713.574 1.601 1.28 1.87.041.015.127-.032.127-.032z" fill="#ff7f2a"/><path d="M300.235 560.257c-1.38-.418-2.753-.874-3.96-1.743-1.641-.97-3.099-2.796-2.821-4.792.433-1.816 1.836-3.157 3.188-4.344 1.614-1.277 3.664-1.819 5.67-2.096 1.58-.25 3.381-.569 4.797.176 1.354.713 2.066 2.31 2.736 3.685.538 1.105.993 2.327.975 3.556-.013.894-.408 1.755-.787 2.565-.28.602-.61 1.206-1.085 1.67-.8.78-1.807 1.366-2.853 1.76-1.285.204-2.624.274-3.886-.091-.728-.01-1.335-.152-1.974-.346z" fill="#803300"/><path d="M302.133 559.312c.556.59 2.038.385 2.844.458 1.2-.44 1.824-1.908 2.359-2.897l1.608-1.986c.202-1.32-.376-2.745-1.167-3.528l-1.82-2.55c-.767-1.122-2.506-.627-3.632-.468-1.732.277-3.505.797-4.74 2.122-1.128 1.114-2.195 2.585-2.325 4.171-.03.37.176.735.376 1.047.215.337.541.592.852.843.816.656 1.651 1.364 2.634 1.71.386.15.738.429 1.164.459" fill="#ff7f2a"/><path d="M242.846 559.49c-1.628-.363-3.445-.908-4.296-2.483-.454-.985-.734-2.23-.176-3.235.93-1.281.955 1.34 1.262 1.958.622.968 1.773 1.446 2.802 1.839 1.344.627 2.425-.417 1.984-1.76.229-.763-.951-2.385-1.091-.888.324.943-.719 2.806-1.516 1.401-.355-1.341.244-3.044 1.426-3.801 1.416-.664 2.488 1.038 2.593 2.261.206 1.59.059 3.636-1.457 4.545a2.01 2.01 0 0 1-1.53.164z" fill="#803300"/><path d="M234.013 548.366c-.533-1.008-1.376-1.897-1.61-3.012-.21-.993-.073-2.068.232-3.037.231-.734.502-1.6 1.176-1.988.7-1.285 1.583-2.673 3.059-3.132 1.634-.146 2.76 1.395 3.438 2.681.662 1.581.746 3.378.516 5.056-.46 1.866-2.213 3.389-4.185 3.272-.942.222-2.038-1.101-2.237.275-.12.135-.325.004-.389-.115z" fill="#a40"/><path d="M238.005 546.513c1.447-.474 1.742-2.22 1.48-3.533-.222-1.57-.782-3.388-2.308-4.14-1.326-.3-1.974 1.404-2.426 2.377-.327 1.235-1.08 2.704-.33 3.905.848 1.027 2.227 1.841 3.584 1.39z" fill="#f60"/><path d="M283.366 547.045c-1.388-.238-2.78-.523-4.079-1.065-1.72-.874-2.761-2.826-2.624-4.736-.657-1.345 1.71-1.902 1.148-.188.201 1.77 1.51 3.4 3.258 3.852 1.868.577 3.892.692 5.8.25 1.797-.744 2.824-2.617 3.3-4.417.38-1.92.131-4.062-1.016-5.683-.548-.03-.828-1.505-1.837-1.534a9.627 9.627 0 0 0-3.77-.316c-1.465.028-2.722.857-3.933 1.583-2.434 1.583-4.16 4.37-4.155 7.312 1.13.726.541 2.513-.793 2.146-1.116-1.05-.814-2.757-.46-4.09.759-3.24 3.302-5.808 6.182-7.313.919-.506 1.96-.76 2.956-1.053 1.721-.218 3.542-.222 5.196.328 1.826.764 2.813 2.659 3.18 4.515.587 3.034-.518 6.248-2.584 8.5-1.273 1.147-2.925 1.87-4.653 1.85-.372.024-.744.04-1.116.06zM307.025 545.33c.11-1.286-1.444-1.348-2.24-1.878a31.795 31.795 0 0 1-5.493-4.081c-.407-.376-.747-.82-1.096-1.251-.712-.88-1.462-1.744-2.03-2.72-.32-.87-.883-1.595-1.189-2.34.553-.784.615-1.817 1.052-2.667.421-.821.782-1.749 1.503-2.325.657-.526 1.547-.689 2.368-.872 2.232-.497 4.63-1.19 6.836-.589 1.195.326 2.268 1.178 3.029 2.156 1.137 1.464 1.943 3.311 2.006 5.186.114 1.168.296 2.328.391 3.498.636 1.212-.206 2.642-.369 3.877-.78.928-1.73 1.708-2.345 2.78-.531.816-1.49 1.386-2.423 1.226z" fill="#a40"/><path d="M304.022 540.582c-.108-.233-.145.258 0 0z"/><path d="M303.2 527.492c-1.171.047-2.025 1.181-3.058 1.734-.692.37-1.652.418-2.102 1.06-.598.854-.633 2.095-.37 3.103.232.89 1.073 1.496 1.624 2.233a249.54 249.54 0 0 0 2.061 2.687c1.355 1.281 4.434 3.964 5.907 4.083.537-.047 1.036.648 1.516.283.59-.794 1.39-1.475 1.273-2.626-.103-1.171-.11-2.352-.24-3.52.062-1.166.024-2.36-.32-3.467-.177-.566-.597-1.025-.871-1.55-.332-.634-.428-1.428-.937-1.93-1.175-1.156-2.836-2.155-4.483-2.09z" fill="#d45500"/><path d="M244.823 542.95c-1.667-.522-2.452-2.251-3.055-3.74-.669-2.35-.498-5.243 1.307-7.06.87-.835 2.114-.522 3.155-.32 1.158-.043 2.157.635 2.896 1.463 1.433 1.846 1.232 4.481.391 6.538-.749 1.511-2 3.218-3.864 3.214-.279.002-.558-.03-.83-.094z" fill="#a40"/><path d="M246.424 541.69c2.427-.89 3.178-4.102 2.138-6.294-.473-1.045-1.546-2.056-2.76-1.893-.78.733-.811 2.017-1.79 2.655-.647 1.018-1.11.046-.523-.643.091-.839.726-1.989.659-2.568-1.105.403-1.246 1.778-1.296 2.799-.133 2.115.402 4.596 2.338 5.774.373.202.82.282 1.234.17z" fill="#ff7f2a"/><path d="M268.1 538.415c-1.816-.45-3.66-.7-5.507-.975-1.377-.27-2.666-1.057-3.606-2.089-1.305-1.593-.892-3.88.16-5.486 1.343-1.982 3.462-3.464 5.84-3.887 2.14-.639 4.587-.204 6.38 1.117 1.659 1.351 2.108 3.596 2.302 5.614.027 1.765-.09 3.954-1.683 5.06-1.197.69-2.53.84-3.887.646z" fill="#803300"/><path d="M270.96 536.727c1.489-.899 1.282-2.904 1.053-4.382-.265-1.84-1.168-3.905-3.082-4.508-1.63-.72-3.48-.607-5.127-.013-1.344.406-2.602 1.203-3.296 2.455-.845 1.236-1.27 3.217.043 4.299.855.93 2.092 1.113 3.24 1.44 1.107.693 2.35-.53 3.355.317.867.806 2.395.434 3.539.445a1.62 1.62 0 0 0 .275-.053z" fill="#d45500"/><path d="M237.057 530.367c-1.245-.351-2.063-1.587-2.139-2.842-.498-1.331-.887-2.836-.039-4.131.607-1.276 1.506-2.453 2.824-3.043 1.117-.665 2.447-1.17 3.749-.76 1.128.036 1.616 1.208 1.763 2.161.472 2.011-.75 3.82-1.733 5.457-1.01 1.538-2.46 3.073-4.425 3.158z" fill="#a40"/><path d="M237.998 528.688c1.495-.539 2.272-2.058 3.06-3.329.56-1.134 1.22-2.666.183-3.743-.768-.744-2.96-.75-2.989.598.138.827 1.68-.212 1.267 1.027-.37 1.25-.846 2.503-.743 3.823-.143 1.084-1.432 1.258-1.953.523-.638.545.707 1.398 1.175 1.101z" fill="#ff7f2a"/><path d="M237.225 526.2c.266-.791.22-2.855-.685-2.776-.625.894-.686 2.712.658 2.853z" fill="#ff7f2a"/><path d="M249.172 526.752c-.94-.306-1.827-.952-2.376-1.774-.573-.858-1.17-2.078-.76-3.003.441-1.075.185-2.49 1.01-3.285.591-.57 1.56-.7 2.379-.635 1.9.152 4.181.608 5.22 2.334.933 1.28 1.311 3.218.165 4.5-.972 1.266-2.668 1.56-4.142 1.844-.496.061-1.022.173-1.496.019z" fill="#a40"/><path d="M251.318 525.169c1.105-.138 2.967-.797 2.657-2.179-.42-1.22-1.325-2.28-2.384-3-1.082-.78-3.168-.778-3.248.932-.072 1.417.34 3.017 1.44 3.977a1.733 1.733 0 0 0 1.535.27z" fill="#d45500"/><path d="M261.816 520.504c-1.088-.493-1.7-1.621-2.304-2.592-.162-.684-.943-.769-1.303-.187-.54-1.283.094-2.639.354-3.89-.285-.72-1.115-2.105.32-1.869 1.003-.703 1.812-1.84 3.193-1.825 2.106-.265 3.916 1.898 3.638 3.925-.005 2.233-.456 4.88-2.526 6.138-.407.244-.896.404-1.372.3z" fill="#a40"/><path d="M263.319 518.52c.792-.94-.065-.723-.635-.233-1.264.547.397 1.21.635.233zM262.015 517.196c1.404-.705 2.2-2.408 1.655-3.917-.27-1.45-1.888-1.686-2.637-.449-1.247 1.05-.557 2.667-.157 3.94.164.48.722.805 1.14.426z" fill="#ff7f2a"/><path d="M200.6 564.635c-.497-.193-.132.602 0 0zM220.56 545.3c-.071-.303.1.067-.028.091zM200.671 568.468c-.012-.331.435.365 0 0zM200.386 555.283c-.348-.455.147-.266 0 0z"/><g><path d="M915.834 373.32c-4.663 27.695-32.65 45.658-47.519 69.574-5.438 11.452-18.005 21.679-25.193 29.727l-4.721 29.928c1.783 10.933-9.644 21.354 7.155 20.98-6.731 9.89-3.976 25.328-10.76 33.47-13.229 7.09-3.577-19.01-16.196-3.2-8.357 2.841-28.817 34.131-27.119 12.27 4.95-12.362 26.567-15.596 20.052-26.93 10.56-4.765-1.013-15.512 12.632-19.045 2.533-13.962 4.322-28.59 5.034-42.496-17.97-.948-36.05-2.321-54.07-3.129-4.684 10.848.455 12.88 9.791 13.696-13.555 8.47-3.46 29.621 2.42 40.86 1.192 16.866-18.788.814-17.277-10.292 1.007-11.91-9.984-21.437-5.055-5.046 13.295 10.554-8.266 32.765-8.197 11.191-4.43-10.337-4.26-28.513-15.91-11.843-7.523 6.255-33.971 26.271-34.483 9.737 13.262-13.795 29.318-25.948 47.348-32.504 13.406 3.627 13.28-24.77-2.397-16.597-7.663-.967-10.895-12.057-18.318-14.19-12.098-3.481-23.182-35.782-8.314-34.847 2.036-18.892-1.522-39.394-3.977-58.736-3.324-19.681 7.382-38.387 26.014-45.28 18.736-7.91-13.634-26.471-16.255-6.237-14.749 9.43-34.936 6.322-49.155-.624-16.827-14.459 5.025-30.006 17.738-36.437 9.2-9.146 35.099 4.11 35.366-9.697-4.43-20.038-13.083-15.852-1.037-33.311 3.598-5.215 6.387-13.316 12.664-14.171 21.103-2.873 40.262 11.079 57.69 22.747 13.199 9.942 37.657 17.013 36.135 36.679-.128 12.525-14.836 31.433-.72 27.074 17.296 4.83 34.47 11.079 49.986 20.126 6.576 3.835 13.674 7.874 17.856 14.234 6.135 9.328 10.646 21.31 8.792 32.32z"/><path d="M684.519 302.23c3.256 13.928 40.367 15.547 31.666.263 4.144-6.148 13.257 4.29 21.245-5.26 12.3-5.486-3.618-23.571-14.65-15.67-13.996-7.253-35.31 6.32-38.261 20.666zM744.446 272.387l6.188 19.254c9.536-4.307 34.085-.777 16.954 8.363-20.286-7.511-4.61 23.683 7.211 9.669 14.55-3.727 29.692-4.57 44.374-5.574 6.573-11.456 17.282-27.528 3.081-38.041-16.72-12.66-35.478-22.622-53.815-32.627-18.054-6.448-30.11-5.942-27.437 17.717l1.534 7.742" fill="#333"/><path d="M747.315 251.722c10.895-15.196 22.134 14.968 3.404 15.588M776.563 252.426c8.436-2.931 33.835 1.037 13.47 8.046-13.738 5.632-19.747 3.093-13.47-8.046z"/><path d="M731.621 358.12c.376 22.812 6.342 45.234 3.615 68.147-7.992 19.008 21.685 22.788 29.708 23.21-2.162-9.864 6.832-30.352 12.55-13.218-2.81 10.525.588 13.957 5.616 18.47-20.15 9.016 16.579 6.012 23.712 6.49 13.017.343 24.252-2.792 29.894-11.746 14.593 10.451 22.131-16.404 32.022-24.48 9.213-11.81 14.896-22.19 25.073-32.977 10.173-12.042 16.23-27.289 5.68-40.43-3.604-19.796-29.302-24.497-45.133-31.857-18.253-7.692-37.054-8.114-47.752 10.902-8.109 11.986-18.499 29.98-31.037 10.777-9.223-9.263-17.297-24.375-30.032-8.405-11.065 3.729-11.974 15.306-13.916 25.117z" fill="#333"/><path d="M772.39 325.366c5.99 2.47 14.463 21.556 21.57 4.472 6.045-7.007 24.772-21.75 3.095-15.142-3.84 2.489-34.39 1.963-24.666 10.67z" fill="#333"/><path d="M790.195 319.2c1.388 1.637-1.905.11 0 0zM736.863 451.329c5.755 3.455 33.037 8.475 13.5 2.06-1.363.223-16.06-5.968-13.5-2.06z" fill="#333"/><path d="M747.861 464.082c5.7-.162-8.271-1.342 0 0z" fill="#666"/></g><g><path d="M178.378 296.752c-3.166-3.07-4.213-7.76-6.241-11.595-1.586-3.615-3.252-7.333-4.703-10.917-5.065-11.897-9.769-24.159-13.398-36.653-3.59-11.342-5.837-23.136-7.83-34.875-1.076-8.378-2.575-16.761-2.303-25.241-7.728-3.24-14.989-7.502-22.23-11.621-4.263 2.994-4.177 9.32-8.14 12.166-1.737 1.248-4.07 1.44-6.196 1.678-4.073.458-8.667.24-12.287-.505-10.034-.487-20.013.622-29.938 1.957-2.446.402-11.117 1.424-8.259-2.293 7.232-.132 14.423-1.507 21.605-2.35 9.547-.805 19.167.158 28.693-.755 5.74.428 7.51-5.54 10.638-9.095 3.882-4.172-5.823-5.841-7.83-9.34-3.068-3.273-7.74-5.611-8.767-10.295-1.082-4.106.269-9.7.546-13.057-14.006 7.073-29.515 11.634-42.026 21.49-7.942 5.484-14.426 12.785-21.567 19.128-3.158 3.718-4.73-2.677-1.175-2.435 5.14-3.997 9.285-9.283 14.444-13.164 9.784-9.18 21.782-15.626 34.171-20.623 5.901-2.658 11.887-5.151 17.517-8.357 3.08-7.569 7.513-14.53 13.296-20.353 9.07-10.024 19.876-18.137 30.57-26.309 13.249-9.858 27.238-18.979 42.598-25.258-2.935-2.167-9.231-3.775-13.706-4.737-12.731-2.58-25.811.063-38.275 2.9-7.574 1.573-14.958 4.01-22.574 5.337-8.222.927 7.017-10.084 2.803-3.45 5.087-.402 9.912-2.652 14.999-3.368 9.857-2.358 19.835-4.473 29.97-5.071 8.803-.52 17.536 1.277 25.726 4.424 4.366 2.417 8.716 1.603 13.13-.312 16.191-4.85 33.182-5.372 49.904-6.764 5.829-.54 11.69-.76 17.532-1.013-8.456-5.902-17.191-11.487-24.861-18.432-6.734 1.227 2.118-6.252 3.776-1.055 8.225 7.36 17.68 13.056 26.572 19.51 5.782 1.042 11.81 1.28 17.508 2.965 12.765 3.864 25.078 8.973 37.69 13.239 9.099 3.199 17.9 7.178 26.851 10.759 3.184-3.589 5.825-7.89 8.88-11.685 9.571-13.45 22.21-24.41 35.937-33.482 2.712-1.332 8.376-7.1 10.046-3.348-4.158 2.773-8.571 5.339-12.594 8.404-13.007 8.784-24.36 20.025-33.399 32.85-.718 3.09-9.343 8.024-3.914 9.516 9.561 4.17 18.7 9.765 25.726 17.587 6.644 6.61 11.5 14.815 15.016 23.437 3.368 6.834 6.637 13.938 8.646 21.36 2.342 1.89 7.764-2.527 11.232-2.822 12.944-4.47 26.37-7.346 39.881-9.48 8.044-1.327 16.039-3.277 24.179-3.82 2.198 3.788-6.387 2.71-8.96 3.734-18.492 3.312-37.225 5.922-55.06 12.077-3.096 2.054-11.383 1.2-10.17 6.256 1.4 10.745-4.323 21.34-12.72 27.804-9.865 7.76-21.963 12.073-33.845 15.712 1.81 2.027 8.88 2.812 12.587 4.662 18.064 5.984 34.365 16.54 53.06 20.744 10.338 2.552 20.826 5.009 31.551 4.932-.374-1.99-3.588-10.14 0-7.755 1.635 3.715 6.341 12.44-1.656 11.124-10.828-.082-21.4-2.8-31.889-5.214-12.502-3.177-24.075-8.846-35.682-14.236-11.088-5.133-22.713-9.173-34.467-12.37-15.04 4.017-30.356 6.842-45.698 9.421.515 6.706 2.638 13.226 4.638 19.628 4.146 10.61 8.414 21.214 14.075 31.109 1.333 2.979 5.695 8.344 5.914 2.093 4.583 2.895-2.989 9.808-5.602 3.679-6.913-9.886-11.207-21.308-15.83-32.351-2.667-7.122-4.828-14.455-6.065-21.989-2.01-3.61-8.877.312-12.865-.343-13.434 1.168-26.988 1.054-40.432.088a133.696 133.696 0 0 1-20.13 1.203c-.129 3.85.011 7.738 1.813 11.235 1.971 5.744 4.561 11.296 8.269 16.174 8.78 12.638 21.681 21.548 33.716 30.83a34.37 34.37 0 0 0 7.596 5.756c2.783 2.184-.766 6.273-2.865 2.331-4.913-4.718-10.358-8.824-15.843-12.837-2.7-1.197-5.977-5.237-9.204-7.353-10.438-8.763-19.654-19.637-23.949-32.745-2.007-4.257-2.959-8.94-2.667-13.653-15.558-1.816-30.254-7.506-45.442-10.984-13.893-3.785-28.276-6.022-41.656-11.531-.665 4.875.456 10.024.958 14.946.971 7.89 2.317 15.766 3.869 23.573 1.589 6.974 3.279 13.917 5.248 20.725 2.1 6.314 4.078 12.683 6.51 18.907 4.32 11.488 8.914 22.832 14.389 33.84 1.67 5.347 2.032-3.367 3.033-1.562 1.956 1.09.063 7.565-2.398 7.563z" fill="#d4aa00"/><path d="M258.414 197.416c7.886-1.28 15.884-3.196 23.251-6.018 5.41-1.16 10.332-3.796 15.526-5.633 3.343-2.605 10.55-2.483 10.933-7.277-.327-3.422 1.995.097 2.59.774.552.63.273 1.653.403 2.48.745 4.765.074 11.269 2.152 14.308 14.39-2.218 28.77-4.905 42.815-8.699-3.286-.41-5.369-5.244-.84-4.216 3.697 3.981 8.819 2.708 13.27.762 13.192-4.21 26.973-9.746 35.647-21.07 3.916-5.392 6.132-12.235 5.217-18.994-.772-3.69-6.807 1.506-9.771 1.5-1.983 1.792-7.482-.077-3.136-1.601 3.656-1.514 10.968-1.614 11.872-5.427-3.253-10.407-8.05-20.246-12.699-30.083-7.12-12.463-18-23.027-31.199-28.869-3.791-2.514-8.096-4.516-10.53.648-.894 2.871-7.23 3.704-3.717.134 1.725-1.691 7.463-5.565 2.11-6.241-12.286-5.436-24.923-10.011-37.61-14.391-11.41-4.193-22.712-9.271-34.943-10.434.73 2.116 6.728 5.22 9.282 8.02 4.007 3.371 7.89 7.086 11.342 10.707-1.12 5.756-5.712-2.235-8.167-3.488-6.131-5.929-12.846-11.195-19.906-15.967-15.553-.292-30.99 1.84-46.474 2.943-9.394 1.067-18.874 2.573-27.775 5.845 3.862 1.054 9.126 4.688 12.241.201 2.06-3.372 5.798-.803 2.103 1.541-2.88 2.99-6.828 4.751-10.788 2.536-4.623-1.5-9.463-3.593-13.858-.279-14.651 6.508-28.174 15.32-40.898 25.014-12.587 9.56-25.259 19.471-34.759 32.236-1.883 2.853-4.823 7.135-5.144 9.647 6.117-3.503 12.298-6.987 18.282-10.676 4.573-2.884 6.91-7.859 9.989-12.09 4.976-2.763-.235 5.157-1.759 6.616-4.147 7.963-13.166 10.817-20.086 15.655-3.416 2.602-9.61 3.26-9.348 8.67-1.47 5.53-1.436 12.288 3.87 15.772a72.306 72.306 0 0 0 13.18 10.327c1.735-2.574 5.048-4.993 5.98-7.632-.81-3.164-.505-6.482-4.113-7.932-3.816-3.212-8.615-6.093-10.495-10.9-1.343-4.07 5.123-4.134 2.337-.187 2.518 5.128 7.709 8.267 12.122 11.59 2.2-1.245 2.336 4.118 5.188 4.61 4.631 4.05 8.895 8.476 13.773 12.209 2.783-.766 2.91 4.042 6.137 4.603 9.542 6.597 20.478 10.86 31.306 14.78 18.735 6.005 38.11 10.009 57.643 12.54 5.792.483 11.625 1.986 17.454 1.436zM242.243 198.69c-1.944-.813-8.09-.34-3.233-.01 1.077-.103 2.177.271 3.233.01z" fill="#fd5"/><path d="M283.511 198.534c8.744-.06 17.552-.695 26.156-2.115-1.422-3.604.28-11.203-2.537-12.741-12.593 6.374-25.958 11.107-39.594 14.632 5.198.513 10.68.28 15.975.224zM234.634 198.15c-2.99-1.891-9.792-1.457-14.093-2.956-1.895-.21-8.451-1.75-7.922-1.24 6.966 2.05 14.111 3.649 21.322 4.478z" fill="#fd5"/><g fill="#a0892c"><path d="M223.373 155.526c-17.256-1.52-33.001-13.114-40.64-27.894-2.723-9.267 8.107-6.885 6.987.957 6.625 9.421 16.78 17.174 28.122 20.582 12.233 1.621 25.748 2.736 37.264-2.072 14.434-7.116 27.119-19.023 30.362-34.9 8.301 1.041-.435 18.107-5.642 22.291-11.339 12.662-27.695 22.977-45.737 21.086-3.572 0-7.145.046-10.716-.05z"/><path d="M227.722 116.475c-9.312-6.19 3.128-13.114 4.659-2.873-.34 1.91-2.65 3.745-4.66 2.873zM196.417 100.785c-4.807-10.607 15.396-2.08 0 0zM251.997 87.445c-3.126-7.594 12.062-5.828 4.357.471-1.169.433-3.627 1.232-4.357-.471z"/></g><path d="M183.84 186.35c-12.418-4.497-24.962-9.378-35.58-17.401-2.198-.567-2.878 8.189.949 7.99 11.163 4.378 23.013 6.619 34.599 9.508zM144.06 173.415c.162-3.965 2.165-8.096-2.699-9.997-3.869-3.63-7.775-7.222-11.697-10.787 2.84 4.538-3.885 6.64-5.604 10.205-.422 3.07 6.525 4.3 8.92 6.471 2.65.564 9.971 6.849 11.08 4.108z" fill="#fd5"/></g></svg>