<svg xmlns="http://www.w3.org/2000/svg" xmlns:xlink="http://www.w3.org/1999/xlink" width="1024" height="768"><defs><linearGradient id="b"><stop offset="0" stop-color="#009633"/><stop offset="1" stop-color="#063"/></linearGradient><linearGradient id="c"><stop offset="0" stop-color="#fff"/><stop offset="1" stop-color="#54deff"/></linearGradient><linearGradient id="a"><stop offset="0" stop-color="#fff"/><stop offset=".5" stop-color="#d4c37f" stop-opacity=".498"/><stop offset="1" stop-color="#a80" stop-opacity="0"/></linearGradient><linearGradient xlink:href="#a" id="e" x1="-45.755" y1="296.36" x2="1051.261" y2="296.36" gradientUnits="userSpaceOnUse" gradientTransform="matrix(1.33249 0 0 3.79058 -489.276 -1375.305)"/><radialGradient xlink:href="#b" id="f" cx="502.638" cy="609.739" fx="502.638" fy="609.739" r="564.019" gradientTransform="matrix(1.81329 0 0 1.40142 -571.788 53.374)" gradientUnits="userSpaceOnUse"/><radialGradient xlink:href="#c" id="d" cx="-298.481" cy="496.389" fx="-298.481" fy="496.389" r="450.22" gradientTransform="matrix(1.62399 0 0 3.02138 665.367 -1751.707)" gradientUnits="userSpaceOnUse"/></defs><path transform="rotate(-90)" opacity=".99" fill="url(#d)" stroke="url(#e)" stroke-width="2.247" d="M-549.577-1610.865h1460.43v2717.872h-1460.43z"/><path d="M1355.028 1677.568l-2027.045 8.528c.089 10.126-17.24-1143.972 4.948-1218.358 34.628-33.79 70.146-50.918 105.199-75.119 26.604-13.068 53.088-32.129 79.917-36.17 39.96-19.074 80.175-18.044 120.437-27.53 54.762-1.025 109.392 18.06 164.078 12.589l36.863-3.689c53.671-5.37 107.365-12.212 160.94-24.993 70.786-20.476 141.01-59.133 211.674-85.318C294.3 195.74 376.333 151.362 459.1 144.985c108.175-22.042 216.554-13.796 324.831-14.276 79.259-2.47 158.557 12.093 237.195 51.344 58.29 24.985 116.01 68.982 174.49 88.662l154.878 61.749c13.216 383.497 3.964 907.6 4.533 1345.104z" fill="url(#f)" stroke="#244c26" stroke-width="15.13" stroke-dashoffset="2.08"/><path d="M447.572 460.788l1.81-.06c1.626.085 3.187.204 4.806.023 1.062-.323 1.663.918 1.613 1.397-.144 1.368-2.992 1.521-2.94 2.896.028.758.977 1.442 1.735 1.47.808.03 1.312-.947 1.964-1.426 1.271-.933 1.7-1.252 2.981-3.011.705-.504.115-2.068 1.684-1.711 2.232-.44 2.038 2.424 2.292 3.899.268 1.522 3.407 2.153 3.59.233 1.155-1.187-.689-2.935-.252-4.388 1.115-.215 2.589-.734 3.94-.935 1.886-1.022 2.99.948 4.2 2.032 1.57.889 2.326 2.488 3.15 4.022.299.854 1.534 1.403 2.061 1.268l.102-.377c1.486-1.116.05-2.921-.681-4.257-.237-1.525-1.697-2.379-2.675-3.44-.947-.626-1.165-1.374.156-1.76.829-.504 1.665-.997 2.497-1.496 1.054.757 2.352 1.034 3.554 1.206 1.919.12 3.79-.429 5.586-1.019 1.65-.246 3.542-.652 4.58-2.077-.906-1.401-2.82-.76-4.246-.607-1.462-.163-2.915.716-4.45.76-.788-.121-3.182.035-1.528-1.034 1.342-.818 2.152-2.274 2.938-3.498.762-1.596 1.487-3.204 1.46-4.996.044-1.572.104-3.385 2.134-3.224 1.142-.69 2.828-.52 4.274-1.087 1.558-.6 3.195-.905 4.761-1.504 2.537-.442 4.77-1.886 7.035-3.043 2.202-1.251 4.7-1.786 6.882-3.077 1.647-.85 3.285-1.781 5.108-2.163 1.436-.755 3.068-1.135 4.483-1.986 1.298-.764 2.288-1.39 3.618-2.162 2.235-.775 4.241-2.154 6.27-3.378 2.973-2.049 6.228-3.673 9.194-5.745 1.748-1.208 3.291-2.69 5.138-3.766 1.843-1.216 3.122-3.082 4.94-4.327 1.284-1.343 2.506-2.754 3.76-4.095 1.172-1.19 1.627-2.843 2.89-3.96.979-1.193.937-2.554 1.771-3.706l1.73-3.886 1.478-2.795.705-4.565.568-1.434.978-4.092.43-3.533-.185-4.312c.155-1.125.204-2.01-.005-3.004-.294-1.455-.578-2.916-.734-4.392-.07-.655-.06-1.317-.089-1.976-.011-.261-.016-.523-.033-.784-.059-.864-.1-1.733-.24-2.588-.349-2.138-.96-4.23-1.488-6.325-.408-2.37-1.24-4.755-1.947-7.096-.806-2.642-1.841-5.207-3.027-7.696-.544-1.043-.946-2.282-1.679-3.563-3.021-5.745-6.822-11.03-9.978-16.698-.914-1.686-2.4-2.921-3.515-4.467-1.058-1.43 2.135-2.749.574-4.383-.76-1.248-2.12-1.877-3.074-3.001-1.221-1.434-3.274-1.294-4.946-1.546-1.736-.478-3.358.074-5.114-.353-1.252-1.078-.186-3.419-.36-5.019.499-1.72-.568-3.2-1.337-4.647-.69-.918-2.348-2.134-3.75-2.785-1.31-.437-2.631-.898-4.009-1.065-.37-4.14-.896-8.263-1.63-12.357-.388-2.398-.422-4.844-.851-7.233-.786-1.544-3.077-.885-3.883.227-.305 1.156-.51 3.08-1.24 4.36-.332 1.655-1.144 3.296-1.641 4.961-1.368 2.816-1.98 5.958-3.465 8.732-.516 1.539-.977 3.153-1.04 4.736.157 1.72.104 3.528-.006 5.198-.654 1.219-3.487 1.112-4.796 2.196-1.397.359-3.048 2.472-4.33 1.295-1.416-2.07-3.42-3.619-5.295-5.24-1.036-.748-2.025-1.986-3.052-2.915-1.14-1.136-2.466-2.133-3.346-3.4a76.206 76.206 0 0 1-3.61-3.692c-1.164-1.734-3.06-.705-4.24.44-.121 1.74.98 3.284 1.352 4.976.64 2.468 1.89 4.697 2.766 7.074.73 2.158 1.592 4.326 1.943 6.606.486 2.144.632 4.4.352 6.58-.54 1.614-1.06 3.306-2.404 4.576a43.435 43.435 0 0 0-3.052 4.586c-.914 1.553-1.979 2.94-2.957 4.442-.837 1.415-1.783 2.88-2.398 4.466-.884 1.584-1.834 3.085-2.67 4.702-.762 1.83-1.684 3.61-2.442 5.426-.824 1.638-1.578 3.34-2.383 4.994-.247 1.618-1.267 3-1.616 4.618-.283 1.612-1.063 3.057-1.266 4.615-.476 1.892-.355 3.859-.287 5.815.133 3.028.951 5.971 1.627 8.904.286 1.374 1.156 3.043 1.076 4.193.486.984.907 2.816 1.382 4.122.816 2.941 1.718 5.857 2.611 8.776.722 1.558.788 3.309 1.57 4.874 1.126 2.695 2.65 5.263 4.859 7.21 1.434 1.056 2.105 2.862 2.938 4.397.891 1.661.842 2.697 1.648 4.218l.624 2.43-.002 2.63c.441 1.54.473 3.208.33 4.676-.104 1.81.061 3.647.102 5.388-.006 1.719.905 3.416.01 5.079-.053 2.3-2.456 1.618-3.927 1.94-1.221.319-1.832.017-3.197.528-1.664.44-3.264.616-4.95 1.04-1.921.4-3.778 1.116-5.716 1.363-1.825.545-3.576 1.24-5.416 1.745-1.73.477-3.534.584-5.274.967-1.963.74-3.939 1.456-5.973 1.963-1.365.167-2.909.909-4.157 1.745a5.782 5.782 0 0 0-1.521 1.515c-.698 1.012.947 3.572-1.503 3.367-1.58.532-11.157 2.143-12.696 2.819-1.46.344-2.823.718-4.146 1.247-2.033 1.058-4.133 2.012-6.072 3.236-1.387 1.422-.126 3.431 1.322 4.209 1.506.971 3.264.916 4.955 1.127 1.577-.025 3.197-.107 4.774.092 1.081.038 2.988-.28 4.45-.6 1.174-.258 2.297-.71 3.446-1.06 1.045-.318 2.08-.668 3.137-.946 1.432-.375 3.845-2.566 4.335-.97.304.987-.474 4.438.482 5.049z"/><path d="M473.101 454.7c-1.616-.522-2.533.548-3.415 1.672-1.743.564-3.419.757-4.868-.481-1.15-.063-2.612.03-3.186 1.37-1.89 1.075-3.604-1.05-5.388-.248-1.752 1.03-3.896.92-5.82.613-.68.199-3.055-.105-1.815-.993l-.721-3.98c-.162-1.652-.856-3.43-.736-4.984 1.516.303 1.324-3.083-.584-2.698-1.976-.277-2.013-2.928.054-3.17 1.458-.876 3.133-1.13 4.648-1.867 1.413-.768 2.917 1.303 4.42-.084.983-1.826 3.203-1.763 4.963-2.23 1.731-.459 3.34-1.32 5.056-1.784 1.481-.424 3.03-.845 4.546-1.232 1.626-.038 2.975 1.24 4.562 1.483 1.674.834 2.954 2.369 4.552 3.199 1.086 1.33 3.435.978 4.334 2.33-.07 1.896-.266 3.705-1.126 5.461-.82 1.314-1.553 3.71-3.352 3.445-1.576-.436-3.857.72-2.538 2.495-.751.868-2.409 1.826-3.586 1.684zM561.062 365.043c.14 1.737.357 3.388.492 5.102-.036 1.66.232 3.149.056 4.768-.067 1.617-.07 3.271-.333 4.887-.343 2.415-.807 4.814-1.558 7.14l-1.296 3.258-1.894 2.958-1.717 4.495c-1.099 2.302-2.957 4.107-4.592 6.03-1.18 1.111-2.253 2.443-3.516 3.49-1.45 1.65-3.335 2.913-5.014 4.357a73.83 73.83 0 0 1-6.095 4.18c-2.385 1.854-5.113 3.207-7.659 4.826-1.305.669-2.474 1.71-3.86 2.132-1.368.864-2.79 1.849-4.352 2.277-1.233.996-2.911 1.468-4.361 2.209-2.049.985-4.14 1.886-6.174 2.878-2.037.788-3.958 1.905-6.072 2.498-2.133.856-4.033 2.306-6.35 2.658-1.493.978-3.287 1.156-4.94 1.642-1.698.745-3.608.844-5.419 1.011-1.121-.509-3.533.896-2.653-1.291l1.093-3.725.883-2.464.695-2.891c.256-1.5-.049-2.969-.127-4.417-.02-1.727-.044-3.427-.015-5.137-.17-1.294-.295-3.375-.542-4.968.134-1.801-.53-3.58-.99-5.307a29.083 29.083 0 0 0-6.745-11.76c-1.328-1.499-2.173-3.294-2.811-5.18-1.007-2.89-1.766-5.875-2.902-8.715-1.003-3.734-2.245-7.403-3.29-11.124-1.152-2.933-1.594-6.064-2.002-9.167-.178-2.921-.178-5.897.738-8.706.33-1.816 1.072-3.447 1.625-5.162.897-1.75 1.388-3.679 2.352-5.39.64-1.199 1.185-2.834 1.935-3.729.196-1.607 1.455-2.91 2.006-4.442.893-1.636 1.813-3.234 2.56-4.931.962-1.342 1.613-2.607 2.461-3.943 1.141-1.45 1.816-3.21 3.067-4.567.901-1.217 1.484-2.453 2.659-3.39 1.336-.435 2.754-.76 2.76-2.537.522-1.96 2.302-3.215 3.805-4.436 1.239-.634 2.624-2.687 4.005-1.64 1.909.456 3.402-1.168 4.633-2.377.457-1.09-2.322-.376-.749-1.25 1.626-1.052 3.377-1.89 5.278-2.285 1.83-.493 3.71-.5 5.573-.578 1.376.155 2.68-.265 3.635.463-.168 1.929 2.172 2.556 3.535 1.547 1.62-1.181 3.092.925 4.667 1.224 1.84.632 2.104 2.048 2.556 3.717.765 1.342 2.31 2.299 3.055 3.796 1.176.61 2.428.987 3.71 1.362 1.628.384 3.29.453 4.864.203 1.528-.048 2.195 1.82 3.207 2.764 1.35 1.788 2.577 3.675 3.718 5.614 2.01 3.153 4.068 6.283 5.95 9.513 1.538 2.94 3.22 5.838 4.305 8.979.853 1.503 1.317 3.17 1.735 4.815.69 1.299.703 2.413 1.189 4.005.754 3.385 1.907 6.677 2.42 10.118" fill="#f60"/><path d="M529.59 369.584c1.33-1.43 2.838-2.713 4.04-4.252a114.107 114.107 0 0 1 2.367-4.224c.579-1.579.977-3.3 2.228-4.48.328-1.732-2.005-.641-2.79-1.538-2.18-.483-2.622 1.8-3.266 3.287-.426 1.722-1.594 3.152-2.19 4.798-1.03 1.288-2.212 2.636-3.593 3.613-1.622.582-3.412 2.568-5.144 1.849-.702-1.867-1.736-3.607-2.209-5.565-.925-2.424-1.713-4.894-2.453-7.381-.527-1.52-.559-3.168-.8-4.759-.807-1.82.044-3.124 1.02-4.606-.009-1.557-2.32-1.81-3.533-1.586-1.675-.03-.847 2.047-2.164 2.393-.484 1.672.266 3.37.382 5.045.193 1.72.745 3.419 1.315 5.09.688 2.677 1.725 5.24 2.637 7.848.59 1.533 1.739 3.531 1.653 4.94-1.592.233-3.175.484-4.799.404-1.54.163-3.068-.142-4.613.126-1.792-.153-3.678-.12-5.378-.391-1.934-.337-3.88-.514-5.807-.937-1.641-.224-3.135-1.446-4.786-.572-1.74 1.234.724 3.126 2.115 3.18 1.374.097 2.463.458 3.816.854 1.807.08 3.63.418 5.397.873 1.623-.022 3.287.297 4.923.224 1.544.233 3.187-.123 4.784.046.889-.183 3.838-.27 3.577.007l1.121-.493c1.487.18 3.012-.262 4.503-.532a10.117 10.117 0 0 0 4.517-1.528c1.06-.546 2.155-1.042 3.13-1.733zM519.077 332.414c1.556-1.771-.744-2.983-2.391-3.126-1.322-.28-1.292 1.467-2.628 1.491-1.79 1.166-.082 2.986 1.582 2.398 1.059-.16 2.7.056 3.437-.763zM502.52 334.09c1.928-.956.36-2.559-1.23-2.466-1.538-.585-3.92.993-2.074 2.442 1.03.303 2.423 1.187 3.303.025zM479.175 434.891c-.568-.36-2.187-1.043-2.036-1.314 1.273-.217 4.131-1.41 2.874.969-.142.694-.275.913-.838.345z"/><path d="M438.307 451.804c-1.188.723-2.548 1.132-3.854 1.59-1.817.735-3.716 1.087-5.63 1.31-1.499.175-3.046.313-4.525.017-1.198-.24-3.393-.204-3.379-1.427.033-2.885 6.46-2.706 8.05-3.184 2.177-1.075 4.65-1.163 6.946-1.822l4.687-.4 2.035.005c.364.772 1.613 2.202.028 2.332l-.286.09-.27.087-1.581.508z" fill="#f60"/><path d="M531.185 308.952c.053-1.583 2.951-1.71 4.517-1.473 1.256.19 3.141.928 3.111 2.198-.02.89-1.365 1.354-2.252 1.437-1.923.179-5.44-.232-5.376-2.162zM525.298 302.128c-1.308-.676-2.863-1.008-3.937-2.116-1.442-1.235-.56-3.198-.416-4.716.379-2.03 2.793-.382 3.7.551 1.616.888 1.574 3.187 1.533 4.822-.03.436-.135 1.938-.88 1.459z" fill="#c83737"/><path d="M515.08 299.255c-1.208-.301-3.892.626-3.714-1.38-.297-1.68-.27-3.455-.04-5.156.254-1.676.93-3.492 1.505-4.87.653-1.381.986-2.76 1.687-4.039.28-.947 1.264-3.586 1.365-1.247.44 3.36.943 6.722 1.083 10.11.439 1.832-1.54 2.943-1.33 4.778.035.578.754 2.3-.556 1.804zM489.262 309.581c-.244-1.507-.5-2.969-.854-4.48-.757-2.427-1.424-4.89-2.44-7.23-.426-.967-.405-1.966.483-.712 1.362 1.243 2.796 2.424 4.027 3.8 1.656.9 2.768 2.577 3.824 4.1.926 1.563-1.878 2.272-2.757 3.138-.848.278-1.55 1.219-2.283 1.384z" fill="#a40"/><path d="M463.441 365.243c-.86-.31-.263.88 0 0z"/><path d="M596.458 464.793c.616.654 2.259.426 3.152.507 1.33-.487 2.022-2.115 2.615-3.21l1.782-2.202c.225-1.462-.417-3.042-1.293-3.91l-2.018-2.826c-.85-1.244-2.776-.695-4.024-.519-1.92.307-3.885.884-5.254 2.352-1.25 1.235-2.432 2.865-2.577 4.623-.034.41.196.814.417 1.16.238.374.6.657.944.934.904.728 1.83 1.512 2.92 1.895.427.166.817.476 1.29.51" fill="#ff7f2a"/><path d="M603.298 425.283c-1.298.052-2.244 1.31-3.39 1.922-.766.41-1.83.463-2.329 1.175-.662.945-.701 2.322-.41 3.439.258.987 1.19 1.657 1.8 2.475a276.534 276.534 0 0 0 2.285 2.977c1.501 1.42 4.913 4.394 6.546 4.526.595-.052 1.148.718 1.68.313.655-.88 1.542-1.634 1.411-2.91-.114-1.298-.12-2.607-.265-3.902.068-1.292.026-2.614-.356-3.842-.196-.627-.66-1.136-.965-1.718-.367-.702-.474-1.583-1.039-2.139-1.302-1.281-3.142-2.388-4.968-2.316zM568.273 439.761c1.65-.996 1.42-3.218 1.166-4.857-.293-2.04-1.293-4.327-3.416-4.996-1.806-.798-3.856-.673-5.682-.015-1.49.45-2.884 1.334-3.652 2.722-.937 1.37-1.409 3.565.046 4.764.949 1.03 2.32 1.233 3.591 1.597 1.228.767 2.604-.589 3.72.35.96.894 2.654.481 3.921.494a1.81 1.81 0 0 0 .306-.059z" fill="#d45500"/></svg>